<svg xmlns="http://www.w3.org/2000/svg" width="400" height="237"><path d="M393 17l2 1-1 1c-6 2-148 5-281 5L0 25v33h9a4333 4333 0 0071-4 237 237 0 01-22-1l5-1h1l10 1 10-1 8-1 10-1c1-1 1-1-1-1-1 1-2 0-2-3-1-4-3-5-3-1l-1 4-1-2c0-2 0-2-2 1-2 2-3 2-3 1l-1-2-1-2-1 2-3 3v-3l-1 1-1 1h-1l-1 1-1-2c1-2-2-3-3 0 0 2-1 2-3 0h-2c0 3-1 2-2-1l-1-3v-1l-1-1-1 3c0 3-2 7-2 3 0-2 0-2-1-1h-3c-1 2-1 2-1 0l-2-4c-2-1-2-1-2 3 0 3 0 3-1 2-2-2-3-2-5 0-1 1-1 1-1-1s0-3-1-2l-1-1c0-3-2-1-2 2 0 2 0 2-1 1 0-2-3-2-5 0-1 1-1 1-1-2l-1-3v-1l-1-1-3-1-1-2h5l5 1c1 1-1 4-2 3l-1 1c1 2 2 2 4-1v-3c-3-1 0-2 4-1l5-1h6l2 1c3 0 3 0 2-1l-5-2-4-2 9-1h16a6980 6980 0 01275-1c-4 0-5 2-2 5 2 2 3 5 2 5l-3 1-3-2c0-2-1-3-2-3l-1-2h-1l2 3c2 2 0 4-3 3-5-1-5-1-5 1h-1c-1-1-2-1-3 1h-1l-1-2-2 2h-4l-1-1h-2c-2 2-6 3-6 2l-12 1h-14l-2 1c0 2 1 2 5 2 3 1 2 1-3 1s-7 0-5-1c1-1 1-1-1-2-3-1-9 0-9 1l4 1c3 0 3 0 2 1l-5 1-3 1h61a247 247 0 01-38 3h72c-63 3-76 3-79 0h-10c-11 0-12 1-1 1 6 0 7 0 6 1l-8 2h-7l6 1 6 1-6 1c-4 0-6 0-5 1l5 1c4 0 5 0 4 1v6l2-2 1-2v2c-2 9-2 9 0 9 3 1 3 1 2-4-1-4 0-6 4-6 2 0 2 0 1 1s-1 1 2 1 7 2 7 3v2l2 1c2 1 2 1-1 1l-3 1-5 2c-3 0-5 1-5 2h5c2 1 2 1-1 1-4 0-4 2 0 3l3 2h1c-1-1 0-2 1-2l-1 10c-2 9-2 11 1 12 1 1 2 7 0 8l-1-1-2-1c-4 0-3 4 2 5v2l-3 3-1 1-1-1-5-3c-3-1-4-3-2-3 3 0 3-3 1-5-3-3-12-5-11-3 0 2-3 4-5 4h-4c-2 3 0 4 3 3l5-1 2-1 1-1 1-1 1-2 1 1 2 1h2c0 1-3 2-4 1v2c0 3 0 3-2 3l-3 1-4 1c-2 0-3 1-4 3 0 2-3 5-3 3 0-1-1-1-1 1l-1 2v-2c0-2 0-2-1 0-1 3-6 3-7-1 0-3-1-3-3-3l-16-4-2-3-5-10-4-8-6-2-8-1c-1 1-1 1 0 0l-1-1c-3 0-2 3 4 10l9 13 6 7c3 4 4 5 1 5l1 2c2 3 3 8 1 7h-4c-2 0-3-1-5-3-2-3-3-4-5-3s-2 1-4-1l-2-2-3 2-4 2c-3 0-7 4-7 7-1 2-1 2 4 2l22 3c1 0 3 1 3 3 2 2 3 3 9 4l5 2-7-1-5-1c-1 0-3 13-1 14 1 1 19 4 36 5s21 3 25 12 5 13 5 22c0 8-1 10-8 13-6 2-19 10-24 15l-3 5h73l74-1a695 695 0 00-2-64c-1 2-2 3-1 4v9c-13-6-17-10-10-8h4l-3-3-4-3-2-1c-1-3-2-3-6 1-3 3-7 3-7 0l-2-3-2-9v-8l3-4 5-4 3-2 3-2v-2c-3-3-5-7-4-9 0-2-3-15-5-17l-1-5c1-6-1-8-17-11l-4-1c-3-1 2 16 7 27l2 7c-1 2-4 1-5-1-1-5-4-11-5-11l-1-1-3-7-2-5c2-2 1-3-1-3s-2 0-1 3c1 8 2 11 3 10l1 1c-1 1 0 5 2 9 3 8 3 9 6 8 2 0 3 0 5 3 3 3 1 4-4 4l-4 1v8l-1 9 3 1c3 0 4 2 1 4-1 2-3 1-3-1h-1l-1 8-1 8c-1 1-1-5-1-17v-19h-3c-6 0-8 1-8 4s0 3 3 3h2v12l-1 17c-1 9-2 3-2-13 0-14 0-14-2-14s-2 0-1-1v-1c-2 1-2 0-1-3v-3l-8 1-8-1h-1l-7 2-5 1 2 4 1 8 1 4a315 315 0 0014 2c2 0 10 7 10 9s-3 1-3-1c-2-5-18-8-23-3-4 2-7 3-9 0-3-2-2-2 1-5 2-1 3-2 2-5l-1-3h-2c-1-1-2-2-4-1-3 0-3 0-3-2l1-2 1-1c0-2-4-3-5-1l-2 1h-3l-4 1c-3 0-3-1-3-3 0-3-4-3-4 0-2 6 0 13 2 9 2-2 4-1 2 2l-1 3-1 1-2 1c-2 2-5-3-5-7 0-5-1-6-6-7-2 0-6-5-6-6 0-2-4-4-8-4s-8-2-7-3h14l15 1h3l-3-1h-3l-1-1c-1-1 0-1 1-1l1-1v-1h2l2-3 1-2c1 1 2 0 2-1 1-1 1-1 3 1 1 2 7 2 8 0h3c0-2 3-3 6-1 3 1 2 3-1 4l-2 1h2c4 0 3 2-1 2-2 0-3 1-3 2l-4 2c-4 2-6 4-5 5l3-1c3-1 8-1 12 1 2 0 2 0 1-2-3-3-4-4-2-4 2 1 2 0 2-1l2-4c2-1 3-10 3-24 0-8 0-8-2-8l-3-1 3-1c3 0 3 0 3-2 0-3 3-6 8-7 3 0 4-1 4-3l-1-2-5-3c-4-3-4-3-2-5l1-6c0-4 0-4 3-4h7a795 795 0 0180-1c4-1 6 1 6 6l1-23-1-29h-7M212 55a518 518 0 0046 0l4-1-50 1m-99 1c1 2 1 2-1 2a7645 7645 0 006 2c1 1 0 1-1 1-2 0-3 0-2 1 0 2 4 1 4 0h3l2 1c1-1-5-6-7-7l-3-1c-2 0-2 0-1 1m71 3c-35 1-38 1-37 3a1412 1412 0 0037-3M49 62L1 63v12l-1 4 1 3 2-2 1-2v5l1-3c2-4 2-4 3-2h2l4-2c3 0 3 0 1-1s-2-1 0-1h4a1280 1280 0 0175-3c6 0 16-1 14-2H88l-44 1H20l29-1c42-1 57-2 57-3l-13-1a1734 1734 0 01-43 0c49-1 64-2 63-3l-8-1-56 1m184 0a2061 2061 0 01-45 3l-23 2-22 1c-1 1 6 1 20 1 21-1 22-1 21 1v8l1 2 2-2 1-4c0-3 5-4 11-3l6 1v6c1 3 1 3 2 2 3-5-4-16-8-15l-5 2c-3 0-3 0-2-1a321 321 0 0155-4h-14m99 8c-3 4-5 8-3 8l1-2c1-3 6-6 12-5 4 0 4 1 5 5 1 5 2 6 4 4 3-2 1-10-2-10l-3-1c-1-1-3-2-7-2s-5 0-7 3M21 89h-2l-4-1c-4 0-7 3-8 7l-3 4c-1 2-1 12 2 16 1 3 0 5-4 9-2 2-2 3-2 25l1 51v29h3l6 4 4 4h200l-5-5a130 130 0 01-18-24l-5-7c-1-4-2-5-5-6-3 0-4-1-4-4l-3-3-2-1h2c3 0 3-2 2-9v-6l1-1c0-4 11-8 24-8l9-1 1-2-2-2c-2-1-2-2-2-5v-4h-4l-22 3h-9l-1-2v-4l-4-1c-4 0-7-4-5-6h6l6 1c6 0 6 0 6-2s1-3 5-3c3 0 4 0 3-3l1-5 1-5c1-3 4-4 3-1 0 3 3 3 5 2s3-2 4-1c4 4-9-19-15-27-4-5-6-4-11 2l-5 3c-3 0-4 0-5 4-2 9-3 16-1 18l2 1 1 1c0 2-11 2-13-1-1-1-10-2-10 0v1h-1c0-1-1-2-3-2-3 0-5 1-5 3v3l-1-1-3-2-4-1c-2 0-2 0-2 2 0 4-2 5-4 2-2-2-1-3 2-3 3-1 3-3-1-3h-6c-4-1-6 1-5 8 0 4-1 6-2 6v4c2 1 1 2-1 2l-3 1h-2l1-3c2-2 1-3-1-3l-3 2c0 3-2 3-2 0l2-2c3-1 3-3 0-4-2 0-2-1-2-2l1-2-6 2c-4 2-5 2-5 1l-3-3c-5-1-5 1-1 5 3 3 3 5-1 4l-3 1-2 3-1-3-1-4v-3l3-8c1-6 5-11 9-13l3-2-4-4-5-5c-1 0-2 3-1 4s0 1-2 1c-5 0-12 6-15 13-2 3-3 15-1 21 1 5 1 5 11 8 4 1 4 2-1 2-4 0-10 4-13 8-2 3-3 10-3 20v5l5 1c7 0 9 0 9 2h-6c-5 0-6 0-9 3l-6 4-8 2-9 2-4 1-3 1c-2 0-3 2-5 4-2 4-6 7-9 5-2 0-3-5 0-6 2-1 1-12-2-13-2 0-2-1-1-1s1-7-1-8c-2-2-1-4 1-4s2-1 2-14c0-12 0-15 2-16 1-2 8-4 12-4l3-1c0-2-16-20-19-21-3 0-2-2 0-2l6-1c3-1 3-1 5 1 5 7 6 7 9 6 5-1 5 0-6-10-2-2-3-7 0-8v5h1c0-1 1-2 3-2l2-2 4-6 3-3-3-3c-7-7-11-8-13-5m69-1l-1 2-2 1-3 1c-2-1-2-1-1 7l11-1h2l1 1v-2l-1-5v-4h-3l-1 1-1-1h-1m242 4l-4 2c-8 2-13 6-14 10-2 7-5 11-13 18-2 2-3 8 0 10l2 3c1 2 1 1 1-3-1-5 0-6 1-6l2-2c1-1 1-1 3 1l3 2 14-1c4 0 7 2 7 5l2 3c2 1 4-2 4-5a251 251 0 00-7-35v-2h-1m-179 38l-2 2-2 1c-2-1-3 0-2 3 1 2 0 3-1 1-2-2-4-1-3 1l-1 1c-2-1-2 0-2 1 0 2 0 3 3 2l3 1v1l1 1c0 1-10 1-13-1h-5l-8 3c-7 2-10 7-8 14l1 8c1 4 3 6 6 4 2-2 16-9 17-8l1 2 2 5c2 4 1 5-7 8l-9 4c-3 1-4 1-5-1-2-2-2-2-3-1-3 2-4-2-3-7l-1-3-4-7-6-10c-3-4-3-8 0-3 3 2 3 2 4 1v-4l-2-2h-1c-1 1-3 1-6-1l-2-2 2 1c2 0 2 0 1-2l-1-6v-4l-4 1c-4 0-6 2-4 3l5 5c-3 0-2 1 1 4s3 4-2 2c-3-1-7-1-7 1l4 3c9 6 10 19 3 28l-2 6-4 12c-2 2-1 4 2 5h3l4-1c3 0 6-1 9-5 1-1 4-3 7-3l4-4c1-3 15-3 22 0 5 2 15 2 17 1v-8l-2-14c-1-8-3-16-5-17s-1-2 3-2c3-1 13 4 13 6 1 1 1-3 1-4l1-2c2-1-5-3-9-3l-3-1-3-3c-4-1-5-1-1-1 8 0 9-1 9-6 0-6-2-7-6-6m58 19c-2 1-2 5 0 6 2 0 2 1 2 5 0 3 0 4 2 5 3 0 3 1 3-9l1-8h-3l-5 1m132 31c0 3 0 3-4 3h-3l-1 7-1 12v7c1 3-2 4-5 2-2-1-3-1-6 1-6 2-6 4-2 7h12c1 1 3 0 4-1 2-3 3-3 4-1 1 1 3 2 3 0v-1l1-1 1-2 1-2 1-1c1 1 1 0 1-1l4-1h5v-2h3l3-1a1281 1281 0 0028 1h8v-15l-7-1-13-2-31-4c-4-1-5-2-5-4l-1-2v2" fill="#d3d3d3" fill-rule="evenodd"/></svg>