<svg xmlns="http://www.w3.org/2000/svg" width="400" height="267"><path d="M92 2c3 11 8 59 10 84 1 14 1 16 4 16 5 0-2 9-14 17l-15 12-5 5v6a1628 1628 0 012 39c3 7 3 9 0 10l-2 2c4-1 6 5 6 14-1 10-2 14-3 14-3 0-10 12-10 16l-1 1v1l-1 1v1l-1 3-1 3-1 3-1 3c0 3-1 4-2 2v-6l-1-11-1-16c-1-10-2-1-2 18 1 19 1 23 3 26h1c0-2 0-2 1-1 1 2 3 2 9 2h7v-4l1-7 2-9c1-8 3-9 15-9l12 1c2 1 6 19 6 24-1 4 2 6 4 3l1-2 1 2c0 2 8 2 9-1l2-2-3-2c-6-2-4-2 13-4l15-2a243 243 0 0138-7l10 3 10 2 3-3c2-2 4-3 7-3 4 0 5 1 4 6 0 3 0 4 2 4 4 1 4 1 5-3 2-9 2-10-3-12l-7-3c-2-1-2-1 0-1s2 0 2-16v-16l2 1 3 1 2 19c0 4-2 1-2-5-2-9-3-6-3 4v11h3l4-1 3-1 6-2c3-2 4-3 7-2 2 0 3 0 4-2l2-3c2-2 1-4-1-3l-2-1-7-1c-6-1-9 0-7 3l-1 2c-2 0-2 0-1 2s1 2-1 2c-1 0-2-1-2-4v-3l-1-14 2 2c3 2 6 1 6-1 0-3 2-4 7-4 7 0 9 1 10 7l1 7v11l17-4c3-2 3-2 6-1l10 3h7l1-4c0-5 2-7 2-3 1 2 5 3 7 0h4c2 2 6 3 8 1l1-6 1-6h-15l-3 4c-2 7-2 6-2-1l1-7 3-1c7-2 18 0 20 3 1 1 2 0 2-2 2-4 2-4 13-1 8 2 7 6-1 8-5 1-5 2-5 4l-1 2c-3 0-5 3-6 8s-1 5 2 6l8 2 5 1-1 6c0 5 0 6 2 9l3 2-3 2c-3 3-11 4-21 4-5 0-8 0-7 1l2 1c2 0 2 0 1 2-2 2 0 1 11-1l13-2 5 1-6 1-11 3 32 1h39v-95l-1-133V0h-43v10c0 12 1 14 8 17 2 1 2 1 0 1s-3 1-1 3v1l-5-4c-2-2-4-3-7-3-5-1-5 2 1 4 7 1 8 2 2 1l-5 1-3 2c-1 0-2 0-1-1 0-2-2-3-2-1-2 2-4 1-4-1l-2-1c-2 0-2 0-1-1 3-4-1-2-6 2l-3 5c2 1 2 0 3-2s3-3 3-1h2c1-2 1-2 2-1 2 2 1 3-6 7-5 3-15 13-15 15l-10 6c-5 1-7 4-3 3h3c-1 1-2 2-5 2l-4 1 9 1c5 0 6 1 3 4l-1 3-3 2-2-1c0-2-1-2-3-2-4 0-4 0-4 4l1 6v3c-1 2-1 5 1 9 2 7 0 10-10 14-19 9-20 11-22 39-2 21-3 22-8 22l-2 1h3c3 0 3 0 3 4v4l-3-2-3-5c0-1-3-4-7-4-4-1-20-17-22-22l-3-5-1-7c-1-7-7-15-16-20-15-7-18-8-18-6-2 3-5 5-10 5h-5l-1-1c-1 1-4-1-3-2l-1-1s-2-1-2-3c-2-4-4-4-4 0 0 3-2 2-3-3-1-3-2-4-5-4s-6-3-6-5v-2l-1-1-1-2 1-10-1-1c-2 0-2-1-2-3l1-6 1-4 1-2 1-1c2 0 2-7 1-8l-1-7c-1-7-1-7 1-9 3-2 10-4 9-2l7-1 5-1 7-2h6l-2-5c0-3-5-5-5-3h-1l-1-1c-4 0-6-2-4-5h5c4 2 4 2 4-7 1-6 0-7-1-7-2 0-5 4-4 6 0 2 0 2-3 1-5-2-8-2-8-1v1l-2-1c1-3-11-3-16-1l-6 1c-4 0-4 0-4-5V0H92v2m172 6l1 8c2 0 6 8 6 10 0 4 2 5 11 5 9 1 9 0 9-11 0-7 0-7-3-9-4-3-5-6-3-9 1-2 1-2-9-2h-11l-1 8m105 25l1 2c1 1 1 1-2 1h-3l5 1 4 1 2 3c3 2 3 5 1 14a164 164 0 00-1 39c0-2-1-2-1-1v2l1 2c-2 1 1 4 3 4 4 0 7-4 7-6-2-7-2-9 0-11l2-4c0-9 1-11 2-12 2-1 2-5 0-7-2-1-5-7-9-14l-7-13c-1-2-5-3-5-1m-17 15c-3 3-4 5-4 7l-1 4c-3 2-2 4 1 5l4 1h-4c-4 0-4 0-5 5v1c2-2 2-2 2 0 0 1 0 2 2 1 2 0 3-1 2-2l3-1c5 1 6 1 4 5s-15 6-16 2c0-7 0-7-2-4l-2 1c-2 0-7 10-7 14v4l5-5c4-5 4-5 5-2v18c2 3 9 9 11 9l3 1h7c4-3 9-12 12-21 2-10 2-18 0-15l-3 1-2 1c-1 2-5 0-6-3s0-4 3-6h4v3c5 3 7-6 3-15-1-6-5-9-11-11l-4-2-4 4M123 65c-2 1-1 7 1 11l1 5c-2 0-2 1-2 4 0 5 3 6 5 2 2-2 2-2 6 0 5 2 7 0 6-4v-2l2 2c1 2 1 2 1-2l-3-6c-4-3-6 0-2 3 2 3 1 4-4 2-4-1-4-1-4-5 0-3 0-3 2-3 5 0 5 0 3-2-4-5-10-7-12-5m220 29c-1 2 4 9 7 10 2 1 10-1 9-2l1-1c2 0 5-3 5-5 0-1-3 0-5 2-2 1-2 1-1-2 1-2 0-3-2-1-2 1-11 1-12-1h-2m-212 1l10 21a246 246 0 0124 48c1-1-3-21-4-21l-1-1 1-1c2 0 2 0 1-2l-2-1-2-1c-1-2 7-15 9-15l3-1-1-1c-4 2-26-12-33-20l-5-5m41 22c-2 2-2 3 0 4 2 2 2 3 2 9 0 16 1 21 6 31 4 9 5 17 3 21l-7 5c-7 5-8 7-5 23l2 12h5l4 1h-1l-1 2v3c-2 1 0 2 4 2 6 0 8-1 8-7 1-7 3-7 3 0l5 20 1-4 2-3c1 2-2 8-5 9-2 1-2 1 0 2l3-1 5-2c3-1 3-1 3-4l-2-9c-1-5-4-18-7-25-1-2 0-2 6-2 9-1 26-6 31-8 7-5 10-8 9-10s-3-2-11 0c-2 0-2 0-1-1 2-2 2-2 1-4-1-4-5-4-16-1-9 3-10 2-2-2 5-4 6-5 3-7-2-3-6-2-12 1l-6 1c0-1-2-4-5-6l-4-6c0-3-6-8-8-8s-3-1-6-9c-4-10-4-10-3-19l-1-10-3 2M1 201l1 66 8-2 8-1v-5l2-8 4-11c2-9 5-16 5-13l-3 10c-2 8-3 24-2 26 1 1 5-3 6-7l2-13 2-14v-11l-1-4-1 6-2 5v-6c1-7 0-15-3-19-2-3-2-4-1-6 1-3 0-19-2-26l-1-6-6-16c-1-2-14-11-15-11l-1 66m362-54l-12 3c-7 1-16 7-19 11-3 5-13 11-14 10s-8 1-11 4c-4 4-3 15 2 22l4 5 8-1 10-1c2-1 2-1 0-4s-4-4-4-2l-3 3c-4 1-4 1-7-1l-1-2-2-4-3-7c-1-3 1-10 2-10l3-1v1l-1 2 1 2c-2 6 4 15 8 13l8-2h1l4-1h4l4-2c3-2 5-3 8-10l6-11c1-3 1-3-1-4-1-2-1-2 1-3l11-8c3-2 3-2 2-4-2-1-1-1-9 2M37 240l-3 18 5 1c5 1 6 0 3-3l-1-5-1-9-2-6-1 4m225 15v7l2 5h23c12 0 21 0 20-1l-7-2-4-2-5-2-17-4-12-1" fill="#d3d3d3" fill-rule="evenodd"/></svg>