<svg xmlns="http://www.w3.org/2000/svg" width="400" height="245"><path d="M78 2l1 3v1l-2 1 2 2v1l-2 1 2 1v1c-2 0-2 6 0 6v1c-2 1-1 3 1 3s2 0 2 7l1 7v21l1 4v8l-1 3 1 3v1l-1 3 1 3v7c2 0 2 1 1 1l-1 3 1 3v1l-3 1h-2c0 2 0 2-1 1h-4c0-2-2-1-1 1v3l1-1h5l2 1 1-1h1l1 2v4c-2 0-1 2 1 2v1l-2 1 2 2v1l-2 1 2 1v1c-2 1-2 1-1 3v2c2 2 2 2 0 2v3c2 0 2 1 1 1l-1 1 2 1h1l-1 1-2 2 1 1v4l-1 1 1 2v1c-2 0-1 2 1 2v1c-2 0-3 3-1 3l-1 2h-1l-1-1-1 2-7 1h-7v15a366 366 0 01-7 65c-2 5-2 5-2-11a623 623 0 00-1 7v15h139v-3l-2-9v-6h5l6-1 2-1h1a1780 1780 0 0143 0l3-5c0-6 3-6 3 0l1 4 1-3c0-6 1-8 4-8h3c0-1 1-1 1 1 1 1 1 1 1-1l1-4c0-2-1-2-11-2l-76 3h-6v-7c0-7-1-10-2-7-1 1-1 1-1-1l1-3 1-1c-1-6 0-7 5-7l4-1v-1l1 1h18c16 0 18 0 18-2l-2-16c-4-21-7-49-5-49l4 3c3 3 6 3 11 3 3 0 10-7 10-10a379 379 0 01-3 67v-10c-1-13-2-20-5-30-2-6-2-7-1-9s3-3 4-2c1 0 1-1-1-2-4-4-11-2-10 3v54l11-1c8 0 12-1 15-2h4c3 2 33 1 34-1v-7c-1-2 0-2 15-2a1043 1043 0 00-17-2l3-1c2-1 2-1-1-1s-3-1-3-6l-1-1-1-4-2-9-5-17c-1-7-1-8-5-9l-8-2c-16-3-28-9-17-9 4 0 4 0 4-2s0-2-1-1c0 1-1 2-3 2-3 0-4 0-3-3v-2l-2 3-3 3-2 3c-1 2-1 3-4 3-6 0-8-2-3-4 3 0 3 0 1-2-1-1-1-1 2-1l4-1h-5c-3 0-4 0-3-1l1-2 3-2h-4v-6c0-7-1-8-7-8-2 0-3 0-2-1v-7l-1-5c0-3 2-4 11-4l4-1c1-2 4 1 6 4s3 15 2 15h-1c0-1-3-2-6-1-4 0-4 4-1 7h2l4-2 3-2 1 1 1 3v-3c0-3 0-3 3-3 2 0 2 0 0-1-1-1-2-2-2-8-1-9-3-11-8-13-7-4-10-4-15-3-6 1-13 7-13 11l-1 8c-1 7 0 8 3 18 3 7 3 8 1 10-2 3-18 10-19 9a1784 1784 0 01-4-119l-55-1H78v2m204 28a705 705 0 0015 1 817 817 0 00-15-1m108 199l-1 9v7h6c6 0 5 1 5-10 0-7 1-7-5-7-3-1-4-1-5 1" fill="#d3d3d3" fill-rule="evenodd"/></svg>