<svg xmlns="http://www.w3.org/2000/svg" width="400" height="267"><path d="M0 9v10l12-1h12l3 11 4 13c0 2-1 2-12 2L3 45H0v35c0 31 0 35 2 35 1 1 1 1 1-1-1-2 0-3 4-2l6 1 2 1 2 2c2 0 2 0-1 1l-8 1c-9 0-8-2-8 15 0 14 1 16 3 12 2-3 3-2 6 3l3 5 17-5 15-4 4-7 5-6 4-3 5-4c2-1 3-2 3-4 0-4-1-4-4-4h-3l2-3 2-3-12-33-11-34 2-3c3-4 3-4 6 1 4 5 4 2-3-21-5-17-6-20-8-20s-2 0-1 5c0 6 0 6-4-1l-1-3-15-1H0v9m47-8a323 323 0 0019 60 9113 9113 0 0021 78l1 3-44 22C6 183 0 186 0 188c0 3-1 3 17-6 17-9 20-9 18-4l-2 4-1 2-1 2-1 1-1 2-2 3-4 5-6 5-2 1-3 2-4 5c-5 8-5 8-6 6-2-1-2 1-2 25l1 26 10-20a66082 66082 0 0136-78h-2a357 357 0 0131-15l-7 3-3 8c-3 8-5 10-4 6v-2l-1-2c-1-3-5-3-6 0l-2 2-4 7-42 87-2 4h18l1-3 2-2c1 1 2 0 3-3l2-2c0 3-2 6-4 8s-2 2 15 2h18l2-6 2-6 3 2 2 1v-3l-1-3 2 2 2 2 1-2 5-13 2-8 2-5 2 4c1 2 3 3 3 2a62 62 0 005-20l1-9-1-2-1-3-1-3-6-20c-7-22-7-21-3-21 3 0 3 1 5 5l1 2c-1-6-1-14 1-15 2 0 9 19 20 54 1 5 3 9 4 9l7 10v3c1 3 0 4-4 4l-2 1h-1l-3 1h-2l-2-2c-1 0-2 0-1 2l-2 1c-2-1-2 0-4 7l-2 8 7 1 7 1H87l-2 10-3 9h106c101 0 106 0 106-2l-3-8c-2-9-4-9-7-2l-2 4-5-16c-4-18-4-17 2-25 2-3 4-4 7-4 5-2 10-5 13-13l6-10 2-4 3 6 3 7 1-3 3-6c2-5 4-3 11 11l7 12c0-1 1-2 4-2l2-2 1-1c1 1 1 0 1-1 0-6 2-11 5-12 2 0 2-1 2-2l-1-4 3 3c1 2 5 0 5-3l15 23 15 26c1 2 2 1 7-5l6-6v12c0 10 0 12-2 14s-3 3 0 3c1 1 2 2 2 5l1 4v-42l-1-134V0h-48l-1 3c-1 3-4 5-8 5l-3 1c-1 1-2-1-1-3 2-6 2-6-5-6l-6 1-4 12c-2 8-4 13-5 13-2 0-10 6-16 10-5 5-8 11-7 14l1 7c0 5 2 4 2-3 0-3 1-4 5-4v1l2 1 10-3h1l2-1-1 2c-1 1-1 1 1 1 3 1 0 7-3 7-2 0-2 0-1 1 3 2 6 1 10-3 4-3 6-2 6 3 0 2 0 3-2 4-3 1-1 5 2 4 2 0 1 2-3 10-5 10-7 14-11 16-2 1-2 1 0 1l4-1 5-4 4-2-20 22a2196 2196 0 00-36 38l3-8 4-10 7-16a77 77 0 008-21c2-3 2-5 1-9 0-5-2-6-11-6-6 0-7 0-10 4l-4 2-2-5-2-3-2 5c-1 5-1 6 1 8 2 4 1 7-7 17l-6 10-2 5c-4 3-5 7-5 18 1 10 1 10-6 19l-4 5c-1 1-1 0-2-6l-2-8-4-9c-1-2 0-4 2-6l5-8a112 112 0 00-4-58v-3l-1 3c0 2-1 3-2 2l-6-23c-1-3-1-4-5-4-5 0-5-1-6-4-1-4-2-5-5-6-4-2-7-2-7-1l1 1c3 0 9 14 7 16l-1-1-2-2h-2l2 2c2 1 2 1 1 3v1c2-1 2 0 2 7 0 9-1 11-4 8-2-1-2-1-2 1l-1 4c-1 2 1 5 3 4l2-1 2-2 2-2v2c0 2 0 2 1 0l2-3v4c1 9 2 8-4 8-5-1-5-1-5 1l-1 2-1 1-4 7c-2 0-6-5-6-7 0-4-3-7-6-7l-3 1 2-5c2-5 2-7 0-16l-1-9c0-2-2-2-13-2-12 0-12 0-4 1 7 1 7 1 2 1a126 126 0 00-13 1h-5v5c0 5 0 6-1 5-2 0-2 1-2 5 0 7-2 1-2-8l-1-7-1-2c1-1-1-1-10-1-12 0-22-2-17-3 1-1-8-1-20-1l-22 1-4-12c-3-13-4-18-2-18l25-1c31-1 33-1 33-5l-2-2c-1 0-2-1-2-3V1L85 0 47 1m85 4c0 8 1 9 2 7l3-1c2 0 2 0 1-1-2 0-1-1 3-2l6-2h3l1-3V0h-20l1 5m22-2c0 2 1 3 3 3 6 0 14 2 13 3a365 365 0 0044 2l11 1c12 0 12 0 14-8V0h-85v3m137-2l-2 3-2 2c-1-1-3 8-2 10l-7 1c-7 0-8 0-8 2h-2l11 17 12 17 2-4 2-12 2-8-3-3c-4-3-5-5-4-9 0-3 0-3 6-3h5l1-5 2-7c0-2-9-3-13-1M133 103c-25 14-27 16-25 16l12-7a210 210 0 0141-22c2-4-5-1-28 13m40 5c-5 5 0 13 9 15 7 0 8 1 8 3 2 5 6-2 6-10 0-3-3-3-4-1s-3 3-3 1c1-2 0-2-2-3-1 0-4-1-5-3l-7-4-2 2m43 2c-10 5-10 5-1 6h10l2-2 1-2c0-2-1-3-2-3s-2 0-1-1c1-3-2-2-9 2M61 143l-9 4-6 3v1l-1 8 6-3c5-2 6-3 8-8l2-5m-29 8l-10 2-9 3 4 7 4 7 6-3c5-2 6-3 9-9l4-7-9 3-9 2 6-3c7-2 9-3 6-3l-2 1m223 4c-3 3-3 4-3 9 0 2 1 3 2 1v-5l3 6c3 5 3 7 2 9-1 3 0 5 1 3 2-2 3-1 2 1 0 2 0 3 2 4l4 2c3 2 11 3 13 1l2-1h4l1-1v-1l2-8c0-7 0-7-2-7l-2-1c0-1-8-5-13-5-5-1-7-2-6-5 1-5-8-6-12-2M48 215a1567 1567 0 00-17 37c0-2-1-2-1-1l1 3 2 1h1l1-2v-1c1 1 7-13 7-15-1-1 0-2 1-2l4-6 4-9c2-2 2-3 1-5-2-4-2-4-4 0" fill="#d3d3d3" fill-rule="evenodd"/></svg>