<svg xmlns="http://www.w3.org/2000/svg" width="400" height="266"><path d="M105 8l1 9h10l12 1c2 1 3-7 2-14l-1-4h-24v8m24 15c-1 22 0 25 8 24 10-1 9 0 9-12V25l-3-1-8-2c-6-1-6-1-6 1M95 36c-2 1-3 3 0 3 2 0 1 0-2 6-2 4-2 7 1 7 2 0 4-2 4-5 0-9 8-9 15 0 2 3 10 2 10-1 0-4-3-9-6-10H95M5 46l-1 6-3 6c-2 2-2 15 1 19 2 3 3 3 4-3 1-4 4-6 6-3l2 4c-1 2 1 6 3 5l1-3 2-2 1-2 2-2 1-3-2-5c-1-8-4-16-6-17-6-2-11-2-11 0m98 2v2l-2 2c-4 1-10 7-10 10 0 5-1 6-4 6s-4 1-4 3c0 3-2 5-9 9v3c3 3 3 4 1 4l-1 2c0 3 0 3-5 3-6 0-6 0-6 3 0 2 3 3 5 1s3 2 2 5v5c2 2 0 5-3 4l-1-4c1-1 0-2-1-3-1-2-10-1-11 1 0 2-4 3-10 2l-7 1c-1 1-1 1 2 1 6 0 6 1 3 6-3 6-2 6 20 5 21 0 25 0 27 4 1 4 5 4 6 1s9-7 10-6c2 1 1 3-2 4-2 0-4 2-5 4-3 4-9 6-16 6-4 0-5 0-5 2s2 2 12 2c6 0 6 0 7 3 2 3 2 4-1 5l-4 2-5 3-4 3 13-2c18-2 18-2 20 3 2 4 3 4 8 4 2 0 2 0 1 1l-1 2-1 2-4 2-3 2-4 3-2 1c0 1 1 1 8-2 9-3 12-6 12-9-1-2-1-2 4-1 4 1 4 1 3 4l-1 3v8l4-4 4-4-2-2-2-2 10 1c3 1 10 0 11-2l6-1-3 2-3 2h14l11 3h5l-3 6c-3 5-3 7-3 9 1 3 1 3-1 2l-1-4c0-2 0-2-1-1 0 3-8 2-13-1-3-2-6-2-6 2l-1 3v2c1 2 4 0 3-2 0-3 5-2 9 2l3 3h-2l-7 2c-6 0-6 2 0 1 5 0 6 2 0 3l-33-2h-5l-9 1-21 1c-20 1-14 3 12 3a963 963 0 0065 0c3 4 2 5-7 6l-8 4c-5 4-4 6 1 2 4-4 7-5 6-3v1c2 1-2 5-8 8l-9 5c-5 3-8 4-6 2 0-1-1-1-5 1l-6 3c-4 2-8 6-7 6l6 1c6 0 24-7 25-10l2-3 6-3 6-3c7 1 4 3-11 11-10 5-13 7-11 7l4-1-4 3-4 5c0 2-11 4-16 3-5 0-7 1-6 3l2 3 4 3c1 2 2 2 3 1 2-1 14-2 16-1h10l23-1c6 0 8-1 7-5-2-4-4-6-6-6-4 0-2-2 1-2 5 0 12 5 15 10l3 4h13c12-1 13-1 13 1l3 4c3 3 3 3 1 5-3 6 2 8 8 4l3-2 2 2c2 2 8 3 7 1v-1h1c0 2 7 2 74 2h73V90l-7-2c-7-2-12-2-23-2-9 0-30 3-36 5l-14 8-5 1c-11 0-26 5-29 10-1 2-2 8-1 12 1 2 0 3-2 6l-3 5-1 3c-2 2-2 1-1-6 1-4 1-4-3-8-8-8-12-10-15-10-3 1-5 0-2-2 3-3 4-6 2-8l-1-2v-3l1-1h-1l-1-2c0-10-4-16-17-25-6-4-15-5-22-2l-12 5 1-1c0-3-2-2-5 0l-2 3c0 1-3 3-6 3l-4 1c-1 2 2 4 5 3 2 0 2 0 1 1l-2 4c0 2 0 2-1 1-1-3-3-2-3 0l-2 4v-1c1-6 0-15-3-17l-2-6c-1-5-1-6-3-4h-13l2 3 3 4 3 5 4 4 1 5-1 5 5 3 5 4 3 1 2 1c0 3 2 1 2-2l1-4c2-1 2-4 1-4-2 1-2 0-2-1 0-2 2-3 3-2l2-1c1-2 3-2 8-3h6l-1 3 1 3c3 0-2 6-6 8l-2 1-3 1c-5 2-7 5-2 5l2 1c0 1-1 2-3 1-3 0-3 0-4 4l-3 7c-1 2-1 2-1-2s-1-6-4-9l-3-5-3-4-3-3-3 4-9 15c-5 9-5 10-7 9l-2-3c0-3 2-5 13-19l3-5-3 1c-6 1-10-1-12-5-1-4-3-6-3-3 0 2 0 2-1 0-1-3-3-4-5-1-1 3-1 4 1 3v8c2 1 2 1 3-2 2-3 2-3 2-1l-1 4-1 5 1 6h-4c-3 0-3 0-3 3 0 2 0 3-2 3s-5-3-5-6l-2-3c-3 0-4-1-2-2 2-2 1-4-1-3-3 0-3 0-3-3 0-5 2-7 4-6h2c1-3-6-5-10-3l-3 1c-2-1-2 0-3 3-1 4-1 4-6 4l-6 1c-2 3-4-2-4-7v-7c-1-3 2-4 4-2 1 3 9 4 9 1-1-1 0-1 3-2 6-2 9-5 12-9l3-6c1-2-1-8-4-11-3-2-15-2-19 0l-4 2c-1 0-5 4-5 6-1 2-3 3-3 1l4-7c3-2 1-5-2-5-2 0-2-1-2-2 0-2-1-3-2-1m115 8c-1 2 3 9 4 7h1l6 1c7 0 7 0 3-5-6-5-12-7-14-3m-103 6c-9 6-10 17-1 13l6-2c5 0 6 0 5-8-2-7-3-8-10-3M21 80c-4 2-6 6-6 8 1 1 2 2 8 1l6 1c0 3 0 2 5-1l4-2h-4c-3 1-8-3-6-5l-1-1-1-1c0-2-1-2-5 0m108 27l-3 3-5 1c-4 0-4 0-4 3 0 9 10 12 16 5 4-5 6-5 10-1 3 4 4 4 4 0-1-3-4-6-10-10-5-2-6-2-8-1m200 0c-3 0-5 2-6 3l-9 18c0 3 2 5 4 4h11v-6l1-1c-1-1 2-3 3-2l4-1c2-2 3-1 3 2 1 7 12 3 12-4l2-4 2-3-3-3-6-2c-4 1-7 0-12-1h-6m-134 14c-2 2-2 2-1 5s1 3-1 6l-3 6c0 6 0 11 2 14l1 7c0 4 0 4 5 1 3-1 4-2 3-3-2 0-2-1-1-2 1-2-2-19-3-20v-2c0-1 1-2 3-1 4 1 5-1 3-8-2-5-5-7-8-3m119 18c0 2 0 4-5 8-7 8-7 12 0 5 4-4 4-4 7-2 2 2 3 3 4 11l2 14c0 5 1 5 3 2l1-4c-1-1 0-2 1-4v-2c-1-1 1-7 2-7l1-2c0-2 0-3 3-3 4-1 6-2 6-4h-9c-1-1-4-3-7-3-4-1-5-2-5-5 0-4-2-7-4-7v3m-253 3c-2 1-3 2-7 2l-5 1h12c4-1 7 1 6 4l3 1 5 1c1 2 3 1 10-3 7-5 8-7 4-8-5-2-12 0-13 6-1 3-3 3-3 0l-1-2-1 2v2l-2-2c-1-8-3-9-8-4m-47 5c-2 1-1 3 0 3 2-1 2 12 0 13-1 1 0 7 2 7 4 2 7-2 4-5l-1-8-1-8-1-1h-1l-2-1m36 9l-8 3 1 1 5-1c3-1 3-1 3 2-1 4 1 5 6 2l4-3 2-2 1-2H50m-17 21c-1 1-2 2-1 3h-2c-2 0-3 0-3 2a74 74 0 01-1 6h-1l-1-4c1-1 1-2-1-1-2 0-4 2-2 2l1 5c-1 6 1 10 3 5l1-2v3c1 4 3 5 9 3 2 0 3-7 1-9l-1-4c1-2 1-3-1-3-1 0-1-1 1-3 3-4 2-5-2-3m24 41h-2c-3-1-4 2-4 10 0 12-1 13-9 13l-7 1c0 1 5 2 9 1h4l-1 6-2 11-1 6h5c5 0 5 0 5-3l-2-4 1-2v-1l1-1v-5c-2-1 0-9 2-10 2 0 3-4 1-4l-1-1 2-2 1-5c-1-5 0-7 3-6l1-1-3-1-1-1-1-2-1 1m-43 5c-3 5-4 6-2 8l-1 2c-3 3-4 6-4 9 0 2 0 2-1 1l-2 1c-3 3-4 9-2 11v1l-1 5 1 4 2-3v-5c-1 0-1-1 1-1 1-1 2-1 8 1s7 2 8 0c3-2 3-3-9-6l-4-2c0-1 2-1 9 1l7 1-11-5c-5 0-5-4 0-12h2c1 2 2 2 3 1l4-1 3-1-2-4c-1-3-1-3 2-6 3-2 1-3-2 0-3 2-4 3-3 1l-1-4c-2-2-2-2-5 3m50 12l-1 5-1 4-2 3-1 5-2 8-1 6h6c9 0 11-2 11-9l-2-6-1-3-2-4v-7c0-4 0-4-2-4l-2 2m46 27c-2 4-2 4 14 4 13 0 15 0 14-2h-2v-1h-1v-2h-4c-1 3-19 3-19 1s-2-2-2 0" fill="#d3d3d3" fill-rule="evenodd"/></svg>