<svg xmlns="http://www.w3.org/2000/svg" width="400" height="267"><path d="M0 117v116l2-1c3-1 4-2 4-8-1-5-1-5 3-6l3-3 2-2 1-1c0-2 9-6 12-6l1-1c1-1 2-2 5-2s4 0 3-1l-5-1-10-1c-8 1-8 1-7-1s5-4 17-5l13-3c3-1 4 0 2 2v1l2-2 6-1h6c2-1-4-6-6-6l-5 1-3 2-1 1c0-2-3-5-4-3h-3l-1-1v1l-1 1c-3-1-2-4 2-4 4-1 7-3 19-12 12-10 14-11 23-13a53 53 0 0015-8l4-1h-4c-3 1-6 0-8-2l8-5 5-1-3-1c-4-2-4-2 2-4l14-9 11-7c2 0 2-1 3-2l3-3 2-2 7-6a143 143 0 0012-10c2-1 3-5 2-5v-6l1-5 1 3c-1 4 0 9 1 7h1c0 2 1 2 3 2 4-1 4-1 3-8l-1-4h9l10 2h3l16-1c3 0 3 0 3 5 0 4 0 4 3 5l4 2c1 1 5-1 6-3l2-3c2 0 2-3-1-6l-3-4c0-2-2-3-4 0-3 2-4 0-3-4 0-3 0-3 4-3l3 1 1-12c0-9 1-12 2-13l15 3 3 1v15c0 17-1 20-6 20l-2 2-2 6c-2 4-2 5-1 5 2-1 6 3 6 4-1 1 0 1 1 1 3 0 4 2 1 2h-2l2 1 2 2 1 1 8 5a2115 2115 0 0036 31l3 1-3 1c-4 2-4 3 0 7 3 4 7 6 12 6 4 0 5 0 9 4l5 4h-4l-12 1h-8l-4-4c-4-5-5-3-1 1l3 4h10c19-1 18-1 25 4 8 6 8 7-3 7l-11 2c-2 1-1 1 2 1l10-2h7l7 6 9 7 16 13c1 3-29 3-33 0-3-2-5-1-4 2 2 2 2 2 13 2h18l7-1 10 10a79 79 0 0114 13l2 4v2c1 1 1 1-1 1-3 0-4 2-2 6 4 8 2 13-4 13-2 0-2 0-1-1 2-2 2-2 1-3l-2-3-10-12-11-11h-17l-21 1c-5 0-5 0-5 4-1 4-1 5 6 14l8 11v1c-5 2-181 3-235 2H47l-1-5-3-7-2-4c1-2-1-3-7-4l-5-3-1-1-2 2-2 3-1-2c1-2 1-2-1-2s-2 0-1 1c2 2 1 4-5 6-9 5-16 11-16 15v4h401V0h-59a609 609 0 00-85 4c7 0 11 1 11 3 0 1 2 2 6 2 2 0 1 1-2 1-4 1-4 1-2 2l8 5c3 3 5 4 6 3 1-3 4-5 10-7a47313 47313 0 0031-7l15-2 15-2 9-1-5 2-57 15-15 4-71-1a3885 3885 0 00-106-1H94l4-4 7-5 4-2h-4l-4-1 3-1 6-3c2-1 3-2 7-2 3 0 4 0 3-1a550 550 0 00-83 2c16 0 44 5 52 10 2 2 4 7 3 7A1874 1874 0 017 0H0v117M151 5l2 3h-3l-7 1h-4l7 3c8 2 10 2 19 0l8-3h-6c-9 0-11-1-15-4-4-4-5-4-1 0m71 3l-9 1c-10 0-10 0 0 4 8 3 9 3 18 0l7-3h-4l-7-1c-3 0-4 0-3-1V6l-2 2M45 28a1276 1276 0 008 68l5-3-6-47v-5h7l7 1 2 16 4 16c1 2 1-1-2-28-1-18-1-18-6-18-9-2-16-2-17-1h-1c-1-1-1-1-1 1m250 4l-2 2h7c6-1 8-1 8 1l-5 2c-5 0-6 1-6 2-1 2-1 2-1 0l-2-3c-2-1-2-1-2 1l-2 9-6 25c0 2-1 3-2 3v5l1 6c-1 5-1 6 2 7l3 4c0 2 1 3 4 3s4 0 6 3c3 5 7 6 7 2 2-8 8-67 8-72v-3h-7c-7 0-8 0-11 3m-31 6c-2 4-5 55-3 56 2 0 2 0 3-9 3-32 3-54 0-47m-9 10c-2 13-3 41-2 43s1 2 2 0 3-40 2-43c-1-5-2-4-2 0m44-3l-2 15c-2 21-2 23-4 23h-1c-1 1 5 6 8 7 2 0 2 1 5-25l2-19c0-2 0-2-4-2l-4 1M177 56v5h7c13 1 12 1 12-4v-4l-10-1h-9v4m17 62l2 3 3 1-3 1c-3 0-3 1-3 3 0 1 0 2 6 2l8-1v-1c-1 0-2 0-1-1 0-2-3-5-7-7h-5m-72 28l-8 4 1 1 3 1c0 2 3 4 6 6l4 2 7-2c8-2 12-4 11-6l-15-7-9 1m-8 65l-7 12c-5 13-5 14 1 13 12-1 14-1 15 1 0 1 10 2 12 0l-1-1v-1c2-2 7-20 6-22 0-2-1-2-6-2a198 198 0 01-20 0m94 1l-18 7c0 2 21 23 23 23 4 0 25-9 25-11l-1-1-22-19-7 1m-43 18c-7 11-7 11-10 11l-7-2c-3 0-3 0-1 1l2 4v3h17l17-1-2-1 1-2c2-1 2-2 2-13v-11l-6-1h-5l-8 12M2 235c-2 2-1 4 3 5h3l-3 3c-3 2-4 4-4 6 0 3 0 3 8-3l8-6c4-2 2-3-4-3-4 0-6 0-7-2-2-2-3-2-4 0" fill="#d3d3d3" fill-rule="evenodd"/></svg>