<svg xmlns="http://www.w3.org/2000/svg" width="400" height="300"><path d="M0 5c0 4 0 5 2 5h2l-2 2c-2 2-2 3-2 17 0 16 0 18 5 17 2 0 2 0 1 1v2h2l2-1 2-2c1-2 1-2 3-1 2 2 5-1 3-2-1-2-1-3 1-3l4 2c3 3 3 5 0 3h-2c-1 1 0 1 1 1l-1 2c-3 2-3 2-1 4h3l4-2c2 0 2 0 1-1-3 0-3-2 0-2l3 2c1 2 1 3-2 4-2 1 1 5 3 5 2 1 2 1 1 2l-1 1 6-4 6-5c2 0 3 2 1 2-3 2-2 11 2 11l1 1v1c2 2 0 4-2 4l-4-1-1-1c1-1-1-3-3-3s-4-1-5-3l-2-1h-1c-2-1-2-1-2 2 0 1 0 2-1 1l-3-2c-3-1-6 4-4 6 2 1 2 2 0 2v1l2 1v1l1 1-3 1c-3 0-4 1-1 2 2 1 1 2-3 3-2 0-3-1-3-2-1-1 0-4 1-4l3-2h-2l-4-1v-1c2 0 8-6 6-7s-2-4 1-7l2-4h-3c-2 0-3 0-3 3v3l-1-1-1-2a193 193 0 01-6-1c-1 0-2-1-1-2l-1-2-1-2-1-1c-2 1-3 46 0 46v1H1l-1 3c0 1 0 2 1 1l2-1 4-3c5-5 11-6 14-2 3 2 3 2 1 3-3 1-4 0-4-2l-2-1-3 1h-1l-2 2c-1 1-1 1 1 1 1-1 2 0 2 1l1 1-2 1-4 2c0 2-3 1-4-1-1-1-1-1-1 1l-2 2-1 2 4 1h6c1-1 7 0 7 1l-7 2c-13 2-12 4 2 1 3 0 3 0 2 1v1c2-1 3 1 1 1v1c2 0 9-4 8-5l2-1 1 1 2 1c2-1 3-1 3 1 1 2 4 1 4-1-1-2 2-6 4-5v2l1 1 3 2h-1c-3 0-3 0-2 1 1 4 5 1 7-6 1-2 2-2 8-2l2-1 1-1 2-1c1-1 1-1-1-1-2 1-4-1-5-3 0-1 1-2 3-2l4 2v2l2 1h3c2 1 2 1 0 2-1 1-1 1 2 1l3-1-1-2v-1h5c2 2 3 2 3 0l1-1c1 3 0 4-2 4-1-1-2 0-2 1l1 1h1l-1 1-1 1 8-1 1-2v-2c1-2 1-2-1-4s-2-2-1-4c2-2 2-2 0-2l-1-4c1-2 1-2-1-2-2 1-2 1-2-1 0-1 0-2-1-1v1l-1 1-1 1-2 2v-1l-1-1-2-1 2-1 1-1-1-1v-2c2-1 2-2 0-3-1-1-2-2-1-4 0-1 0-2-1-1l-1 1-2 2c-1 3-2 4-3 2l1-3 1-2-1-2c-1-2-1-2-1 0 0 1 0 2-2 1-2 0-3-4-1-6 2-1 0-8-3-8-2 0-2 0-1 1 2 0 1 2-1 2-1 0-2-1-2-3s1-3 2-2c2 0 3-1 1-3-1-1-1-1 2-1 6 2 7 2 8 0 0-2 0-2-1-1-2 1-5 1-5-1l2-1 1-1-1-1-2-1-2-3c-2-1-2-2-1-2 2 1 3-2 1-4h-1l-1 1-1-4c1-5-3-6-5-1l-1 3-4-2c-3-3-4-4-2-4v-1c-2-1-2-1 0-1 2 1 3 0 3-1l2-3-1-2c-1-2-1-2 1-2s2 0 1-1c-1-2-1-2 2-4l2-2c-3-1-5 0-6 1 0 3-2 2-1-1l-1-2c-2 1-2 0-2-1 0-3-3-6-3-4-1 1-5-1-6-3h3c0-2-22-2-22 0v1l-1 2c-4 2-5 1-5-1s1-3 3-3c1-1-1-1-5-1H0v5m356 0l-2 4-1 1v2l-2 4-2 3-1 4c-2 4-2 4-4 3-2-2-3-2-4 0l-3 2c-2 0-3 4-2 5 2 1 1 2-2 2-2 0-3 1-3 2l1 1 1 1v4l-1 5c0 2 0 3 1 2 1-2 1-2 1 6 1 6 2 9 6 10l2 1c0 2-6 3-9 2-1-1-3 0-6 2s-4 3-2 3c1 1 1 1-1 1l-2-1c1-1 0-2-3-2l-4 1h-3l1 2v2l2-1c2-2 8-2 6 0s2 5 5 3h3l4 1 2 1 1 3 1-2c0-4 1-5 3-5s3-1 3-2l1-1 1 2 1 3c1 1 1 1-1 2l-2 3-3 2-3 1-5 2-5 2-3 2-1 1-3 3c-3 0-3 1-3 3v1c-2-2-2-2-3 0v2c2 2 0 4-3 4-1 0-3 0-3 2-2 2-3 3-5 2l-3 2-4 2a351 351 0 00-33 11 2075 2075 0 00-147 46c-50 15-49 15-54 15l-6-1h-2l2 2c2 0 3 3 0 5-1 1-1 2 1 2h3l-2 2c-3 2-2 3 2 2l2-1v-1c1 1 3 0 4-1l1-2h-2l-2-1-2-1c-2 0-2 0 0-1 3-1 6 0 5 1h1c2 0 3 3 2 4-1 3-1 5 1 4 2 0 2 0 0 2l-3 2-1 2-2 1c-1-1-3 0-4 1l-4 3v-1c2-2 2-2-1-2-3-1-4 0-5 1-1 2-2 2-4-1-1-1-2-2-3-1-3 0-2 2 0 2h1c0 1-1 2-2 1-2 0-3 1-1 3v2h-2l-2-2h-2l2-1 2-1c0-2-3-2-4 0-1 1-1 1-1-1s-1-2-3-2c-1 0-2 0-1-1v-2l1-1c1 1 1 0 2-1l2-3v-3c-2-2-3-3-2-1l-1 1c-3 0-3-2-1-3v-1c-2 0-2 0-1-2 2-2 2-4 1-4l-1-1-2-2v1l-1 2-2-1-2-1c-3 0-2 1 1 3 2 1 2 1-2 1-6-1-7-2-6-4l-2-3v-3l2-2h4l4-1h-1l-1-1-1-2c-1-1-1-1-1 1-1 1-4 2-4 0l2-1 1-1 2-1 3 2 1-1-3-2c-2-1-3-1-3-5 1-3 0-4-1-4l-1-1v-3h-1c0 2-4 1-5-1l-1-1-2-1 2-1c3 0 8-2 10-5v-1c-2 1-3 0-1-2 2-1 7 0 6 1h2l4-6-2-1v1l-1 1-2-2c0-2-1-3-2-3v1l-2 3c-1 2-2 2-2 1v-4l3-2h3l2-1 2-1 4-1-1-1h-3l1-1c3 0 4-3 2-6l-2-4-2 1-2 2c4 1 7 2 4 2v3l-1-1-2-1 1 2v2l-2-1h-1c-1 1-5 2-5 0s-3-1-5 2l-4 2v1h1l1 2-2 2-2 1 1 1h1s-1 2-3 2c-4 2-5 4-2 4h1c-2 0-1 2 1 2 1 0 5-3 4-4s0-2 2-2v1c-1 1 0 5 1 5v1l-2 1c-1-1-2 0-2 1l-2 1H6c0-2 0-2-1-1H3c-1-1-1-1-1 1v5l1-1 1 1-1 3-1-1-2 1 1 2v1l-1 3c0 2 2 2 6 0l2-1-3-3-1-2 1-1 1-2v2l1 1 2 2 1 1h1l-1 2c-2 0-5 3-4 4l-1 1-2 2-1 2c-2-2-2 1-1 2 2 2 2 2 1 4-2 2-3 13-1 13l1 1-1 1c-1-1-1 0-1 2l1 3v7l-1 20v19h5c5 0 6 0 3 3l-4 1c-4-1-3-2-4 4v5l11 1 12 2 4 1h4l2-1h1l6-1 6-2c2-2 2-2 3-1l2 1 4 1h6l6-1 2 1h2l1-2 1 1h20l5-1 4-3-14-1-4-1-4 1h-1l-1-1h-5a143 143 0 00-27-2l-9-1c-19 0-18 0-18-2a289 289 0 0042-2l2-3c0-2 3-4 4-2h3c3-1 4-1 4 2s2 3 3 0c2-2 3-2 2 1l1 3c1 2 8 3 8 1s3-3 4-2l-1 1c-1 0-1 2 1 2l1-1 2-2 1-2 1-2 1 2 2 2c1 0 2 0 2 2 2 3 4 2 3-1l2-7v6c0 4 1 5 3 5s2-1 2-3 0-2 3-2c4 1 4 1 4-2 1-3 3-4 3-1l3 3c2 0 2 1 2 4 0 2 1 2 3 2l6 1c3 0 6-1 6-4l-3-1c-2-1 6-1 9-1l2-23c0-4 1-5 2-5l1 3v5l-1 2v3l1 9-1 6h3c4 1 4 0 4-4 0-2 0-3 2-3l1-1-1-1-1-1 3-1c4 0 4 0 2 1-2 2 0 5 3 5s4-1 1-3v-2c1-1 6 4 6 5l1 4v1l2 2 2 1c-1 1 0 2 1 3s0 5-2 5c-1 0-2-1-1-2l1-1v-1c-4-1-4-1-4 1 1 0 1 1 0 0l-1 1h-4l-2 1c-1-1-1 0-1 1s0 2-1 1c0-2-2-1-2 1-1 2-4 3-5 1 0-1-1-2-2-1l-1-1-1-1-1 2v1l-1-1h-1v1l1 2h-2c-1-2-3-3-2-1l-2 2-2 1h-3l-4-1-2-1h-3l2 1v1c-3 1-6-1-5-2l-1-1-1 2v1l-1 1c-1 1-1 2-2 1v-2h-1l-1 1v-1l-2-1c-1 0-2 0-1 2 0 1-2 1-5-1h-4v1c3 2 2 4-1 5-3 0-3 0-1-1 1-1 2-2 1-3 0-2-2-1-3 1l-2 2h-7l-4-1-2-1h-2l-3 1-1 1v1l-1 2h-1c-1-2-7-5-7-4l1 2v5l-1 2-1-1c1-1 0-2-1-2l-1-1 2-1c1 0 2-2 0-2-5-1-7-1-7 1h-2v-3c-1-1-2 1-2 4v3l-2-2c0-3-2-3-4-2l-7 2c-6 0-7 0-8-2l-1-1c0 2-1 2-5 2h-6l1 1v1l-3 1c-2 0-2 0-1-1 2-1 1-2-1-1-3 0-2 2 0 3 1 0 2 1 1 2h-2l-2-2-1-2-1-1-2-2h-2l1 1 1 1c-2 2-4 1-3-1h-5l-3-1H7c-2 0-3 2-1 2v1l-3-1c-2-1-3 0-3 7 0 4 0 4 1 3 2-2 7-1 5 0l-2 1c-3-1-4 1-4 8v7h17l18-1h2l50 1c50 0 56 0 54-4l1-3h1v3l1 2h1l1 1h8l3-2v2l-2 1h2l1-2 2-3c2 0 2 0 1-2v-1l2 1 1 1h1l2 1-1-2v-3c2-2 3-3 3 0l2 1c2 0 4-2 3-3v-9c2-4 1-7 0-5h-2l1-2 2-1c-1-5 0-5 6-5 5 1 6 1 8-1 1-2 3-3 4-2h2v1l-1 1h-1c-1 1 0 1 1 1l1 1c-1 1 0 1 1 1l2 1 3 1h9c24 2 26 2 27 0s1-2 1 0 4 3 17 3l9 1 3 1h12c9 1 10 1 10-1 1-1 2-2 3-1 1 0 2 0 2-2l1-3v-3l-1-1h-1c-2-1-2-1-3 2l-2 4v-3a30 30 0 00-1-6c0-1-3-1-4 1-4 4-7 0-3-6v-3c-1 0-4 7-4 10 1 2 0 3-2 1-1-2-4 3-4 7l-1 1h-2v-5l-1-5-1 1c0 2-2 0-2-3 0-2 0-2-1-1l-1 2c-1 0-1-4 1-8l-2-1c-2 0-3 1-3 4 0 4-3 8-3 5l1-5v-3c-2 0-1-2 2-2 2 0 2 0 2-6-1-5-1-5 1-4l3 2 1 4v4h27v-2l-1-4v-2c1-2 0-3-2-4v-1c2 0 2-1 2-4-1-3-1-4 1-3l1 1 1 2h2c1-2 2-1 2 2v10l1 6h6c4 0 5 0 4 1-2 0-2 1-2 3 1 1 0 2-1 2v2h1c2 0 1 3-1 10-2 5-2 6-1 7h4c2 1 16 3 42 5 24 1 27 1 25-2l1-3c2-1 2-1 2 2l-1 3c-1 1 0 1 1 1 2 0 2 0 2-4l-1-3-1-1 2-2 2-2h-1l-1-1 1-1c1 1 2 0 2-2v-2c-1 0-1-1 1-2v-2l-2-2-1-2c-1-1-2 0-2 2v4c0 2-2 1-2-1l-2-1c-2 0-5 7-4 8l-1 1c-2 0-3-4-1-6s4-8 2-8l-2 3-1 3v-3c0-2 0-3-5-3-10-2-11-1-12 2l-2 4-5 3-2 1c0-3 2-6 3-5l3-3 2-3h-3c-2 0-3 0-2-1v-4c0-4 0-4 4-4l1-1c1-1 1 0 1 3 2 6 1 6 11 6a558 558 0 0134-1l-2-10-3-9v-2c1-2 1-2-1-4s-2-2 0-2v-1c-2-1-3-3 0-2l1-2c0-3 1-4 2-2l2 14 1 4 1 4 3 17a599 599 0 00-1-78 185 185 0 001-49v-16a3089 3089 0 01-3-79v-2l2-4 1-5v-3l-5 1-5 1c-1 1-3 0-3-1 0-2 4-4 5-3h4l4-1h-2c-1 0-3-2-2-3 1-2 2-1 2 1h1l1-6V6l-2 2-4 2-3 2-3 1-1 1c1 1-2 5-4 5s-5-5-4-7V9c3-2 2-2-2-1l-3 1-2 1h-5l-2 1v-1c1-2 0-4-2-3l-3-2-2-2-2 2m4 47l-2 1-4 9h3l1-1 9-4c4-2 4-3 0-3-2 1-3 1-3-1 1-3-3-4-4-1m8 12c-2 1-4 5-2 5 1 0 2 3 1 4s0 1 1 1h3l-3 1-1 1-1 1c-4-1-7 3-5 7v2c1 2 2 1 2-2v-2l1 2c0 1 0 2 2 1l1 1-1 1-1 1 2 1h1c0 2 5 3 7 1 2-3 1-16-2-16v-2c2-2 1-7-1-5l-1-1 1-1 1-1h-5M51 75c0 3-2 4-7 4-2 0-2 0-1 1 2 1 3 4 1 4l-1 2c0 2-1 3-3 1-1-1-1-2 1-2v-3c-3-1-4-1-4 1l-2 2c-1 0-2 0-1-1l-1-1-2 1-3 1c-2 0-9 3-6 3l1 2c-1 3 4 2 5-1 1-4 2-3 1 1v3c1 0 3-3 2-4 0-1 5-4 6-3l-1 2c-2 1-2 1 0 3l2 5v4c2 0 3-1 2-2-1-2-1-7 1-8 1-1 1-1 1 1-1 2 2 3 4 1 1-1 1-1 1 1-1 2 3 3 5 2l1-1v-1c3-2 2-5-1-5-2 1-3-1 0-2s5-4 4-6v-4h-1l-2-1c-2-3-3-2-2 0m-12 40h-1l-2 1-2 2-2 1c-1 1 4 5 7 6l2 1c1 1 4 0 4-2l1-1-1-2-2-1 2-1c3-1 2-2-2-2-2 0-3-1-3-2h-1m257 36c-1 0-2 1-1 2l-2 1v-1c2-1-2-1-11 2-7 1-9 2-7 4l25-4-1-2-1-2h-2m-247 2c-1 0-2 1-2 3s0 2-2 1l-4-1h-3l-4 1v2l4 4 1 1 3-1-1-1-1-1h2l5 1 3 3h3c3 0 2-3 0-3-3-1-2-3 1-2l2-1 1-4c2-2 2-3-2-3l-6 1m238 7c-2 2-2 2-1 15l1 14v1l1-1c0-3 3-2 4 0 0 2 1 2 1 1 1-1 0-5-1-4-2 1-3-1-2-3 2-1 2-3 2-5v-8c0-10-2-12-5-10m80 1l3 3v1h-1c-2-2-3-1-3 1h2l2 2 1 1-1 1-3 1-2 1-1 1-2 2v1l-2 1-1 2c1 1 0 1-1 1-2 0-2 0 0 1h6v-3c1-1 1-1 1 1s0 2 1 1h6c1-2 0-3-3-2-2 0-2 0-1-1s1-1-1-1h-3l3-2 4-1 1-1 3-3h3c1 2 5 3 6 1l2-1h1c1-1 0-2-4-2-4 1-5 0-5-1 1-1 0-1-1-1l-1-1-2-1-5-2c-3-3-4-2-2 0m-204 26l-1 6-1 3v4l-1 5v3h-5c-2 1-3 0-1-1v-20l-1 8a695 695 0 01-2 23l2-2 3-2 1-3 1 1h4l2-2 6 6v1l2-1c1-2 1-2-1-3-3-2-3-4 1-3h4l1-1c-1 0-1-1 1-1 1-2 1-2-1-2l-2-1c-1-1-1 0-1 1 0 2 0 3-2 3s-2-1-2-3l-1-1-1-2c-1-1-1 0-1 2 0 4 0 5-1 3v-12c0-11-1-15-3-9m222-1h-4l-6 2c-4 3-3 5 1 4h3v1l3 3 3 1h-3l-4-2h-2l2 2 1 1h-1l-1 1c1 1 0 2-1 2l-1-1c0-2-4-2-5 0l-3 3c-3 1-3 4-1 4 7 1 8 1 8-2s2-4 3-2c1 1 2 2 3 1 2 0 3 1 2 3l5 1 2 2 2 2c1 1 1 1 1-6 0-12-2-18-4-18-2-1-2-1 0-1l2-1h-5m-81 5l-9 1c-2-1-2 0-2 2 0 4 1 7 3 7l1 2c0 5 1 6 3 4 1-2 1-2 1 0v2l1 2c-1 2-1 2 1 2 3 0 3-1 1-3-3-2-1-3 2-1 2 1 6 0 6-3l-3-2c-2-1-3 0-1 2v1c-2 0-5-3-4-4l1-2 4-2c2-1 3-1 2-2l-1-1c0-2 2-1 4 1l2 1-1-2-1-1 2-1v-2c-1-2-5-2-12-1m-82 46v4c1 7 0 8-3 9-2 0-3-1-3-2l-2-1-2 1-2 1c-2 1-1 1 1 1 4 0 4 0 4 2-1 2-1 3 1 3 1 0 2 0 2 2 0 3 2 2 3-2 2-4 2-4 7-4 4 0 5 0 3-1s-3-1-3-7 0-7-3-7l-3 1m114 58v1l-3 1c-3-1-5 0-5 2l16 1c14 0 16 0 16-2l-1-1h-3l-5-1h-12c-1-1-2-2-3-1" fill="#d3d3d3" fill-rule="evenodd"/></svg>