<svg xmlns="http://www.w3.org/2000/svg" width="400" height="267"><path d="M0 23l1 20 3 1 1-8v-7h7c6 0 6 0 4-2l5 1c4 2 26 3 26 2L27 19A101 101 0 017 8C6 9 3 8 3 6c1-1-1-3-2-3L0 23m397 12l-14 5-17 6-37 13c-8 0-8 0-8 11v11l1-8c1-10 1-10 6-10h4v7c-1 5 0 6 1 6 2 0 2 1 2 5 0 8-2 11-2 4 0-4 0-6-1-5l-1 6-1 5c-1-1-3 0-4 1-2 1-2 1-2-2l-1-3-1 3c0 2 0 3-1 2l-2 1 4 1c8 2 9 6 1 5-6-1-8-2-6-3 3-2-2-1-5 1-3 1-10 0-7-2 1-1 1-1-1-1l-2-1 1-1c2 0 2-4 0-7l-1-3 1 1h1l1-3-1-4c2-5 9-3 10 2l2 2 1-10-1-11-10-1h-9l5-3 4-3h-4l-3-2-1-1-1-2 5-1h5l1 1 1-1 4-2c4 0 1-1-16-1a105 105 0 00-25 0l-9 7-8 7h-35l2-7 2-8c-2-1-4 1-5 4v4h-40l-2-4-4-5c-1 0-1 1 1 4 3 5 4 5-20 5-15 0-18 0-21-3-6-4-4-1 2 4l6 5h-12a77 77 0 01-18 0l-11-4c-5-2-10-4-11-3v-2c-2-1-2 3-2 35v36h-3c-3 0-4 0-5 3l-1 4-3 2c-3 2-3 2-5 1-1-2-1-2-4-1h-5c-2-2-8-4-9-3h-1l-1 1-10 1-10-1c0-1 3-2 10-2 10 0 12 0 7-2l-3-2-16-1H14v9a962 962 0 013 44v4l35-3c42-3 38-4 38 14v12l2-2 7-4 1 10v10h-5l-4-1c0-3-1-2-4 0-2 3-2 3-2 16 0 12 1 13 3 13s3-2 4-9c2-8 2-9 5-9s4 1 5 11c0 7 0 8-3 12-5 7-5 11 0 12 4 0 9-3 9-6 0-2 4-7 5-7l-1 5c-1 6 0 7 4 7 6 0 8-3 8-11l2-10c3-7 4-8 9-8l5 1 1 6 1 7v6c-2 6-1 10 2 11 4 0 7-2 7-6l1-4v4c0 3 0 4 2 5 4 2 8-1 8-4a737 737 0 001-16c2-8 3-8 4-8h14l1 7c1 7 0 7-2 11-3 6-3 10 0 11 4 0 8-2 10-6l2-4c2-2 3-9 2-17 0-2 0-2 3-2h3v9c0 7 0 9 2 10l3 4c2 5 6 7 9 5 4-1 4-4 0-9-2-3-2-9 0-15l2-3h15l2 5 2 5-4 6c-4 7-4 9 2 10 5 0 7-1 7-5l3-3c3-1 3-3 2-9-2-9-2-9 6-9h7v6l-2 10c-1 5-1 5 1 7l2 5c0 4 7 7 11 5 3 0 2-2 0-8-4-8-4-13-2-13 2-1 2-2 2-5 0-5 2-7 5-7 5 1 8 14 6 23-2 7 0 10 4 10 3 0 5-1 5-6 1-3 1-3 1 1s1 5 5 6c4 2 4 0 4-13 1-16 2-20 6-19l4-1 4-1 2-1c-1-2 0-2 5-2 7 0 6 0 8 10 0 6 1 8 4 8 2 0 3-2 4-17l-1-11c-2-2-1-3 2-3 4 0 4 0 5-4l1-7 3-20c2 2 2 23 0 24-1 1-1 2 1 5l1 7c0 3 2 5 7 5 3 0 4-1 2-6-1-4 0-5 1-10l2-11 1-6v-1c-1-2 0-8 1-8l37 8c1 1 1 1 1-2 0-2 0-3-1-2l-37-6 1-14 1-14 3 1c6 0 7-1 5-6s-2-11 0-12l1-3c0-2 1-3 2-3l1-1h2l2-1c0-1-3-3-5-3-1 0-2 0-1-1l3-1c3 0 3 0 2-2l-2-4c0-3 1-3 5-4l5-2h-7l-6-1 3-1c4 0 4-3-1-4l-4-2c0-1 0-2 2-1 3 0 3 0 3-4 0-6 1-7 7-7 3-1 3-1-3-1h-8v4c0 6-1 7-3 6l-7-3c-5-1-5-1-5-5 0-2 0-3-2-3s-3 2-1 4l-2 8-3 19-2 11 3 4c5 5 4 6-5 6-8 0-13-2-13-4l3-13a119 119 0 014-23c0-2 2-5 3-4l2 1-2-3c-3-3-4-7-2-9v-1c-2 0-1-5 1-7s6-3 9-1c1 1 3 6 2 7l1 1 2-6v-3l3-3c0-2-3-1-5 1h-6c-3 0-3 0-3-2l-1-2 3-7 4-2 5-2c2-1 3-1 2-2l1-1c2 0 2 1 2 7 0 7 0 7 1 2 0-14 1-15 6-15 12-2 12-2 12-4 1-3 5-5 13-6 6 0 6 0 6-3 0-2-1-2-3-1m-219 7c1 2 34 3 40 2 8-2 0-3-20-3-17 0-21 0-20 1m48 2c0 2 34 2 41 0 3-2 1-2-19-2-19 0-22 0-22 2m-83 10c2 2 3 2 20 2h17l-2-2c-1-2-2-2-18-2a121 121 0 01-19-1l2 3m54-2l-2 1h-11c-2 3-1 3 9 3h17c7 1 9 1 6-2-1-2-3-2-6-2h-13m65 2c-4 2-2 3 15 3 16 1 17 1 21-1l4-2-19-1-21 1M0 65a8597 8597 0 017 83c3 0 3 0 2-21a6037 6037 0 01-3-72H3l-3-1v11m106-5l-1 5v18c-1 2-1 4 1 7 3 5 5 12 5 14l2 2h4l3 1-1-10-1-12v-4c4-7 1-16-6-16-3 0-4-3-2-4 1-1 0-4-2-4 0 0-2 1-2 3m65 12l-1 8v12l1 2h11c2 1 3 0 1-5-1-2-1-2-2 0h-7l3-1c4-2 6-5 4-12 0-4-1-5-5-5l-5 1m62 1c-3 0-3 1-3 3l-1 3c-2 0-1 4 0 4l1 3c1 2 2 2 5 2h4l-4 1c-3 0-5 1-5 2 0 2 0 2 4 1 6 0 9-2 7-3V76c0-2-3-4-4-4l-4 1m-34 4l-1 10c-1 5-1 4-1-3 0-6 0-8-1-5l-1 3v-4c0-6-1-2-2 6l-1 8v-7l-1-6c-3 1-5 3-5 7 0 3 0 3 3 5l5 4c1 3 7 5 7 2l-2-1-2-2h1c1 2 1 1 2-2 0-5 4-14 7-15 3-2 2-3-2-2h-5c-1-1-1 0-1 2m-57 0l-3 4-1 3c-3 0-2 2 0 4l1 3h1v1c-1 1 0 2 4 6 3 3 4 4 4 2l-2-2-1-1c1-1 0-2-1-3-2 0-2 0 1-1 4 0 8-7 6-10-1-1-2-2-1-3l-3-4-5 1m124 1l-3 3-1 1c-2 0-2 0 3 10l8 18 2 10-1-16 1-17c5-6-2-13-9-9m-60 9l-1 4c1 4 5 7 8 5 4-2 5-10 1-9h-8m54 7v2c2 2 1 2-2 1h-5c-4 2-5 5-1 7v2c-3 0-3 5 0 9 2 2 3 6 1 9-1 3-2 2-2-2 0-5 0-5-5-6-7 0-8 1-8 7v4c-2 0-1 3 1 6 5 8 9 7 14-3 2-3 2-6 2-15l1-11 3 10 1 3 2 3 1 5-1 3-1 2c0 2 2 1 2-1l1 3 1 6 1 2c3 2 3 2 3 0l-1-4c-1-1-1-1 1-2l1-1v-1c1-1 3-7 2-8s-2-3-2-8l-3-5c-3-5-3-6 1-2 2 2 3 2 3 1l-1-3h-1v-1l-1-1h-1c2-2 0-6-1-4h-1c1-3-3-9-5-7m38 9l-3 1h-3c-3 0-3 0-3 2 0 3 1 3 9 2s14-1 14 2c1 2 9 2 9 0h5c4 0 4 0 4-2v-3l-3-1-10-1h-19m-186 9l-4 4-2 5v3l1 5c0 3 0 4-1 3l-1-1v8l1-1 2-1c2-1 4 2 4 6l1 1 1-1 1-2h1l1-2 1-2c-1 0 1-6 3-8l1-8 1-5v-2l-1-2-2-1c-3-1-4-1-8 1m86 2c-4 3-6 9-4 12l1 4 3 6 2 3 3-3c2-1 3-3 3-5l2-5 2-6-1 1c-1 1-1 0-1-2 0-3-3-7-5-7l-5 2m103 0c2 0 4 2 5 3 2 2 11 4 15 3l5 1c3 2 3 2 3 0v-3a799 799 0 01-27-5c-4 0-4 0-1 1m-146 4c-1 2-2 3-4 3-2 1-3 5 0 9 2 5 1 6-3 8-9 2-10 4-12 23 0 12 3 24 6 24l2-1v-2l1 1 5 3c4 3 4 3 7 1l8-1c2-1 5-1 6-3 2-1 3-2 5-1 3 1 3 1 3-3 1-3 1-3-1-4-1 0-2-1-1-2 2-7 3-23 1-29-2-5-7-8-11-8-1 1-2 0-2-1h-2c-1 1-1-1 1-8 0-3-3-12-5-12l-4 3m140 5c-4 3-4 4-4 7l2 6 1 4 3 4 2 3 2-3c4-5 5-17 2-21-2-4-3-4-8 0m-229 8l-1 4c-1 1-1 1-1-1v-3h-9l-9 1-1 3c0 2-1 3-2 2v-1c4-3-2-6-7-4-2 1-2 1-1 3 2 1 2 2 1 2l-1 2h31c0 1 8 0 9-2 1-4-1-7-5-7l-4 1m-27 11c-4 0-4 0-3 2v3l-2-3-4-2-5 1v7h11c1 2 8 0 9-3 1-2 1-2 1 0 0 3 0 3 4 3s5-1 5-4l-1-4c-4-1-7 0-8 1l-2 1c0-2-1-3-5-2m231 6l2 15c0 8 1 11 2 11h2l11 3c3-1 4-5 2-5l-4-3c-3-2-4-2-6-1h-3v-7l2-11 2-4h-4l-5-1-1 3m58 6l-5 1c-5-1-7 2-4 7 2 2 2 2 0 2v3l-1 4v5h-1l-1 1v4l-1 3c-1 2 1 9 3 10l2 2h1c0-2 2-1 2 1l1 2 2 2v6c-2 0-2 1-1 8 0 2 1 2 3 2s3-1 3-6l1-6v-4l1-6c0-4 0-5-1-2l-1 6v2l-3-2c-2-2-3-2-2-4l3-10c0-5 2-8 2-8l1-3 2-8c4-9 4-11 0-11l-4-1-2-1v1m-268 2a376 376 0 01-26 2l8 1h7l-4 1c-9 0-10 1-11 2h8a1680 1680 0 0120-3h-8l3-1a4708 4708 0 003-2m47 15c-3 3 1 12 5 12l3 2c2 2 4 3 4 1l1-1 3-1 6-4c4-3 5-6 2-7l-1-1c-1 3-3 5-6 5l-5 2c-2 1-2 1-3-1s-4-6-7-7h-2m84 8c-2 1-2 1 3 6 6 5 9 5 13 0l4-4-2-2c-3-2-15-2-18 0m51 6c-5 4-5 5-1 7 2 1 2 1 1 2-2 1 3 3 7 3 3 0 3 0 1-1l-1-1 5-2c4-3 3-5-2-7l-4-2c-1-1-2-1-6 1m32 6l-1 7c0 5 0 5 4 9 6 5 8 5 3 1l-3-4 3 1 2 1-2-2-2-4 3 2 3 4 1 1 3 4c3 4 5 5 5 3l-1-2-4-4-3-4-2-4-3-5-2-4c0-2-2-3-4 0m-101 4c-5 3-6 4-6 12v8h6c6 0 6 0 6-2-2-6-3-17-2-17 3-3 1-4-4-1m23 2c-2 2-2 5-2 10v8h4c5 1 5 1 6-8 1-8 0-11-4-12-2 0-3 0-4 2m44 0v19h19l-1-6c0-7-4-11-9-11l-6-1-3-1" fill="#d3d3d3" fill-rule="evenodd"/></svg>