<svg xmlns="http://www.w3.org/2000/svg" width="400" height="266"><path d="M0 111c0 105 0 111 2 111l6 2c4 0 5 1 3 2l5 2h8c3-1 21-4 31-4l8-1 3-1 13-1c17-3 16-3 17 2l2 11c1 7 2 8 3 8l9 2a247 247 0 0058 12 492 492 0 0040 7l18 2 91 1h84V133l-1-118v16l-6 6-6 7-2 4c-1 1-2 4-1 5 0 1-1 3-4 5l-7 14c-4 9-7 12-9 9l-10 7c-9 7-14 10-10 5l2-3c0-1-5-3-8-3l-4-3-2-2h2l3 1-3-2c-3-2-5-3-3 0v1l-4-2c-3-1-2-5 1-4l3 1 5 1 3 1 1 4c0 3 0 3 2 2l2-3 1-1c2 0 2-1 1-3v-4c-3-2-2-3 0-2l2 4c1 4 3 5 8 4 11-1 12-21 1-31-4-4-4-4-9-4-8 0-16 3-21 8-5 4-5 5-1 9l2 4v3l-1 3h-37a1070 1070 0 01-38 3h-6v55l-3 1-5 2c-2 1-2 1-2-2 0-5-1-5-5-2-3 3-5 3-10 3s-7 0-9 2l-3 2v-3c0-5 0-6-2-3-2 2-4 2-4-1l-1-1 1-3c1-3 2-4 4-3l8-1h4l-3-1c-6-2-14-2-19-1h-5l-5-1c-4-1-4-1-3 1 0 2 0 2-1 1-2 0-2 0-2 2s0 2-1 1l-3 1-3 2-1 1h-2c-1-3 0-7 3-11l2-5c-1-2 3-5 4-3v8c2 0 3-2 4-8s-5-9-9-4c-1 1-1 0-1-5-1-8-4-11-8-12-6 0-6 0-4-1 1-1 0-1-3-1h-2c2-1 2-1-2-1l-8-2c-3-1-3-1-2 5l1 8c-1 2-1 3 1 3l3 4c1 3 0 6-1 3 0-1-1-1-2 1h-1v-3l-1 2v2l-1 1h4c1-2 4 2 4 6l1 10v4l1 2c5 2 5 7 0 7-1 0-2 0-1 1h3c2 0 3 0 2 2 0 2 3 4 5 3l-1-1-1-2c0-2 0-2 2-1l1 4 1 2 2 1 4 4 2 2a251 251 0 00-22 3c-5 1-13 11-13 16 0 2 0 2-9-1-7-2-9-3-8-4l-1-1v-1l-1-2-1 3c0 1 0 2-1 1l-1-2-1 2v1c-3-4-2-9 2-13l3-5 4-2 4-2 3-3c2-1 2-3-1-3-1 0-1-3 1-6 2-2 3-1 2 1h3l1 1c2 0 1-2-1-3-3-1-2-2 3-2 2-1 1-1-2-1l-5-1v-11c0-13 0-14 5-15l3 2 2 2c2 0 1-1-1-3l-2-4-2-2-2 1h-5l-1-7-3-7c-12-11-13-13-10-22 2-7 6-12 10-12 3 0 4-4 6-32l1-7 1 1a888 888 0 002-10l2-2H0v111m296-95v4l-1-1h-2c0 2-1 2-1 1h-5l-2 1h-2c-2 0-2 3 0 6l2 3h-2c-3 0-4 2-2 3 1 1 2 2 1 3 0 2 1 3 3 1 0-2 2-1 3 1l2 3 2 4 2 1v6l1 2c1 1 1-1 1-3 0-7 3-16 4-13 1 2 3 3 3 0l1-1c2 0 2 0 1-1-1-2-1-2 2-4l2-3h-3l-3-1v-1c2 0 3-4 2-5-1-2-5-1-5 0l-1 1v-4c0-4-1-5-3-3m-185 93v3c1 4 0 4-3 1-2-2-3-2-3-1l-1 2v2l2 3c1 3 2 3 2 1 1-1 1-1 1 1 0 1 0 2 1 1l1 2 2 1c4 1 6 2 6 4s0 2 1 1c2-3 0-11-3-14l-3-5c-1-3-2-4-3-2m220 17h-7c-5 1-6 2-7 3 0 2 0 2-1 1s-8 1-13 5l-14 6h-3l3 1 3 1h-4l-4 1-6 4c-6 4-6 4-6 9 0 4 2 5 3 2 1-2 1-2 2 2s1 3 1-2c1-4 2-4 8-3 3 1 3 1 4-2l3-4 3-4c1-1 1-1 1 1 0 3 1 3 4-1l8-4c4-1 5-2 7-6l2-4 1 5 1 4 4-1c4 0 6-2 3-2-2 0-2 0-1-2 0-2 1-2 1-1 3 2 5 0 6-3 2-6 1-8-2-6m-156 30c-2 3-1 20 1 20 1 0 7-10 7-14 0-7-5-10-8-6m-18 4c-1 1-2 3-2 7l-2 8c-2 6-1 6 5 0 7-7 8-11 4-15-2-2-3-2-5 0m88 64l-2 9 6 1 6 1v-4c1-4 0-5-4-5-3 0-3 0-3-4 0-6-2-5-3 2m-137 3l-1 8v7h3l8 1 5 1c-2-2-2-2 4-3 6 0 6 0 7-7 1-2 0-3-1-4-2 0-3-2-3-3 0-2 0-2-11-2-9 0-11 0-11 2m62 3c0 2 0 3 2 3l12-1c12 0 13-1 8-4-3-2-5-2-13-2h-9v4M1 250v16h77l73-1-8-2c-3-1-1-1 8-1 13 0 28-2 21-2l-10-1h-7l-10 2A7021 7021 0 002 234l-1 16m246 4l1 3 2 2v1a249 249 0 0127 1c-3 0-2-2 0-2 5 0 1-2-7-3-6 0-9-1-9-2-2-3-15-3-14 0m45 4h3l2 1 5 1h7l8 1 5 1h4c2-1 2-2 1-3-2-1-35-3-35-1" fill="#d3d3d3" fill-rule="evenodd"/></svg>