<svg xmlns="http://www.w3.org/2000/svg" width="400" height="267"><path d="M27 54c-8 3-10 5-13 12 0 3-2 5-2 5l-4-2-5-2c-3-2-3-1-3 7s0 9 2 10c3 0 3 2 0 2-2 0-2 1-2 43v43h3c3-1 5-1 6 1l7 1h5c2 1-5 2-14 2-6 0-9 1-5 2v1l-2 1h12l17 1c3 1 6 2 8 1 3 0 3 0 1-1-3-1-2-4 1-5l4 2h2c0-2 7-8 8-8 2 0 2 1 0 4-3 3-2 4 4 4 8 0 9 2 2 4-5 1-5 5-1 10l3 5 1 2h5c3 0 3 0 2-1-3-2 22 0 29 2l7 2 4-4 5-3c2 0 2 0 1-5l-1-3c1-1 4 4 4 7 0 1 9 2 19 2 6 0 9 1 7 3l-4 1c-2 0-4 2-4 4s1 2 2 2l8-2 8-3c5-4 14-4 21-1h4c2-3 5-2 5 1s0 3 3 3 3 1-3 9c-7 8-10 14-6 11 2-2 7-2 10 0 3 1 4 1 4-1 1-4 0-6-4-5-5 0-5-1 0-8 4-6 4-6 8-6 5 0 5 1 5 11 0 7 0 8-2 8-4 0-4 3-1 4 5 2 16 2 17 0h10c-1 1 12 6 13 5 3-6 1-10-5-12-4 0-5-2-3-3h22c3 0 2 2-2 3-7 2-8 7-4 11 2 3 3 3 6 1l14-7-4 4-9 6-2 3 3 1c8 2 22 4 29 3l4-1-4 1c-5 2-4 3 1 4 5 2 18 1 20 0 0-1-3-2-7-2l-7-2 2-3c0-2 2-3 3-4v-1c-1 0-1-1 1-2l1-2c-2 0-1-2 1-3 4-1 4-2 2-4l-1-2 4-2h3l-2 2-3 1 3 3c4 3 3 5 0 5-2 0-2 0-1 1v2l2 3c2 1 3 3 0 2v1l1 3 2 2c2 1 2 1 1-1v-2l2-2 2-2c1 0 3-3 3-6 0-2 1-2 3-2 4 0 4 2 0 10-4 6-4 6-1 6 2 0 3-1 4-4 1-4 2-5 5-7 4-3 4-4 3-7 0-3 0-3 1-2l1 5c0 4 1 5 2 3l5 1c2 2 6 3 7 3 3 0 6 3 5 5l1 2 1 2c-1 3-4 7-6 7s-3 3-1 4c2 3 2 3 14-3 2-1 7-3 11-3l11-2c3 0 4 0 9 6 8 7 9 7 9 2v-54l-3 2-2 2v-2l2-3v-2c-2-1-2-2-1-2v-1l-1-2c0-2-1-2-2-2-5 0-5 0-4-2l3-2 2-1 2-1 3-1h-3c-1-1-2-2-1-3s0-2-3-1c-1 0 0-2 5-6l1-1c-3 0-2-1 1-3l2-1v-43l-1-28c0 14 0 16-2 17s-2 1-2-1c0-3-2-7-8-13s-8-6-5-1c3 6 2 6-3 1l-6-6c-3-2-3 1 0 4 4 4 1 3-4-1-6-6-6-6-6-2v2h-1l1 2 1 1-7-1c-1-1-1-1-1 1v3l-1-1-3-1h-2l2 2c3 2 4 4 2 4l-6-4c-3-4-5-5-5-4v2l-2 2-3 2 11 11 2 1-1 1c-3-1-2 0 0 2 1 1 1 1-1 1l-4-2c-4 0-12-6-12-8h1l2 1-3-5c-3-2-5-5-5-6 0-2-2-1-4 1v2l1 2 2 5c2 5 2 6-2 3-4-2-5 0-2 2l5 4 5 3 1 2c-1 2 1 3 2 1s3-3 5-2 3 3 1 3c-3 0-2 2 0 3v2l-4-2-2-2v2c0 2-1 3-4 3-3 1-3 1-2 3 2 3 5 4 5 1l2 7c0 2 0 2-2 0h-3c-1 2 0 7 1 8v1l-1 4-2 4c-2 1-5 8-4 8v5c1 3 1 3-3 4-5 0-7 3-6 8 0 3 0 3-1 2-2-2-2-2-3 1l-1 3-1 4c-2 3-2 5-1 5 2 3 1 3-1 1-3-2-4-6-2-8a403 403 0 006-80l-2-5c1-2-1-4-4-5l-3 1v1l-1-1-5-1-14-2a521 521 0 00-64 1l-7 3c-2 2-2 2-3 1-1-4-3-2-3 3 0 7-2 14-3 14l-2 2c-2 3-1 4 1 2 1-1 1-1 1 1a408 408 0 00-5 32c-1 1-2-14-1-16s0-3-3-6-3-3-4-1c-2 2-2 4-1 8l-1 13a459 459 0 00-4 28l-2 3-1-4c-1-5 0-25 2-31l1-12-1-11-4-4-6-8-4-4c-3 0-5-3-2-3 2-1 2-1 1-4-2-3-4-3-4 0 0 2 0 2-2 1l-1-4h1v-3l-1 1c-1 1-1 1-1-1l1-3c3-1-2-6-5-5-1 0-2 0-2-2h2c0-5-2-6-10-4h-1c3-2 2-3-1-3h-13c0-2-3-5-4-4s2 6 3 5l1 2c2 10 2 16-1 10-1-3-4-3-4 0 0 2-2 1-4-1l-2-2h2c2 0 4-2 2-3l-1-2-3-2h-3l-1-1c1-2 0-2-1-3-2 0-2 0-1-1s2 0 3 1h3c0-2-4-7-6-7l-1-2 2-1 1-1c0-3 6 1 8 6 1 2 1 2 3 1 1-3 1-7-2-10v-3c1-4-4-10-10-11l-3-2-7-1c-4 0-6 0-5 1v2c-2 1-2 1-2-1s0-2-2 0l-2 1c-2 0-4 2-4 4l-1 2c0-1-2 0-3 2-4 5-2 18 3 25l1 3c-2 3-36 2-38 0-1-2-1-2-7 9a325 325 0 00-21 56l-1 1v6h-3l-5-2c-4 1-4-1 0-4 5-5 8-9 8-11-1-1 0-2 1-2l1-7 1-9c2-6 3-14 1-18v-5h1c-1 1 0 2 1 3 2 2 16-11 16-16 0-3-1-4-3-2h-2l-2-1c-2 0-2 0 0-3 2-2 2-3 0-3l-1-4c0-3-1-3-4-5l-4-2v-2c-2-3 3-5 5-2 4 5 7 8 9 7 2 0 2 0 2 3l2 5c2 2 3 2 1-1l-1-1-1-2 1-2v-6l-1-1h1c4 2-1-12-5-16-5-4-13-7-17-5M10 76l-4 2v5c0 4 1 4 4 5 10 3 11 1 6-8l-3-6-3 2m171 0l-6 1-5 1h-2c0-2-4 3-6 6-1 5-1 5 1 4l1 3c0 3 0 4 2 4l1 1 3-1 6-4c2 0 2 0 1-2-1-1-1-1 1-1l3 1 1 1v1l2-1-1-1v-1c1-2 2-2 3-1 2 1 3 1 5-1 3-4 5-4 7 0 0 2 2 3 2 2 2 0 0-5-2-7l-3-3c0-3-1-4-3-3h-5c0-1-3-1-6 1m158 12l-3 3c-1 0-7 6-7 8s2 4 4 4l1-2c0-3 0-4 2-4 1 1 2 0 2-1l2-2 1-3c0-2 1-2 2-2 5 1 6 0 5-2-2-3-6-3-9 1m-148 27l-3 1-2 3-1 3c-2 3 0 5 3 4h4l3-2 4-1c3 0 4-4 2-6h-1l-2 1-1 1-8 4c-2 1-2 1-1-1l2-2c3 1 6-2 5-4 0-2-2-2-4-1m-68 7c-6 3-6 4-3 8 3 3 3 3 1 5-3 5-4 7-4 11 0 9 3 1 8-19 3-8 2-8-2-5m267 20c-3 5-3 5-1 6l1-1v-1l1 1 1 2c1 1 0 2-2 4-3 2-4 4-3 4l1 1v1l1 2-1 2-1 1-2 2h-3c-2 0-3 1-3 2 0 4 0 4-2 4l-7 5 10-5 1-1 4-2c1-2 3-3 4-2l3-1 5-3 3-1v-9c0-7-1-8-2-9l-4-4-2-2-2 4m-17 7l-5 6c-1 2-1 2-2 0v-3l-1-2c-2 0-4 3-4 8 0 7-2 7-6-1-3-8-8-9-8-2 0 2 0 2-2-1l-2-5c-1-2-4 1-4 4 0 5-2 14-4 14-1 0-2 6-1 9 1 2 1 2 1-1l1-6 2-2 1 3 5 10 4 5 2-2c4-3 10-2 10 3l1 1c1-1 1 0 1 1 0 2-1 3-2 3v3h2v2c-1 3-1 4-2 2h-2c-1 2 1 4 5 4 2 1 3 0 3-2l1-3-2 2c0 2-2 3-2 1 1-4 1-5 3-4l3-1h2c1 1 2 5 0 5h-1l1 1 1 3c1 4 3 5 6 0l1-3h-2c-3 1-3 1-2-2 1-2 1-3-3-6-2-2-4-4-3-5v-1c-3-2-4-9-3-14l1-9 1-4c2 1 6-1 6-3l2-6c3-7 2-8-3-2M84 179l-4 1-2 1-2 1h3l2 2c0 1 1 2 6 3 4 0 5 0 3 1l-2 1h2c6 2 9 1 10-2l1-2-12-7-5 1m-80 8c-4 0-4 0-4 4 0 5 1 6 6 6l3-1c0-3 3-2 3 0 2 4 6 4 6 0l1-3c2-1 4 2 4 5l1 2c2 0 1-4-1-7l-3-2-2-1v-2c-1-1-10-2-14-1m144 18c-5 1-10 4-9 5l1 1h1l2 5 2 4h10c12 1 13 1 10-2l-2-4-2-1c-2 0-2 0-2-2 1-2 1-2-3-2h-3v-5l-5 1m186 30v4c0 2-4 4-9 4-2 0-2 1-1 3 1 4 1 4 6 3 5 0 8-3 9-8 0-2 0-3-2-3l-2-3h-1m-35 21v2l-2 1c-9-3-21-3-24-1-1 1 0 1 5 3l4 2-6-1-8-1c0-1-3-2-7-2-7 0-7 0-7 3l-1 3c0 2 2 2 19 2s22-1 18-2 1-3 15-3l15-1-8-3c-8-3-11-4-13-2" fill="#d3d3d3" fill-rule="evenodd"/></svg>