<svg xmlns="http://www.w3.org/2000/svg" width="400" height="267"><path d="M1 17v18h8V18l1-16 6-1c6-1 5-1-4-1H1v17M145 2l-1 4c0 3-1 3-2 3l-2 2 2 2 3 2c0 2 0 2 2 0l3-2h2l1-1h2l-2-2c-2 0-3-1-3-2 0-2 3-5 4-4l1-2c0-3-9-3-10 0M23 16l-1 15v4h8v-9c1-10 2-13 7-13 3 0 3 0 3-4s-1-5-7-1c-3 1-3 1-3-1 0-1 0-2-3-2h-4v11m25-9l-3 5c-1 3-1 3 2 3 3 1 4 1 5-1 3-4 10-3 10 1 0 2-1 3-8 3-7 1-10 3-11 7-1 9 8 14 16 9 3-2 3-2 4-1 0 1 1 2 3 2 4 0 4 1 1 8l-2 7-1 6v6c0 1 0 4-2 7-3 5-3 9-1 9s2 3 0 4l-4 4c-1 2-2 5-4 6-3 4-4 15 0 18l2 5c0 4 4 11 8 12 4 2 6 6 6 16 0 11 0 12-4 10-3-1-42-3-44-1v3c-1 0-2 5-2 20l1 15v4c-2 1-2 4-2 17l1 16-3-2c-3-1-16 1-16 3l5 1h11c2-1 2-1 2 10 0 9 0 12 2 14l2 4v-13l1-12 6-1c6-1 33 0 34 1v31H50l-21-1-27-1-2 4c0 2 0 2 10 2 9 0 9 0 9-2-1-2 0-2 3-1 2 1 2 1 0 2l44 1 49-1c1-2-1-2-22-2-22 0-23 0-24-2a549 549 0 011-63l5-1c5 0 9 3 8 6s1 4 7 2l8-1c4 1 16-6 22-13l10-9 5-4 8 1 9 2c3 0-10-4-23-6l-14-4c0-1 3-1 11 1h4l-3-1c-9-2-36-16-31-16l-1-1c-2 0-2-1 0-5s2-4 6-4l5-1c1-2 1-1 9 5 6 5 22 15 24 15v-5c0-5 0-5 2-6 2 0 2 0-1-4-3-3-4-5-2-5l3 3 2 2 4-2c4-3 12-4 12-2h1c1-1 1-2-3-6l-7-8-4-6c-2-2-11-23-12-28-3-9-8-15-13-17l-2-1c2-1-3-3-8-3-4 0-5 1-1 3 3 2 3 7 0 6l-3 1c-1 1-10 0-10-1l4-3c3 0 6-5 5-7-2-1-4 1-3 4 0 2 0 2-3 2-2 0-3 0-3-2l-2-7V62l3-15c2-12 4-15 10-14 5 1 5 2 5 9 0 6 2 8 2 4 3-11 2-16-3-18l-4-1-2-1-3-1-4-1-5-1H81c-2 0-2 0-1-2l3-1 1-1c0-5 8-9 11-6l2 1v3c0 3 0 3 1 1l1-1c0 2 2 1 2-2 1-6-8-10-14-6-2 2-3 2-3 1s-1-2-3-2h-3v8c0 8 0 8-3 12l-4 5-1 1-1-11c0-13-1-14-6-16-3-2-12-1-15 0m243 4c0 3 0 4-2 4l-2 2 2 3c2 0 2 1 2 6 0 6 0 6-3 7l-3 2-1-8c0-7 0-9-2-11-3-3-11-4-16-2-2 1-5 6-4 7 1 2 6 1 6 0 2-4 9-3 9 1 0 2-1 3-7 3-6 1-9 4-9 9 0 7 8 11 14 6 3-2 4 1 3 6l-1 22v16c-2 1-3 2-5 1-3 0-8 2-10 5-6 10-24 28-27 28v1l-1 1c-1-1-1-1 0 0l-1 1v1l-1 2-1-1c1-3 0-2-4 0-4 3-4 4 0 4 5 0 8 4 8 10 0 2 0 4 1 3l9-10c3-1 3-1 2-2h-3l-4 2c-3 0-3 0-2-1l2-3c-1-1 0-3 1-4 2-4 7-5 19-3l13 2c4-1 4 0 1 3-3 2-2 4 1 4 4 0 9 2 10 5 3 5 5 26 3 24v3c2 3 2 33 1 33l-1-9v-9l-1 8c0 8 0 8-3 9l-5 2 3 1 4 1c1 1-5 1-17 1-17 0-17 1-18 3 0 4-3 6-11 5-6-1-10 0-10 3-1 4-3 4-3 0-1-1-2-3-6-4-4-2-4-2-4-5v-2l-21-1c-21-1-22-1-22 3l-1 3c-1 1 0 1 2 2l3 2 2 1c1 0 1 1-1 2l-3 5-1 4c-2 2 1 16 4 19 2 2 1-2-1-7-2-6-2-8 2-4l9 6 6 3v13c0 9-1 12-2 13v2c1 2 1 2 2 1 1-2 2-2 2-1l7 1c5 1 5 1-2 1l-7 1c-1 1 4 1 13 1h15v-10c3-44 3-43 6-40a455 455 0 005 46v4h7c6 0 7 0 6-2 0-2 0-3 2-3s2 0 1 1l-1 2c0 2 125 3 141 1h10v-8h-4c-11 2-29 2-30 1l-2-12-3-13c0-1 1-2 3-2l3-1h-3c-2 0-3-1-3-2a178 178 0 00-10-33c0-2 5-3 11-2s15 1 18-1c4-2 3-4-4-9l-9-8c0-2-4-6-6-10-12-17-18-27-13-25s10 1 13-2 5-4 10-4c9-2 9-2 7-4l-3-2V99l-1-30h6c10 1 13 5 13 18v8h7V61h-5l-20-1-33-1h-19l-2-6-2-8-2-6c-3-3-3-4-3-13V15h-3l-3 1-1 8c0 7 0 8-2 8l-4-2c-3 0-3-1-3-5s0-5 2-5l2-2c0-2-1-3-2-3-2-1-2-2-2-4 0-4 0-4-3-4-4 0-4 0-4 4M116 9l-2 3-1 1-2 1c0 3 1 7 2 6h3l-1-1v-1l2-2c0-2 0-2-1 0-1 1-1 1-1-1l1-2h3c3-2 7-1 9 1s2 2 3 1l1-1 1 1v1c2 0 1-3-1-5-4-3-12-4-16-2m100 9c0 5 0 6 1 4 1-3 1-3 1-1 0 3 3 3 4-1 1-3 5-5 8-3 2 1 4 9 3 11v1l1 3c0 1 0 2 2 1l1 2-1 3v1c1 3 2 0 2-9 0-11 2-14 7-12 2 1 3 1 3 12l1 11h6V29c0-11 0-11-3-14-3-4-8-4-12 0-2 1-2 1-4-1-3-2-9-3-11 0h-3l-4-2c-2 0-2 0-2 6m113-2c-6 1-11 10-9 15 2 9 6 13 12 14 12 1 19-13 12-24-3-5-9-7-15-5m23 1v28h7V35c0-11 2-14 7-12 2 1 2 1 2 11v11h7V33c0-11-1-12-3-14-3-2-8-3-11 0h-3c0-2-5-3-6-2m31 3c-3 4-3 10 1 13l5 2c2 0 8 5 7 5-2 2-5 2-7 0-3-3-9-4-9-2 0 6 11 12 18 9 2-1 2-1 2-8v-8l-6-2c-6-2-8-4-4-5 1-1 2 0 4 1 3 4 6 4 6-1 0-4-2-6-10-6l-7 2m-54 3c-3 3-2 12 1 15 5 3 9 0 9-8s-5-12-10-7m-36 15c-3 0-5 1-6 3-3 3-4 7-2 5l1 2v3h1c0-1 4-3 6-2 1 0 2 1 2 3l-1 3-1-3-2-2c-2 0-2 0-1 1 4 1 1 4-3 4-3-1-3-1-3 2l2 5 1 2c-2 1 0 6 4 8 4 3 5 3 14 2 5-1 7-12 4-20-1-3-1-3-2-2s-2 2-4 1c-3 0-3-3 1-3h3l-3-1-2-1h3c2 1 2 1 2-1l-2-2c-2 0-2 0-1-1s0-5-1-5l-4-1h-6M12 55v6h5c6 0 8 2 8 9v29c0 29 0 30-9 29-4 0-5 0-4 2l1 5c0 3 1 4 3 4s3-1 6-6c3-6 6-9 11-9h4v-10a929 929 0 001-45l2 1c1 2 5 1 5-1l-1-3-1-1 2-1c2 1 4 0 5-5l3-6c2-1-4-2-23-2l-18-1v5m232 4l2 1c2 0 2 0 1 3-1 2-1 3 1 5l2 8c0 4 2 8 4 6l1 2 1 2c2 0 2-1 2-8 0-10 1-12 6-11h5v-5l1-4h-10c-14-1-16-1-16 1m96 10c-3 2-6 6-6 10 0 2 1 2 3 2 6 0 10 3 11 7a3210 3210 0 014 16c1 2 1-2 1-16 0-21 0-20-6-20l-7 1m-38 9v4l1 4-2-3c-2-6-4-6-4 0 0 2 0 4-1 3 0-1-1-2-2-1l-1 2-1 2c-3 3-3 9 0 13s11 9 14 9 8-4 6-5c-1-1-1-1 1-1h4v-1l-5-2c-3-2-3-2-1-2l4 1 2 1c2 3 6 2 9-2 1-2 3-4 5-4s2 0 1-5l1-7v-2c-1-2-5 4-5 8s0 4-7 0l-11-4-4-2-1-1v-6l-3 1m-113 7l-5 5-2 4 6 16c7 20 6 18 12 17l11-1h6l3-9c3-11 3-15 0-22-2-4-2-3-6 6-4 13-3 13-9-3l-6-11-2-2h-8M25 157c-4 2-4 32-1 33l1 1 1 1 1-1 19-1h19v-15l1 8c1 10 2 6 2-11 1-12 0-16-3-17v2l1 5-1 3v-3c0-5-2-6-21-6-15-1-18-1-19 1m222-1l-2 2 1 1h37l3 3c2 2 2 2 1 0-1-4-1-4-19-4l-18-1 18-1h18-39M24 194c-2 1-2 2-2 12-1 16-1 19 2 21l1 1 1 1 2-1 18-1h18v-32c-1-2-37-2-40-1m268 6a763 763 0 003 61h23v-4l-3-20c-1-3-2-3-5-3h-4l3-1h4l-3-6-8-14c-6-11-9-15-10-13m-109 9c-1 4-1 4 1 4l4-1 1-2c0-2 0-2 2-2l2 1v2h3c1-2 3 0 3 2l4 3c4 2 4 2 4 6 0 5 0 5 3 5h3l-3 1c-2 1-1 1 4 1h6v-4l-2-8-2-4c3-1 0-2-7-2-6-1-7-1-9-3-1-2-3-2-9-3h-7l-1 4m89-3l-15 2-10 3c-10 1-13 13-4 13 2 0 2-1 2-4 0-5 2-3 2 3 0 3 1 4 4 4 2 0 3 1 3 2h33l-11-1-10-1h9c9 0 10 0 10-2l1-2c1-1 2-3 2-9v-8l-4-1-12 1m-71 26c-2 1-2 2-2 16v15h5c4 0 5-1 6-4 2-3 8-26 8-28s-14-1-17 1m49 0c-2 0-2 1-2 4s0 4-2 5l-4 4c0 3 3 13 5 15s39 1 40 0l1-15c0-12 0-13-2-13h-36m-100 3l2 4 2 4-4 5-4 7-2 4c-2 2-3 3-2 4l-1 1c-4 2-1 3 16 3l14-1c-4-1-4-1-1-1 6 0 4-4-17-27l-3-3m7 15l-7 12 11 1c11 0 11 0 8-4-5-8-10-11-12-9" fill="#d3d3d3" fill-rule="evenodd"/></svg>