<svg xmlns="http://www.w3.org/2000/svg" width="400" height="300"><path d="M0 14v15l4 3 5 6c1 1 1 1 1-1l1-2 9 9h1l3 1 1 1v2c2-1 5 1 4 2l1 1c1-1 2 0 3 1h1l1 1c-1 2-1 2 1 2h1l-1 1h1c2-1 3 1 3 5 0 5 4 6 5 2l1-3 14 10 2 1c1-1 5 1 5 2l5 5c4 2 5 3 5 6 0 4 3 5 3 1v-2l3 2 5 3c1 1 2 2 3 1 1 0 9 7 9 10 0 2 0 2 1 1 2-2 2-2 5 0l3 2c2 0 6 5 6 6 0 2 2 3 2 1 1-2 9 4 9 6h1l1 11v11l1-11c0-8 0-9 2-9l2 2 1 1 1 9c0 6-1 8-2 8l-1 1-2 1c-3-1-3-1-4 11 0 11-1 12-2 12l-2 2c-1 1-1 1 2 1l2-1v10c-1 9-1 10-3 11a1394 1394 0 01-66 30l-17 8 1-6 1-7c1-1 1-1 1 2-1 4 2 4 2-1 1-3 1-4 5-4h4l-1 3c-2 2-2 2 1 1 2-1 3-2 2-3l2-1 3-2 1-2 1-1c0-2 1-2 3 0l1 3v1l2-3 1-3 1-2c1-2 1-2 3 1 1 2 2 2 2 1l2-3c3-1 3-1 3 1-1 2 1 3 2 1l2-2 1-1 2-2c2-1 2-1 2 1h1l2-4c1-1 1-1 2 1s1 2 1 0l2-2c1-1 1-1 1 1v1l3-2 1-2 2-1h2l2-1 2-1h1c-1 3 0 2 2 0l4-3c3 0 3 0 2-2l-2-3h-1l-2-1 2-1 1-1 1-1h2l-3-1c-2 0-2-1-2-3s0-3 2-3l2-1-2-1c-2 0-2-1-2-3l-1-3c-2 0-4 3-2 4 3 2 0 4-4 4s-5-1-5-4c0-4-5-5-5-1l1 2 1 2-1 2h-6c-6 1-6 0-6-5 0-2-1-2-3-3h-3c-1-1 3-26 4-27 2-3 0-11-2-11s-3 5-3 18v12H69l1 1h3l3 1c3 0 4 1 4 8 0 4 0 5 1 4h2c1 2 0 6-1 4-1-1-10 0-11 1s-7 0-7-1l1-1 2-10 1-14v-6l1-3 1-2 2-7v-7c-2-5-5-3-6 4-1 4-1 4 1 5l2 2-1 2-2 1c-3-1-3 0-3 2l1 3c2-2 1 9-1 12v2l1 7-1 7-1-1c2-4-3-6-7-4-1 1 0 5 2 5v1l-1 2v3l-8 1H33c-7 0-7 0-7-2 0-1 0-2-1-1l-1-1h-1c-2 0-3-1-2-4l-1-3c-1-1-10-2-9 0l-1 1 1 6c1 1 1 1-1 1-1 1-1 1 1 1s2 0 0 1v3l-1 1-1 1-3 1v-1l2-2H7l-4 1c-2 0-4 2-2 2v1c-2 0-1 4 1 4h3l-3 1-2 1v115h34l35-1v-3c1-2 5-6 6-5l1-3c1-2 1-1 1 2-1 3-1 4 1 4l1 3c0 3 0 3 4 3l5-1 2-2 1 2c-1 1 0 1 7 1l9-1h1c0 2 34 2 34 0h1l3 1v-2c-2-1-2-1 0-1l2 2 12 1 12-1c0-3 3-3 20-3l16-1-2-1 1-1h2v-2c0-2 0-2 1-1 0 2 0 2 2 1 1-1 5 0 5 2l1 1h2c2 2 5 3 5 2h2l4 1a18684 18684 0 0065 1c3-3 4-3 4 0 0 2 1 2 5 2h6l-3-2-3-2-1-2 1-2 1-1h1v2c3-1 5 0 3 1v1c3-1 5 0 3 1v1c1-1 3 0 5 1 3 2 4 2 43 2h40V178l-3-1c-2-1-2-1 0-1s3-2 2-7c0-3-1-4-2-4l-1-1 1-1c2 0 3-4 2-6l-5-1-4-1v-16c-1-16-1-19-6-20-2 0-3 0-5 3-3 3-3 3-3 13l1 11c1 3-2 9-3 8l-4 1c-3 2-5 1-5-6-1-6 0-9 1-5l1 2c2-1 2-9 1-9l-1 2-2 1c-2 0-3-3-1-4v-10c-4-4-10 0-10 7l1 14v3c-2 6-2 6-7 6h-4l-1-13c-1-13-1-15-4-15s-5 5-5 12c0 13 0 16-1 14-2-2-2-2-2 0-1 3-4 3-4 0 0-4 2-7 4-6h1c0-1 0-2-1-1l-1-2c0-3-2-4-2-2-1 2-3 0-3-2l2-1c2 0 1-8-1-9-3-2-4 2-5 13 0 10 0 12-2 12-3 2-4-1-4-12 1-12 1-12-4-11l-2 1-1 9-1 13c-2-1-4 1-3 3l-1 1a271 271 0 011-46c1-6 2-4 2 5v11l1-10c0-9 0-11 2-12v-1c-2 0-1-1 2-2 5-1 5-1 5 1s2 1 3-2l5-4 4-2c0-2 3-1 3 1l1 5 1 3 1-5c0-6 0-6 7-9l5-1c0 3 2 4 3 3 1 0 2-1 2-3 0-3 5-6 9-6l2-1 2-2 4-2c2-2 3-1 3 4a590 590 0 003 20l1-8V85c0-5 2-7 10-10 10-4 12-4 12-1l1 3c1 1 1-4 1-19l1-39V0h-4l-6 2-3 2-3-2-5-2c0 1 1 2 3 2 4 2 4 3 1 6h-5c-3-2-4-1-1 1 4 3 0 2-10-4l-10-5c-3 1 12 10 15 10l2 1c1 1 0 3-2 3v-1c2-1 0-2-3-2s-3 0-1 1c3 2 3 3-1 4l-2 2v3c-2 2-4 1-7-2l-4-1 2 2c3 2 4 6 1 6l-2 1-1 2-6 5-5 3-1 1-2 3c-3 1-3 1-17-7l-12-8v-2l2-2 2-1v-2h3c2 0 2 0 1-1-2-3 0-4 3-4h1c-2-3 0-5 3-3s5 1 2-1c-2-2-2-2-1-3 2-2 2-2 6 0 5 3 7 4 4 1l-2-2 5 1c5 0 5 0 4-2h-9c-6-1-6-1-4-3V0l-4 4c-2 2-3 3-5 2-2 0-2 0-1 1 1 2 1 2-1 5a15697 15697 0 00-13 12l-12-6c-14-8-17-10-15-10V7c-1-2-4-3-3-1s-1 1-7-3l-8-3 5 4 6 4c-1 1 5 5 7 5 2-1 24 12 23 13l1 1 1 1-2 2-1 1-2 2c-1 0-2 1-1 2l4-2c5-5 6-5 19 3l12 6v1l-1 2-1 1h-2l-1 2-2 2-3 2a80 80 0 01-12 10l-6 3-3 3a63 63 0 01-16 12c0 2-9 8-10 7-2-2-3-1-2 1 1 1 0 2-2 4l-2 2c2 0 3 2 1 3l-1 2v2c-1 0-1 1 1 1v2l-3-3h-3l-3 2 1 1c1-1 2 2 2 3l-3-1-2-1c0 1-6 4-7 3l-1 1-3 1c-3 0-4 1-1 1 2 0 3 0 2 1h-34c-2 0-1-2 1-2 1-1 0-1-3-1-4 0-5 0-4 1 0 2-36 3-38 0v-2l-2-3v-6c1-7 0-12-3-9l-1 2 1 2h1l1-1c0 2-3 9-5 9l-2-1-3-2-2-2 1-2v-4l-2 2-1 1-1-3v-3l-4-10 1-5 4-2 6-2c4-1 4-2 0-2l-5 1-5 4c-6 2-5 2-9-3l-1-1v3c3 3 2 4-2 6l-2 2 4-2h3c0 2 1 2 2 1 3 0 3 0 3 4s-2 8-4 6l1-1c1 0 1-1-1-2v-2l-1-1c-1 0-2 5 0 6l1 2h-3l-7-1c0-2-1-2-2-2-2 1-6-3-4-4v-1l-1-3a2244 2244 0 01-2 18c0 2 0 2-2 0-2-3-3-3-3-2 0 3-2 2-2 0l-2-6-3-1-2-2c-2-3-2-4 0-6v-2c-1 0-3 3-3 5l-2 2v-2c0-1-5-8-7-8l-2-2-2-4-2-2 2-2 1-3-1 1c-2 2-3 1-3-2 0-4-1-2-1 4 0 4-1 5-2 5l-1-3-1-2-1-3-3-4-2-2 2-3c4-4 3-5-2-1-2 2-3 3-5 2l-1-2-1-3-3-3c1-2 2-4 3-3l1-2c0-4-1-4-4 0-3 2-4 3-5 2s-1 0-1 1c-1 5-6 2-5-3l-2-4-2-3-2-4-4-3 3-2c1-1 2-3 1-4h1c1 1 1 1 1-1 0-3 0-3 1-2l2 1-1-2c-1-2-2-1-6 3s-5 4-6 3h-2l-4-2-3-5-4-6c-3-2-4-4-3-4V5c-1-1 0-3 2-2l2-1c2-2 2-2-1-2l-5 2-2 2-2-2c-3-2-6-3-6-1h-6L6 0H0v14M148 2c-1 1-1 1 1 1l-29 15-3-2h-1l-1 2c-1 1-1 1 1 1l-12 7c-10 5-14 7-12 7 3 0 17-6 44-19 15-8 15-8 15-5v2l1 2v2l1 2v1l1 2v1l1 3v3l1 1v2a136 136 0 01-25 12l-1-2-2-1v1c3 2 2 4-9 9l-9 6 23-10c22-11 25-13 25-11v1l1 7 1 3 1 1v3c1 2 1 2-1 2l-3 1h2c3 0 3 0 4 5l1 7v1l4-3-1-1c-1 1-1 0-2-2l-1-4 1-1v-2c-1-1 0-2 3-3l3-3-4 2-4 1-1-9-1-3c-1 1-1 0-1-1v-3c-3 0 20-13 23-13v17c1 1 1 2-1 3v1c2 0 2 4 1 6s0 3 2 1h1l1-1 3-4 2-3-4 3-2 2V20c0-2 18-12 20-12v12l-3 3c-3 1-3 3-2 6l-1 1-1 2h-1v1c1 1 1 1-1 2l-2 2c1 1 8-4 11-7 2-1 2-1 5 2l4 2h2c3 1 2-1-1-2-2-2-2-2 0-2v-3c0-2 0-3-2-4s-2-2-2-6l1-7c0-2 3-1 13 5l9 5v4l-2 4 1 1c1 0 3-2 3-4v-3a168 168 0 0125 15l24 13 23 13a609 609 0 01-19-12c-1-2-1-2 2-5l3-4c0-1-4 1-6 4s-2 3-14-5l-11-6 1-3c2-2 2-2 0-2l-2 1h-1v1c1 2-2 1-14-6l-9-7v-2l1-1 1-3 1-4V8c-1-2 2-6 4-5V2c-1-2-4-3-4-1s0 2-1 1l-2-1 1 2c2 1 1 7-1 7l-1 1c1 1-1 7-2 7-2 0-21-12-20-13l-1-1V1c1-1 0-1-3-1l-4 1v3l-12 7-11 6v-5l-1-5-1 6v5l-9 5-11 4-2 1c1 1-2 2-3 2l-1-3-2-10c-3-10-3-11 3-14 5-3 5-3 3-3l-6 2h-4c0-2-1-2-3 0m243 9l-2 1-6 4-5 5 2 3c1 2 2 3 3 2 2 0 2 0 1 1-1 2-1 3 1 7 3 5 3 5 7 2 3-2 3-2 3-8 0-4 0-6-2-7v-2c2-2 3-5 1-5v-1c2-4 0-5-3-2m-29 21l-2 1-4 3c-3 3-3 3-2 6 1 2 2 3 3 2v1c-1 1 0 2 1 6 3 4 3 4 5 2s4-11 2-13v-6c0-2-3-4-3-2m-14 6l-5 4c-3 2-4 3-3 4s1 1-1 3c-4 2-4 3-1 6l2 2 1 4c2 4 2 4 4 3 3-2 2-10-1-10l1-2 2-6v-3l-3 1c-3 3-4 2 0-1s4-3 4 3v4l3-2c3-2 3-2 2-5l-3-4v-1l-1-1-1 1m-24 21l-4 4c0 2 0 2-1 1s0-2 1-4c3-3 1-3-2 0s-4 5-2 4v2l-3 1v-1l1-2-3 1v4l-2 3v2l-1-3v-3c0-2-2 3-2 7v3l3-2 3-2 2 4c1 4 2 4 3 2h3l1-4h-1l-2 1-1-1-1-4 1-2 3-2c2-2 2-2 4 2 2 5 3 6 4 3V59c0-2-1-2-4 0m-154 8c-1 1 13 2 17 1l1 1h14a95 95 0 0119 1h13c15 1 17 1 22 9l3 2c2-1-9-11-12-12a1150 1150 0 00-77-2m133 8l-1 1-3 1c-4 4-10 7-9 5v-1c-1-1-2 1-1 4 0 2 0 2-1 1-2-2-2-2-4 0l-2 1 2 2c3 3 4 3 3 0 0-2 0-2 1-1h3v-1l-1-2 2 1c0 2 3 0 3-2l1-2 1 1c0 2 2 1 2-1l3 3 2 4 1-4-1-4v-6h-1M18 107c0 9 0 10 2 10l1 3c-1 3-1 3-5 3-2 0-3 1-4 3-1 4 2 7 4 3 1-2 1-2 1 1 0 2 0 3 1 2 0-2 1-2 3 0 2 1 2 4 2 16 0 14 1 21 2 17l3-12c0-2 0-4 1-3l6 1c6 0 7 0 4 2v2l4-2 3-1-1 1-1 1 1 1c1-1 1 2 1 7 0 12 2 11 2 0a196 196 0 017-37c3-10 0-18-4-13-2 2-3 9-4 33 0 4-1 5-3 5l-1-1-6-1-6-1v-14l1-1 1-3 1-4 1-4 2-5v-6l1-4-9-3-10-4c-1-1-1 1-1 8m280 7c-1 2-1 2-2 1 0-2-2-1-2 1l-2 3c-3 2-3 6 0 8 2 1 2 3 2 7l1 6 1 2c-1 1 0 1 1 1 2 0 2-1 2-3l2-4c2-2 2-24 0-24l-3 2m-141 1l-1 2c-1 1-2 4-2 12v12h8c1 1 3 0 4-1 2-1 2-2 2-10v-9h-5l-4-1h4c5 0 5 0 5-3s0-3-1-2h-1l-2-1-2 1-1 1-1-1-1-1c-2-1-2-1-2 1m16 0l-1 22a304 304 0 010 30c2 0 2 2 1 2l-2 1 1 1v2c-2 1 0 4 2 3 1-1 2-2 1-9 0-7 0-8 2-8 2-1 3 0 1 2l-1 6c1 6 1 6 4 7l4 1h5l5-1-1 1-2 1c1 1-8 2-10 0h-3c-2 0-2 1-1 1v2l3 1h6l1 1c-2 0-1 2 1 2l2 1 3 1c3 1 3 1 0 1l-7 2c-2 1-2 1 3 1h9c4 0 4 0 4 4 0 3 1 4 1 1 1-2 1-2 4-1 1 1 2 2 1 3h3l2 1c-1 1 0 1 1 1 2 0 2 0 0 1l-1 1c4 2 2 3-4 3-6 1-6 1 2 1l9 1h4c2 2 5 2 5 1l-1-2-1-2c0-2 0-2-1-1 0 2 0 2-2 0s-3-3 0-2l1-1-3-1h-5c-2-2-3-3 0-3l-1-1c-1-2-2-2-2 0l-5-1-5-3-1-2c0-1-1-2-3-1-1 0-2 0-1-1 3 0 2-3 0-3s-2 0-1-1l2-2 1-1v-1l-2-3-1-1v-1c2 0 2-1 2-6l1-7v8c0 4 0 7 1 6h20l19 1h-20c-11 0-19 0-18 1v3l1 2 1-1v-1c1-1 6-2 20-1l19-1-1-1-2-1 1-1c1 0 2-2 2-5 0-7 0-8 3-8l2 1 1 3c1 3 2-3 2-20 0-29 1-28-5-28-3 0-3 1-3 4s-1 3-3 3-2 0-1-1c2 0 2-4 1-6h-10l-10-1-1-1-1 1h-19v3l-1 2-1-3-1-2h-25m82 18v9l4-1c3 0 3 0 3 3l-1 4v1l2 5a234 234 0 011-16c1-2 0-3-1-2s-1-1-1-5c0-7-1-8-3-6h-2c-1-3-2 0-2 8m-67 8c-2 1 0 14 1 13l1 2-1 1c-1-1-1 0-1 1 0 3 0 3 3 3 2 0 3 1 3 2v-4l1-10c1-7 0-9-4-9l-3 1m-34 9c0 4 0 7 2 8v3c-2 1 0 3 3 2h5c2 0 3 0 3-2h-1c-1 3-2 1-1-3v-10c0-3-1-4-6-4h-5v6M39 178c-5 1-6 3-4 8s8 2 10-4c0-4 0-5-6-4m130 44l-10 3c-3 0-4 0-3 1s2 2 1 3l-1 2v-1l-1-1-1 2h-1l-3 3c-3 4-4 4-6-1-2-4-2-4-3-2l1 2c3 1 2 7-2 7l-1 1h-1l-2 1c0 2 0 2-2 1h-3l-10 1-12 1-8 3c-4 0-4 0-3 1 2 1 1 1-3 2-5 2-9 5-3 3h5c2 0 2 0 1-1v-1c1 1 3 0 4-1 3-2 5 0 3 2l-2 2 5-3c6-6 10-7 4-1-2 3-4 5-3 6l-4 5c-4 5-5 7-3 7s9-11 9-13l2-3h1l3-1c6-4 6-5 6-2v2h1l2-1 2-2v2l-1 4v3l1 2c1 1 2 2 3 1v-2l2-1-1-1-1-2 2-2 1-1c0-2 6-3 7-2v1l-1 1 2 1 1-2 2-1c2 1 3 0 4-1 1-2 2-2 4-2 2 1 3 1 3-1 1-1 1-1 3 1s5 3 4 1v-1l2 4-2-1c-2 0-2 0-1 10v9h-2c-3-1-5 1-4 3l-1 4v6c0 5 1 9 3 9h2c0 2 2 0 1-2s2-1 3 2c1 2 4 3 4 1h2l-1 2v1l3-2 2-2-2-3c-3-4-4-7-2-5l1-2v-1c2 2 4 3 3 1l-1-12c-1-10-1-11 1-10 1 0 2 0 2-2v-1h-3c-1 2-3-2-3-6s10-5 14-3c1 2 1 2-5 2-5 0-6 0-5 1l1 1 1 1c2 2 4 2 5 1 3-1 3-1 3 1l4 1c3 0 4 1 7 4s3 3 2 1c0-2 0-2 2-1 1 2 2 2 2 1v-3l1-1a116 116 0 0136 2l6-1-1-1-1-3c0-3 0-3 2-3s3 0 3-3c-1-2-1-3-5-3l-4 1-2 1c-2 1-2 1-1 2 2 1 0 2-4 1h-6l-5-3-4-3-2-1-4-2-3-2c-1-3-9-6-10-4h-1l-1-2c-4 1-6 0-6-2s1-2 5-2c5 0 5 0-2-1l-9-2h-4c-1-2-2-2-4-2v-4l-6 3m32 16l-4 1c-3 0-3 0-1 1 5 0 2 2-3 2-4 0-4 0-2 1 3 1 3 3-1 3l2 1c4 2 24 3 24 1l-1-1-2-1-2-1c-1 0-2 0-1-1l-2-1-2-1-1-1-2-2c0-3-1-4-2-1m54 7v1l1 2c-1 1 0 2 1 2l1 7-1 6c-2 0-1 2 1 4v-3l2 2 9 6c4 2 7 5 7 6 0 2 4 3 9 3 3 0 4 0 3 1l1 2 2 1c-2 2 1 2 3 0s2-2-15-13c-14-9-17-12-17-14l1-2v-12h-4l-4 1M58 255l3 3 1 1 6 6 4 7 1 1h1v1h2l1 1c-1 2 10 12 11 11l1 1v1h1v1h1v1h1v1h1v1h1v1h1c-1 1 1 3 3 2v1h3l1-1h-1l-3-3-1-2-1-2-2-4-1-1-1-1h2c1 0 2 0 1-2 0-1 1-2 6-2s7 1 7 2l1 1v8l1 2 1-1h1l1-1v-2l1-1 2-5c2-4 2-4 3-3l2 2c2 0 1-5 0-5v-3c1-2 2-4 1-5h2c-1-1 0-3 1-4l1-4-2 1-2 2-1 1h-1c-2-2-4-3-4-1 0 1 1 2 2 1v3l-1 2c-2 1-2 1-1 2 1 0 0 2-3 4-2 3-4 4-4 3l-7-4-3 2c-2 1-2 1-1-3 0-4-1-4-4 2s-4 6-11-1-7-7-6-4l-14-12h-1l-1-1c1-1 0-1-2-2-3-1-3-1-1 1" fill="#d3d3d3" fill-rule="evenodd"/></svg>