<svg xmlns="http://www.w3.org/2000/svg" width="388" height="300"><path d="M176 62h-36l-2 3-3 2v90l1 91c3 6 2 6 69 6 67-1 65 0 67-6l1-92V67l-4-3-3-3h-27l-63 1m88 16v5H141v159h63l63-1-1-13a3455 3455 0 00-2-150m-33 50l-8 1-2 1v-1c1-1-2-1-10-1l-11 1v2l-4 3 1-3 1-3h-51v48h9c12-1 14-2 14-5l2-3c2 0 2 1 1 4v2c0 2 0 2-1 1l-4 1c-3 2-12 4-17 4l-3-1v28l7-1 4-1c-2 0-3-3-3-6v-2l-2 1c0 2 0 2-1 1v-4c1-1 1-2-1-4-2-4-2-5 2-2 3 1 5 5 5 7l3 5 3 4c1 1 9 2 47 2h46v-79l-10-1-17 1m-83 100v9h110v-18H148v9m71-3c0 2 1 3 2 3l1-1c0-1 5-2 5 0h15v-3c0-2-1-2-12-2h-11v3" fill="#d3d3d3" fill-rule="evenodd"/></svg>