<svg xmlns="http://www.w3.org/2000/svg" width="400" height="267"><path d="M314 13a731 731 0 000 94c-2 0-2 3-2 20s0 19 2 18l1-3 6-4h1l1-5 2-4c0-2 0-2 1-1l1 8c0 8 2 8 8-1 4-4 6-7 7-6l-3 4c-2 3-2 3 0 3l4-1 5-2c3-2 3 0-1 3l-1 2c1 0 1 1-1 3l-1 2 1 2v1l-1 4-3 8c-2 5-4 6-12 5-4-1-7 1-9 7l-3 6-2 4-1 1-1 11-1 12-55-2-1-10-1-10 5-6c4-5 5-6 7-17 4-23 4-30 0-41v-10c2-9 1-11-14-19-14-7-15-8-18-11-3-2-3-3-3-8 0-3 0-5 1-4 1 2 2-1 3-10v-8l-4-6c-6-8-8-9-16-9-15-1-22 9-19 25 1 9 1 9 3 7 3-3 4-2 5 1 1 2 4 3 5 1l2-1 1-1 2-1c1 0 2 2 1 6l1 1c3 0 1 2-3 2-3 0-3 0-3-2 1-2-2-2-4 1h-3l-1-2c-2 0-1 6 2 7 4 3 2 7-3 4-1-1-3-1-8 1l-12 5c-6 1-9 3-9 6l-1 4c-2 2-3 5-5 15l-3 7-2 4v1l-2 4c-2 4-2 5 0 2l2-2-1 4-3 12c-3 7-4 7-7 7s-3 0-3-2l1-2-2 2c-1 2-2 2-14 2l-12 1c0 2 3 3 35 3l34 1 5 3 4 3v-4l-1-4h-1v-2l-1-2c0-3 4 2 5 7l2 7 27 17 7 4v82h5l6-1h1a413 413 0 0066 0l16 1h13l-7-4-8-5-2-1h-1c0-2 5-4 13-6l6-3c3-1 3-1 7 1l2 3 1 1 3 2c2 3 4 2 5-3l2-5c5-5 1-7-14-8-12 0-14-1-14-5s4-13 6-13c2-1 4 0 4 2s2 3 2 1c1-2 4 1 4 3l5 3c6 4 16 6 26 5l2 1 5 5h1c0 3-5 6-8 5-2 0-2 0-1 4 0 2 1 6 3 8l2 7c0 2 0 2 6 2h7v-32l-1-54v-22h-11l-4 1v3c-1 1-1 2 1 3l1 6c0 5 0 5-4 6l-10 5-4 1c-3 1-6 3-6 6-1 2-1 2 8 2 10 0 16 2 14 5-1 1-1 1 2 1 5 0 2 1-6 2-17 1-20 2-32 8-13 7-13 7-17 5-2-1-3-2-2-4v-7c1-4 2-5 6-9 5-6 25-19 42-29 4-2 0-3-7-1h-7c2-2 14-6 15-5s4-2 4-4v-1l1 2c0 2 0 2 5 1h8l3-1V0h-86v13m-96 31l-10 3c-8 1-9 3-7 7v3l-1 3h1l2-1v-1c0-1 5-2 7-1l4 3 1 2c0-4 4-6 8-6 4 1 6-1 6-6 0-6-5-8-11-6m-14 48v8l-1 2-1 9c0 8 0 8 1 4l4-8c3-5 4-8 1-9v-2c2-2 2-3 0-6-3-6-4-6-4 2m19-2l-5 3 2 2 2 3-3 1c-3 2-3 3-2 11l1 5 2-8 2-8 1-1 5-10-5 2m126 65l-4 6c-12 9-23 21-19 22l3-2 5-3 5-5c2-4 3-4 2 0l2 9 6-14 1-2 1-14-2 3M1 229v38h60v-6l1-37v-31H41l-31-2H1v38m72-7c-2 2-3 6 0 9 3 4 9 2 9-4s-5-9-9-5m240 14l1 5 2 1 7 4c6 3 6 3 9 1l3-3-1-3h-2c-4 2-10-3-9-7 0-3-1-4-3-1-2 2-4 1-4-1-2-4-3-2-3 4" fill="#d3d3d3" fill-rule="evenodd"/></svg>