<svg xmlns="http://www.w3.org/2000/svg" width="400" height="267"><path d="M55 2l1 4 6 2c6 1 6 1 4 2l-3 1h2l2 2h-2c-2 0-2 0-1 2l2 2 1 3c0 2 0 3 3 2l2 1c0 2 0 2-2 1s-3 0-3 2l2 2 3 2h-5c-1 3 1 5 3 5l2 2c0 2 0 2-2 1-2-2-2-2-2 0-1 1 0 1 2 2l2 2h-2c-3-1-3-1-3 1l2 1 3 1h-2c-3 0-3 0-3 2s1 3 3 3l2 2h-2c-1 0-2 0-2 2-1 3 0 3 2 4 3 0 3 2 0 2l-3 1 2 1c3 0 3 2 0 2l-2 1h2c3 1 7-1 7-3l3-3c3-2 4-4 1-4l-2-1c-1-1 0-1 1-1 2 1 2 0 2-3l-2-2-2-1h2l2-1-2-1-2-1 2-1c2-1 2-2-1-3-2-1-2-1 0-2 2 0 3-3 0-5v-1c3 0 2-3 0-5l-1-1c2 0 3-3 1-3V13l-1-1V8l1-4c0-4 0-4-3-4l-3 1h-1l-9-1c-7 0-7 0-7 2m25-1v1l1 8 1 7v1l2 2c2 1 2 1 0 1-3 0-3 5 1 6 2 1 2 1 0 1s-3 3-1 3v1c-2 1 0 7 2 9l3 1h-3l-2 2 2 3h3l-3 1c-3 0-2 2 1 3 2 1 2 1 0 1l-2 2h12c5 0 7 0 6-1-1-2-1-3 1-3s1-3-1-3v-1c2 0 3-4 1-4l-2-1 2-1 1-3c0-4 0-4-2-4l-3-1 2-1 2-1-2-1-3-1 1-1v-2l-1-3-1-2c0-2 1-2 3-2l1-3c0-3-2-4-2-2h-1V8l-1-5V2l1-1H80m24 0l2 23a1165 1165 0 003 34h2l1 1v-6l-1-45c0-6-1-8-4-8l-3 1m106 1l5 4 4 4 25 14 5 2-1 8c0 9 1 17 2 13l1-4 1-2v-6c-1-6 0-7 2-6v2l1 16c0 15-1 19-5 20-6 1-9 17-4 17 2 0 5-4 6-7 1-1 1 0 1 2-1 3 1 5 2 2l4-1c5-1 7-4 3-5h-4c-2 0-2 0-2-2v-3l1-1c0-2 4-4 7-5l15-3c2-1 2-2 2-4l-1-2 3 3c3 4 5 9 2 9l-1-1-4-4-1 2v3c-1 1 3 14 5 15v2l-2 5v4l3-4 6-3c3 0 9 4 8 6-1 0-2 0-3-2-3-4-10-1-10 4l-1 3-1 2-14 43v-30h3c2 0 2 0 0-3l-3-2 5-5c5-4 7-8 4-8l-1-2h-1l-1-2-2-5c-2-2-2-2-4 0h-5c-3-1-3-1-5 1h-3c-1-1-1-1-1 2 0 1 0 2-1 1l-1-1c-1 0-2 4-1 5 2 4-1 4-5-1-5-5-5-5-6-4-2 2-2 2-9-2-10-6-11-6-10-1v5l-1-4a2759 2759 0 00-2-14v-6c-1-3-1-3 3-7 3-3 3-3 1-2l-3-1c0-3-18-4-20-1l-2 1c-1-1-1 0-1 1 0 2 0 2 1 1h2v14c-1 2 0 7 3 11 4 3 4 4 2 5-2 2-2 2-3 0l-4-8-1 2v-4c1-2 0-4-1-3l-1-12V48l1-2c2 0 2-3 0-4s-2-1 0-1 2 0 1-1c-2-1-2-1 0-1s2 0 0-2l-3-1h3c5 1 5 0 0-2l-4-2h4c6 1 7-1 1-2l-5-2h-1l-1-1c-1-1 0-1 1-1v-1c-2-1-2-3-2-6-1-6-3-7-3-1v10l-3 46c0 1-1 2-7 4l-9 4c-2 1-7 0-11-4l-3-1-2-1c-2 0-2 0 0-2 2 0 3-2 2-2l1-1 3 2c0 2 0 2 3-1s3-4 0-8c-3-3-4-4-4-2s-5 3-7 2-2-2-1-3c0-2 0-2-2-1-3 1-4 1-5 6 0 5 1 7 3 3 1-2 3 1 3 4s-2 6-4 5l-9-5 3 4 3 6 2 1 3 2c2 2 2 2-2 4-5 3-8 4-9 1h-1c0 1 1 3 3 3 4 2 5 4 3 5l-1 3c0 2-5 4-7 4a445 445 0 01-2-35l-8 4-6 1 1 8c1 13 0 21-1 25-1 2-1 2-2 1 0-2-1-1-2 2l-4 5v-2c2-4 4-13 3-14v-2c0-2-1-2-3 1s-4 4-6 4l-5 1c-3 3-13-3-15-10-1-2-2-3-3-2-2 0-2 0-2-2l1-2v-1c-1-2-2 0-2 5 0 3 1 5 3 8s3 6 0 9l-2 3v2l-12-1c-1-1-4 0-10 3l-9 4c-2 0-5 5-5 7l-3 7-2 10 1 5 1-4c3-5 3-5 2 1l-1 35c1-3 2-1 0 3l-2 3c-1 0-11 9-11 11s1 1 4-2c4-5 7-7 8-5s2 14 1 16l-5 22c0 9 0 10 3 14 4 6 6 7 6 3v-2l1 3c1 5 1 6-1 6-3 0-9-3-13-6l-3-3v3c0 3 1 4 8 9 2 0 2 1 1 5l-1 5 3-4c1-4 2-5 3-5l3-1c2-2 3-1 3 6 0 3 0 4 2 4s2 0 1-1l-1-6-1-4-1-5-1-4h7l10-3 5-2v3c1 4-3 9-7 9-5 0-8 2-9 6v4l1-3c2-4 3-4 2 1v5h83c77 0 83 0 85-2s3-6 1-6l-2-3h2l5 2c3 0 3 0 3 4l1 5h12c13 0 12 1 14-10 0-8 2-6 3 3v7h24v-6l2-9 2-9c0-6 0-6 2-5l3 2 1 5v22h95v-11h4l4 1v-18h-3l-6-2-3-1c0-1-11-15-16-18l-4-4v-14l1-14 1 1c0 1 1 1 2-1l12-1h10v-29l3-1h3v-16c0-15 0-15-2-14h-2l-3-1-3-1 1-1 1-1c-1-1 1-1 3-1h5v-14c0-13 0-15-2-17l-2-2v2l1 4v1c-3 0-6 0-5 1l-2 4c-3 2-2 3 3 2 2 0 2 0 2 3s-1 3-2 3h-8c-5 0-6-1-6-2l1-2 4-2c4-2 5-8 1-10-2-1-3-1-2-3l-1-1c-2 1-2-1 0-6l-1-1c-2-1 6-4 10-4s5 1 7 8c2 4 2 2 2-29V21h-5l-67 4c-22 1-50 0-55-2-5-1-21-11-30-17l-8-6h-29l4 2m-65 27c-5 2-6 3-7 7l-2 6c-2 4-1 4 3 2l4-3 3-3c5-2 11 1 14 5l4 5c3 2 3 3 3 7v5l2-3c3-6 3-15 1-20-3-5-5-7-11-8-7-2-7-2-14 0m174 43c-2 3-3 7-1 7v2c0 2 4 6 8 7 3 0 3 0 2-1 0-2 0-2 1-1l3-4v-6c0-4-1-5-7-5-4-1-5-1-6 1m18 7c1 6-1 10-4 9l-3 1 2 1c3 0 5 2 4 4l1 3c1 1 1 1 1-1 0-3 0-3 1-2l7 11c1 5 4 4 3 0v-4h-1c-1 2-2-3-1-6 0-3 3-4 9-2 2 1 3 2 4 6l5 10 2 9c1 5 1 6 4 4l1-10c0-12-1-14-6-16l-7-4-4-2v-7h2l2 1 2 1 2 1-1-2v-3c1-4-2-6-9-6-3 0-5 1-5 2 0 2-4 3-6 1l-3-2c-2-1-2-1-2 3M207 96l2 9 2 9c1 2 3 2 3-1l1-1c2 0 4-6 4-10 0-6-5-8-8-3l-1 4v-3l-2-5c-1-1-1-1-1 1m113-1h-2c-4-1-7 2-8 8 0 6 1 9 3 6 1-1 2-2 3-1 2 0 2 1 2 4l-2 1c-6 0-6 0-6 3 0 4 2 6 5 3l2-2v1c-2 3-1 4 4 4 4 0 4 0 1 1l-4 1h-1c-3-1-5-1-5 1l1 2h1l2 1c3 5 6 6 13 3 6-2 7-4 8-9 0-3 1-4 3-4l2-1c0-2-3-4-3-3l-2-2-2-5-1-4c0-4-12-11-14-8m-167 1c-2 1-2 7 0 19l1 16v6l1-7 1-25c0-10 0-11-3-9m-16 10c-4 1-4 0-5 14 0 11 0 12 1 11l2 1-1 2c-3 0-2 3 0 5l2 2h-2l-3 1 6 3c3-1 4-3 1-3-2 0-2 0-1-1v-10c1 0 2-1 2-3l1-6c1-2 0-11-1-11v-2l2-4-4 1m-35 3l-4 2h-3l2 1c3 1 3 3 0 3-2 0-3-1-3-2l-3-2-3-1c-2-2-1 7 1 10 1 3 5 4 5 2l2-1c2 0 3-1 4-3l2-6v-3m259 14c-3 0-4 2-2 8 1 3 0 4-1 4v1c1 0 2 1 2 4s-1 4-2 1l-2-2v4c4 5 2 5-2 1-5-5-9-7-6-3 1 1 1 1-1 1-5-2-5-2-7 2l-3 3-3 2c-3 3 1 4 14 5h12l4 5c5 8 7 12 6 16-1 3 0 11 1 9 4-7-5-40-10-37-2 2-1-2 1-5l2-7 1-9v-4l-4 1m-259 76c-5 0-5 1-5 17v11l8-1h9v-14l1-14h-5l-8 1m54 13c-2 0-3 7-5 19 0 4 0 4 4 5h5c2 0 0-25-2-25l-2 1" fill="#d3d3d3" fill-rule="evenodd"/></svg>