<svg xmlns="http://www.w3.org/2000/svg" width="400" height="267"><path d="M0 134v133h161l4-12c4-11 5-12 8-13 4-2 4-3 0-2-3 0-4-1-1-5 8-15 13-31 12-35-2-2-3-3-4 0l-7 3c-10 3-11 3-11-2 0-10-4-21-6-18a179 179 0 01-73-4l1-1 1-1 5-4c4-2 6-4 5-5-1 0 2-3 6-4l8-3 11-2 9-2 11-1c3 0 1-2-4-2l-5-2c-2-1-1-2 1-2h2l6-1c2 0 2 0 1-2-2-1-2-2 3 1l2-1c-1-1 1-3 4-3s3 1 5 4c1 4 2 3 2-1l1-5 1-17 1-15h2l3-1 4-1-2-1c-9 2-8 5-8-17 1-41 2-49 7-50 2 0 3-1 3-9 0-12 0-15-3-19-2-1-3-4-4-6-1-7 8-6-82-6H0v134M379 1l1 4c0 2 0 2 5 2l6 1h2l6-1 1-4V0h-11c-9 0-11 0-10 1M213 38l-8 1c-6 1-14 5-11 6l4-2 5-2c2 0-2 3-11 7-8 4-15 9-15 12l-2 4v7l3-1c2-2 4-2 2 0s0 2 4-2c5-4 14-8 19-10h3l-4-1-8-2-4-1 3-1c3-1 11-1 12 1v1l-1 1 11 1h15c4 1 4 1 3-1 0-2 0-2 3 1s4 3 9 3c3-1 6 0 8 1l3 1h2c2 1 8 0 8-2l-3-3-3-3-1-3v2l-1 3-6-5c-1-2-1-2-2-1-2 2-2 2-4-2-2-6-2-6 0-5 3 1 0-1-4-4-6-2-25-3-29-1m10 5c1 1 1 1-1 1h-5v1l1 1-4-1h-5l1 1 2 1 3 1 4 1h1c1-2 1-2 4 0l4 2 3 1 2 1-1-1c-2-2-1-3 1-2h2c0-2-6-7-8-6l-1-1-3-1v1m40 1c-8 0-2 5 8 6 8 0 9 1 9 7l1 7 1 3 1-4 1-10c0-10-1-11-21-9m-80 58c-5 1-6 2-6 4 1 1 3 2 10 2h14c-2-1-2-2-1-2 6-2-10-6-17-4m42 4c-8 3-7 4 2 6 15 2 18 1 14-5l-2-1h-1v3l-2-2c-2-2-7-2-11-1m72 11l-6 1c-6-1-10 0-10 3 0 2 11 1 14 0 2-1 3 0 6 2l7 6c2 3 2 3 1 4-2 2-11 4-16 4-4 0-4 0-4 4 0 8-13 21-17 17-2-1-2-1-1 5 0 6-2 15-8 28-3 5-14 19-16 19l-6 4c-10 8-25 8-40-1-5-3-5-3 1-1 8 2 21 0 27-6 3-4 4-7 1-3-9 7-25 8-36 0l-3-2 3 6-1 2v4l3 1c2 0 1 2-3 4s-7 5-7 7l2-1c2-2 2-2 4 6 2 12 0 21-7 30l-4 6 16 1h16l1-4-1-10c-1-6 0-11 3-22 1-3 9-6 13-4h3l-3-2-2-3 4-1c5 0 11-4 18-9l6-4-20 41-9 18h174v-96l-9 8-13 16a854 854 0 00-28 40c-2-1-6-9-6-13v-4l-4 1c-5 0-9-3-12-12a152 152 0 00-8-18c-1-3-1-3-3-2-3 1-13 0-15-1-1-1-1-1-1 1 0 5 8 11 15 11 2 0 6 7 5 8-1 0-15-2-25-6-6-2-8-3-11-6s-3-4-2-4c3 0 4-5 3-16l1-14 3-7 3-4 1-1 1-1c2 0 11-6 11-8 0-1 1-2 4-1l1-4c0-5 0-6-5-10l-6-7c-1-2-3-3-3 0m-103 43c-3 2-2 4 2 8 4 3 9 5 9 3-1-2 3-2 5-1 1 1 6 1 10-1l1 1-3 2c-3 1-3 1-1 1 3 0 13-5 15-7 4-4-31-9-38-6m79 10l-1 4c-2 0-1 4 2 7l3 3 2-2c1-1 2-3 2-7 0-7-1-9-4-9s-3 0-4 4" fill="#d3d3d3" fill-rule="evenodd"/></svg>