<svg xmlns="http://www.w3.org/2000/svg" width="400" height="267"><path d="M0 98a1577 1577 0 003 88l1-12 2-15 1-9 8-8c5-5 7-7 9-6 6 1 10 2 11 4l2 2 2 2h1l-1-2v-3l2 4 2 2c0-2 0-2 2-1 2 2 1 0-1-4l-1-4 1-1 2 1c1 4 2 4 2 1v-1c2 2 1-2-1-6l-1-7c0-2 0-2 1 0l3 4c3 2 4 3 5 8 2 5 4 7 4 3l2-2v-2l1-2c2 0-4-5-8-7l-4-5c-2-4-3-5-3-3l-1 2-1-7c0-6-1-7-1-5l-2 1-1 1-1 3-1-3c1-1 0-3-1-5V94c1-3 1-3-1-2l-2 2c-2 3-2-1 0-4 3-4 9-7 15-7s8 2 3 2c-2 0-3 0-2 1v1l1 1 2-1h2c-1 2 0 3 1 2 3-2 15 2 14 5l-1 7-1 6c-2 0-7 4-7 5 0 2 3 1 4-1 2-3 2-3 4 2 3 5 3 5-2 5-3 0-3 0-2 1 2 1 2 1 1 4-1 2-2 3-1 4l1 2 3 4c4 4 5 11 5 38 0 6 1 7 2 6 4-3 7 6 3 10l-2 1v-2c-1 0-2-1-1-2l-2 1c-2 2-6 17-6 20v14c-2 2-2 3-1 3 3 0 4 20 3 36l-1 9h330l1-134V0H0v98m363-30c-6 3-11 12-7 12l2-2h1c0 1 1 2 3 2l2 1c0 1 3 2 10 3 11 2 12 2 2 3l-10 1-3 2v3c2 4 0 3-2-1l-2-4c2 2 3 0 1-3h-2l-2 1-2 5h2l2 1v1c-2 0-1 4 1 4 2 1 2 1 0 1-3 0-4 1-3 5s9 5 9 1h2l2 3 1 3v6c-1 0-3-4-2-5 0-2-2-3-4-2-1 1-1 2 1 5l3 4v1l4 3 3 2 4-8c5-9 5-16 2-14l-2-1 3-1c1 1 2 0 2-1l2-4v-7l-1-3-1-6c2-9-11-16-21-11m-217 6c-5 2-8 7-5 7l2 2v1c-2 0-3 4-2 7v4l-2 3h1c1-2 7-2 7 0l-2 1c-2-2-4 0-4 3 0 4 4 8 7 8 1-1 2 0 3 1 4 6 5 7 7 7s2 0 1 1c-2 1 1 3 4 3 2 0 3 0 3-3v-4c-1-1-1-1 1-1s3-2 1-4v-1l3 1c2 4 3-1 1-7-2-2-2-3-1-4s2-3 1-4c-1-8-1-10-4-13-5-6-17-10-22-8m83 19l-2 1-4 1c-2 2-2 8 1 8s6 2 6 3l-3 1-3 1-2 1c-1-1-1-1-1 2 1 3 3 6 5 6h1l6 2c3 0 4 1 2 1h-4l-3 1 2 1 2 1c0 2-5 1-6-1l-4-4 2 4 1 2 3 3 2 1h4l2 1c-2 1-2 3 1 6 2 3 2 4-1 2h-1v12l-1 12 2-5 3-4 2 1c2 0 1-3-1-4v-9c-1-2-1-2 1-2 3 1 7-10 5-14s-1-9 1-12c2-2 4-10 2-10l-1 4-1 1-3-11c-1-3-1-3-7-3h-7l-1-1v1m-97 20c-1 2-1 3 2 10l9 20c6 15 7 16 5 6v-10l-1-7c-2-3-2-4 2-4 3 0 7 4 4 5-2 0-1 5 2 15 3 9 3 12 0 13-4 1-2 4 6 8l6 2c2 0 6 3 7 6 1 2 1 2 3 2h4c0-1 1-2 2-1 1 0 4-2 4-4-1-1 0-1 6-2h5l3 2c2 0 3-1 1-2v-2c0-2-17-7-21-7l-4-1h-2c-4 3-8 3-9 1-1-3 1-4 7-3l6-1-8-2h-6l-1-4-6-22c-1-3-5-5-9-5s-3-2 1-2c5 0 8-2 3-2l-6-3c-4-3-5-4-5-1-1 2-4-1-7-5l-2-3-1 3m87 29l-7 16v9l3 6 2 4-11-1-11 1 12 1 15 1a956 956 0 0036 0c-7 0-7 0-7-2l-2-5c-1-1-1-1-1 2l1 4h-14l-14-1 5-24c2-11 2-16-1-16v-6c-1-1-2 1-6 11m-72 39l-5 2-7 3c-4 1-5 4-6 11 0 3 0 3 2 4h4v-1c-1 0-1-3 1-5h4l13 1-1-2 7-1h9c1-2-1-3-5-3-13 0-18-6-5-7l1-1c0-2-7-2-12-1m12 4l-2 2c0 1 6 2 17 2 9 0 10-1 12-3l1-2h-13l-15 1m177 29c-1 1 1 2 3 1h1c0 3 4 6 8 7a193 193 0 0111 1c2 0 2 0 1 1-3 3-5 3-8 1s-3-2-7-1c-4 3-4 4 0 4l7 1 7 2c3 0 3 0 1 1-3 1-2 1 3 2 1 1 1-4-1-5s-1-2 3-2c7 0 9-5 4-12l-2-3h-15c-11 0-15 1-16 2" fill="#d3d3d3" fill-rule="evenodd"/></svg>