<svg xmlns="http://www.w3.org/2000/svg" width="400" height="266"><path d="M0 4c0 3 1 4 2 5l2 2H2l-2 1v179l35-1 45-1h9v-4l1-8v-4h14a1527 1527 0 0161 1l1 2 2 1-1 1c-2 0-2 1-2 4v4c-1 1-1 1 54 1h34v-8l1-9 31-1a176 176 0 0032-1h3l4 2 5 1v8c0 7 0 8 2 9l36 1 34 1V0h-70l3 3c3 2 5 3 10 3l9 3 4 2h-8a3521 3521 0 01-323 1h-8l2-3c3-3 9-3 15-1l8 3h3l-2-3c-1-3-2-5-1-6 0-2-1-2-22-2H0v4m265 64c-5 3-10 8-11 12l-1 6c-1 1-1 2 1 3h3l-3 1c-2 0-3 3 0 3l1 1-1 1c-1-1-2 7-1 12 2 9 4 12 10 12h9c2-1 2-1 0 3-1 3-1 3-3 2-3-2-4-1-2 3 1 4-1 7-12 16l-4 3 4 7c6 10 6 10 10 6 3-4 5-8 4-9l1-3c1-4 2-4 3 2l2 3v-5c1-5 1-5 4-5 5 0 7-1 7-3s-3-2-5 0l-3 1c-1 0 0-2 3-4 4-3 6-7 3-5l-1-1 1-1 1-4v-2l1 2 4 5c3 3 3 4 0 5-2 0-2 1-2 4l-1 3-1 2h-1c-1-2-1-2-2 1v5l2 5 3 12h1v-19l1-2c-1-4 0-5 4-5l7 2c2 2 4 2 9-3 2-2 2-2 3-1 1 2-2 6-7 8l-4 2 2 2c2 2 2 3 1 5-2 6-1 10 2 7l7-1 7-1-7-1c-7 0-8 0-8-2h4c0-2 3-2 4-1 2 2 6 2 5 0s-2-3-7-2c-5 0-5 1 3-9 4-5 5-7 4-8h-2l-3-2-4-2-11-8v-2l-3-5c-2-4-2-5-2-10l1-5-3 1-4 2c-4 4-5-9-1-15 3-4 3-4 1-9l-1-4c-1-9-15-16-22-11m-149 4c-9 4-14 11-14 19l-1 5c-2 1-1 4 2 12l2 8-7 8c-10 10-12 14-10 18 2 2 2 4 1 5-1 3 0 6 3 6 2 0 6-5 8-10 2-4 3-5 7-7l5-3 1 3 2 2c2 0 4 6 3 8v2c2-2 2-2 2 0v3c-1 0 0 4 3 9l2 4 1-4 3-3 3-9 4-13 3-15 2-4c5 0 11-14 8-16-1 0-2-1-1-5l-1-8-6-10-3-2c-6-5-15-6-22-3m117 4l-1 27c0 25 0 25 3 24l3-1-1-21V79c0-6-1-9-3-9l-1 6M41 200a872 872 0 00-3 35 1278 1278 0 00-8 13c-3 8-7 14-9 15l-2 2 39 1h38l-2-5-1-10c1-6-1-21-2-22l-1 1c-2 1-2 1 0 3 4 5-5 11-12 7-2-1-2-2-1-4l-1-6c-1-2-1-2-1 3 0 4-4 15-6 15-1 0-5-8-5-12l-1-4c-1-1-1 1-1 4 0 8-2 6-3-3-1-8-2-6-2 3l-1 5c-1-1-2-2-1-11 0-2 1-3 2-3v-2c-2-2-2-3 2-3 2 0 2 0 2-5v-5l-1 4c0 3-1 5-2 5-3 0-4-2-4-8 0-5 0-5-4-9l-7-8-2-3v7m344 8l-1 12-1 5-2 5-3 8-4 12-5 12-2 4h34v-17l-1-13c-1 3-1 3-1-2l1-6v-1l-2-12-1-6-1-1h-3c-4 1-7-1-7-4l-1 4m-247 23c0 6-3 9-7 9-8 0-10 2-15 15l-4 8-2 3h25l-1-9-1-12c-2-4-2-4 1-4 4-1 5-4 5-10l-1-4v4m146-3l-1 2-2 3c-1 1-1 2 1 3 2 3 3 4 0 4l-4-3c-4-4-5-4-5 0-1 5-4 4-4-3-1-5-1-6-3-5l-1 2c0 2 0 3-3 3-6 1-5 2 0 3 7 0 6 2-1 3-6 0-6 0-7-2-2-4-5-4-6-1 0 2-3 3-5 1s-16 13-20 23l-3 5h30l31-1 2-4 2-3c1-3 11-6 19-5 9 0 13 2 21 8l5 5h16c17 0 16 1 10-9a72 72 0 00-19-19l-4-3v2c0 5-2 4-7-1l-5-4v4l-1 5c-1 0-2-2-2-6 0-6-1-6-3-7-4 0-4 0 0 6 2 4 2 6 1 6-1 1-2 1-3-1l-4-2-4 2c-3 4-5 1-2-5 4-6 4-7 0-6-3 0-3 0-3 6 0 8-1 8-7 2l-4-4v4c0 3 0 4-2 4-1 0-2-2-2-7l-1-5M8 229c2 1 3 3 3 5-1 1-1 1-4-1-4-3-6-2-6 4 0 4 0 4 2 4l4-2c2-2 4-3 4-1s-2 5-5 6c-2 0-2 1 3 6 8 11 8 11 7 2 0-6 0-7 2-8 1-1 1-1-2-1l-3 1v-16H9c-3 0-3 0-1 1m-7 26v11h8l7-1-11-17-4-4v11" fill="#d3d3d3" fill-rule="evenodd"/></svg>