<svg xmlns="http://www.w3.org/2000/svg" width="400" height="203"><path d="M39 74c0 4 0 5-4 8l-4 4v10c0 9 0 10 2 12 2 1 2 2 2 4-1 2 3 6 8 7 2 1 2 1 1-2v-2l2 1c2 2 2 3 1 3v1l3-1c1-1 1-1 1 2l-1 8c0 3 0 4-1 3l-1-2-2-2c0-2 1-3 2-2l-1-2-3-3-3 2c-3 2-4 4-2 3 3-1 3 2 1 12-3 11-4 13-2 10h2l1 1h1l-1 2-5 1 2 1c2 0 2 1 2 6l-1 6-1 10v8l-14-1H5l-5-1v22h401v-12c0-6 0-10-1-8v4h-8a899 899 0 00-76-4c-2-1-2-14-1-14 1-1 2-2 1-8v-7h4l5-1 2 1 2 3v-3c0-3-2-5-4-3h-1l1-4 3-2c2 0 2 0 1-1-3-2-2-4 1-4 2 0 3 1 2 5l1 1 1 3c0 2 1 3 3 0 3-2 3 1 0 4-2 1-2 3-2 8v7h6c7 0 7 0 7-8l1-4h18l-2-10-3-13c-2-4-2-6-1-6v-2c-2-1-2-2 2-4l3-3v5l2 29 1 5 14 1 14 1v5c1 10 2 7 3-5a459 459 0 00-2-38l-1 4v5l-2 3-1-3c-2-3-3-4-14-7l-13-5c-1-2 1-7 3-7v-1c-2 0-2-1-1-2s2-2 1-5l1-5c2-1 1-9 0-9-2 0-7-5-6-6 0-1-2-3-5-3l-2-2 3-1h2l-4-1c-4 0-5 3-2 5 1 1 1 1-1 2-2 0-2 0 0 2 1 1 1 1-1 2l-4-1h-5l-5 3c-4 1-4 5 0 8 2 2 2 2 1 5l-1 5 2 13-3-1c-2-1-6 0-4 2l-6 3c0-1-1-1 0 0l-1 1-2-3c-2-4-3-4-4 0 0 2-1 5-3 6l-2 4c0 7-2 17-3 18l-4 2-4 1c-2 1-2 0-2-4l-4-12-3-13c0-5-1-6-3-6-3 0-3 2 0 7 3 6 7 21 7 26 0 4-1 5-3 5-3 0-3 0-3-7 0-6-1-12-4-20-1-2-16-6-22-6-4 0-6-3-4-7l3-2 1-1 2-14c2-3 1-5-2-9-5-4-6-4-12-1-5 3-7 3-6-1 0-2 0-2-2-1-3 1-5 5-6 10l-2 6c-1 4-1 6 1 3 1-1 1-1 1 3v8c2 6 2 7-5 8-12 2-18 5-20 9-1 5-5 5-6 0l-1-4-1 5 1 5 3-1c4 0 6 3 2 4-3 1-4 6-2 8 3 3 1 5-5 5h-6v5c0 4 0 5-3 3-3-1-3-7 0-6l2-1-4-1c-4 0-4 0-4-2l-1-4v-1l2 2 3 1v-4c2-3 0-5-4-5s-4-2-1-5c2-2 2-2-2 0-1 0-2-1-2-3-1-4-1-5 2-3 2 1 4 1 3-1l-3-1c-1 0-2-1-3-7-1-7-2-8-14-11-8-2-8-1-8-12 0-8 0-9-2-9-4-1-5-1-5 1 1 1 1 1 0 0l-4-2c-5 0-6-3-2-5l2-1-2-1c-3-2-4-1-4 2 1 2 1 3-2 2l-3 1 1 2-1 3v6l-3 1c-2 0-2-1-2-5l-1-4c-3 0-2-1 0-5 4-4 3-5-1-1-2 2-3 3-6 3-5 0-4-3 1-3 3-1 3-1-1-1h-5v5c0 4 0 4 4 4 3 0 3 0 3 5l1 8c1 4 0 8-2 6-1 0-18 3-21 5-2 1-4 7-5 13l-1 5-2 5-3 4c-1 2-2 3-1 4l-1 2-1 1v7l1-1h3l2 1v3l-1 2v2h-7l1-1v-2c0-4-2-4-2-1l-1 5c0 2 0 2 10 2 12 1 12 1 12-7 0-5 0-5 2-5 4 0 4-1 1-5-3-3-2-5 0-2 3 2 4 3 6 0l3-1c1 1-2 4-4 4s-2 0 0 2c1 2 3 2 17 2l21 1h5v6l1 6 2 6c2 10 2 9-4 10l-6-1h-1c-1 1-49 2-51 1l-28-1-26-1a123 123 0 01-6-13c0-2 0-2 2-2 6 0 12-8 8-9-1-1-2-2-1-4v-5c-1 0 0-3 2-3l2 7v3c1 0 2-2 2-5 0-5 1-6 2-4 2 1 2 16 0 16l-1 1c0 3-2-1-2-4s-1-2-1 1l-1 3-1 2h7l4-1c3 0 3 0 4-2l1-2 1 2c1 3 6 4 11 3 3 0 3-1 2-3-1-6-3-9-5-8s-3-1-3-6l-1-2v-2l2-10v-9l-4-4c-3-3-7-4-9-1-1 1-3 0-7-1l-6-3 2-4 2-6 2-2c3 0 5-3 2-5l-2-3h2v-6c3-4 4-4 5-1s3 3 2 0l1-4c2-2-6-6-10-4l-3-1-3-2-1-6c0-6-2-7-3-1 0 4-2 4-2 0l-1-4c-2 0-2 1-2 3v4l-3-4c-3-4-5-4-5 2m210 21l-3 2 1 1h1c0 2-2 3-2 1l-1 1c-1 3 0 3 1 3 1-1 2 0 2 1l7 1 5 1 2-5c3-6 3-7-4-8l-9 2M1 133v20h16l16 1 1-30-1-10-3 3c-2 2-16 7-19 7l-2-4-7-7-1 20m142 4v18l5-16v-8c-1-2-1-2 1-3 1-1 1-1-2-5l-4-4v18m205-15l5 31 1-7 1-12c2-4 2-6 1-6v-3c1-2 1-2-2-2l-4-2-2 1m-90 16v2c-1 2-4 2-5 0s-1-2-1 2l-2 5-5 3-3 4h7c8 1 9 1 9-5 0-3 0-4 2-4 3 0 3-1 2-5-1-3-4-4-4-2m-28 18v9h-13v-4c0-2-1-3-2-3-2 0-2 1-2 4l-1 4-1-4c0-3 0-4-2-4-2-1-2 0-2 4 0 3 0 4 2 5l2 1h-7c-1-2-6-2-6-1 0 2-12 3-21 2-7 0-7 0-6 5l1 7 1 4h138l1-3v-9c-1-2-2-3-11-3h-8l-1-6-1-5-24-1h-24l-1 4v5l-1-6v-5l-5-1-6 1M40 175v8h6l6 1v-3c-2-8-6-13-9-13l-4-1 1 8" fill="#d3d3d3" fill-rule="evenodd"/></svg>