<svg xmlns="http://www.w3.org/2000/svg" width="400" height="267"><path d="M0 39l1 38L77 5l-4-3c-4-2-4-2-38-2H0v39m134 1L63 178c-20 39-19 35-16 39 3 3 4 4 1 8l-1 4 5 5 4 7 1 4c2 1 2 1 1-2 0-3 0-3 3 2 2 5 3 6 7 7l29 8 24 7h33l-7-2c-10-4-7-4 3-1l8 3h99l3-10a220 220 0 0021-71c-1-1 0-6 3-13 3-10 3-10 2-12-2-1-2-1 1-9l3-9-11-3a1291 1291 0 00-169-35c0-2 14-28 16-29l7-1c3 0 5 0 4-1l4-1c4 0 5 0 7-3l2-2v3c0 3 0 4 2 4a861 861 0 0068 15c6 1 7 1 9-2l3-2v3c0 3 0 4 3 5l5 1 21 5 38 11c3 0 2 2 0 10-2 6-2 7-1 9 1 1 1 4-2 12-3 9-4 11-3 13 1 1 1 2-1 7-1 4-2 6-1 7a3000 3000 0 0132-88l1-6 2-8c-1-1-1-3 1-7l1-6c-1-1 0-3 1-5v-5c-2-1-2-2 0-7l2-7A789 789 0 00215 1l-33-1h-29l-19 40M397 1l-11 3c-14 5-20 8-20 11v5l4 8 2 6-3 3c-3 3-3 4-3 7 1 3 0 4-3 6-4 4-4 7 0 16a874 874 0 0120 48l4 9c2 3 2 4 3 3 1-2 1-2 6 9l3 6 1-141-3 1M57 38A3183 3183 0 011 94c1 3 11-7 56-50 23-22 24-23 22-25-1-1-7 4-22 19m1 19a2859 2859 0 01-57 55c0 3 0 3 29-25 41-39 55-53 51-53L58 57m10 156a1050 1050 0 0178 21l53 15c46 13 47 14 47 10l-3-1-29-7a3310 3310 0 00-146-38" fill="#d3d3d3" fill-rule="evenodd"/></svg>