<svg xmlns="http://www.w3.org/2000/svg" width="400" height="267"><path d="M279 5l2 22c0 14 1 18 2 19 2 2 2 2 2-3l1-8 1-2 1 2V0h-9v5M158 7c-9 2-9 3-8 5l-2 10c-2 8-2 9-2 17 1 6 2 7 6 4 3-2 4-2 14-2 11 0 13 1 20 4 2 0 2 0 2-3l-1-7c0-3-1-4-4-7-3-4-3-4-3-8 2-11-7-17-22-13M90 20c-11 7-12 17-1 33 3 7 5 13 3 15l-5 2-4 2a509 509 0 0123 30c7 10 8 10 12 10 5 0 6 1 16 13 6 7 6 7 1 9-6 3-8 2-9-2-1-2-2-3-6-4l-6-1-1-1c-1-1-2-2-1-3l1-5c0-3-1-3-5-4-5 0-5 0-5 3 0 6-3 5-7-2L77 90c-1 0-2 5-2 14 0 6 0 8-2 12l-3 10-2 8c-3 5 3 11 11 11 4 0 5 1 12 8l8 10c0 3 2 3 3 0s0-8-3-9l-2-2c0-2 8-1 9 1 2 2 4 1 7-1 6-4 16-1 13 4-2 3-1 3 6 2 6-1 13 0 17 4 1 2-1 7-3 6h-4c-3-1-4-2-4-4v-2l-15 1-6 1v4c1 5-2 7-3 3-1-9-3-10-3-2v6h5c3 0 4 0 3-2s2-1 4 2c3 4 3 5-6 6-8 0-8 0-8 3s0 3 13 2c11-1 13-1 20-5 15-7 25-8 33-3l15 14c13 14 18 17 33 18 11 0 16 2 24 10l7 5c2 0 1 4-1 7-1 3-2 3-3 3-4-2-8-2-12-2l-6-1c-2-2-13-5-14-5v6c-1 6-2 7-4 5h-2l-18 3h-6c-1 1 9 5 14 6s8 2 5 2c-4 0-1 2 12 8 12 6 14 7 13 8-2 1 17 2 83 2h86l-1-38c0-47 0-51-4-63-4-14-14-29-17-27v-1l-1-1h-2l-5-3-6-4c-2-2-2-2 1-1 7 1 4-3-3-5-2-1-2-1-1-2 2-1-4-4-7-4-2 0-2 0-1-1 2-2-3-7-5-6l-4-3c-4-5-4-5-6-1a451 451 0 01-21 29c2-7 2-9 0-9l-3-4-3-4-1-2-2-2-1-2c1-2-1-9-3-11h-1c0 2-4 1-5-2s-1-3-2-2h-1c0-2 0-2-1-1-3 3-9 1-7-3 1-2-3-4-5-2-2 1-2 1-1 2s1 1-1 1-2 0-2 2l1 3h-6c-4-1-6-1-8 3-1 2-2 2-4 2h-3l-3 1-1 1a578 578 0 01-3-20c-2-4 0-14 5-19 4-4 5-8 3-9l-5-4c-4-5-12-9-20-10h-10c-5 3-10 4-12 4-4 0-12 3-15 6l-6 2c-1-1-2-1-1 1l-1 2-1 3c0 2 0 2-2 1h-6c-4 0-4 0-3-3 0-2 0-2-4-2s-6-2-4-5c0-2-1-2-5 0-2 1-2 1-2-2 0-4-1-5-4-2-8 5-12 13-8 15l1 3c0 3 2 5 6 6 3 1 3 1 1 3-1 2-1 2 1 3l2 2c0 2-6 1-10-1l-4-3c-2 0-1 4 1 4l1 2 2 3c2 1 3 6 1 9h-2c0-1-1-2-4-2s-4-1-2-3c1-1 0-4-3-9l-11-9c-16-12-13-11-22-3-8 9-8 9-10 5-1-3-1-3 2-6 2-2 3-3 3-5V51l-2-9-2-6c-4-6 1-12 10-10 4 0 4 0 3-2-4-7-15-9-23-4M38 56c-4 3-1 11 6 19l6 5-1 6c0 4-1 10-3 14-7 19-9 30-7 32 3 3 5 1 6-10 2-11 8-27 14-37l5-9v-3l-5 1c-8 2-10 0-10-7 0-3 0-4-2-5s-3-2-3-4c-1-2-4-3-6-2m269 31c-3 3-3 3-1 4 2 0 8 9 7 10l-2-1c0-2-2-2-2 0l3 5c3 3 3 3 4 1 2-2 2-3 1-3-2 0-1-3 2-5l2-4c0-2-2-4-3-3l-1-1c0-2-5-6-5-4l-1-1c-1-1-1-1-4 2m-50 21c-2 0-9 17-8 19 1 3 6-2 9-10h3v5c-7 11-14 27-9 19l6-5 3-2v2c0 2 0 2 3 1 2-2 5-2 4 0-1 1 1 3 4 2 2 0 3-1 0-5-1-1-2-2-4-1-4 1-5-2-4-8l2-7c1-1 2-3 1-5-1-3-3-4-3 0 0 2 0 2-2-2s-2-4-5-3m-36 11c-2 3-9 31-9 35l-6 17-1 4-2 3c-2 1-1 4 2 4 1 0 2-1 2-3l3-2 2-4 3-8 2-6 5-13c10-24 11-27 5-29-3-2-4-1-6 2m11 12v5c1 3 1 10-1 14-2 5-2 4-2-3l1-6-2 7-1 10 1 3 8-10 8-9-3 3c-4 4-5 2-2-3 4-6 5-9 1-5l-3 4v-4c1-3 0-4-1-6l-3-3-1 3M55 146c-1 2-4 2-18 4-37 3-37 3-37 6a579 579 0 0125-1c17-2 31-4 40-7l1-1-4-2c-3-2-5-1-7 1m11 13c-13 1-28 4-22 4 2 0 11 9 10 11 0 1 1 2 6 3h8c-3-2 4-2 17-2h13l-8-14H76c-15 0-16-1-1-2l11-1c2-1-2-1-20 1m-64 7c-2 0-3 6-1 6l4 3c1 2 2 2 7 2 9-1 14-3 20-5l5-3h-8l-9 2-4 2c-2 0-9-5-9-7H2m279 11c-4 11-5 16-4 18l-1 4v6l-2 7-1 7-2 4v-5c2-18 2-18-2-4l-6 15c-3 2-3 9 0 8l1 7c-1 7-1 7 2-4a1530 1530 0 004-12c4 2 7 0 8-4 1-7 6-24 11-34 5-11 6-13 3-9-1 1-1 1-1-1 1-4 0-7-1-5-1 1-1 1 0 0v-6c-1 1-2 2-1 3l-1 1v-1l-1-1h-1c0-5-2-2-5 6M73 200v1c2 1 0 2-3 2-4 0-4 1 0 2 4 2 2 3-3 3-3 0-15 6-14 7l5-1 12-1a293 293 0 0034-5c7 0 9-1 9-2v-8H93c-13 0-19 1-20 2m-40 33l-11 11 32-3c1-1-3-4-10-8-5-3-7-3-11 0M1 255c0 5 0 6 2 6s3 3 2 4H3l-2 1 6 1h5l-1-4-4-8c-1-4-3-6-5-6l-1 6" fill="#d3d3d3" fill-rule="evenodd"/></svg>