<svg xmlns="http://www.w3.org/2000/svg" width="251" height="300"><path d="M79 2L65 3C46 2 37 3 35 4c-3 2-1 3 3 3a1771 1771 0 00141 0c1-1-4-2-30-2a412 412 0 01-70-3M26 23l-5 1v33a405 405 0 01-2 67c-1 17 0 23 1 25 2 4 1 17-1 20v7c3 6 3 35 0 39-3 5-3 20-1 21s12 2 40 2a2306 2306 0 01105 3 152 152 0 0027-2h13c13 0 26 1 31 4s3 4-5 5c-22 3-31 3-49 3-23 1-31 2-14 3h52c30 0 29 0 30-11l2-8v-17l-1-3c0-4-2-2-3 2 0 5-4 18-6 21-1 2-4 3-6 1-1-2-2-49-1-66v-32l-1-48a1537 1537 0 00-3-70h-22c-2-2-3-2-5 0h-15c-1 2-1 2 2 5l5 6 7 6c8 6 9 10 2 12-6 3-18 14-18 16l4-1c5-1 5-1 7 1 4 3 3 6-3 6-2 0-10 6-10 7l12-5c12-6 15-6 18 1 2 5 2 6-4 11-7 5-9 6-15 7l-4 1 4 2c6 3 5 5-4 10-5 2-9 5-12 8l-9 11c-5 5-11 9-17 10-2 1-1 0 3-5 6-5 11-12 10-12-5-3-6-3-9 2l-6 8-3 3-4-3c-9-6-9-5-4-19 6-16 6-16 2-12s-7 5-17 3c-6-1-6-2-2-4 3-1 29-18 30-20 2-2 5-1 8 2 4 3 4 3 0 9l-3 6 3 5c2 5 2 6 1 10-1 6-1 6 4 3 4-2 8-6 11-13 3-6 2-7-3-2s-4 5-8 1c-5-4-5-6 0-11l3-5c0-3 3-1 4 2 0 2 1 2 5-1l3-2c-7 0-10-2-10-6-1-3-4-8-6-8v3c1 6-4 6-10 2l-6-4-3-1h2c4 0 4-2-1-6l-4-4 4 1 8 2h5l5 2h6c5-3 12-34 8-39h-50a623 623 0 01-74-1c-12 2-13 2-17 0-6-2-5-2-11 0M5 25a231 231 0 00-2 59c-2 7-2 15 0 19 3 4 2 39-1 46l-2 4 2 3c1 3 2 6 2 28l1 26c2 1 2-2 3-17l1-18 1-30a538 538 0 01-1-76L7 41c0-16-1-22-2-16m65 4c2 5 3 14 3 25l1 11-4 2c-8 4-11 4-16-2l-5-4v3c0 5 4 12 9 15 4 2 4 2 1 8-4 6-4 8 2 14 4 5 5 5 8 4h4v46l-4 1h-9l-4-1-3-2 1 3-4 19c-3 13-3 16-3 27 0 18 3 24 15 29 5 2 6 2 5-1v-2l2 2c8 5 32 9 39 5 11-5 11-7 11-35l1-36 2-12-3-4c-2-2-5-4-9-5-6-2-9-1-22 5l-7 2 1-17 2-21c0-10 1-11 9-16l30-24c1-3-2-10-5-13-5-4-7-4-16 0-12 4-11 4-11-4 0-9-4-14-14-20l-7-2m27 39c-8 3-8 3-9 9-1 7 0 7 8 1 14-12 15-16 1-10m88 52c4 3 8 9 6 9l-2-1c-3-2-2 0 2 4 7 6 9 7 11 5 4-7-5-17-17-20h-3l3 3m61 12c0 16 0 17 3 14 2-1 2-3 2-13 0-11 0-12-2-14l-3-2v15m-60 12l-9 6c-2 2-3 1-2-2v-3l-5 5c-8 7-10 10-7 13l4 3c3 0 2 2 0 3-4 0-4 1 1 3h5l2-1-6 5c-5 4-6 5-6 3l-2-2c-2-1-2-2-1-9 0-9-1-13-7-18-6-4-7-4-5 0l1 17c0 7 0 11-1 9 0-3-4-7-7-9-1-1-2 0-1 4 0 4 0 6-2 10-4 6-4 8-1 10 3 3 6 2 9 0l2-2v29l4 4c5 5 9 7 8 3-3-7-3-37-1-39h3c1 1 2 2 2 7-1 7 1 11 6 14l3 2-5 1-7 1h-1l3 2c6 4 6 4 3 7l-3 5c0 4 9 8 11 5 1-3 11-8 15-8 6 0 7-1 4-4l-6-2h-3l3-3 4-3-3-1c-3-1-4-3-2-3 4 0 11-11 11-17 1-5-3-8-8-8-8-1-1-4 8-4 6 0 7-1 4-5-4-4-8-4-14-2l-6 2c-2 0 6-5 10-7 4-1 5-2 2-5-1-2-1-2 3-5 8-5 8-9 2-13-3-3-5-2-12 2m-92 10l-13 5c-6 2-9 2-15 0-2-1-2-1-1 3 1 3 1 4-1 8-5 8-3 8 15-3 9-5 11-5 15-1 4 3 4 3-2 10l-5 5 4 2c5 1 10 5 8 7l-4 2-5 2-4 3c-3 2-4 5-2 10 0 2 1 2 6 2 5-1 5-1 9 2 4 5 3 6-2 5-4 0-16 2-22 5-5 2 17 3 23 1 7-2 7-1 7-36 0-21-1-33-2-34l-9 2m-35 30l-1 16 1 10 4 5c6 5 9 6 5 1l-3-3 1-4c2-3 2-4 1-7l-2-5c0-2 8-10 10-10l3-6-3 1-8-2c-7-3-7-3-8 4m35 68l-6 1a1442 1442 0 0140 3c3 0 9-1 10-3l-12-1a498 498 0 01-32 0M7 274l1 6c0 4 0 5 3 6 4 2 7 0 7-6 0-4 1-6 2-6 2 0 2 0 2 6l1 6 1-4v-4l4 4 4 4 1-7-1-6-1 4v5l-4-5c-3-3-4-4-7-4h-3v6c0 5-1 6-3 6-3 0-3-1-3-6 0-6-1-6-3-6s-2 0-1 1m30 6v6h4c5 0 8-3 8-6 0-4-3-7-8-7h-4v7m76-6l1 6 1 6 1-5v-4l3 4c6 6 6 6 6-1 0-5 0-6 2-6 2 1 3 10 1 11-1 1 1 1 4 1 5 0 9-3 9-6l-2-4c-2-3-3-3-9-3h-8l1 4v5l-4-5-5-4c-2 0-2 0-1 1m30 0l1 6-1 5c-1 1 0 1 1 1 2 0 2 0 2-6s0-6 2-6 2 0 2 6l1 6 1-5v-4l4 4c5 6 5 6 5-2l-1-6c-1 0-2 1-1 4v4l-4-4c-3-4-3-4-8-4-3 0-5 0-4 1m69 0v11c-1 1 0 1 1 1 2 0 2 0 2-6s0-6 2-6 2 0 2 6l1 6 1-5v-4l3 4c6 6 6 6 6-1l-1-7-1 4v5l-4-5c-3-4-4-4-8-4s-5 0-4 1" fill="#d3d3d3" fill-rule="evenodd"/></svg>