<svg xmlns="http://www.w3.org/2000/svg" width="400" height="267"><path d="M238 79c-3 2-5 5-5 6h-1l-1-1v2l-2 2-3 4v6l1 1c-1 2 0 2 1 2 2 0 2 0 1 1-3 4-4 11-3 15l2 5 12-6c12-6 12-6 11-13l-1-3 2 3 1 4 1-4 1-4v3c1 2 2 3 3 2l1 1 5 1c3 0 4 0 3 1-2 1-2 1 0 1s2 0 1 1-1 1 2 1l3-1-4 1c-3 2-4 4-2 3 3-1 14 16 13 19v4c-2 1-2 2-1 2l1 2c0 2-1 3-2 3s-3 3-6 10l-5 9h-2l-1-2v-1c-1 0-4-7-4-10-1-9-7-8-12 2-3 5-3 6-4 4-1-3-1-3-3 1s-6 7-6 5c0-3 5-12 6-12l6-6c2-4 4-5 7-6l4-2-2-1-6 3c-13 5-27 12-23 12l2 1 2 1h2l-1 1c-1 0-2 1-2 3l-1 4v-4c0-3-4-5-5-3-1 1-1-1-1-4l1-5c1 1 9-2 12-6l12-5c9-3 9-5 0-2-14 4-27 10-27 13s-6 8-7 6c-1-4-1-4-6 0l-5 5c-5 0-6 8-4 22 1 9 1 9 4 11 1 2 1 2-1 2s-3 0-3 6l-1 15-1 20c0 10 0 24-2 33v4h205v-22c-1-24-1-25-10-38-6-7-19-17-25-18l-3-1 2 7c4 10 2 16-3 16-2 0-3-2-6-8-1-2-6-4-7-3l2 4c2 4 2 9-1 11l-2 3-3 2c-3 0-6 4-6 6 0 1-2 1-4-1-2-1-2-2 0-5l2-15c2-14 1-17-3-17-3 0-3 0-3-3l-1-4-1-2 1-1-7 2c-7 2-8 2-6 0s1-7-1-8l-2-1-5-1-5 1 4-2 8-2c4-1 5-2 4-7a280 280 0 01-2-21l-1-4-1-3v-3l-1-2h-1v-1c3 0 0-6-3-7v-1l1-1h-3l-1-1c1-3-1-5-4-5s-3 0-3-2c1-2 0-3-1-3l-1-2c0-2-3-5-5-5l-1-3c1-4 1-4-1-3-2 0-2 0-1-2 2-2 2-2-1-4l-5-2-2-1c-2-3-15-6-17-4h-4l-2-1c0-2-2-3-2-1h-1l-2-1-6-1c-4-3-5-2-10 3m23 8c-2 3-3 4 0 4l1 1 1 1 16 7h4c2-2 1-3-1-2s-3 0-1-2h3c3 2 4 1 1-1l-4-2-9-3h-2v-1l-1-1c-1 1-2 0-2-1h-2l-1-1c1-3 0-2-3 1M98 166a1008 1008 0 00-2 18c2-12 3-14 6-14l7 1 9 2 6 1v25c2-9 3-30 2-31l-13-2-14-2-1 2m206 7c-5 1-9 3-8 4l-2 6-1 7c1 1 5-2 5-4l5-6c3-1 4-3 3-3v-3l5-1c2-1 2-1 0-1l-7 1m-59 5l-2 3-8 8c-8 9-8 9-4 11 2 0 3 1 2 2v18l6-7c5-9 11-16 13-18l2-5 2-3c4 0 2-7-2-8-7-3-8-3-9-1m-122 27l-1 8a6517 6517 0 01-4 54c1 0 2 0 1-1a423 423 0 014-61m261 2l-5 1c-4 0-6 1-10 3-7 5-6 6 1 4l10-2 5-1 1-1c2 1 3-1 2-3-2-2-4-3-4-1M81 237c-2 1-3 4-3 5l-4 4c-2 0-3 1-3 2-1 3-1 3 5 3l5 1 2-5 1-9v-4l-3 3" fill="#d3d3d3" fill-rule="evenodd"/></svg>