<svg xmlns="http://www.w3.org/2000/svg" width="388" height="300"><path d="M95 70c-4 3-4 7-3 77 0 67 0 70 2 73l2 2h95l96-1c5-1 5-2 5-77V73l-2-2-3-2h-95l-97 1m70 26v50h-3l-8-1c-6-1-11-3-11-6h-3l-1 2 1 1c0 2 0 3 2 3s2 0 1-1c-2 0-2-1-1-1h2c3 3 8 4 10 3s3-1 6 1c1 2 3 3 3 2l1-1 1 28v27H98v6l1 7h92l94-1 1-64V88H165v8m54 66c-5 6-5 10-2 14l2 3-1-4c0-2 0-3 2-5 1-1 2-3 1-4l1-2 2-1 1-1c2 0 0 6-2 8s-2 3 0 8c1 4 6 4 10-1 5-5 3-11-3-16-6-3-6-3-11 1m38 0c-5 5-6 8-3 13 3 7 12 8 16 2 5-6 3-12-5-17l-4-2-4 4m-73-2c-3 2-6 7-6 11s4 9 9 9c10 2 15-10 8-17-4-3-6-4-4-1 1 2 1 2-1 4v1l2 1h-8l2-1 2-1-1-1c-2 0-4-3-3-3l3-2v-1l-3 1" fill="#d3d3d3" fill-rule="evenodd"/></svg>