<svg xmlns="http://www.w3.org/2000/svg" width="400" height="261"><path d="M75 3l2 6-1 3-12 5-10 7-4-2c-3-2-4-3-4-1 2 2-11-2-13-4-1-2-7-4-8-3l9 6 10 6 2 1c2 0 8 5 7 6l2 3c4 3 2 3-4 1l-6-3 5 4 7 4h-6l-1-1c0-1-4-1-5 1h-1l-1-2-22-10L0 20v241h401V1l-21-1h-21l22 100 1 4 7-2h9c0 1-4 2-56 11l-42 6-3-1 2 3 1 3v4c2 3 2 3-1 8l-7 13-5 9-1 4v3l1 1 2 2 3 4c4 3 4 4 1 5-2 0-2 0 1 1 7 1 1 3-6 2h-19c-3 2-3-3-1-7l4-3c3 1 6-2 5-4l4-7 3-5 2-7 1-3v-2l1-1c1 1 2-1 1-3v-4c3-3 2-3-3-1l-5 3-1-3-1-2c-2 0-1-2 1-3h1l1-2c2-1 2-2 0-2-1-1-2-1-1-2l-2-1a24933 24933 0 01-167 27l2-22a15871 15871 0 0011-86c0-3 9-7 62-31l19-8-16-1h-16l-22 11a340 340 0 01-31 11l-4 1 4-3a551 551 0 0138-20H75v3M43 56l1 2 1 2h-3v2c1 1 1 1-1 1-2 1-2-1-10 35A1734 1734 0 004 229l9 1h9v-6l9-46A802 802 0 0050 65v-2c2-1 0-3-3-3l-1-1 1-1 1-1c0-2-5-2-5-1m33 30l-4 10c-2 3-9 42-9 47 0 3 0 3 2 3s3-2 8-32a842 842 0 003-28m171 47l-3 4c-1 2 0 2 4 1 5 0 5 1 0 2-3 1-4 1-4 5 0 5 0 5 3 7h5c0 3-2 3-6 1h-5l6 2c7 2 6 2 5 5-1 1-1 2 1 2l1 2 1 2c3 1 3-2 1-4l-1-3 2-5c1-4 0-5-3-4-2 0-1-2 1-3l2-1 2-2v-8c4-3-8-7-12-3m-48 9c-2 1-3 3-3 5-1 4 0 5 1 3 1-1 1 0 1 2 2 4 4 5 7 4 2-1 3-1 2-3v-1l1-1-2-2-2-1 2-1v-2l-1-2 3 3c2 3 3 3 2-1-2-5-7-6-11-3m-51 9c-2 3-3 9-1 11 1 1 2 0 3-2 1-3 1-3 1-1-1 3 0 3 2 4h4l-1-1 2-1c1 1 1 0 1-2l-1-2-2-1 1-1c2 1 2-3 0-5s-6-1-9 1m-55 5v1c3 1 0 6-4 7-7 2-7 2-9 8-3 6-3 8 0 8s6 3 6 6c0 2 3 3 3 1h2c2 2 2 2 3 1 1-2 6 0 5 2l5 1h7l3-4 1-9c-1-10-2-11-7-13l-5-2c-1-1-4 0-3 2l-1 1-1 6-3 8-1 5h-1v-2l-1-2 3-13 2-7 3-1 2-2v-1l1-2-2 1h-8m113 3h-6v5l-4 12c0 2 0 2-2 1s-4-2-6-1c-5 1-5 2 1 2l8 2c6 3 7 2 7-6l2-10c3-5 2-8 0-5m35 6c0 2-2 5-4 6-3 3-1 4 5 4h2l-1 1 4 1v-1l-1-1h1c2 0 5-8 4-8l-4-3c-4-3-4-3-6 1m-100 20l-1 6c0 4 0 4 2 4l3 1-10 1-11 1-2 1-13-1c-1-1-2 0-2 5a313 313 0 01-3 36c1 1 2-3 3-19l3-18h14l11-1h23v6a366 366 0 00-4 44h-18c-4-2-7-2-7-1 0 3 28 5 38 3l5-1h-7c-8 0-8 0-7-16l2-23 1-12h13c15 0 23-1 15-2l-5-2h-1c-1 2-21 3-22 1-1-1 1-1 9-1l11-1-3-1-4-1-4-1-3 1-7 1-7-1v-2l-1 1c0 1-1 2-3 2s-3 0-3-2 0-2-1-1c-2 1-2 1-2-2-1-2 0-2 1-2 2 1 3 0 1-2v-1l-2-1-2 1" fill="#d3d3d3" fill-rule="evenodd"/></svg>