<svg xmlns="http://www.w3.org/2000/svg" width="400" height="265"><path d="M185 65l-6 2c-5 1-7 3-4 4s15 0 14-1l2-1 2 2c0 1 1 2 8 2h7l-4-3c-9-5-17-7-19-5m-23 14l-5 2-4 1-7 1c-6 0-9 2-3 2l6 1h81c10 1 18 0 25-2 2-1 3-1 3 1 1 1 4 2 4 0h4l3-1 2-1c2-1 2-1-2-2h-8c-2-2-4-2-7-1-6 3-33 4-36 1-2-2-3-2-13-1l-13 1c-2 2-19 0-21-1-3-3-7-3-9-1m-65 3l-8 1c-6 0-5 2 1 2l5 2c3 1 6 1 12-1l14-1c12 0 14 0 11-3H97m84 9v2l2 2-1 3-5 1c-9 0-14 1-18 3l-2 2 1 2v3c-1 1-4 0-3-1l-1-1c-4 1-5 0-4-4l1-4 1-2c0-1 0-2 1-1l1-1 3-1c4-1 3-3-3-3l-4 1-1 2c-2 1-3 3-4 6l-1 3c-8 3-11 4-12 8-2 5-2 5-1 10 1 4 3 6 11 15 2 2 8 4 14 4 4 0 5 0 7-3l5-6c3-2 4-6 2-6l1-4 1-4c-1-1 12-5 14-4l1-1 2-1h6l2-1c3 1 3-3 0-8l-3-4c0-3-6-7-11-8-1-1-2 0-2 1m-77 5l-2 3c0 3 6 7 10 7l5 2c3 1 10 2 10 0s-4-5-7-6l-5-3-4-2-2-1c-2-2-2-2-5 0m291 13l-1 8-1-1c0-2-5-5-6-3l-1 1-2 1h-1l-2-1-3 1v1l-2 1c-1 1-1 1-1-1l-1-2h-6l-5-1h-1c0 2-4 1-5-1h-1c0 2-1 2-3 2-2-1-3 0-3 1l-2-1c-1-2-2-2-2-1l-4 1-5 1h-1l-3-1-4 1-1 1v-1h-2l-2-1h-8c-1 1-2 0-3-1v-1l2-1-2-1-1 2c0 3-5 3-7 1h-2c0 1 2 3 6 3 4 1 5 2 6 5 0 2 1 6 3 8a44 44 0 014 11l-1 2-1-1-1-2c-1 0-2 1-2 3l-1 2-2 1 2 1c2 0 3 3 4 7l2 6c8 11 4 19-10 17-4 0-9-4-11-8l-1-2-1-1-1-2c-2 0-4-2-10-11-3-5-5-8-5-6s-3 5-5 5l-1 2-2 1-4 2c-2 2-6 2-6 0 0-1-2-2-7-1-6 0-7 0-8-2s-3-3-6-3l-6-3c-2-2-20-4-24-3l-5-2c-4-1-4-2-4-6v-4l-18 13c-3 3-8 9-6 9l3-2 6-3c2 0 2 0-1 3-7 5-13 12-13 13l3 1c6 0 18-9 18-15l1-4 4-3 4-2 2 3 6 2a1196 1196 0 0013 3l5 5c3 2 3 2 1 2h-4c-3-2-18-4-18-2s-3 4-7 4l-2 2-2 1v5c0 3 0 4-3 6-4 3-12 7-15 7l-11 3c-11 4-15 4-20 2-3-2-3-2-2-8v-6l-10-2a206 206 0 01-32-12l-5-2c-2-1-6 0-9 2-5 2-10-1-9-5 0-4 1-5 4-4h4l-1-3c-2-5-3-6-5-3l-2 2h-3c-5 3-9-2-5-6 1-2 0-8-3-11-1-1-1-2 1-4 3-3 3-5 0-4-2 0-2 0 0-1v-3c-2 0-1-1 1-1 3-1 3-1-1-1h-6l2 3c1 2 1 2-5 2l-6-1-1-1-1 1-2 1H38l-2-1c-1-1-1 0-1 3l-1 1-1-1-1-2v-2l-1-2-1 2c1 2 0 3-1 3-3-1-5-2-5-4v-1c-2 0-2 1-1 3 1 1 1 1-2 1h-2l-1 1-2-1c0-2-1-2-3-1 0 1-2 2-4 1-3 0-5 3-2 4v1c-2 0-2-1-2-9l-1 56-1 78v13h394l-1-79a4364 4364 0 00-1-73m-132-4l-3 1-7 3c-4 3-8 3-13 0-2-1-7-1-7 1l4 3 6 4 3 3c1 0 2 0 2 2l8 8c3 0 8-9 8-15 1-4-1-14-1-10m21 26c-3 2 9 17 16 19s6-1 0-5l-5-5c-3-7-9-12-11-9m-140 55l-2 2c0 2-3 2-5 1-3-3-5-3-5 0 0 1 0 2 2 2l5 2c1 2 5 3 6 1h6c3 0 4 0 3-1l-1-2-1-2c0-2-5-4-8-3" fill="#d3d3d3" fill-rule="evenodd"/></svg>