<svg xmlns="http://www.w3.org/2000/svg" width="300" height="300"><path d="M53 8l-5 3v77a5146 5146 0 004 121c0-3 0-3 1 1l2 4v-9l1-6 1-11 1-6v-1c2-1 2-33 1-33v-14l1-13a57 57 0 011-16l-1-5V89a190 190 0 010-16V46l1-20 1-1-1-1c-1 1-1-2-1-6 0-16 1-16-7-10m172 33c-3 8-7 17-11 23l-3 5c1 1 11-10 13-14l2-3c2 0 9 8 10 12 2 4 3 4 5 1s-3-9-9-13l-5-3c-1 0 5-11 7-11 1-1 1-1-1-3-5-2-7-2-8 6M76 55c-2 3-2 5 1 5 2 0 2 0 0 2s-2 2-1 3c2 0 2 1 2 6l1 6 2-1h10l6 1V65h-5l-5-1-1-3-2-2 2 1 2-1c0-1-1-2-3-2-2-1-2-1 0-1 3-2 2-3-1-3l-4-1c0-2-3-1-4 3m27 15c0 6 0 7 2 7l1-2c0-3 0-3 3-3 4 0 4 2 1 3-2 1-2 1-1 2 4 1 5-1 5-8v-7h-11v8m122 4c0 8-7 26-13 34l-3 5c3 0 13-14 16-21l1-2 4 3 6 8c2 4 5 5 6 2s-4-9-13-15c-2 0-2-1 0-6l4-7c2-1 1-2-4-3-4 0-4 0-4 2M79 84l-1 7v5h17v4c0 4-1 5-6 5l-3 1c0 2 9 3 11 1l1-8 1-6h-8c-13-1-13-3 1-3 6 0 8-1 8-2l-5-1c-9 0-13-1-13-3 1-2-3-3-3 0m26 1c-3 5-3 7 0 7h3l-3 2c-2 2-3 4-1 4l1 5v6h19V97h-5l-5-1-1-2-2-2h2l2-1-2-1-2-1 2-1 2-1-3-1-5-2c-1-1-1-1-2 1m30 0l-3 1c-2 0-2 0 1 2l3 1h-3c-3 0-3 0-1 1 3 0 3 2-1 2-2 0-2 0 0 1 3 0 5 2 2 2l-2 1 9 1 8 1h-8l-8 1 8 1 9 1h-9c-9 0-13 2-5 2 3 0 5 0 5 2l2 1 1-1c-1-2 0-2 3-2s4 0 3 1c0 2 2 5 4 5v-4l-2-6c0-3 0-4-2-4-1-1 0-1 1-1l3-1-3-1-2-1h2l3-1-3-1-2-1h2l3-1c0-1-5-2-9-1-3 0-3 2 0 2 2 0 2 0 0 1l-2 1 2 1c2 1 2 1 0 1l-2 1 2 1c1 1 0 1-2 1-5 0-5 0-3-1s2-1 0-2l-2-1 2-1c2 0 2 0 0-1s-2-1 0-1c3 0 3-2 0-2l-2-1-1-1-1 1M98 194l1 14h33c6-1 8-3 5-5l-1-6c0-6-1-6-2-1-2 8-3 8-18 8h-13v-10c0-8 0-10 2-11 1-1 1-1-3-1l-4-1v13m47-7c4 5 7 12 7 14s3 4 5 3c4-4-2-14-9-18-5-3-6-3-3 1m-59 4c-2 4-4 7-7 8-7 4-8 8-3 8 7 0 14-10 14-18v-3l-4 5m21 36c0 3 0 3-1 1-1-3-5-5-6-3h-2c-2-1-3-1-3 1h-1c0-3-2-1-2 2l1 3 1-2h1c1 3 3 2 3 0 1-2 1-2 2 0 0 1 1 2 7 2l8-1h10c4 0 5 0 4-3 0-3 0-4-3-4s-3 0-3 3l-1 4v-4c0-3 0-3-5-3l-6 1h-2c-1-1-1 0-2 3m5 20l-4 1v4l1 2 1-1 1-2 1 2c0 2 2 1 2-1l1-2v2c0 3 9 3 9-1l1 1h1c0-1 0-2 1-1v1l1 1c2-1 2-6 1-6-3-1-5 0-6 3l-1 3v-3c-1-4-1-4-10-3m-61 20v10l3 2c4 2 5 1 5-7 0-9-3-14-8-14v9" fill="#d3d3d3" fill-rule="evenodd"/></svg>