<svg xmlns="http://www.w3.org/2000/svg" width="400" height="286"><path d="M45 0c2 2 91 27 91 26 2-2 5-17 5-20s0-3 1-2h1l1-2c0-2-5-2-50-2H45m237 1l-2 1 7 27c1 0 9-3 8-4l-3-13c-4-13-4-13-10-11m-1 2l1 2 1 4 1 2 1 3 1 3v3l1 2 1 1c-1 3 1 4 3 3 3 0 4-2 2-2l-2-1c-1-1 0-2 1-2v-4l-1-1v-2l-1-3c-2 0-2-1-1-2V7l-1-3-4-1h-3m109 0l-1 4c-1 1-1 1-1-1l-2-2-3 2-1 1c0-2 0-2-2-2l-2 1-1 2h-1c-1-1-5 0-5 1l-1 1c-2-2-9 1-10 3l-1 1c0-2 0-2-2-2l-2 1-1 2c0 2 0 2-1 1 0-2-4-2-6-1l3 9c1 2 5 0 5-2s0-2 1-1l2 2c2 0 2-1 2-4s0-4 1-3h3c2 0 2 0 2 2l1 2 1-2c-1-4 2-5 4-1 1 2 5 2 6-1l1-1c1 3 5 1 5-1s0-2 1-1l2 2 2-1 1-3c-1-2-1-3 1-3 3 0 4-1 3-4 0-2-4-3-4-1M0 23c0 14 1 15 3 5 1-7 1-7 4-6 2 0 2 0 3-3 0-2 1-3 2-3a729 729 0 0112 0L0 10v13m311 3l-8 2 3 9c1 1 14-3 15-4s-1-9-2-9l-8 2m-23 8h-4c-3 0-3 0-2 5s1 5 4 5l5-2c2 0 3-1 3-2h1c0 1 4 0 4-2 0-4-5-4-5 0l-1-2c-2-4-3-5-5-2M0 156v73l16 2a3053 3053 0 0067 7l1-8a2931 2931 0 0023-131 658 658 0 00-90-14h-6l-8-1-3-1v73m118-67l2 2a7973 7973 0 01-28 161l3 1h3l2-11 23-141c1-12 1-13-4-13-2 0-2 0-1 1m11 5l-27 158c0 2-1 3-3 3l2 1c4 1 5 0 6-6l1-5 17 10c18 10 22 12 24 10 1-1 2-2 1-3 0-2 0-2 3 0 2 2 4 2 4 1 1-4 7-9 14-10 4 0 4-1 9-8l3-8-14-3c-11-1-12-2-12-3l4-30c5-31 6-33 4-33s-13 16-18 25c-7 14-19 20-29 16-4-2-4-1 1-29l5-23 4-4c7-8 15-10 23-6 5 2 10 7 11 11 1 3 3 4 6 2a577 577 0 006-37c0-2-1-2-5-4-6-3-8-3-11 1l-1 2-4-3c-7-4-15-4-13 1 1 4 3 6 9 9l3 2v1c0 2-2 2-5 1-4-1-9-6-11-9-1-2-1-2-2-1s-1 2 1 3l2 3-2 1c-5 1-8-2-5-4v-3l2-14 3-14-6-1m101 39l-9 11c0 5-1 9-2 8-3 0-4 6-2 8 2 1 0 4-3 4l-1 1h-2c-1-3-1-5 1-3s1 0-1-3l-1-3-4 7-3 6h8l10-1 2-1 1-1v-1c-2 0-2-1-1-3l1-1v-1l2-1 1-5c-1-3 0-5 1-7l3-6c0-2 3-6 3-4l2 1c2 0 2 0 1 1-2 0-2 0-1 2l1 10v15l1 2h1l1 1c0 1 1 2 3 2 4 1 6 1 4-1l-1-9-2-12v-1l-1-3-1-3-2-4-1-4-2-1h-7m105 54l3 5 7 8c3 4 4 5 6 5 6 0 6-1 2-5l-18-13m-88 7l-1 5v2l2 3 1 2 8 1c10 2 12 2 12 1l-2-1v-1c2 0 3-3 3-7v-2l-1 2-1 3v-6c0-2-2-1-2 0h-1c0-2-1-1-3 1-1 2-1 2 2 2 2 0 3 0 3 2l-4 1a35 35 0 01-8-1c-5 0-3 2 1 3l4 1-11-1-1-8c-1-6-1-6-1-2m-65 13v1a314 314 0 0125 4l-1 5c0 5 2 6 4 1 1-6-1-6 22-2l17 3-1 4c0 7 3 7 5 1 0-4 2-5 10-3 4 1 7-1 5-3a643 643 0 00-75-12 467 467 0 00-11 1M32 256c-5 9-5 9-1 12l4 2 6-10 5-11-1 1-2 1-1 3c0 2-1 3-3 3-2 1-2 1 0 1v1l-1 3-1 1-2-1c-1-1-1-1-1 2 1 3 0 4-4 1-1-1-1-1 1-3l1-3 2-2 2-3 2-3c1 0 2-1 1-2-1-2-3-1-7 7m34-5l9 6 1-1c-1-2 0-1 3 1h-1c-4-1-2 1 13 10 17 9 16 9 15 6h2c3 2 4 3 1 3-3-1-2 0 1 1 3 2 4 2 4 1-2-2 1-1 5 2 5 2 6 4 4 4-4 0 1 1 5 2 5 0 5 0-21-15l-28-17-13-3m303 6c-3 3-1 4 6 3l6 1h-2l-5 1c-1 1 0 1 5 4 9 3 9 3 6 7l-3 3-6-2c-7-3-26-5-31-2-7 3-11 6-8 6l6 4c5 4 13 6 13 3l1-2c1 0 2 1 1 2l3 1c4 0 5-2 2-2l-4-3c-3-3-3-3-2-5 3-4 2-4 9 2 5 4 6 6 5 7s1 1 11 1c13 0 13 0 15-3 3-3 3-3 3-15v-13l-2 2-2 3-2 3-2 2-6-3-4-3-5-3-5-2-3 3M15 269l-3 5c-1 1 0 2 2 3l8 3c4 3 5 4 6 1 1-2-1-6-3-4-2 0-1-1 1-4l1-2-5-3c-5-4-5-4-7 1" fill="#d3d3d3" fill-rule="evenodd"/></svg>