<svg xmlns="http://www.w3.org/2000/svg" width="400" height="243"><path d="M0 122v121h401V0H0v122m8-19c0 55 0 56 2 60l3 3 1 2v7c1 4 1 4-2 7-4 3-4 4-4 8v5h349l-1-3c0-2-1-3-2-3l-2-1-6-1h-5l2-1v-1l6-3 8-1v-33l-3-1-5-2-6-3c-12-1-19-6-24-16-4-9-8-15-10-17s-4-1-2 1c3 2 2 4 0 2-4-4-9-2-12 6-5 10-18 18-26 17h-3l-1 1c-4 1-5 8 0 9 0 1 4 0 7-2 6-4 9-4 17-1 5 2 6 2 10 1 9-2 13-2 20 1 5 3 6 3 7 1h1c0 1 1 2 3 2l3 1h-3c-3 0-4 3-3 7 1 7-4 16-8 14-2 0-2 0-1 1v1c-4 0-4-2-1-3 5-2 7-6 8-13v-6l-6-3c-8-4-8-4-14-1s-12 4-17 2c-5-3-7-2-11 0-7 6-9 7-11 6l-2-2c-1 0-2-1-2-3-1-3-8-9-11-10s-3-4 0-7l2-3v-3l-1-7c0-6 0-7 2-7l1-2c-1-1-1-1 0 0l1-1c-1-1 0-2 1-4l3-5 1-1 1-2v-2l1-3c0-2 5-7 8-8 2-1 3-2 3-4 0-3 1-4 8-7 10-6 17-7 30-7 19 1 31 8 37 22l4 10c2 4 0 22-4 30-2 4-2 5-1 5 1 1 2 2 1 3 0 2 2 5 5 5 2 0 3-10 3-56V46H8v57m262-16c-4 3-4 4-5 11l-3 8-1 3c1 1 0 2-1 2-2 0-1 1 1 3 4 1 22-7 21-10v-9c-1-6-2-9-5-9l-1-1c0-3-2-2-6 2m5 26l-10 4v5c-1 4-1 4 2 5 4 1 10-1 17-6 6-4 7-5 5-10-2-4-2-4-14 2m84-1l-1 7c0 5 0 6 2 6l2 1-2 1-2 2c0 2 8 1 10-1 0-2 2-3 2-3 2 0 2-1 2-3l1-3c2 2 5 2 6 0 0-2 2 0 2 3 0 2 3 3 4 1l2-2c4 0 5-1 5-6v-4h-16l-17 1M29 124c0 2 0 3-2 3v-3c0-2 0-2-1 0-1 1-2 7-2 23 0 21 0 22 2 23 1 1 2 0 3-3l4-4 2-2v-1l1-2 1-2v2a602 602 0 011-23c-1 1-1 1-1-1l-1-3h-2l-1-1-2-2v-4c-2-4-3-4-2 0m193 12l-3 3c-4 1-4 2-5 7l-3 8c-2 2-3 5-2 5 2 1-2 7-4 8-2 0-3 4-1 4l5 2 4 2 3 3c7 10 18-5 11-15l-2-11-1-9-1-2v-4l-1-1m-158 1c-2 0-2 1-2 10 0 8 0 9 2 8h3l1-10c-1-9-1-9-4-8m19 7l-1 2c-2 1-2 12-1 12l4 2 6 2 4 1v-6l1-6 2-1-5-1-8-1c-2-1 3-2 6-1 4 1 4 1 3-2 0-2-1-2-1-1h-5c-1-2-5-2-5 0m93 6l-1 7c0 6 0 6 3 7h4c1-2 2-11 0-12v-2c0-2-5-2-6 0m103 10c-5 1-7 2-7 3h1l2 1c1 1 4 0 4-1h1l4-1h5l2 1h3l2 1 2 2a11382 11382 0 006 1c3 2 3 0 0-2-1-2-4-3-5-3-2 0-3 0-2-1l-2-1h-16" fill="#d3d3d3" fill-rule="evenodd"/></svg>