<svg xmlns="http://www.w3.org/2000/svg" width="388" height="300"><path d="M162 93c-67 1-65 0-70 5-5 6-5 7-5 51 1 45 1 45 7 51l3 3h91l103-1c13 0 16-2 20-9 2-4 2-5 2-44 0-43 0-46-5-51-6-7 9-6-146-5m2 5l-67 1v98l3 1c4 2 199 0 202-2 2-1 2-2 2-11l-1-12c-2-1-2-5-2-26s0-25 2-26l1-11c0-9 0-10-2-11-3-2 2-2-138-1m-56 7c-2 5-1 6 3 6s4-1 4-3v-3l1 2 1 3 1-3 1-2v2c0 3 2 4 2 1h1a455 455 0 0116 2c3 0 3 0 3-4l-1-3-2 1h-1l-15-1c-13 0-14 0-14 2m37 2v3h18v-7h-18v4m-11 29l1 1 1 3c0 2 0 3 2 3s2-1 2-3l1-3c1-1 1 0 1 2v4h16l-1-3c0-5-1-5-3-5s-3 1-3 3c-1 2-2 3-4 3s-2 0-1-1c2 0 3-2 1-2-1 0-1-1 1-1 1-2 1-2-6-2l-8 1" fill="#d3d3d3" fill-rule="evenodd"/></svg>