<svg xmlns="http://www.w3.org/2000/svg" width="400" height="267"><path d="M0 47c0 36 0 46 1 45h4l3-1h4l4-1 10-3h6l1-1h1l1-1c0-1 1-2 3-1l4-1 4-2h4l10-1 2-1 2-1h8a255 255 0 0129-5 375 375 0 0021-2l20-1 7-1 4-1h4l5-1h4l2-1 1 1 3 1 12-2a186 186 0 0012 0c0 1 10 1 11-1h14a192 192 0 0134 0h14l10 1h2l1 1h1l17 1h20l1-1 1 1 10 1 3 1 1 1h5l3 2 3 1 4 1 8 1 19 2 5 1 1 1h4l1 1h6l2 1h1a838 838 0 002-36l1-46H0v47m27 66l-1 13-2 2-1 2-1-1c0-2-6-3-6-1h-1l1-2c2 0 1-3-1-6-2-1-3-2-3 0l1 1 1 1-3 1c-2 0-3 1-3 2-1 1-1 2-2 1l-1-1c1-2-2-5-4-4v5l1 1H1v14l-1 8v8h3l3 1 1 1c2 0 3 0 6 3s3 4 1 4h-3c0-2-2-2-3-2H5c-1-2-5-4-5-3l1 1v13c-2 0-1 49 1 49l1 2H2c-2-1-2 2-2 20v21h85a1027 1027 0 0086-1l116 1h114v-97l-2 1c-3 0-5 2-3 2v1h-3c1-2-1-3-4-3l-2-1-2-1-2-2 1-2v2c0 2 2 1 4-1 1-1 1-1 2 1s1 3 6 2h5v-5c0-4-1-5-2-4l-4-1v-1l1-2h-22l-2 1 4 1h4l-9 2-2 1-1 1-1-1c0-1-1-2-2-1h-2l-3 1-5-2-4-3 1-1c3-2 8-2 8 0 0 3 1 3 5 2 3-2 3-4 0-4-2 0-4-3-3-4h4v2c1 2 3 2 3 1s1-2 3-2l2-1c-1-1 5-4 7-4s1 2-1 2c-1 1-1 1 1 1l2 1h2l1 1v1l1 1c0 2 5 1 6-1v-4h5c3 0 3 3 0 3s-4 1-3 3h3c2-1 3-2 3-7s-1-8-3-7l1 2v4c-2 0-5-3-4-3l-2-1-3 1-3-1-2-1c0 2-5 1-6-1v-2l-3-1-3-1h1l1-1c0-2 0-2 3-1h2c-1-2 0-2 3-2l13-2c4 0 5 0 2 3h-12l-4 1c1 2 8 4 9 3l1 1v2h4l1-2c1 2 4-3 4-7s0-4-2-4c-7 3-7 2-5 1 1-2 1-2-1-2-4 1-44 2-45 1-3-2 2-3 12-3l9-1c0-1-7-3-10-2l-3-1c0-2-1-2-4-2l-3 1h3l2 1h-2l-1 2-1 1h-5c-2 0-2 0-1 1 3 3 2 3-7 3l-7 1-2 2c-2 1-5 0-5-1h-1l-2-1-2 1c-2 2-5 3-5 1h-9c-4 0-6 0-5 1v1l4 2c6 1 7 1 5 4h-4l-3 1h-8c-5 2-11 2-12 1-1-2 2-3 7-4l6-1 1-2 1-1-1-2-9 3-1 1-2-1-1-2c-2-1-3 3-2 5 1 1-1 2-5 1h-9a1022 1022 0 00-9-2c1-1 0-1-3-1-4 1-5 0-3-2v-1l-3 1v2c0 2-1 3-2 1l-6-1-19-2c-1-1-1 0-1 2 1 3 1 3-2 3h-5l2-2c2 0 1-2-2-3-3 0-6 2-4 4v2h-8l2-1c3 0 4 0 4-2h-7l1-2v-1l-2 1h-2c-1-2-11 1-13 4h-1l-3-1c-2 0-2 0-1 1 2 0 2 0 1 1v1l2 1h-6c-2 0-3-3-1-4v-3h-4l-5 2-4 1-2 1h-3c0 1-3 2-5 1-1-1-1-1-1 1h-1v-4l1-2 1-1a458 458 0 019-3l-2-1c-3 2-7 2-7 1l-3-1v1c2 1 1 2-2 2-2 0-3 0-2 1l2 1h3l-2 1c-2 0-2 0-1 1l1 2-6-6c0-3 0-4-2-3v5c1 0 2 1 1 2l1 1c2-1 2 0 0 2h-2l-4-2c-1 0-2 0-1-1 2 0 1-2-1-2l-2 1c1 3 0 4-2 3-6-3-4-7 2-5l5-1v-1c-4 0-8-4-6-5h2c0 2 0 2 1 1h1c0 2 3 1 3-1 0-3-1-4-6-4-3 0-3 0-3 3s0 3-3 3l-3-1c-3-2-10 0-10 3 0 2 3 1 3 0l2-1-1 2v1l1 2c0 2-1 2-4 0l-3-4v-1l-1 1h-1v-2c1-1 1-1-1-1l-2-1c-1-1-2-1-4 1-4 3-4 4 0 2h2l-1 1-1 1c1 1-3 1-5-1h-6l-2 1c-1 2-3 2-9 1h-3c-5 0-2 2 2 2h5l-5 1h-7l-1-1 1-1 1-1v-3h1l15-1-4-1h-7l-12 1H44a47 47 0 00-14 2v-8c2 0 4 1 4 3l1 2 10-2c3-1 3-1 3-10v-8l-5-1c-4 0-6 0-8-2l-5-2h-3v13m69-10c0 2-1 3-2 3s-2 1-2 3l1 3c3 0 1 5-1 7l-1 1 4-3c3-2 3-2 4-1 2 3 3 0 3-7l-1-8-3 1c1 2 0 3-1 1l-1-2v2m302 15l-3 1c-3-1-9 0-9 2l-3 2-2-1 2-1h1l-3-1h-8l-2 1c-1 1-1 1 1 1l3 1c1 2 22 2 23 0l-1-1-1-1h2c2 0 2 0 2-2 0-3-1-4-2-1M50 128c-1 1-1 1 1 1 2 1 1 1-1 1-5 0-5 0-5 3 1 3 2 3 4 3h9c3 1 5 0 5-1 1-1 0-2-2-2-1 0-2-1-2-3s0-2-2-1h-4c-1-2-1-2-3-1m262 15l-1 3c0 3 0 3-1 2l-3-1-4-1c-3-2-4 0-4 3 1 2 3 2 6 1h1l1 2 1-1 5-1c6 1 7 0 7-4 0-3 0-3-2-3l-4-1-2 1m-86 10v4l1 1v1l1 1c0 2 5 4 6 3l1-1v3c-1 2-1 2-3 0h-2c-1 2 3 5 4 4l1 1 1 1 1-1v-2h6l-1 1-1 2c-1 2 3 5 4 3l3-1c3 0 3 0 0-2-3-1-3-1-2-3 1-1 2-2 3-1l2-1-2-1c-2 0-2 0-1-1v-1c-1-1-2 1-2 2l-5 1c-5 0-6-1-4-3 1-2-1-4-3-3l-4-1c-1-2-1-2 1-2h3l1-1-3-1-3-1c0-2-3-3-3-1m-33 12c-1 2-5 2-5 0h-1c-3 2-2 3 0 3 3 0 6 2 5 2-12 1-16 3-15 5v2h-1l-4 1-3-1-1-1c-2 2-12 2-15 1h-3c-1 1-1 1-1-1 0-3 0-3-3-3-1 0-2 0-1 1v1c-1 1-1 1 1 1s2 0 1 1l-1 1v2c2 0 2 1 2 3-1 2 1 3 2 1 1-1 13-2 16-1l2 3 2 1h5l3-1c2 0 2 0 2-2-1-2 0-2 2-1v2c2 1 3 0 2-1l1-1c1 1 1 0 1-1 0-2 1-2 2-2l1 3c0 2 1 3 2 3h8l-1-1-1-1h3l2-1c0-5 0-7 1-6l2-1 3-1c2 0 2 0 1 1l-1 1v2c-1 3 0 3 2 0 1-2 3-3 4-2l1-1v-1c2-1 2-7 0-9h-6c-4 0-5 0-3-1s2-1-1-1l-4 1-1 1-1-1c0-2-5-2-6 0m-160 1v2l-1 1v1c1 2-1 1-4-1-3-3-3-3-8-1-4 2-5 3-2 3v5c2 1 7 0 9-1l11-1 2 1 3 1 1 1v-1c-1-2-1-2 1-2s2-3 0-5c-2-1-2-1-4 1-2 1-2 1-3-1s0-3 1-3c2 0 0-2-2-2l-4 2m100 1l-1 6c1 6 1 7-2 5v-1l1-1h-3l-2 1v1l2 1 3 1h-4c-2 0-3-1-3-2l-3-1h-3c-2-1-2-1-4 1l-2 1c-1-1-1-2 1-2l1-1-2-1-2-2c0-2-4-2-5 1h-2l-1 1 1 1 1 2-1 1v-1l-1-1-2 2h-4l-2 1-2-1-1-3h-3l-4-1-4-1-1-1-4 4-2 1-1-2c1-2 1-3-1-3l-4-1-4 2h-1l-2-1v-2c0-2-1-3-3-1-1 2-1 5 1 5 1-1 1 0 1 1s1 2 4 2c2 1 3 1 2 2h-3c-2 0-2 0 0 1h4c1-2 2-2 4-1v1l-3 1-5 2-4 2h19c6 1 9 2 5 2a49 49 0 00-8 1c-1 0-2 0-1 1l2 1 7-1c4 0 6-1 6-2l5-1c4 0 5 1 5 2v1l2-1 2-2 6-1 4 1c2 2 8 1 7-1l-1-2v1c0 2-6 1-7 0-1-2 1-3 3-2 1 1 2 0 3-1 1-2 7-3 8-1l-1 1c-3-1-4 1-1 2l2 1 3 1h2c0-2 7-3 9-2l2-1 2-1 2-1-3-1c-2 0-3-1-3-2l-2-2c-2-1-2-1 0-1h3l-3-1-2-1h2c2 0 2 0 1-1v-1l1-1c0-2 0-3 3-2 3 0 3 0 1-1-4-2-9-2-10 0m184-1l-2 2v2l-13-1h-3l-2 1-1 1c-3 0-2 3 1 3h4l2 1 5 2 3 3h-8l-2 1 2 1 1 1v1l1-1h2l1-1 3-1c2 0 3 0 2 2l3 1h4v1c-2 0-3 2 0 4 1 2 5 0 4-2l3-1 2-1h-5c-1 1-1 1-1-1l-1-2c-1 1-2 0-2-1h-2l-3-1-2-1c-1 1-1 0-2-1l-2-2-1-1c0-2 3-3 7-3l5-1c-1-1 0-2 2-1h1l3-1 3-1-2-1-2-1h-8m-49 2l-4 2-2 1 1 2c1 1 2 0 3-1 2-1 2-1 0-1v-1h5l1 1 1 2 1-1 1-1 1 2c-1 1 0 3 2 4l2 3h2c1-2 2-2 5-2 4 0 5-2 2-4v-2c2-1 1-3-3-3l-10-2-3 2h-1c1-2 1-2-4-1m-46 5v2l-1 1-1-1c-1-3-3-2-3 0s1 3 3 3v1l-2 2-1 2-1 1-2 2h-1c0 1-1 2-3 1-3 0-7 1-5 2s1 4-2 4l-3-1-3-1c-2 0-2 0-1 2v1l-2-1c-1-2-3-2-3-1 0 2-2 3-4 2-2 0-8 3-6 4l1 2-3-2-4-3-2-1c-1-2-3-3-3-1h-15l-6 1-5 1h-2l1 2c3 2 2 4-1 4s-3-1-3-3c1-5 0-6-2-6l-2 1v4c2 0 2 0 1 2h-4l-3 1c0 1 2 2 9 2s9 0 8-1c-1-2 2-3 5-2 3 0 3 2-1 2-2 1-1 1 2 1 4 0 4 0 3 1-1 2-1 2 2 2 4 0 4-1 3-2 0-2 0-2 3-2 5 0 6 0 6-2-1-2 5-2 6 0 0 2 2 3 10 4 4 0 6 0 5-1-2-1-2-1 1-1l5-2h2c0 1 1 2 3 2 5 0 7 1 7 4-1 2-1 2 1 2l2-1v-2c0-3 2-3 4-2 2 2 6 2 6 0 1-2 1-3-1-2-2 0-3 0-3-2l-4-2c-3-1-3-1-1-1 2-1 3-3 1-3l-1-1h6c1 1 1 1 2-1l2-2c2-1 2-4 0-8l1-2 1-3c-1-3-1-4-2-2m7 6c0 5 2 8 5 6h4c2-1 5-1 5 1 1 1 5 0 7-2 1-1 1-1 1 1h1c1-1 2-2 3-1l3-1 6-1c5 0 6 0 4-2-1-1-2-3-1-4l-3-1c-1 0-2 0-1 1l2 1-9 1-6 1h-11c-6 0-7 0-4-1 3 0 3-1 2-1l-3-1h-2l-1-1c-2 0-2 1-2 4m4 22c-2 0-2 1-1 2l2 4 2 2h8l7-1c0 2 6 1 8-1 3-1 1-2-4-2l-3-1-1-1-1 1h-7l-2 1c-2 1-5-2-4-4h-4m-157 3l-4 2c-3 1-3 1-1 1l3 1h-1l-7 2 5 1c4 0 4 0 2 2v1c1-1 2 0 2 1h-2l-1 1h7c3 2 10 2 8-1h-4c-2 0-3 0-3-2-1-2 0-2 2-2l3-1-4-1c-5 0-7-1-3-2 4 0 5-3 1-3h-3m271 14c0 2-1 3-4 4s-3 1-2 2l2 2 1 1 1 1 1 3c2 1 5 0 5-2-1-1 0-1 2-1l1-1 2-1v-2l-6-1-3-1 2-2 2-1 2-1c1-1 0-2-3-2-3-1-3 0-3 2" fill="#d3d3d3" fill-rule="evenodd"/></svg>