<svg xmlns="http://www.w3.org/2000/svg" width="400" height="191"><path d="M169 6l-13 1c-9-1-14-1-14 1l11 1 19 1h22a981 981 0 0121-2l-24-1c-11-1-19-2-22-1m-34 13l-2 1v46a198 198 0 000 38v9l-1 28v13l89 2c38-1 49 0 48 4 0 1-21 3-34 3l-12 1 25 1c31 0 29 1 30-15 0-13-1-14-3-4-2 8-5 11-6 9a2366 2366 0 00-3-135l-7-1h-20c-1 1 2 6 8 10 4 4 5 7 2 8s-12 9-12 10h3c3-1 6 0 6 2-1 1 0 2 3 1 4 0 4 0 5 3l2 4c-2 2-10 7-12 7s-3 2 0 2c2 1 1 4-4 6l-10 9c-5 5-11 10-14 10l4-5c4-5 5-7 2-7l-5 5c-4 5-4 5-8 1l-3-3 2-7c3-10 3-11 1-8-1 2-3 2-6 2-7 0-8-1-2-5l11-7c7-5 7-5 10-2v5l-2 4-1 2-4 11c1 0 5-7 5-10h1l1 6c-1 5-1 4 3 2 3-1 9-11 7-11l-2 2c-2 2-5 3-7 1s-1-4 1-6l2-4c0-1 1-1 2 1h5c2-2 2-2 0-2-3 0-6-2-6-4 0-3-3-5-3-2-1 3-3 3-8 0l-2-3c1-1 1-2-1-3l-3-3 3 1 5 1 3 1h3c2 1 3 1 4-1 2-2 6-17 5-21l-1-2-26-1a29295 29295 0 00-71 0m-13 10v75l1 18 1 15 1-11 1-12c1-1 1-31-1-40l1-12V50l-1-18-1-13-2 10m44-2l1 12v7l-5 2c-4 1-4 1-7-1-4-5-6-3-2 3 1 3 2 3 5 5v3l-2 5c0 3 5 8 8 8 2-1 2 0 2 14 0 17 0 16-9 15h-3c1 0 0 6-2 11-5 19-3 31 6 36 4 2 5 2 5 1h4c5 3 19 4 23 2 5-3 6-7 5-20l1-21c1-12 1-13-3-16-4-2-9-1-15 1l-6 3V85c2-20 1-19 8-23 11-8 18-14 18-16 0-3-4-8-6-8-1-1-4 0-7 1-8 3-7 3-8-2 0-5-2-10-7-12-5-3-5-2-4 2m70 69c-4 3-5 3-5 1l-5 3c-4 5-5 7-1 9 2 1 2 1 0 2s-1 1 3 2c2 0 2 1-1 3-4 3-6 2-6-7 0-5 0-6-4-9-4-4-4-4-3 2v15l-1-1c1-1 0-4-3-5-2-2-2-2-1 1l-2 7c-2 4-2 4 0 6h5l1-1v8c0 8 0 9 2 11 5 7 6 6 5-8 0-12 0-13 2-13 1 0 2 1 2 5 0 3 0 5 2 6 3 3 2 4-2 4-2 0-3 2-1 2s3 2 1 4c-1 3-1 3 1 5 2 3 3 3 8-1 2-2 6-3 7-3 4 0 4-1 0-3-3-2-3-2-1-2v-3c-2-1-2-1-1-2 3 0 7-8 7-11 0-2-3-5-6-5-4 0 1-2 5-2l4-1c0-3-4-4-8-4-5 1-5 1-1-2 4-2 4-2 3-3s0-2 2-4c4-2 5-5 2-7-2-3-4-2-10 1m-60 7c-7 3-9 3-12 2s-3-1-3 2v5c-4 4-2 4 7-1 9-4 9-4 11-3 3 3 3 4 0 7-4 3-4 4 1 5 4 2 4 5 0 6-3 0-3 0-1 1 4 1 6 4 5 6 0 2-2 1-4-1l-2-2v-2c-2-2-5 1-5 5 0 3 0 3 4 3s7 2 7 4l-4 1-12 3h15c4-2 4-1 3-24l-1-20-9 3m-18 16c-2 7-1 17 2 20l3 3v-2c-1-1-2-2-1-4v-5c-1-3-1-4 4-7 4-4 4-5 0-5l-5-2c-2 0-3 0-3 2" fill="#d3d3d3" fill-rule="evenodd"/></svg>