<svg xmlns="http://www.w3.org/2000/svg" width="211" height="300"><path d="M0 150v150h212V0H0v150M96 30c-9 3-26 11-26 12 2 1 18-3 24-7l7-3-16 11-1 1-2 3c-1 2-1 2 1 2s1 1-4 3l-6 3 2 3 4 2 1 1c-1 2 1 3 4 3 2 0 2 0 1 2-3 2-2 3 0 2 3-3 5-2 3 0-3 2-2 3 0 2l8-2c7 0 9-1 13-6 4-6 4-7-1-3-4 5-6 5-4 2 3-4 3-7 0-5-3 3-3 2-1-2l2-6 4-4c5-5 4-7-4-6-6 2-7 1-4-3 2-2 2-3 1-3-1-1 0-1 2-2 7-4 1-4-8 0m51 14l-11 13c-12 12-12 13 0 7 6-2 7-2 5 1-3 3-1 3 2 0l2-1c0 2 2 1 5-2 3-2 3-3 2-6 0-5-5-15-5-12m19 20l-17 8-36 16c-9 6-5 5 8 0 11-5 15-6 9-2-15 8-20 12-19 12l5-1c6-3 6-2-1 1-9 6-13 8-10 9 1 1 1 1-1 2h4c8-3 12-3 6 0-2 1-2 1 0 2h5l-9 6-14 7-2 2h3c3-1 3-1 2 1v1l-4 5c-4 4-5 7-1 5l-6 7c-7 7-13 16-12 18l3-3c6-9 9-12 6-5-2 5-1 9 2 6 1-1 1-1 1 1l-2 6c0 3 0 3 1 2 2-3 2-1 1 2-2 3-2 7-1 7l2-2 1-2 1-2c0-2 0-2 1-1l1 4c0 3 2 1 4-4 1-4 3-6 3-3l1-1c2-1 2-3 1-7-1-5 0-10 3-18 1-2 1-2 1 0l1 2c2 2 4 7 4 12 0 4 0 4 1 1 0-2 0-3 1-2v5l1 6h1l1-1c2 0 1 3-1 7-3 5-3 5 4 2 1 0 0 2-3 4l-3 5-1 1h-1l-2 4c-4 3-3 5 1 3s4-1 1 3c-3 2-4 4-3 4l-2 4c-3 3-3 3-1 2l4-1c3-3 2 0-2 3l-2 3-1 2v3l-1 4c0 2 1 3 3 1l1-1-2 4c-2 2-3 5-3 8l-2 4-1 2h1c2-2 3-1 3 4l1 4v3c0 5 2 5 4 0 1-4 4-5 4-1a133 133 0 001 15l1 1v2c-1 8 5-4 8-16l3-7c3-6 3-10 2-15-2-6-4-23-2-26l4-7c5-5 7-9 7-15l2-12c2-6 2-7 1-13l-2-6-4-7 1-3-1 1c-3 5-4-2-2-9l1-4-1 2c-1 2-1 2-2 1h-1c-1 0-1-3 1-6l-1-2v-1l1-2v2c-1 3 1 1 3-4l4-3h1c-1-1 5-6 7-6v4l2-4c0-1 3-5 7-8 7-6 8-9 6-12-1-1 0-1 3-3 7-3 8-6 4-9s-4-5 0-7l3-4c0-3-1-3-3 0" fill="#d3d3d3" fill-rule="evenodd"/></svg>