<svg xmlns="http://www.w3.org/2000/svg" width="400" height="267"><path d="M0 49c0 44 0 48 2 47h6l5-1 3-1h5l2-2c2 0 2 0 0-1v-2c9-1 17-5 17-8l6 2c2 1 2 1 0 2h-3l-1 1-3 2-3 1 2 1c2 1 2 1 0 1l-1 2c0 3 6 2 10-1 3-2 5-3 5-1l-1 1-3 2-2 2h6l-1 2-3 2-2 2c-3 3-7 6-7 4 1-2 0-2-2-1-1 1-1 1 1 2 1 1 1 1-1 1-2 1-2 4 0 3l2 1c3 2 21 2 21-1h6l1-1h2l1-1c-1-1 0-2 1-2v-1c0-2 1-2 4-1 1 1 2 1 2-1h2c5 4 24 3 32 0 4-2 6-3 13-3h8l2-1h5c3 1 6 0 6-1l4-2h7l1-1 2-1 11-5 1-1h1l4-3 7-6c7-4 9-9 9-16-1-6-1-6 2-8 2-2 5-2 5 0l-2 1v1l1 6 1 4 1-4 1-3v4c0 3 0 4 2 4v1c-3 1 0 5 6 7l10 5 3 2 3-2c2 0 2 0 2 2-1 1 0 1 1 1l4 1h18l5-1c9-3 10-4 11-3h1l1-2 1 1 1 2 2-1c0-1 1-2 3-2l3-2c0-1 10-6 13-6l4-1 11-4 10-5c4-3 4-3 11-5l7-3 6-3a226 226 0 0021-11h4c2 1 0 2-3 2l-3 1 3 1c2 0 3 0 2 1l-1 1v1l-1 1h-2l-30 19c-3 1-4 4-2 4l8-2c9-3 10-4 7-1l-2 2h2c2 0 2 0-1 3l-3 4c1 2 3 1 5-1l5-2h11l7-1-3 3-3 3c4 0 1 3-4 5-8 2-9 3-3 3l3 2h4l1 1c-1 2-1 2 1 1l3 1h12l10 1h-7a128 128 0 00-28 5c-3 1-3 3 0 4l3 1-3 1-3 1 3 1c3 0 6-1 3-2-2-1 0-2 3-1l9-2 8-1 3 1h4l4 1c1-1 2 0 0 1h1l1 1h8l-1 2-9 6-13 7-5 3-7 3c1 0 1 1-1 1-3 2-1 3 4 3 3 0 3 0 2 1-2 1-2 1 1 1l6 1c2 2 3 2 5 0 4-2 5-1 2 1l-2 3h9c4-1 11 0 10 1l1 1 2-101V0H0v49m217 41l1 5c0 1 1 3 4 4 5 2 4 2-4 0-10-1-10-1-8 1l1 3h-5c-23-1-46 7-46 15l1-1c2-5 15-10 28-11h7v10c0 2 1 3 2 3 2-1 3-10 0-10-1-1 0-1 2-1 3 0 5 3 3 5-1 2 1 6 3 6l1-5c0-3 0-5 1-4h2v4l1 3c0 3 3 4 3 1 0-1 0-2 1-1l2 1 2 3 2 1v1c1 2 0 2-10 1-11 0-11 0-8 1l3 2h-4c-3-1-3-1-2 1 1 1 1 1-1 1h-3l-13 2c-17 2-30 6-30 11 0 2 2 1 2-1 1-1 1 1 1 3 0 7 2 5 2-1l1-5v5c0 7 2 6 3-1s2-8 2-1l1 10c1 3 1 3 2-6 2-12 3-12 3-2l1 9 1-6c0-7 2-10 2-4 0 3 1 2 2-3l1-6v9a1017 1017 0 003-2l1 6c0 4 1 5 2 2l1-9c0-4 0-7 1-6l1 3 1 2 1 6c0 5 0 6 2 6s3-6 3-13v-5l1 3c0 7 2 15 4 15s2-2 4-12c0-8 1-7 2 4 0 9 1 10 3 10h3v-7c0-8 2-16 2-9 0 11 1 16 3 16 2 1 1 1-1 1h-4l4 1c4 1 4 1 3 2l5 1 10 2c2 2 2 2-4 3-9 1-10 0-19-3-12-4-16-3-31 4a307 307 0 01-23 9l-21 1c-13 0-20 0-19 1l-1 1a15308 15308 0 01-85 1c1 2 0 2-3 2h-4l5 1 4 1 1 1 3 2h-2c-2 0-3 1 0 4v12l-2 12 1 1 2-11c1-13 2-14 4-14s2 1 2 2l-3 23c0 3-1 4-5 4-6 0-6 0-4-6 0-2 0-3-2-5-2-3-3-5-1-5l1-2h-4c-1-2-1-2 1-2 2-1 2-1 0-1-4 0-3-2 1-2l3-1-3-1c-4 1-4 1-4-1 1-1 0-1-1-1l-3-1 5-1 7-1c1-1 0-1-3-1-5 0-7-1-7-3h-2c-2 2-3 2-3 1l-1-3c-1-1-1-1 4-1h5l-4-1c-4-2-4-2-2-2 3 0 7-3 5-3l1-1c1-1 1-1-1-1a226 226 0 01-7 0l-1 1H9c-1 2-3 1-2-1l-1-2H3l-2-2-1 46v46h16c19-1 20 0 6 3-17 2-22 3-22 4a379 379 0 00102-6H40v-2l1-3 2-1c2 0 2 0 1 1s-1 1 1 1l2-1c-1-1 0-1 2-1h8l6-1h-6l-15-1c-1-2 1-2 6-2l6-1c-1-1 11-2 27-2 15 0 16 0 15-3h1c3 2 22 1 34-1a1177 1177 0 019-2l-5-1h-12l1-8c0-9 0-11-3-10-2 0-4 4-4 8 0 2 0 2-6 2-5 0-7 0-8 2-2 1-2 2-1 2v1h-2c-2 1-13 0-14-1h-1l-3 1-4-1h-2l-2 2c2 0 1 2-1 2l-2-2 1-3c1 0 1-1-1-1v-2c1 0 2-1 2-3l1-4c1-2 3-2 3 0s1 1 1-2l1-3H63v3l-1 6c0 3 0 3-3 3-4 0-4 0-3-4l2-6c1-2 1-2-3-2h-5l-2 6v7l-2 2h-4v-1c2 0 2 0 1-2s-1-8 1-9l1-2c0-3-9-3-10 0 0 3-1 3-3 0l-2-3h41l34-1c-5 0-6 0-6-2s0-2-1 0l-7 1h-6v-6c0-8-1-8-1 0v6H65v-6c0-9-1-9-1-1v7h-6c-7 0-8-1-6-10 1-5 1-3 1 4 0 3 0 3 2 3s2-1 3-4c0-6 1-8 2-5 1 1 1 1 1-1 0-3-4-6-6-5s-2 0-2-3l-2 8-1 13h-6c-6 0-8-2-3-3 2-1 3-2 3-6l2-5v2c0 2 0 2 1 1 2-4-1-8-6-7-1 1-2 1-1-2 0-6 1-8 2-8v2c0 2 0 2 2 2 3-1 4-5 1-5s-2-3 1-3 6 2 7 6h1l1-2 1 2c-1 2-1 2 1 2 3 0 3 0 3-2s-1-3-2-3l-2-1c0-3 6-2 8 0l2 4 1 1v1c-2 1-2 2-2 6v5l1-5 1-4c1 1 2 0 2-2 0-3 3-6 5-6s2 0 0 1c-3 1-2 5 1 5l1-3 1-2 1-1c-1-3 4-2 7 1l2 1h1l1 2c-1 2 0 2 2 1 3-1 2-4 0-4-4-1-4-3 0-3l4-1c0-2 2-2 10-2l9-1c0-1 4-2 5 0 2 1 1 2-1 1-2-2-3-1-2 1 1 3 1 3-1 2h-4l-2 1 2 1h9c2 1 2 2 2 9a274 274 0 00-2 20c-1-4-2-5-2-2s0 3-3 3c-1 0-2 0-1 1h45l5-1h4v5c0 5-2 7-3 2l-1-2-1 3 1 7v3h8c-3 1-3 1-1 2v1c-3 0-2 2 1 2h2l1-1h1c1-1 0-1-1-1-2 0-2 0-1-1 3-1 4-3 2-3v-3l-1-1-1 2-2 1v-1l-1-1-1-1c1-1 1-2 13-2s9-1-3-1c-7 0-9 0-7-1a2284 2284 0 0017-4c5 0 7-1 7-2 0-2-1-2-6-2s-5 0-3-1c1-2 2-3 2-18 0-18 2-21 2-4l1 16c2 6 2 7 10 6l3 1 8 1 5-1-4-1-1-1c-2 0-2-3-2-17s0-16 2-15l1 14 1 14 1 3c0 2 0 2 3 2h4l-1-17 1-16c2 1 3 25 1 27s0 4 3 3c3 0 3 0 2 1-2 1-2 1 0 1l4 2h1c0-2 1-2 2-2l3 1v5l-1 2 2 2 1 3v14l-3-1c-2 0-3 0-2 1h-13a1370 1370 0 00-21-1l1-3 1-2-1-2-2-1h-1c0-2-2-1-2 1h-1l-2-1h-11l-4 2c-2 1-2 1 1 1l3 1c0 1 1 2 3 2h6c2 1 3 1 3-1v-2c2 0 2 4 1 6h-46c0-1-8 0-14 2h12c11 0 16 0 15 1l2 1a588 588 0 0076-5c0-2 1-2 12-2l9-1c-6 0-6-1-7-11v-10h13c11 0 12 0 12 2 0 7 2 17 3 18s-1 1-5 1c-6 0-6 0-2 1l8 1 6 2h3c1 3 3 2 4 0s1-2 1 0c0 3 4 4 5 1l1-2v2c0 1 1 2 4 2l4-1c-1-1-1-1 1-1l2 1-1 1v1l2-1c0-2 1-2 5-2 4 1 4 1 4-2l1-2 1 3c-1 2-1 2 3 1 4 0 5 0 5 2 1 1 1 1 1-1s-1-2-3-2c-3 0-3 0-1-1l3-1h1l1 4v4h7l8 1c1 1 0 1-4 1l-11 1-7-1c-2-1-3-1-3 1l3 1a136 136 0 0112 1c4 0 6 1 4 2h-9c-6-1-8 0-9 1h-14v1a580 580 0 0068 1l-21 1-15 1h-9l-3 1c-4 1-3 1 9 4 8 2 11 2 32 2h23l1-4v-4h-7c-4 0-6 0-4-1l3-1h-3c-3-1-3-1 1-1l7 1 3 1v-46l-1-41v6l-7-1a10830 10830 0 00-112-3l-20-1-21-1-6-3-6-2-4-2c-3-1-3-1 3-1 3 0 5 0 4 1-2 1-2 1 2 1l4 2 4 1h6l8-1 2 1h14l4-1h3l-12-1c-13 0-17-1-19-6l-1-20c1-5-1-10-6-12-3-2-4-5-2-9 2-3 1-5-1-7l-2-3-2-4c-2-1-3-4-4-7-1-4-4-9-5-7l-2-1c-1-1-1 0-1 3l1 4-1-4c-2-6-4-8-4-3m175 53l-6 3-7 4-4 3 2 1 1 1h6c0-1 1-1 1 1v-3c0-6 2-6 3 0l1 3c1-2 9-3 10-1 1 1 1-1 1-6 0-8 0-7-8-6m-197 19l-1 2v2l-2 2c-1 2-1 2-1 0 0-4-2-5-5-3l-3 3-1 1-1 2h43l-17-6v5h-1l-1-1-1-1c1-4 0-5-1-5l-2-1-1-1-1 2-2 2c-2 0-3-2-1-2l1-1h-2m100 4c-4 1-5 1-2 1 2 0 3 1 3 2l4 1a690 690 0 0164-1c0-1 0-2-30-1l-30-1c-1-2-1-2-9-1m-196 1l-2 1 3 1a502 502 0 01-62 1c-6 0-7 1-1 1l5 1h14l6-1 6 1h1l9-1 9 1h1c0-1 12-2 12 0h1l8-1c7 0 11-1 6-1l-4-2c-1-1-7-2-12-1m260 13c-2 0-3 1-3 2l-4 1c-4-1-5 1 0 2 2 0 2 1 2 2-1 3-4 4-4 1l-1-2h-1l-2-1c-3-3-12-3-10 0l3 1 2 2c0 3-4 3-5 0l-1-1-1-1-1-1-2-1 2-1 1-1 2-1c1-1-1-1-4-1s-5 0-4 1c2 1 1 2-2 2-1 0-2 0-1 1l-2 1c-2-1-3 0-5 2-1 1-2 2-2 0l-1-1-3-1c-3-2-11-3-10-1s-1 3-3 2c-1-1-1-1 1-3 3-3 3-3-2-3-2 0-3 0-3 2 1 1 0 1-3 1-5 0-5 2-1 3l3 1c0 3 0 5 3 8 2 3 2 4 2 8l1 4 1-4c0-5 4-7 9-4 2 1 2 1 1 2-2 0-3 9-1 12 1 3 28 3 28 0h1c0 2 1 2 7 2 5 0 6 0 6-2h1c1 1 2 2 5 1h8c5 0 6-1 4-5l-2-12c-2-11-4-16-6-13 0 1-1 2-2 1-4-1-1-4 3-3l3-1c-1-1-4-2-7-1m-158 16v17c-1 2 0 2 2 2s2 0 2-4l-1-15-1-13c-2-1-2 0-2 13m125 21l-19 1c-1 1 0 1 2 1 4 0 5 1 3 3l-1 5c0 5 0 5-3 5-7 2-8 1-8-4l-1-5c-2 0-2 1-2 5 0 3 0 4-2 5-3 1-4 2-2 5h2a545 545 0 0181-1l-1-3-3-10-1-7h-45m-4 2h-4v5l1 7 1 2c1 0 1-7-1-10v-3l1 1 2 1 1 4c0 5 0 6 4 5 2 0 2-1 2-4v-5l2-1h1l1 1 1-3h-12m-182 4l-1 6-1 5v1l-1 1-1 2c0 2 1 2 6 2 7-1 7 0 7-5 1-2 1-3-1-3s-2-1-2-4c0-5-3-8-6-5m-53 29l-5 1-2 1c-1-1-35 3-37 4a1145 1145 0 0046-1l-10-1h14l11-1H94l-7-1 10-1 11-1H87m221 8c1 1 1 1-1 2l-7-1h-15v1l-2-1h-16l-3 2c-2 0-2 2-1 3l74 1a102 102 0 00-26-6l3-1h-6" fill="#d3d3d3" fill-rule="evenodd"/></svg>