<svg xmlns="http://www.w3.org/2000/svg" width="400" height="267"><path d="M0 134v133h238l-6-9c-7-11-6-10-16-8l-4-1-2-2-4-2-1-2h3l3 1-4-4c-4-4-6-7-4-7l2 2c1 1 3 2 5 1h2l-2-2c-5-3-7-7-4-7 2 0 2 0 1-2l-2-2-1-3c0-4 0-4 3-4 4 0 4-2 0-2h-2l-1-15a555 555 0 00-1-44c3 3 3 1 1-4-5-6-4-7 3-4 6 2 6 2 3 7-6 8-1 25 8 25l3 3c1 3-1 15-3 14l-1 2c1 2 0 6-2 11-3 11-3 19 0 24s18 11 24 9l-5-2c-8-1-15-5-17-8-3-4-2-18 2-28l3-11c2-8 4-12 6-12a173 173 0 0113 29c3 5 3 12 0 13-1 1-1 5 1 7l1 4 2 1c5-2 9-2 10 0 2 2 8 2 8 0l5-1 8-1 4-1-1-15c-1-24-1-25 2-27 1-2 3-2 4-2l1-1v-1l2-2h3c2 0 2 0 1 1-2 1-2 2-1 2l1-1h2a210 210 0 0036-8v-1c-2 0-2-1-2-4a291 291 0 002-37c0-2 1-2 6 1 14 8 20 15 22 28 0 3 1 3 3 3h5l-8 4-5 1h6c4 0 6-1 6-2s4-2 5-1c0 2 3 1 8-2l6-3 2 2c5 4 2 5-25 11a890 890 0 01-74 16 1061 1061 0 00-6 63v10h120V133a658 658 0 00-4-132l-8 75-1 3v-3c0-6 6-67 8-74V0H0v134m214-93v7l-7-6c-3-4-6-6-7-6-1 1 0 16 2 17l1-7-1-6 6 6c9 9 10 8 8-6-1-7-2-6-2 1m-27-4l-5 1v5c0 11 1 12 4 12l8-1c4 0 5 0 5-2h-14v-3c0-2 1-3 6-3l6-1-7-1c-6 0-6 0-6-2 0-3 0-3 6-3 4 0 6-1 7-2h-10m-10 1v6c0 8-1 9-7 9-4 0-5-1-6-8-1-9-2-9-2 0 1 9 3 11 9 11 7 0 8-3 8-11 0-6-1-9-2-7m-33 2c-2 0-2 1-2 8 1 9 2 10 3 9v-3c0-4 0-4 3-4 3-1 4-1 7 2 2 2 4 4 6 4 1 0 1-1-2-3-4-4-4-4-2-4 3-1 4-6 1-8-1-2-9-3-14-1m-19 1c-3 1-4 4-4 8 0 8 8 12 14 9 3-2 3-2 4-1 1 2 2 0 1-4v-5h-4l-5 1-2 1 5 1c5-1 5 1 1 4-3 3-7 3-10 0-6-7 2-17 10-12 3 3 5 2 2-1-3-2-8-3-12-1m-21 1c-6 3-6 13 0 16 3 3 10 2 12 0h2l1 1v-7c0-2-1-2-6-2l-5 1 5 1c4 0 5 1 2 4-4 4-11 2-13-3-3-8 7-13 13-7h2c2-3-8-6-13-4m-24 2h-3l2 9c1 9 4 13 3 5l-1-4h4c3 0 5 0 8 3l6 4c1 0 0-2-3-4-4-3-4-3-2-4 3-2 4-6 1-8-1-2-8-2-15-1m-19 1c-6 0-6 0-4 8 2 11 1 10 10 10 6 0 14-2 11-2H63c-2 0-3 0-3-3-1-4 0-4 8-4l6-1-7-1c-8 1-8 1-9-1-1-4 1-5 9-5l7-1H61m-29 2l1 9 2 9 8-1 11-1c2-2 1-6-1-7-1-1-2-2-1-4 1-5-1-6-10-6l-10 1m3 1c-2 0-2 1-1 4 1 4 16 3 16-1s-6-5-15-3m5 8c-5 0-5 1-4 5 0 2 1 2 6 2 7 0 11-1 11-3 0-4-4-5-13-4m74 12l-7 1v9l1 8h4l14-2-8-1-8 1v-3c0-3 0-3 7-4l6-1-7-1-7 1v-3c0-2 1-3 7-3 5 0 8-1 6-2h-8m-22 2l-5 1 7 1c8-1 8-2-1 8l-5 7c0 2 17 0 19-1l-7-1h-8l6-7c9-10 9-9-6-8m116 3h-2c-1-1-4 1-4 4 0 1-4 1-5-1-1-1-1 0-1 2v13l6-2 9-3 2-1v-2l-1-3v-1l-1-4c0-3-2-5-3-2M59 73v9a289 289 0 013 9l1-4c-1-6 4-7 11-1l6 3-2-3c-4-3-5-5-3-5s3-4 2-7c-1-2-2-2-9-2l-9 1m-17 1l-5 1 4 17 1-4-1-4h5c7 0 10-2 11-5 0-3-3-6-7-6l-8 1m204 13l-4 1-4 4c-3 2-9 4-8 2 1-1 0-1-1-1l-2 1h-1c-3-2-3-1 0 2l3 2h1v1l1 1v1l1 1a336 336 0 001 5c2 3 1 14-1 17l-2 7c0 5 0 5 4 6h5l-1-1c-1 0-1-1 1-2v-3c-1-1 0-1 1-1l3 1 3 1c3 0 4 1 4 3l-1 3 4 2c6 1 7 4 13 20l3 8 1 4v1l1-3v4l1 2 2 2 3 2 2 1h9l2-1 2 1 2 2c2 0 2-1 2-2-1 0-1-1 0 0l1-1 1-1 3-3 2-6 1-3 1-5c2-3 2-11 0-12-1-1-3-4-2-7v-5l2-6c2-6 1-8-2-11-3-2-3-2-5 0-1 1-4 2-9 2-2 0-5-4-3-6l-1-1v-6l-1-3-1-4v-1l1-3c-1-2-1-2 1-2 2 1 4-3 2-5l1-2c2-1-1-3-2-2l-1-1-2 1-1 3-2 1c-2 1-2 1-1 2 3 1 4 2 3 4 0 1-1 1-3-1-3-2-7-3-7-1h-1l-5-2c-4 0-5-1-6-2 0-1-1-2-3-1l-4-1h-2l-2-1v-2l-1-1-2 1m-106 2v5c3 7 3 8 1 8s-2 0-2 2 0 2-4-2c-5-6-6-6-6-1 0 3 1 4 4 7 3 4 5 8 3 8l-2-2c-2-1-2-2-2-3l-2 1c-2 1-2 1 1 4l6 5 2 1-2 1c-2 1-2 1 0 3h-2l-15-4h-2l2 2c7 2 7 2 5 4-1 2-1 2 6 2 7 1 8 0 8-4l2-2c2-1 3-2 1-4v-1l1-2h-1c-2 2-5 2-5 0l1-1h2l3-1h1c-1-3-3-8-2-9 1-2 3-1 4 2l2 3 1 3 4 3c2 1 2 1 1 3-1 3-1 3 1 2l1-2 1-1 1 2c-1 1 0 3 1 4 1 3 1 3-1 3s0 1 2 2c4 0 8 1 8 3v2c-4 0 3 5 7 6l7 1h4v-4c-1-4-3-9-6-9v-1l2-1c2 0 5-3 5-4s-6-2-7 0l-2 1c-2 0-1-2 1-4 2-1 2-2 1-3v-3c3-2 2-4-1-4-4 1-6 0-4-3 3-4 2-4 0-3-2 0-2 0-1-2l-1-9c-1-2-3-1-5 4-2 7-3 7-3 0v-7c-2-1-7 6-7 11-1 4-1 5-3 4-2 0-2-1-2-4 1-5-1-8-4-8-2 1-3 0-4-2-2-4-5-5-5-2m67 0c-6 2-10 6-10 11l-1 6c0 2 1 2 3 2 3 0 4 0 3 2l2 1c3 0 2 1-1 1l-3 1c0 1-1 1-2-1v1l2 6v6c0 2 0 4 2 6l3 4c0 1 5 5 8 5 2 1 2 2 0 4-2 4-1 4 6 1 4-2 6-4 6-5l1-5c1 0 2-1 2-4l-1-5-1-2 1-7c0-4 0-5 2-7s2-2 0-5l-1-3-1 2-1 3v-3c0-10-10-17-19-15M99 96c-6 3-4 13 3 16 3 1 8-1 9-3 4-8-4-17-12-13m-18 3c-2 1-3 5-1 5l1-1c0-4 8-5 10-2s-1 6-6 9c-8 4-4 6 9 3 4-1 2-2-3-1h-4l3-3c6-6 4-12-3-12l-6 2m19 0c-4 3-2 11 4 11s8-6 4-11c-3-2-5-3-8 0m-37 2c-5 5 0 15 7 15s11-9 6-14c-4-4-10-4-13-1m-16 0c-3 1-5 5-3 6h1c0-2 4-5 6-5l4 2c3 2 2 5-5 10-5 3-5 4-3 4l14-2H51l3-2c4-3 5-5 5-8 0-4-7-7-12-5m18 2c-4 3-1 11 5 11 5 0 8-7 4-11-2-2-7-3-9 0m87 30c-3 2-3 5 1 5h2l-1 1-1 2-1 3 1 2h1l-1 1-2-1-1-1v1c1 1 0 2-3 4-4 2-5 3-5 7v5l1 2 5 10 2 1h-1l-3 2c-2 3-2 3 0 3 1 0 1 1-1 6-1 2-2 5-1 6 0 3-1 4-3 2v-5c0-4 0-4-3 2-3 3-3 4-1 9v6l4 3c3 2 3 2 3 0l3 1 2 3 1 2v-1l1-2c2-1 5 0 5 2l2 1 2-1c0-2 0-3 5-3 3-1 3-1 3 1l1 2 2-2c0-2 1-3 3-4l3-2v3c0 2 0 2 1 1l1-5c-1-4-6-5-17-5h-9l1-6c3-10 2-15 0-16s-2-5 1-5c5 0 11-4 11-7v-4l1-3 1-1v-4c1-3 2-5 1-6h-5l-3 1c-2-1-2-2-1-7l1 1c2 3 4 2 4-1s-3-4-4-2l-2 2-3-7c-1-3-2-3-4-2m83 44l1 2c0 1 0 2-2 3l-2 3 3 6 6 13c3 6 3 7 8 5 3-2 4 4 2 6s-2 2 0 1l5-1c2 0 2-1 1-1-2-1-2-2-2-6 0-6-7-24-11-29-3-3-7-4-9-2" fill="#d3d3d3" fill-rule="evenodd"/></svg>