<svg xmlns="http://www.w3.org/2000/svg" width="300" height="300"><path d="M35 78v64h4l4 1h-8v113h3c3 0 3 0 2-1l-2-1h2l1-1c-2-1-2-3-1-3l1-3 1-2v2c0 2 0 3 2 2 3 0 5 4 2 4-1 1-1 1 1 1l2-1c0-2 4-2 4 0l2 1 1-1c-1-1 0-1 2-1s2 0 1 1c-2 1-2 1 0 1l-2 1-5 1h4c4 0 4 0 3 1-2 1-2 1-1 3v1l-1 1-1 1c-1 1 0 1 3 1h6l-4 1-4 1h9l-4 1-4 1h4c3 0 4 0 2 1l-2 1-3 1c-3 0-3 0 1 1s4 1-2 1c-5 0-7 0-5-1s2-1-2-1h-9l4 1h5l-5 1-4 1h18c5 0 7 0 6 1l-16 1H35v10l3-1c2-1 4-2 6-1h7l12 1h12c6-3 10-3 10-1 0 3 1 3 54 3 52 0 54 0 54-3-1-3 1-3 35-3h35c1 0 2-1 2-3v-2h-74l4-4c9-10 15-22 16-34 0-6 1-7 1-5 1 2 4 3 4 1h1l11 3 4 1 2 1 1 1 1 1 1-1h3l5 1c4 0 11 5 9 6-1 1-1 1 1 1h2l-2 1c-2 1-2 1 1 1l4-1c-1-1 0-1 1-1l1 1c-1 1 0 1 1 1h2V14H35v64m82-12v10h1v-7l1-6 2 7c3 9 4 8 5-3l-1-9-1 7v7l-2-7c-4-9-5-9-5 1m13 2l1 9 1-7v-6l2 6c3 7 6 9 5 4a534 534 0 01-2-10v7l-2-7c-3-9-5-8-5 4m15 44v8h4l5 1h-5c-3 0-4 0-4 2s3 2 13 2c3 0 4 1 4 3l2 2v2c-2 4-2 4 0 4v3c-1 1 1 1 6 1h7v-6l-1-7v-1l1-5v-3h-7c-4 0-6 0-5-1l-1-1c-1 0-2 1-2 4 0 5-1 5-1-1v-5h-5c-3 0-4 0-2-1 3-1 4-3 1-3l-3-1-3-1-3-1 8 1 1 1 1-1 1-1c3-2 0-3-6-3h-6v8m56-7l-1 2 1 1v2l-1 7c0 6 0 6-2-3 0-4 0-4-3-4-2 0-3 1-3 2 1 1 0 1-5 2-3 1-4 9-2 11v16l-1 2c0 2-6 9-6 7v-2l-1-4c0-3 0-3-5-3l-6 1-2 1-3-1-2-1v-1c3 0 2-3 0-3l-2-1h2l2-2c0-3-2-4-3-2l-4 1-2-1 2-1v-1l1 1 1 1 1-2c0-1 0-2-2-1v-1h-10v17h3c3-3 5-2 8 0s3 2 4 1l3-2c2 0 3 3 1 3-1 1-2 3-2 7 0 5 0 6 2 6 2 1 2 1 0 2-1 0-2 1-2 8l1 8h5c4 1 4 1 1 1-3 1-2 1 2 1h6v-10c0-19 0-20 2-18 1 2 1 2 2 1 3-2 3 2 3 15v12h5c4 0 5 0 4 1l-5 1h-4l6 1h6l-1-4c-4-15 0-27 11-29 6 0 6-2 6-22 0-19 0-19-5-19-2 0-2 0 0-1l4-2c0-1-6-3-10-1M94 128l-2 1c-5 0-5 0-5 7l1 7v3l-1 2c0 3 0 3 6 3h7l-3 1h-4l2 3 2 4 2-1 3-1v-29h-8m15 7v25h10v-4c1-12 0-14-2-14-1 0-2 0-1-1 2 0 1-2-1-3-2 0-2-1-1-1 1-1 0-2-1-3l-1-3h1l2-1v-1h-4c-2-1-2 0-2 6m31-6l-3 1-2 1-1 1-1 2-4 4c-3 2-4 3-4 6s0 4 1 3l1-1c-1-1 3-3 6-3l4 2c2 3 3 3 4-1 0-5 0-17-1-15m7 22l-2 6c0 2 0 3 1 2h3l6 1c5-1 5-1 6-3 0-2-1-3-2-3l1-1c1-1 0-1-3-1l-7-1c-1-2-2-2-3 0m39 36c-3 0-2 3 0 3 1-1 3 0 4 1 2 1 1 3-1 1h-3c0-3-2 0-2 4s2 6 4 5l5-1c5-1 6-1 4-5l-1-6c0-3 0-3-4-3l-6 1m-23 1c-1 10 0 12 2 12h8c3 1 4 0 4-4 0-3-1-3-3-3s-3-1-3-2c0-2 1-2 3-2l3-1c0-2-14-1-14 0m-1 16v3c-1 1-1 1-1-1s-3-4-5-2l-8 1c-3 0-3 0-3 6v6h32v-6l-1-8c-2-1-13-1-14 1m-79 30v10h3c5 0 8-6 5-8v-5c0-4-1-5-5-6h-3v9m30-8c-1 1 0 17 1 17v-7l1-6 2 7c3 10 5 9 5-2l-1-10-1 7v8l-3-8c-2-6-3-8-4-6m56 0l-1 9 1 9c2 0 2-1 2-5v-5l1 3c2 5 3 5 4-2l2-5-1 7 1 7c2-1 2-18 0-18-1 0-2 1-3 5-1 5-1 4-3-2-1-3-2-5-3-3m26 7a341 341 0 011 11l1-7v-6l2 6c3 10 5 9 5-2l-1-10-1 7c0 3 0 6-1 5l-2-7c-3-7-4-6-4 3M69 255c0 3 0 5 1 4 1-4 3-2 3 2s-1 5-2 5c-2 1-2 1 0 1l3 1 1 2 1 2 4 1c3 0 3 0 1 1-7 1-5 2 3 2h8l-7-7-9-12-3-4c-1 3-2 3-3 0v-3l-1 5" fill="#d3d3d3" fill-rule="evenodd"/></svg>