<svg xmlns="http://www.w3.org/2000/svg" width="311" height="300"><path d="M0 100c0 95 0 99 2 99 8-3 42-4 80-2 20 1 20 1 21-5 1-5 9-4 10 1 0 1 0 2-3 2-4 1-4 3 1 3l23 1 54 2c14 0 20 1 31 3 2 0 3 1 3 2 1 2 7 3 9 1 1-1-1-2-4-1l-1-2 2-3c1-3 4-2 5 1 2 3 4 5 11 6 7 0 8 1 12 13 4 10 4 11-2 11-4 0-4 0-1 1l1 1v10l-2-6c0-3 0-4-2-4-4-1-7 0-7 2-1 2-1 2-4 0-4-2-7-1-10 1l-3 2v-2c1-3 0-3-2-3-3 0-4 0-3 4v5l-1-5c-1-5-3-5-2 0l-1 4-1-4c0-5-3-6-7-2-2 2-4 3-5 2l-1 2c1 3-1 6-3 5v-2l2-2c0-2 0-2-1-1h-3l2-1-1-1-2-2c-2-2-3-1-3 3l1 3 1 1v3c-1 0-4-4-4-7 0-5-1-5-5-6-3 0-3 0-3 5l-1 4-1-5c0-5 0-6 1-5 2 0 2-1 1-4l1-4h2l1 1c1 0 2 1 1 2l-2 1v3h3l1-2v-3c0-1 3-2 3 0h3l2 2-1-2c-1-2-2-3-4-3s-2 0-2-4l-1-7c-1-3-1-3 2-4l2-2 1-1c2 1 1-1 0-2-2-2-7-1-7 2l-1 8-1 7-1 1c1 1 0 1-1 2-3 0-3 1-3 4v3h-12c-12 0-13 0-14 2l-2 3c-2 0-4-3-2-4l-13-2h-15c-2 2-12 1-12-2-1-1-1-1-1 1l-2 2-3 1-6 1c-4 0-6 0-5-1 1-2-2-1-3 1l-2 6c0 4 0 4 3 4l2-1c-1-1 0-2 1-3v1c0 3 0 3 2 3 1 0 2 1 1 2 0 2-7 2-10-1-2-1-1-13 0-13s2-1 1-3c0-2 0-2-1 0l-1 2-39-1H5l-5-1v73h312V0H0v100m14-5l-4 85 14 1a1538 1538 0 0164 5 20948 20948 0 01140 10l7 1v-13a31449 31449 0 01-6-115l-8-2A22046 22046 0 0019 11l-5 84m32 3l-1 5-2 6-1 4-1 4-2 17-2 7c-3 2-3 3 3 5 3 2 5 2 12 2 9-1 9-1 7-6l-1-12c-2-26-5-36-12-32m60 27v1l-1 2c-1 1-1 0-1-1 0-4-3 7-3 14-1 7-1 8 1 8l1 2-1 1h-2l2 1h1l2 1c3 0 3 2 2 5l-3 3c-2 0-2 0-1 1l1 2 1 2 1 3 2 4c5 4 22 2 20-2-1 0 0-2 2-2 1-2 2-3 1-4a290 290 0 01-9-29l-1-4-2-4c-2-1-2-1-4 1-1 2-2 3-1 5s1 2-1 2l-1-1v-7l-2 1-2 1 2-3v-3h-4m62 12c-4 0-4 1-5 13l-2 15c-1 4 1 10 3 8h5l7-1c3-1 3-1 2-4l-2-13-2-14c-1-3-4-5-4-5l-2 1m34 4l-2 16-3 18-1 4c2 0 5 4 7 7s8 3 9 1l2-4v-5l-4-23c-2-14-5-20-8-14m-100 96l1 7 1 3 2 4 2 5h-3v1l-1 2-2 3-3-3-2-4-7-7 5 9 5 8-6 8a428 428 0 01-8 14c1 2 3 1 5-2 2-4 4-5 10-3 3 0 3 0 1 3v3c2 2 3 1 5-3 2-5 3-5 4-1l2 2c1 0 2-4 0-4-2-2-1-3 2-3s2 0-1-1c-11-1-4-4 10-4l7-1-3-1c-3 0-4-1-6-4-4-5-4-5 0-11 3-6 2-9-1-5l-4 3-2 1 2 1v2c-2 2-6-4-4-7s1-4-1-2c-1 2-2 2-4-1-3-1-3-2-2-3s0-5-2-5l-1-4-1-4v4m143 15l-2 3-2 3c-2 2-1 3 2 6s3 4-1 3c-5-1-4 0 1 6 3 5 5 6 5 5v-5l-1-1v1c0 2-1 1-2-1-3-2-2-3 4-3 4 0 5 0 3-1-3 0-8-6-8-8l2-4c3-4 3-7-1-4" fill="#d3d3d3" fill-rule="evenodd"/></svg>