<svg xmlns="http://www.w3.org/2000/svg" width="400" height="239"><path d="M398 7l-1 6H191l-1 3c-1 2-1 2-4 2-10-2-11-2-5 1 9 5 10 7 1 2-6-2-8-2-5 1l3 2 1 1c-1 1 4 3 6 3v2c-1 4 0 8 3 11l4 5c4 5 5 5 12 4 10-1 14 0 13 3l-1 3c-1 1 1 2 4 2 4 1 5 2 8 8s3 6 7 6 4 0 2 1c-6 1-6 2 1 2 4 0 5 0 4-1-2-1-2-1 2-1 5 0 9-1 9-2s1-2 3-2c5-2 6-4 2-4l-6-1c-2-1-2-1 1-1h4l-4-2-3-2 3 1c3 0 3 0 2-1-1-2-1-2 2-1l5 2 6 1c6-1 8-2 4-2-3 0-3 0-2-1l3-2v2c4 0 11-7 14-14l4-5c2 0 2 0 0-3l-2-5 3 3 4 4 2 1 5 1h5l-2-2-3-3-1-1-1-3-2-2 6 5c7 7 7 7 12 7h5l-6-5c-10-10-4-6 7 4s13 11 13 7c0-2 1-2 3-2 3 0 3 0-1-2h4c9 0 9 0 8-1-3-2-2-2 2 0l5 1h3l-1 1v2h-2c-3-2-10-1-18 1-2 0-3 1 0 2 5 0 10 1 12 3l3 1c1-1 2 2 0 3-2 2 0 3 4 3 2 0 3 0 2 1v2c6 7 7 8 9 8l1 1h2l-1-4c-2-3 0-4 3-2l2 1v1h1l1 1 3 2c5 2 7 2 7 1h2l2 3h1l2-1a798 798 0 01-3 90h-1l-1-2h-8l-5 1c0-2-4-1-4 0v11c-1 8-1 8-7 8l-4 1 6 2c4 0 1 1-4 2-5 0-8-2-8-6v-3h-90v-4c0-6-4-6-4 1 0 2-1 3-2 3-2 0-2 0-1-1s2-7 0-7l-1-1-3-1c-2 0-3 1-3 2 1 1 1 1 0 0 0-1-2-1-2 1 0 1-2 1-2-1l-4-1h-2c0-2-6-3-8-2-2 2-3 2-3 1l-1-2-1-8c0-9 0-9-2-9h-3v21l-3-1c-2 0-3 0-2 1 2 0 1 2-1 4s-2 2-2 0h-1l-1 2c1 2 0 2-2 2s-2 0-2-9c0-8 0-10-2-10-3-2-4-1-4 5 0 10-2 13-2 4 0-7 0-7-2-7-3 0-3 0-3 4l-1 8c-1 3-1 3-1-3s0-7-2-7c-1 0-2 1-4 6l-2 7v-5c1-5-1-7-4-6-1 1-1-2-1-8v-10h-10v11c0 10-1 14-2 10v-1c2 0 0-1-3-2-9-1-8-1-8 2-1 4-4 3-5-1 0-3 0-4-4-4-4-1-5-1-5 3 0 5-4 5-4 0 0-4-1-4-4-4l-3-1c0-7-2-10-3-8l-2 1c-3-1-1-3 1-2v-1h-4c-4 0-4 1-4 4s-2 4-6 2c-2-2-7 0-7 3l-1 3-2 2c-1 1-1 1-1-1 0-3-7-3-7 0l-3 1c-3 0-4 0-4-3 0-2-1-3-4-3s-3 0-4 4c0 3 0 4-1 3l-3-2-3-1h-2l-4 1-3 1-5 1c-4 0-6 0-7 2-1 1-1 1-1-2 0-4 0-4-1-1 0 6-3 4-3-3l-1-6h-1c-1-2-5-1-5 1l-4 1-3 1c-2 2-6 1-7-1 0-2-1-2-4-2l-3 1v-13H13v5c0 8-1 10-3 7H8c-1 1-2 0-3-1-5-5-5-5-5 35v36h358v-36h9l9 1 2 1 9 1 9 1 2-1v24a8586 8586 0 000-209M35 15l-4 1h4c5 0 7 3 5 5-2 1-2 1 1 1l4 1h1l1 1 6 1c7 0 7 0 7-3v-2h1c0 1 8 6 10 6l4-1 5-2c3-1 3-1 1-3s-1-4 2-4a367 367 0 00-49-1m46 22l-2 3c-3 4-7 3-10-2h-2c-2 1-2 2-1 4 1 6 1 6 4 6h5l4 2h4l-3-2c-4-3-4-4-1-4 1 1 2 0 3-2 4-6 3-9-1-5m12 33c-2 2-2 11-1 12s5-1 10-3c8-5 9-6 2-6-2 0-3-1-3-2 1-2-7-3-8-1m12 9c-8 4-11 6-10 7s2 1 7-1l6-2 1-1c2 2 14-2 13-3l-1-3-1-2h-2c-1-1-7 2-13 5" fill="#d3d3d3" fill-rule="evenodd"/></svg>