<svg xmlns="http://www.w3.org/2000/svg" width="400" height="182"><path d="M10 25l1 13 5 6c6 7 8 11 8 12l-6-7c-6-7-6-7-7-5l-1 6 1 13v8h4l5 2v1l-6-2h-3v48l1 50 12 1c12 0 12 0 17-3l4-5 2-1 7-1a1814 1814 0 0162-13c4-1 4-2-1-5-5-2-14-9-18-13s-2-4 3 0l9 7c6 3 6 4 5-9l1-7c1 2 3-2 2-6 0-3 1-4 2-5l3-1h-5c0-1 8-5 14-6 5 0 6-1 6-3a198 198 0 002 24l1 9-3-1h-2l2 1c3 2 4 4 2 4l-2-1c0-1-1-1-2 1h-1c1-1 0-2-1-2l-1 2-1 1-1-1c0-2 0-3-2-3l-1-1c1-2-1-5-2-3h-2l-1 7c1 8 1 9 3 7l2-1v2c-2 1-2 1 0 1h3l3-1c3-3 4-2 2 1s-1 4 2 3 3-1 3 1l-1 3 2-3c2-3 5-4 5-1-2 3-2 5 1 4l3 1h2c3-3 4-2 4 1v2h9v2a325 325 0 0126 4c7 1 5 2-4 3l-9-1 2-1-2-1-9-1h-3c1-1 1-1-1-1-3 0-9-1-13-3-5-1-8-2-6 0 2 1 1 1-3 1l-4 1-2 1c-2 0-2 0-1-1l2-3 2-1v-1h-3c-2 2-5 1-5-1l1-2-2 2c-2 3-5 3-3 0l1-3c-1-1-8 0-10 1-2 0-2 0-1-2l-2 1c-4 2-5 3-4 0 0-1-1-1-3 1l-4 2h-2c-1 2-4 3-4 1 0-1-1-1-2 1l-5 2-11 2h-3l-3 1-2 2c0 1-2 5-4 6-3 1 4 1 12-1h6c0 1 1 1 1-1l5-1 4-1h4l-1 2-1 1c0 1 2 0 3-2 4-4 6-5 6-2h1c2-3 12-5 13-4h2l4-2c2 0 0 4-3 5l-2 3c0 2-3 4-4 2-1-1-1-1-1 2a393 393 0 0061-1l12 1h8l-1-3-2-5-3-5c-1-4-2-4-4-4-4 0-4-2 0-2 2-1 2-1 0-1-2-1-2-2-1-3 2-3 1-4-2-3-4 0-4-1 0-4 1-1 2-2 1-3v-2l1-4 1-6c1-2 1-2 2 3 2 11 3 16 7 20 2 3 3 3 5 2l9-3c4-1 7-1 6-2l-1-1h1c2 2 5 1 7-1l2-1h3l6-1a5152 5152 0 0145-10v-3c-1-2 0-3 1-3 1-1 2-1 1-3h3l1-1 2-1 12-22-8-1c-7 0-8 0-11 4l-4 3 2-4c3-2 3-4 3-7l1-3h1c0-1 1-2 2-1v-1c-2-2-2-2-1-5 2-2 2-2 0-4l-2-3-1-1v-5c2 0 1-2-1-2l-2-3c0-2 2-3 3 0l2 1 1-1 1-2c1-1 1 0 1 1h3l1-6c2-14 6-20 13-21 3 0 4 0 5 2 2 2 8 6 11 6l1 1c0 1 1 2 2 1 3 0 3 1 4 3 0 4 2 3 4-2 1-4 1-5-1-8-2-6-5-7-18-7-10 0-5-3 9-5 17-2 37 3 50 14 6 5 6 5 0 7l-5 2-3 1c-4 2-11 9-12 15-2 5-4 7-3 2 1-2 1-3-1-3-5-3-18-4-14-2 0 0 0 1 0 0-3 0-6 2-5 3l-1 5c-1 2-1 2-1-1s-4-2-5 1c-1 2-1 2-2 1-1-4-1-4 1-4h1c0-1-5-5-6-4l-2-2-1-1c-1 2 1 6 5 16l3 6-2 5c-2 4-3 7-2 8 0 3-7 15-14 23-4 3-4 4-2 4 4 0 5 0 6 3l2 2 1 1c0 2-3 3-7 3l-7 3c-4 3-11 4-13 2 0-2-21 2-32 5a204 204 0 01-17 4l-7 2c-5 0-5 1-8 2-4 2-12 3-15 3-2 0-2 1-2 5l1 5 11 1 20 3c11 2 41 3 78 1h16v-9l1 6v3h31l30-1v-19l-11 3c-9 4-10 4-11 2h-5c-4 1-5 1-1-1 2-2 3-2 5-1 3 2 12 1 9-1-1-1-3-7-5-19l-2-8 5-11a90 90 0 005-15l8 33v4l-1-4c-3-9-4-12-6-12-1 1-1 1-1-1 2-6 2-8 1-8l-1-2c0-2 0-2-2 1v5l-1 2-3 5-2 4 3 12c3 15 2 14 10 12l7-2V11h-70l-8 3-8 2-4-2-4-2-6 5c-6 5-9 6-8 3 0-1-4-2-5-1h-3c-2 0-2 0-1-1 3-2-2-1-7 2-4 2-5 2-5 5s-3 4-6 1h-1c0 1-5 0-7-2-4-6-19 8-19 19 0 5-2 6-5 5l-3-1h-12c0 1-2 0-2-2v-1l-1 2c-1 3-3 2-6-5-8-16-22-25-38-26-8 0-9-1-3-2 5 0 5-1-2-1-5-1-7 0-5 1 2 2 1 3-2 4s-4 1-4-1h-4c-1 0-7 2-9 5l-3 1h-2c0 2-6 4-7 3l-5-2c-5-1-6-1-8-3l-10-1c0 1-2 2-6 2-5 0-6 0-8 2v-1l1-4-1-1-1 2c-2 7-2 7-7 7l-7 1c-2 2-3 2-5 0l-8-1c-6 0-6 0-9-4-2-4-3-4-6-4l-4-1v-4c-1-2-2-2-14-2H10v14m107-13l-1 3c0 1 16 1 20-1h2l5-2c0-2-24-1-26 0m69 1l5 1 3 2 6 4 5 3h2l1 1 4 1c2-1 3 0 3 1-1 1-1 1 1 1h3l-1-3-3-2c-3 0-8-4-7-5l-1-2h-5c-3-2-12-4-15-4-2 0-2 0-1 2M5 58a1890 1890 0 002 43l1-28a9699 9699 0 01-3-56v41m207-43l3 4 4 3c3 2 11 4 10 1l-2-2c0-3 1-2 4 0 2 2 5 2 5 0s-3-5-4-5c-2 1-3 0-4-1h-2c1 1 0 2-1 3l-1 3-1 2-1-1-1-1-1-2-2-2-4-2h-2m-38 14v7c-1 6-1 7 1 8 3 2 3 2 6-2 5-5 5-8 0-12-4-2-6-3-7-1m94 6c-3 2-6 13-5 17 0 2 5 8 5 7h3c2 1 2 1 2-2l-2-4-2-2 2-1-1-1-2-1-1-3c-1 0-1-1 1-1v-2l1-1c1 1 1 0 1-3 0-6 0-6-2-3M95 37l-3 3h-1c-1-2-2-1-1 1 0 3 2 2 3 0 0-2 3-3 3-1l-1 1c-1-1-1 0-1 1 0 2 0 2 1 0 2-1 2-1 2 2s2 5 4 5 3-6 2-9c-1-5-4-6-8-3m-16 7l2 4c1 1 2 2 1 3l1 1-1 2-2 2h2c2 0 3 0 3 4l-2 4h-4l-2 1h-1v-2h-8l-2 1-1 1-2-1h-2c-2 1-4 0-3-1h-3l-3 2 3 1h4l-3 1-2 1c4 0 9 4 12 9 3 4 3 5 5 4l1-3c-1-2 1-4 6-8 9-6 10-8 10-15s0-7-5-11l-4-3v3m11 17c1 4 0 6-1 9-4 6-4 6-6 4s-2-2-2 0l1 4c2 3 1 9-2 12-2 4-3 4-3 2-1-1-1-1-2 2l-1 2h2c-1 1 0 3 1 3 4 3 2 5-5 8l-6 3 1 6c1 7 2 8 11 9 4 0 4 0 5-3 0-2 2-3 2-1h1v-6c-1-3-1-3 1-3h1c-2-1 8-10 10-8l-2 2c-6 4-7 12-3 18 1 2 2 2 2 0l1-2 1-1h-1c-5 3-2-8 2-12 3-3 8-5 8-3l1 2 1-2c-1-2 2-5 10-9l4-5 2-4 10-6 1-4c0-2 0-2-8 3l-9 4c-3 0-14 5-14 6 0 2-7 0-14-2-6-3-6-3-4-7 5-7 7-19 5-24-1-2-1-1-1 3m102 0l-2 2c-1 2-1 2 1 1h3l-3 2c-2 2-2 2-1 4 1 3 4 5 5 6 3 0 5 1 4 3l1 1c2-1 1-7-2-12l-1-6c0-2-2-2-5-1m77 0l2 4c2 5 1 6-2 3l-3-2-3 1c-2 0-4 4-4 9s-2 5-2 1l-2-3-1 1v2c-1 2-1 2-2 1s-1 0-1 3l1 5 1 1c2 0 4 3 3 3h1c1 0 2 0 1 1l1 2v4l1 1-2 1v1c1 1 7-1 7-2l2-1c4 0 8-10 5-12-3 0-1-2 1-2l5-1v-3l-2-3-2-2c-2-3-3-5 0-3 3 3 4 1 1-4-2-5-4-7-5-7l-1 1M169 86l-1 11c-2 0-2 4-1 8 0 2 1 2 10 1 9 0 10 0 11 2l3 3v-2c-2-2-4-4-2-4 1 1 1 0 2-2l2-5c1-1 1-2-1-4v-3l-8-3-1 2v1c-3 0-3 5 0 5l2 1-1 2-2 2c-2 0-2 0-1 2v1l-5-1c-2 0-3-1-2-4 0-2 0-3-2-3s-2-1 0-11l-1-4-1-3-1 8m17-6l4 2c5 2 5 2 4 5-2 3 0 8 2 8 1 0 2 1 2 3 1 5 8 10 8 6 1-5 0-6-2-6-5 0-5-1-3-3 5-4 3-11-3-11l-3-1-9-4v1M57 82c-1 2 0 3 1 4l1 2 2 3c3 3 4 4 3 5-2 1 0 3 2 3h2l1 1 2 1c2 1 2 1 2-1l-1-3-4-6c-4-9-9-14-11-9m267 8l-5 9-3 7-1 5 1 2 4-4 7-8 4-5c1 0 2-2 2-5 0-6-3-6-9-1m-93 6l-1 9c0 8 0 8-1 2 0-5 0-7-2-7l-1 2-1 4-2 4c1 3-3 4-5 2l-6-1a1796 1796 0 004 16c-3 0-5-2-5-3l-1-2h-1l-4 1c-5 0-5 0-5-2 0-4-1-6-3-6v2c2 1 2 3 2 5l-1 3h6l6 1 5 3c2 0 3 1 4 3l3 3c1-1 1-2-1-3-2-3 0-3 14 1 11 3 12 3 15 2l3-3-3 1c-3 1-10 1-10-1l10-7c9-6 12-10 3-4-5 3-7 4-5 0 2-3 0-4-2-1l-2 2-2-3-2-11c0-11-1-12-4-13l-5 1m-84 12l-1 5-2 5-1 18v5l4-1h4l-2 2c-3 3-2 4 1 1 2-2 2-2 1-3s-1-1 1-1 2-1 2-7c0-11-2-22-2-17s-2 8-2 4l-1-2-1-2 1-1 1-3c0-3-1-5-3-3m-94 8v5c2-1-5 23-9 30v4c1 3 3 0 3-4l2-7 2-4 2-4 1-5 1-2 1-1 2-5 2-6c-1-1-1-1-2 1 0 2-3 2-3-1 0-2-1-2-2-1m109 5l-1 5c-2 3-1 4 4 3l8-2c3 0 3 0 3-4 0-3-1-4-3-4l-2 1h-2c-3-4-6-3-7 1m-97 13l-5 7-6 9-2 4h4c5 0 6-1 9-13l1-8-1 1" fill="#d3d3d3" fill-rule="evenodd"/></svg>