<svg xmlns="http://www.w3.org/2000/svg" width="400" height="267"><path d="M0 3c0 2 0 2 2 2h1L2 6a420 420 0 000 81c4 0 5 0 6 2 2 2 5 3 5 1l2-1 2 2-2 1v1h2c1 0 2 1 2 3l5 6c5 4 5 4 7 17 0 5 2 11 3 14 1 2 2 5 1 6l4 13c2 5 5 13 5 17l4 10c4 6 1 21-6 28l-3 4-6-1c-10-1-14 1-17 6-3 7-9 8-9 2 0-3 0-3 1-1 1 1 1 0 1-3 0-5 0-5 2-4 1 2 3 2 5 2l2-1-4-4-4-4h1c1 1 2 0 3-2s1-2 3 0h2l-3-4c-4-3-6-8-4-8v-1l-1-1c0-1 1-2 2-1v-7c-2-4-2-20 0-21l2-1c0-1-2-1-3 1-3 3-3 1-1-2 3-4 3-5-2-3-1 0-2 1-2 3l-1 2-1 4-1 9 1 7c1 2 1 3-1 7-1 3-2 6-1 8l-1 6c-1 1-1 2 1 3 1 1 2 3 2 10 0 18 1 20 2 22h3c2-3 2 0 2 10v10h3l13-2c10-2 12-3 13-5l1-2v2c0 2 0 2 2 2l2-1v-3c0-3 0-3 1-1 0 3 1 3 2 3 3-1 4-8 1-11-2-1-3-1-3 1h-1c-2-2-5-1-4 1 0 2 0 2-2 0-5-5-6-8-3-9 2 0 2 0 1 2-2 2 0 4 4 4 2 0 2 0 1-1-2-2-1-3 1-2 2 0 2 0 2-3l-1-4h-1l-1 1c-1 0-1-7 1-8h3c1 2 3 2 7 2 8 0 8 0 7 10-1 9-1 10-3 8s-4-1-4 1c-1 4 0 6 2 6l2-2c0-2 0-2 1-1v14l-2 11h81l1-3c2-3 4-3 4 1 0 1 1 2 3 2s2 0-1-4c-4-5-4-6-6-3-2 2-3 1-3-1a93 93 0 01-3-31 237 237 0 000-28l6-2 5-2v4l1 8c1 3 1 3 1-4v-7l1 5c1 8 2 10 6 11 3 2 3 2-2 3-3 1-3 1-3-1 0-3-1-4-3-2v4l-1 7c-1 6-1 7 1 9 5 4 4 8 0 12-4 3-4 4-3 6l1 4c-1 2-1 2 1 2 2-1 4 0 8 5 7 6 10 7 10 1 0-5 0-5 7-4l16 1 10 1 1-1 2-1 3-2c2-3 3-2 2 2-2 6-2 8 3 8 3 0 3 0 3-3s0-7 4-23l1-3v4c0 5 3 12 3 7l-1-5c-2-6 1-11 17-27 5-5 6-6 9-6 3 1 3 0 3-3v-6l2-19a532 532 0 006-63l5-7c3-1 6-5 6-7s-4 1-9 6c-6 4-9 5-8 3v-2l-1-3c0-3 7-11 13-15h-1l-5 2c-6 5-6 6-6 3v-5c0-2 0-2-1-1h-1c0-2-2 3-2 8-1 6-5 5-6 0l-2-6v-3l-1-1-1-3c0-2 0-2-2 0l-2 2-2-2v-5c1-2 1-2 1 0h1l3-2v-1c0-2 4-3 5-2l-1 1c-2 0-1 4 1 6l2 4h3c2 0 4-5 5-11 0-5 0-6-3-9-2-1-3-4-3-5 0-2-2-3-6-2-2 0-3-2 0-4l1-2c-1-1 2-4 5-6 5-3 9-7 8-8l1-1 1-1c0-2-8-1-15 2-11 4-18 13-19 24l-1 6v3c1 3 1 4-1 7v5l4 1v1l1 6 2 7c0 6 2 7 9 8l1 2 1 3 1-2h6c3 1 4 3 2 3l-2 3c-1 3-5 4-4 2 1-1-3-4-4-4l3 12c1 1 0 3-2 3v3c1 5 1 11-3 30l-1 12c0 5 1 4 2-3l1-4v-2c0-3 0-3 2-2l1-1c-1-2 0-8 1-7l1-1v-7c2-4 2-4 2 10l2 17h-6l2 1c2 0 3 3 3 11 1 6 1 6-3 9-4 4-3 4 2 1 5-4 6-4 2 0l-7 8-4 4 1-2v-8c-2-1-2-4-2-11v-9l-4 13-3 16c0 5-1 6-6 4-6-2-6-4-6-11v-16l2 2c2 1 2 1 1-2l1-2c2 2 2-1 0-3-3-2-3-2-5 0l-6 2-9 4c-4 2-5 3-4 5 0 2 0 2-2-1l-2-4h-2c-2 1-3 9 0 9 2 0 6 3 6 4l-11 1c-12-1-12-1-12 1s-1 2-3 2l-3 1v1l1 2a8002 8002 0 010 4c1 1 1 1-1 1-3 0-3-1-2-18 1-5-1-15-2-17l-3 1-6 1-4 2c1 1 8 2 11 1h2c0 2-2 4-3 4h-2l-6 1c-2 0-3 0-2 1l4 1 4 1c-1 2-11 3-15 1h-3c-1 3-4-1-6-6l-1-6 3-1 5-2 19-2c5-3 10-1 11 3s3 5 6 2c2-1 2-2 1-6-1-2-1-2 1 0l2 4c0 2 2 4 3 2v-5l1-4 1 3c1 4 6 12 8 12v-13c2-9 3-10 3-2 0 6 1 10 3 10v-6l-1-9v-3l2 2c2 4 4 4 6 3 1-1 1-1-1-3l-2-2 2-3 4-3c4-2 4-6 1-7-2 0-4 0-11 3-2 0 1-5 4-7v-1c-2 1-2 0-2-1l-1-2-1 1-2 1c-3 1-3 0 2-4l3-5-6 5c-4 5-5 4-1-4l1-5 2-6c2-4 2-5 1-6v-3l-4-1h-4l-1-2-1-2c1-3-1-5-3-5-1 0-2-1-2-3 0-4 1-4 6-1 4 2 4 2 4 0 0-3 3-3 5 0 0 1 1 2 2 1 2-1 0-4-3-5-2-2-2-3-1-5 2-3 8 4 8 10-1 4 1 3 3-3 1-5 1-7-2-7-2 0-3-2-4-6-2-7-10-16-14-16-7 0-21 10-21 15l-2 4-2 4 4 5 3 4 4 6 2 5c0 2 0 3 1 1 0-2 2-2 2 1l-1 2-1 6c0 10-6 30-10 32l-3 6c-1 7-3 10-8 11h-6c-3-2-7-1-9 1h-9l-9-26c-9-24-9-24-11-24-3 0-3-1-6-6-6-10-8-16-6-20 3-6 4-6 9 1 4 6 4 6 7 5l2-1c0 4 13 8 16 5l6-2 5-1c2-1 0-4-3-5-2 0-3-2-3-3h-1l-1-8c0-2 0-3-2-3s-3-3-2-6c0-2 0-2 2-1h3l3-1 7-2c1-1 0-1-6-1l-7-1-1-1c-2-1-2 0-2 2s0 3-2 2c-4-1 0-7 4-7 1 0 1-1-3-5-3-3-2-4 1-5 5 0 9 0 14 2 3 2 8-1 7-4v-2c2 0 1-4-2-8-2-3-5-5-9-7-5-3-6-3-5-6 0-3 0-3 2-3 6-1 6-4 1-6-2 0-3-1-3-2l-3-4-4-4h1c1 1 2 2 3 1s1-1 3 1c3 4 5 2 5-2 0-2 1-3 2-3s2 1 2 3 2 3 4 1c1-1 1-1 1 1s0 2 2 2c1-1 2-1 2 1 1 3 5 3 5 0l-2-4c-3-2-4-7-1-7 2 0 2-3 1-5-2-2-1-2 3 0 4 1 4 1 4 4-1 2 0 3 1 3l2 3c0 3 1 4 4 3 2-1 3-1 4 1 1 1 1 1 1-1l-2-3-2-3c1-2-1-4-5-5l-2-4c0-4-3-6-5-3-3 3-4 3-4 0 1-2 0-2-4-2l-7 1h-1l-3-1c-2 0-2 0-1 2l2 2 2 1h2c1-2 2-1 2 1l-2 4c-3 1-3 1-3-1l-1-2-3-1-5-1c-2 0-1-2 3-4 1-1-14-1-66-1H0v3m204 0c0 2-2 3-2 3-2 0-2 1-1 3 0 3 1 4 2 2s2 0 1 3c0 2 0 3 1 2l3-1c1 0 2 0 2-3l1-6 5 9 2 1c2 0 2 0 2 2-2 5 2 8 4 4 1-3 3-3 3 0v3l2-3 3-2 3-2c2-3 3-3 2 1 0 2 0 2 2 1h3c1 1 1 1 2-1l-1-4-2-4-1-2-3-2-1-2 1-2c-1-3-10-4-13-1h-2c0-2-2-2-8-2-9 0-9 0-10 3m50-2c0 3 1 5 3 5l2 2h3l3-1h6l1-1 1 1c0 2 3 5 4 5 2 0 1-3-1-3-1-1-1-7 1-8l-11-1-12 1m97 0l-4 1c-4 1-5 2 0 3 3 0 5 3 2 4l-2 2-1 3-1 2c0 2 4 1 7-2l5-4c3 0 2-4-3-9h-3m17 0v2l-1 2-2-2v1c1 4 0 7-1 8-1 0 0 4 2 4l3 1-1 1c-2 0-3 3-2 4l-1 1c-1 0-2-1-2-3s0-2-1 0l-2 2-2 3-1 4c0 4 2 7 7 6v-1l1-2 2 2 3 1c1-1 2 0 2 2l1 2 2-2 2-8 2-5v3c0 3 0 3 2 3 3 0 3 0 3 7s3 7 3 1c0-2 1-3 2-3l1-1-2-3 1-2 1-1-1-1-2-1-1-2-1-1 1-1h4c3 2 4 2 4 0l1-2 1 2 1 3v4c1 2 0 4-2 2s-5-3-5-1l2 1v3c0 3 1 4 5 4 3 1 4-2 2-3v-2l1-17V0h-16l-16 1m1 49l-2 1c-3 0-4 2-2 2s-2 2-3 3l-2-1c-1-1-2 0-3 1-3 3-5 4-6 2 0-2-3-3-3-1h-1v-2c0-3-2-5-5-4-3 0-3 2 0 3l2 1-2 2-2 1-1 1-2 2-2 2-1-3v-1c-2 1-2 8 0 10l1 4v2l1-1 2-4c3-2 3-2 1-4-2-4-1-5 1-5 1 1 2 0 2-1l1-1 1 2-1 1-1 1h2l5 1c2 1 2 1 0 1l-3 2-1 2-2 2-2 3c-2 2-2 4 0 4h2l-2 2-2 4c1 2 0 2-5 0s-12-3-15-1c-2 1-1 1 3 1l5 1h1c1-1 2-1 6 1l6 2c3 0 4 5 1 7l-1 2 1 5v4h4c7 0 12 4 17 14 2 4 2 4 1 5-2 1-2 2-2 3 1 3 0 7-1 7l-1-2v-4c-2-1-2-1-3 1-1 3 0 5 2 5l1 1-2 5-1-1-1 3c1 4-4 20-6 18l-1-4-1-4-1-2-1-2-1 6c0 6 1 7 3 8 1 1 2 2 1 4l-1 1-1-1c1-3-3-5-4-3l-6 1c-4 0-5-1-7-4l-2-6-1-3v-2c2-3 2-7 1-8v-10c-2 0-3 2-2 5 0 3-2 4-4 1-1-2-3-1-3 2l-2 5c-4 4-4 7-1 9l2 4c-1 1 2 3 6 2 2 0 3 1 3 2 0 2 1 3 3 3l2 1 2 1c1-1 1 2-1 6s-1 6 3 7l3 2 4 2h5l-1 5-1 13-2 8v31l-1 26h29l29-1v-69l-3 2-1 3c2 2 1 4-2 6-3 1-3 1-1 1s6 3 6 5l-2 2c-2 1-3 2-2 3 0 2-6 4-13 5h-6v-3l1-2 3-1c2 0 2 0 0-2-3-3-3-6-1-9l3-1c1 1 5-4 5-6l4-11 9-21v-2l-2 2c-2 3-3 2-1-2s2-10 0-10l-1-2-2-3-6-6-6-6c-1 0-2-1-1-2l-1-4-2-5-1-4c-1-2-1-2 2-5 5-6 13-1 17 12 4 14 5 14 4-16 0-22 0-28-2-29-1-1-1-1-1 1l-1 5 1 1c2-1 1 0-1 4-1 2-2 3-4 2l-1 1c1 1 0 2-1 2v2l-2 2-1 1 1 1c0 2-6 2-9 1s-3-1-6 1c-7 5-8 3-9-8-1-7 0-10 2-4 1 6 1 5 4 4 2-1 2-1 4 1 1 2 2 2 3 1 2-2 2-2 2 0h8l2-3c1-1 1-2-1-4s-2-2-1-3l2-1-1-1c-1 1-6-4-6-5h-1c-1 1-1 1-1-1-1-1 0-3 1-4 2-2 2-2 2 0l1 2 1-3-1-3h-1l-3-2-3-2-1 1-1-1v-1c-2-2-1-3 1-2v-1c-1-1-1-2 1-2h2v1l2-1-1-1-1-1h2l1-1c0-2 0-2-1-1h-1c1-2-1-4-3-3l-1 2h-1c-1-1-4 1-4 3h-3c-1-1-1-2 1-4 1-2 1-2-1-2h-4c0-1 3-6 5-6h1c0-1 1-2 2-1l1-1-1-1-1-1-1-2-1 2M35 51l1 3c1 1 1 1-1 2-2 0-3 4-2 9 0 3 2 4 2 2l1-2 1 2-2 2-2 2 1 2 5-5c0-3 0-4-1-3-2 1-1-3 1-4 2-2 3-6 2-8-2-4-5-5-6-2m49 0c-3 1-3 2-2 5 2 3 2 3-1 5l-2 1v-2c-2 1-2 3-1 8v2l-3 2c-2 3-3 2-2-1l-1-5c-2-1-4 3-4 6 0 2 0 3-2 3s-2 0-2-2c1-5-5-6-8-2h-1c0-2-4-1-8 1l-7 2c-3 0-10 3-10 4s1 2 3 1c2 0 2 0 2 2 0 3-6 3-7 0 0-2-1-2-5-2-3 0-3 0-3 2s0 3-2 3l3 1 5 4c1 2 6 3 5 1v-2l1 1h4c6-2 11 0 18 7l6 8c0 4 5 14 6 14l22-13c8-6 11-15 8-28l-2-11c0-6 0-7-3-8-2-2-3-3-3-5 0-3 0-3-4-2m-67 1v1l-1 2v2l1-1 1-2c1 0 0 3-2 5l-1 5c1 3 3 4 4 1l2-2c2 0 1 2-2 6l-4 6c0 1 1 1 3-1l1-1c0 3 2 4 8 2 4-1 6-4 2-4-3 0-4-4-2-6l2-3 2-3v-2l-1-3c-1-2-1-3-7-3l-6 1m293 14c-2 2-2 2-3 1s-1 0-2 3l-3 17-2 2-2 1-1 3c-1 0-2 1-1 2l-1 2-2 1h4l9-1c4 0 7-1 7-2l-4-1-3 1 2-3c4-5 12-5 13-1 0 1 1 2 2 1 2 0 2 1 1 3h-6c-2 2-1 2 7 2 10 1 15 0 10-2-8-3-16-7-17-9s-2-2-6 0c-6 1-6 1-6-1 0-4 2-9 3-9 4 0 6-7 4-11 0-3-2-2-3 1m-173 56c1 2 0 3-2 6l-3 4 3 10 6 18c1 6 4 11 4 8l2-1v-9l-1-16c-1-11-2-14-6-19-3-3-3-3-3-1m110 3v5c1 0 1 2-1 16l-1 32a377 377 0 002-53m123 27c-3 3-1 5 5 8 3 2 4 2 6 1 3-1 3-2-2-7-4-6-5-6-9-2m-61 29l-2 10-2 10 3 7 6 13 4 7 5 1 10 1h5l-1-6c0-12-7-25-18-34l-5-5c0-2-5-6-5-4m-107 9l-1 2c1 3-1 4-6 4l-5 1c0 2 3 6 4 6l3-1v-1c-1-2 0-2 5-2 7 0 7 0 5-7 0-3-4-4-5-2m-39 28c0 3 0 3 2 3 2-1 3 1 1 3-3 2-2 6 0 7 1 1-3 1-11 1-2 0-2 2 0 8l2 3h1c-1 3 3 7 6 7 2-1 3-1 2 2l-1 3-1 1 9-1c1-1 1-7-1-17v-7c0-2-2-6-4-6h-1l2-1 1-3-1-2h-2l1-1 1-1c0-1-1-2-3-2-3 0-3 0-3 3m137 12l-1 5c0 4-2 6-5 6h-2l1 1v2l1 4c2 1 4 13 4 18l5 1 4-1-2-11-3-16c0-8-1-12-2-9" fill="#d3d3d3" fill-rule="evenodd"/></svg>