<svg xmlns="http://www.w3.org/2000/svg" width="400" height="199"><path d="M0 89v88l3-3a359 359 0 0018-31l4-2h2c0 1 4 2 9 2l13 3 5 2 4-2 5-3c3 0 2 3-2 6-3 2-3 2-2 4 4 4 2 5-2 3l-6-3c-2-1-2-1-1 2 2 4 0 5-6 3-5-2-6-2-2 1s6 5 6 8c0 5-3 6-10 4-5-2-7-2-7 1l-2 3v2c1 2-3 7-7 8l-4 1c-12 8-12 8-7 11 4 2 5 2 58 2h55v-3l-1-4 1-6 4-7v-3h-11c0-1-1-2-3-2-3 0-3-1 0-6 3-6 4-11 1-14-3-2-2-4 0-2l4 7 2 6 14 4a107 107 0 0122 9c10 4 20 12 21 18l1 3h41v-2l2-7 1-5 1-3 2-4c1-10 5-18 4-8l-1 5 1 1c2 0 1 2-1 3s-2 1 0 0l3 1v4l-2 3-1 1c-2-1-4 1-3 3h-1v4c0 3 4 4 13 4h9l-1-6-1-14-1-8 1-5c0-3 0-4 2-5l1-2 1-4v-3l-2-1c-3 0-4 0-2-1v-2c1-2-3-4-5-3-3 0-4 2-3 2 1 1 0 2-1 4v2l3 3 2 2 1 1 1 2c2 1 1 3-2 2l-1 1-1 1-1 1 1 1v1c-1 1-3 0-3-2l-1-1v-3l-2-2-2-2c-2 0-1-7 2-11l3-4 6-5c6-5 14-11 22-15l3-2v-14c0-17 0-17 11-17l8-1-2-7-3-10-3-6-3-2h2c4 3 5 3 4-6l1-11 1-3-2-1h5v-1l2-1c0-1 1-2 2-1 2 0 1-2-1-3-3-1-5-1-5 1l-2 2c-2 0-2 1-1 5v4c-3-2-3-23-1-21l1-1 7-2 5-1c-1-1 1-3 4-3l9-9 1-1 2-1 5-2 3-1h2c1 2 2 2 3 1 1-2 8-2 9 0h3c0-2 4 2 5 4v7c0 5 0 6 4 9l6 4 1 1v2c-2 1-2 1 0 1l2 1 3 4 3 4 2 1c2 1 2 0 2-2l1-3 2-2c1-3 4-4 4-1v4c1 2 3 0 2-1l1-3c2-2 2-2 5 0l4 2v-2c0-5-6-8-9-4l-2 1c-2 0 4-5 6-5l4 3c3 3 5 19 3 25-1 4-6 10-9 10s-3 2 0 3c2 0 2 1 2 11a77 77 0 01-4 25l-1 1h-2l-2-3v-2l1-9c0-2 0-2-3 0-5 2-13 8-15 10l-3 1h-9v2l-3 2c-2 2-16 6-24 6-2 0-3 0-3-3-1-5-1-5 3-4s4 1 7-1l5-2 2-2 2-1 2-2v-6l-2 1h-3c0 2-10 5-13 4-3 0-4 0-4 2l-1 1v2c0 2 0 2-2 1-3-2 0-9 4-7 2 0 18-5 20-7l3-2c1 0 8 4 9 6s3 3 3 1c0-1-3-5-3-3l-2-3-4-4c-3-1-17 0-19 1l-4 1c-3 0-11 9-11 12 0 2-1 2-5 2l-7 2c-4 3-8 12-8 15l-1 3-1 5v3c0 2-3 3-3 1l-1-3-1 1v2c-2 0 0 3 4 5s7 0 7-5l1-4c1-1 1-1-1-1h-2l3-2c3 0 4-1 2-2-1-1 0-1 1-1 2 0 2 0 2 2v4l-1 3-1 3c-3 2-2 2 10 7s14 6 24 16c7 7 11 11 22 26 4 5 7 8 14 13l6 4h37V0H0v89m310-49v2l-1 2c-1 1-1 1 1 1l2 1c0 2 5 2 11 0h9l1-1-4-2-8-2c-5-1-6-1-7 3l-2-1v-2l-1-1h-1m9 24c2 1 2 3 1 7l-5 1-6 1c0 2 0 2-1 1-1-2-7-1-8 1-1 3 2 6 5 5l3 1c0 2 1 2 3 1l2-2c2 0 10-8 10-10s0-2 3 1c6 5 7 3 2-2-4-5-8-7-10-7l1 2M53 76l-2 1-4 2-5 2c-3 0-10 7-11 12-1 4 4 14 7 16l4 3c0 2 2 3 4 1l10-1 15 1c1 1 3 0 3-1 0-2 10-6 17-6 4-1 5-1 6 1v2l2 2c4 0 5-1 3-4l-4-11c-4-14-7-18-15-19-3-1-4 0-5 1 0 1-8 2-9 0-1-3-15-5-16-2m51 42c0 2 0 2-1 0-2-3-3-3-2 1 0 3-2 3-2 0-1-2-1-2-2 0l-2 5c0 4-1 6-5 6-2 0-3 0-2 1l6 1h4l2 1h2l2 3-1 2c-2 1-3 1-3-1-1-2-3-3-7-2-4 0-4 2 0 6 8 7 11 9 13 5l1-3v-19c-1-8-3-11-3-6m-32 11v13c0 3 0 4 3 3h7c6-1 7-1 5-4l-2-4-11-15-2 7m196-3v3l-1 4v1c2 0 2 0 1 1-1 2-3 0-3-2v-1l-1-3c-1-2-1-2-3 0l-3 1h-1c0 1-1 2-3 2l-3 2 2 4 4 7 1 3-5-3v-3l-2-1-3-2h-1l4 5 3 6c0 2 3 1 6-3l7-8c4-4 4-5 3-9l-2-4m13 34c5 3 5 4 0 1-4-2-7-2-7-1 0 2 5 4 15 5 12 1 16 2 20 5l5 3c2 0 2 0-1-4-5-5-22-12-31-12h-4l3 3m-3 14l4 3c3 1 3 1-3 1l-9-1h-3l-4 1-3 1-3 6c-1 1-1 1 1 3s2 3 0 9c0 2 1 2 9 2h10l2-4 1-4 2 2c2 3 3 4 0 4h-1c1 2 26 3 26 1l-15-7c-7-1-13-6-13-9 1-2 14-2 14 0l5 1 10 2 7 2-4-4-1-2c1-1 0-2-1-2h-9v1l-1-1a1186 1186 0 01-21-4" fill="#d3d3d3" fill-rule="evenodd"/></svg>