<svg xmlns="http://www.w3.org/2000/svg" width="400" height="267"><path d="M390 34l-7 2c-1-1-9 0-18 2-5 1-5 1-6 6l-2 5-1 1 2-1c4-3 11-6 16-6h5v4c-3 15-2 21 1 25 2 4 3 5 3 11 0 10 2 10 9 4l6-4c2 0 2-1 2-25l-1-26h-3c-1-1-4 0-6 2m-90 19l-10 2c-2 2-2 6 0 11l1 5 3-2c6-4 31 0 29 5-1 6 0 10 4 15 3 3 5 8 5 16l2 2c2 1 4-2 4-6-1-4-1-4 4-9 5-6 6-9 6-13l2-12c3-9 2-11-1-11l-3-1-4-1-5-1c-3-2-27-2-37 0M38 60l3 2c2 0 2 0 1 2 0 2 0 2-2 0-3-3-5-3-7 1-1 2-2 2-9 2l-8-1C15 65 4 78 4 80c1 3 3 3 7 1 4-3 10-3 16-1 3 2 3 2 1 3-3 4-1 11 4 16l2 5-4 9-1 4-2 4 1 3c2 5 1 13-3 13l-4 3c-5 4-10 2-10-4l-1-3v-5l1 2h3c4-1 4-2 1-3l-5-1-2-1c-1-1-2-2-5-2H0v81h3c9 2 16-5 18-19 1-7 2-6 2 2v9c1 1 0 3-2 6-3 3-4 4-2 6v7c-1 8-1 15 1 17v5c0 2 2 2 13 1v-4l1 2 1 1 1-1c0-2 2-3 5-3 6 0 10 11 6 16l-2 4c0 3-4 2-5-1l-2-3c-2 0-5 3-5 5l-3 4-3 6c0 3 1 4 4 1l5-2 6-3 2-2h43c0-5 11-6 33-3 11 1 13 2 14 4 2 1 3 6 1 6l-1 1 30 1h29l-4-4c-4-4-7-5-14-5-6 0-21-6-26-11-3-2-3-2-5 0h-6c-5-2-9-5-9-7v-4l-1-2-4-1c-2-2-3-2-4 0s-10 8-11 7l3-3c3-1 3-3-1-3l-2-1 2-1c2 1 5-2 5-5 0-1-7-4-10-4l-2-1 2-1h2l-2-2c-4-5-2-5 6-2a458 458 0 0142 10c8 2 12 2 12-1 0-5 4-7 16-6l11 1c3 4 21 4 25 0 1-1 0-4-3-7l-1-2v-2l-1 3c0 3-2 3-7 0-5-2-11-4-11-2l-1 1-2-1 1-1v-1h-1l-3-1-2-2c-4 0-9-3-9-4s-1-2-3-2c-3-1-4-3-1-5a803 803 0 01-16-5c-13-3-12-3-17 3l-4 8c0 3-2 3-7 2-5-2-6-2-3 1 4 3 2 8-4 10-3 1-6-1-6-6l-1-4v-6c2-4 1-6-1-2l-1 1v-1l-2-1-3 1v-3c-1-3-3-15-4-32l-1-18c-1-2-5-3-6-2h-3l-2-3c-4-1-8-10-15-36-5-22-6-25-11-30-7-11-10-12-23-12l-4-1-2-1v2m154 6c-3 0-17 8-21 11-8 6-14 23-16 42v8l4-3c5-4 5-4 4-7-1-4-1-4 1-3 1 1 1 1 1-2 0-8 11-21 20-24 5-2 13-3 13-1l3 2c3 1 5 5 3 5s-1 2 2 4l2 3-5 1c-5 1-6 1-8 7-2 5-3 8-3 13l-1 6c-3 1-2 4 0 4 5 1 2 4-4 5l-7 1c-1 2 2 3 5 2l3 1 1 2 2 2h-2l-2 1 2 2c4 4 1 7-5 8-6 0-10-5-12-15-2-11-2-12-7-8l-4 4-2 2c-3 3-2 23 0 21 4-3 11-1 11 3 0 1 8 9 11 10l4 6c1 3 3 5 4 5 0 1 1 1 0 0l2-1v2l-1 2 2-2 2-1-1 3c-3 2-2 5 2 6h4l5-3c5 0 5 1 0 4l-2 2 1 1c-1 2 6 5 8 5l2 2 7 6 7 4 6 3c3 0 6 1 8 3 3 2 6 1 4-2l-1-11a54 54 0 00-3-21l-2-7-2-21a778 778 0 00-3-39c-2-33-14-53-32-53h-10m-19 35c-1 1 0 1 3 1 5 1 7 3 3 3l-3 1h6l-4 1-4 3c-2 2 0 3 2 1 2-3 4-2 4 0s0 2-3 2h-1c2 2 7 2 9-1 1-2 1-2-1-4-3-2-3-3 1-3 3 0 3-1-1-3s-9-2-11-1m203 6l-2 8c-1 4-5 10-9 10l-3 3c-3 3-4 3-10 3-7 0-9 1-11 4-3 6 6 16 15 16l5 1c3 0 2 2-3 6-3 2-5 4-5 6s-1 3-6 4c-3 0-7 2-10 4l-9 5c-10 5-22 21-23 30 0 5-3 13-5 13l-4 3-10 8-6 6-3 6c-4 4-7 11-5 12l4 6 2 6h122V147l-8 4c-4 3-8 6-10 6l-3 2-3-4c-3-5-4-7-1-9l1-3 8-7c4 0 10-9 8-12l-2-7c-2-8-3-10-7-9l-4-1c0-3-2-2-3 0m-47 39l-1 1-4 1c-3 2-4 2-7 1-4-1-5-1-13 3-4 1-4 3 0 2l2 1 3 3 3 2-2 2-3 4-2 1c-2 0-2 1-1 2l2 4c1 2 1 2 2 1 0-2 1-3 3-5s2-3 2-7l12-6c6-4 7-4 7-8 0-2 0-3-2-3-1 0-2 0-1 1m-169 22l-2 4c0 3-1 5-3 7-3 3-2 4 6 5 8 0 10-1 10-5 0-2-1-3-4-4-3 0-4-1-4-4-1-3-2-5-3-3m110 23c-2 2-5 15-5 19 0 2 0 2 3 0l4-2 3-2c0-2 2-3 3-3 3-1 9-11 8-12l-8-1c-6-1-7-1-8 1" fill="#d3d3d3" fill-rule="evenodd"/></svg>