<svg xmlns="http://www.w3.org/2000/svg" width="400" height="300"><path d="M114 1l46 5 9 1V0h-30l-25 1m60 1c-1 5-1 5 17 5 28 0 64-3 64-6l-40-1c-38 0-41 0-41 2M0 105c0 59 1 59 3 59a365 365 0 0033-3l2 1c3 0 2-2-2-4l-2-2h6l4 4 3 2h-7l4 2 4 1h4v1l-1 2 3-1h2l-1 3c-2 0 1 3 3 3l3 1 3 2-1-2c-2-1-2-2-1-2 2-2 0-3-3-3-2 0-2 0-2-2v-2l-1-1 1-1 5-4 4-4c3 0 5 0 4-1l-1-1c-2 1-1-2 1-5 3-3 3-3 1-5-1-1-2-8 0-8l-1-1c-2-1-2-1-1-5l-1-5c-3-3-5-18-3-18s-3-10-6-14c-7-7-15-9-24-6-2 0-4-3-4-10-1-3 0-4 1-4l1-2c-1-1-1-1 1-1 2 1 2 1 0-2A107 107 0 002 46l-2-1v60m347-16l-5 4c-2 2-2 3 1 4l1 1 1 1c1 1 1 1-1 1s-2 0-2 4v3c-1 0 1 5 3 7v10c-1 2-1 2 0 0 1-3 6-7 8-7l3-2c2-1 2-2 1-2l-3-2h-3c-1 2-3-1-2-5l-1-4-1-1 5-1c4 0 5 1 5 3v3l2-2c2-2 2-3 1-4s-1-2 1-1l2 6c0 3 1 4 2 4l2 2c2 4 5 2 5-2 0-5-1-6-5-8-3 0-3-1-2-3 0-3-2-9-4-10-3-2-10-1-14 1m-117 3c-7 1-11 2-11 4h4l4 1c0 2-2 3-5 3-2 1-5 4-2 4l1-1h2l3-1 5-4c4-2 9 1 10 8l2 3 1 2c2 3-11 13-15 11v-2l3-2c1-2 1-2-2-3l-3 1c-2 1-2 0-2-7l-1-2v-1l-2-1c-2 0-3 3-1 6 2 2 1 4-1 3-3 0-8 4-8 7l-1 2-4-7-5-1-2-1 2-4c1-3 2-4 4-2h1c0-2-5-3-7-2-3 1-8 13-11 24-2 11-2 11-5 9v-4l-1-7-1-8c-2-2 0-2 2-1 3 2 3 2 3 0 1-3 0-4-2-4-2 1-7-1-7-3l-1-1c-3 1-3-1 0-2l2-3 3-1 3 1 1 1 1-1c-1-3 0-2 3 1l4 3-1-2-1-6c-1-9-9-13-15-7l-3 1c-1-2-7-1-10 1-1 1-2 2-1 4v3l1 1v2l-1 4 1 2 1 1 3 3 1 2 4 7c0 3-2 7-3 6l-2-1h-1c-1-2-4 0-4 2l-1 4c-1 2-1 2-3-4-1-9-2-10-3-8-1 0-1 3 1 9l2 8-2 2-4 2-6 3c-3 4-4 4-5 3-2-1-3 0-3 2l4 1h4v4c0 4 1 5 2 6l4 3c0 2 2 3 3 3 2 0 2 0 0 4l-1 4v4c-2 4-1 5 9 5l8 1c1 1-2 3-6 3-3 0-5 1-7 3-4 3-9 5-16 4l-5-1-1-7v-7l1 3 1 4c1 1 1-4-1-14v-4c0-4-4 6-4 10s-5 18-9 28c-5 10-11 16-20 21-6 4-6 4-4 12l1 9 2 6v6l-1 6c1 2 0 3-1 5-2 2-2 4 0 15l1 9h78l1-9c2-14 9-33 15-37 1-1 1-1 1 1l-3 15 12 2 18 2 6 1v25c2 0 3-9 2-12l1-5c1-1 1-1 1 1s1 3 2 3v2c-2 3-3 6-1 6l2-4 1-1c2 0 1 2-1 6-3 4-3 4 6 4h8v-3c0-2 0-3 1-2 1 2 2-1 1-7l-3-9c-2-2-3-4-3-11l-1-13c0-4 2-8 3-4l2 2c2-2 7 0 9 3 2 5 3 4 5-5 0-5 0-5-3-6s-4-5-2-6l1-5c1-4 1-4-1-4l-2 1h-2c-2-3-3-2-3 2v9c1-1 2 1 2 4l1 2h1l-3 1c-3 0-3 0-2-1s1-1-2-1l-1-1-5 6c-3 6-4 7-2 8l1 6 1 4-3-4-4-4-3 5-4 6v-10c0-10 0-10-8-10l-3-1c-2-2-17-3-21-1h-8a344 344 0 00-48 4l3-2c3 0 3 0 2-1v-2h1c0 2 0 2 7 1l5-1-2-4v-9l-1-15-1-13-3-6c1-1 5-1 6 1v6c0 5 2 16 4 18 3 3 2 3 0 3h-2c0 3 2 6 3 5l4-2c3-2 3-2 3 0l2 4 1 3-1-1h-3c-3 0-4 1-2 2v2c-1 1-2 0-2-2l-1-4h-3c-1-1-2 0-1 5l1 6h19c18 0 18 0 23-3 7-5 16-6 27-6l9 1v-8c0-16 1-17 4-25 2-3 2-5 1-5v-9l2-5c0-6-1-6-2-1l-1 4v-4c0-4 1-6 3-6l1-3c0-2 2-3 9-4h3c-1 1-1 1 3 1l5-1 2-1h-4c-4 0-4 0-3-1v-9c-2-9-1-11 2-11l2 1v17l6-2c6-2 20-4 22-3 2 0 2 0 0 24-2 19-2 20-1 21 2 1 2 2 1 4-2 2-3 11-5 27l-2 13-3 16c-2 11-3 16-5 17v1l1 1 4 5 5 5h7c8 0 7 2 9-18 3-20 3-20-2-24l-4-4 3-31 5-38c1-13 1-14 28-16l22-1-9-2-9-3 1-7 1-2 4-4c2-5 1-8-3-7-2 1-4-1-2-3h1l1 2v-3c-1-2-2-4-1-5h-1c-1 1-1 0-1-1l-2-5c-4-3-7-11-7-17 0-10-7-19-15-19-7 0-15 7-15 13 0 2 0 2 1 1l4-2h3c2-1 2-1 3 1 0 2 2 3 4 1 1-1 1-1 2 1 1 4 3 6 4 5h3v-1c-1-1 0-2 1-2 1-1 2 2 1 5s-3 5-4 3c-1-1-1-1-2 1-1 4-4 6-8 6-3 0-3 0-2-1 2-1 2-1 0-1l-3-2-1-1c-3 0-2-2 0-3 1-1 2 0 4 2l2 1v-2c3-1 0-5-4-5l-5-1c-2-1-2-1-1 2v4l-1 2c-3 0-6-4-7-8 0-5-2-7-5-7-2 0-3 1-3 4 0 2-1 5-3 7l-3 7-3 6-2 7c0 2 0 3-1 2l-2-1-1-1-1-2-1 4v4l-1 3-3 3-3 3-6 4c-5 2-6 3-6 7-1 11-13 14-27 7-2-1-3-2-4-1v3c2 1 1 6 0 6-4 0-6-1-6-4l1-2v-3l1-4c4-1 0-4-7-5-4 0-6-2-6-5l-3-3c-4 0-5-5-2-7l4-3c2-2 2-2 4 0l1 3c0 2 3 3 3 1 1-2 1-2-1-2l2-1 6-2 2 1c0 3 3 2 5-2 1-3 8-11 10-11 1 0 3 5 3 8 0 2-1 2-3 2-3 0-3 0-3 2s1 3 4 3c6 0 10-4 9-10l2-5 2-6 1-3 2-1 1-7 2-1 3-1h-1c-2 0-7-2-6-3l4-1 4-2c1-2 2 0 1 3-1 4 1 10 2 7l1-12v-9h-13l-20 1m-95 2l-2 3-5 3c-5 0-6 1-6 2l2 2v1c-1 2 0 3 5 5l2 1-2 1-1 2c-1 1 0 1 1 1 3 0 5 1 3 3h-1l-8-2c-6 0-7 0-7 2l-2 2v1c5 0 2 3-4 3l-3 1c-3 0 1 3 3 3 3 0 3 0 1-1l-1-1 5 1c3 1 4 2 4 4s-1 3-2 3c-2 0-2 1-1 4v8c1 5 0 4-5-3l-4-6c-1-2-10 3-12 6-1 3-1 4 1 2 3-2 2 0-1 5l-4 8-4 7c-5 5-6 8-3 16 1 6 1 6 5 7l8 2c3 1 10 9 11 13h2l-6-11c-2-1 0-4 1-4 3 0 10-11 8-12-1-2 0-5 3-6l2-3 3-7c3-5 3-6 3-17l-1-13v-1l3-2c0-4 4-5 6-2 2 1 2 1 6-1l3-5 1-1 2 2c1 2 2 1 2-2 1-2 0-2-1-2-1 1-3 0-4-2l-1-2 3-1 2-1 2-1c1-1 0-1-1-1-2 0-2 0 0-1v-2l-1 1c-1 2-4 0-4-2 0-4 3-6 7-6 8 0 3-3-6-5l-7 1m-83 1c-3 2-3 6 0 7 2 0 2 0 1 1v1c2 0 1 2-1 2l-4 4c-1 4-1 4 1 6 2 3 5 4 6 3 3-1 2-2 0-2s-3 0-2-1c0-1 1-2 3-2 4 0 7-5 5-7-2-1-3-4-1-4 2-2 1-5-1-7-3-2-5-2-7-1m224 4c-3 3-2 4 2 5l3 1c0 2 3 3 4 2 2-1 4-6 3-8-1-4-9-4-12 0m-179 4c-5 2-7 9-3 11l2 2 1 2c4 5 8-2 5-8l-2-5c0-2-1-3-3-2m178 6l1 1h2c1 1 1 2-2 4-2 2-4 7-4 14-1 6 1 4 4-3 2-7 3-9 4-8l3-1c2-2 3-5 1-5s-4 0-3-1c0-1-2-3-4-3l-2 2m-240 8c-2 5-4 16-3 18l1 7 3 4 10 4 8 4 5-6 5-7-3-5-4-5c-2 0-6-4-6-7 0-2-2-3-5-2-2 0-2 1-2 5l1 5-2-2-4-9c-2-6-3-7-4-4m333 3c-3 4-8 26-6 26l2 1c2 0 3-7 5-21l2-7c2-3 0-3-3 1m-79 20l2 2 2 2h-4l2 1 1 2c0 2 0 3 1 2l1 1a102 102 0 0029 14c4 1 6 0 9-5 2-4 1-4-6-4l-6-2c3-6 3-6-2-8-4-3-5-3-9 2l-4 3-1-3c-2-3-5-5-7-5l-5-1-3-1m99 11c0 4-4 7-9 7-4 1-6 2-6 6l-1 3h7l7-2c3-1 5-15 3-16-1-1-1 0-1 2M9 190c0 1 5 5 7 5l1 1h5c3-2 9 1 7 3-3 3 4 5 8 2 1-2 1-2-1-3l-3-2c-3 0-7-2-7-4l-4-1a444 444 0 01-13-1m239 8c0 5 0 6 2 8 3 2 4 10 3 10v1c2 0 2 1 2 3v5c1 2 1 2 1 0 0-3 2-3 5-1l1 2c-4 0-2 2 3 2 6 1 5-2-3-10-8-7-8-8-6-19 0-3 0-4-3-6-5-3-5-3-5 5M3 199v4c0 1 8 3 9 2 2-1 7 0 6 2-2 2 2 3 8 2 4 0 2-3-4-4l-7-3-3-2-2-1-4-1c-3-1-4-1-3 1m51 14l-2 1-5 2c-2 3-27 4-29 2-1-1-3-2-8-1l-5 1c1 1 1 1-2 2s-3 2-3 8 0 6 2 5l2-1h6c2 0 2 1 1 2s-1 1 4 2c1 1 2 0 3-1l2-1 1-2c0-4 9-7 12-4l4 2c4 0 4 0 6-4l1-4 8-3 3 1c0 3 5 3 7 1s2-2 0-3H49l3-2c4-2 5-4 3-4l-1 1m32 19l-1 5c2 0 4 5 6 13a200 200 0 004 13c0 3 1 4 3 2l-2-15-2-14h-4l-3-1h4c4-1 4-1 2-3h-7m-44 7l-2 1-1 1c0 1-7 3-8 2H15l-15-1v4c0 3 0 4 2 3h3l-3 1c-2 1-2 2-2 16v14l2-2 4-1c1 1 3 0 4-1l2-2v-2c1-2-1-4-4-1-3 1-3 1-5-1-2-1-2-2-1-3h7c1 1 1 1 4-3 1-3 4-4 6-2s2 2-1 4l-1 3v2l-3 4c0 2-1 3-2 3l-1 1-4 5-3 3c1 0 0 7-2 9-3 3-2 4 5 4s7 0 10-3l4-3-1-1c-2-1-2-1-1-2l3 1c1 1 2 0 3-3 0-2-1-2-2-1-2 0-2 0-1-2a461 461 0 006-12v-4l5-6 6-6 1-2c2 0 2 3 1 5v2l1 1c-2 2 4 1 6-1l2-2c2 0 0 4-3 7s-5 8-2 8c4 0 1 6-3 8-4 1-8 4-8 6 1 1 1 1 0 0l-1 1-1 2c-2 2-1 3 2 1 2-2 3-1 3 3 0 3 1 3 4 3 2 0 3 0 3-2l1-2c2 0 10-7 11-10 0-2-1-3-3-1v2c1 1-1 3-7 7-5 3-5 3-5 0s2-6 4-6 7-4 7-6l2-3c2-2 3-7 0-7-2 1-2 0 0-4l1-4v-10l5-1 3-1c0-3 4-6 6-4 2 1 2 1 3-1l4-4c2-1 3-3 1-4H63l-13-1c-3-1-7-1-8 1m313 5a417 417 0 00-10 41l-3 14 16 1 16-1-2-1c-8 0-8 1-1-28l5-20-7-2c-4 0-9-2-10-3-3-2-4-2-4-1m-37 37a582 582 0 0112 13c4 5 5 6 8 6 2 0 3 0 3-2v-11l-3 8-1 4v-4c0-6-10-15-18-16h-3l2 2" fill="#d3d3d3" fill-rule="evenodd"/></svg>