<svg xmlns="http://www.w3.org/2000/svg" width="400" height="300"><path d="M339 17c-4 53-5 58-7 63-3 4-3 6-3 11l1 5-5 1c-5 0-6 0-6-4 3-12 2-25-3-28-5-4-16 0-17 7l-3 5-2 5-1 8-4 4c-3 5-5 6-15 6h-5l-1-7c-2-12-6-17-12-18-8-1-14 6-16 19-2 9-2 9-8 9h-4v-6c-1-9-3-16-4-17l-10-4-9-4-1 5-5 40v5l-3-6a266 266 0 01-11-43v-3l-2 3-12 8-10 6-3 17v4h-6c-6 0-6 0-7-3l-6-5c-4-3-15-7-15-7l2 5v4c-2-1-7 4-6 6 1 1 1 1 2-1s4-1 4 2l3 10c2 7 5 22 5 30l1 6 1 2v1l1 2-4-2c-2-3-4-4-4-3l3 4c6 5 7 6 5 7v3c2 1 2 1 0 3l-2 3-2-3c-2-2-3-4-2-5l-3-6-3-2c1 3-1 2-5-3l-8-7c-6-4-8-6-6-8 1-1 0-3-1-9l-3-10v-3l3 4c3 6 4 3 1-3-4-6-3-6 4-1 4 3 6 5 6 7 1 12 2 13 1 3l1-20c0-3 0-3-2-2h-2l-1-1c-1 0-2-1-1-3 0-2 0-2 2 0 4 6 12-6 8-13l-11-1-2 1-1 1v3c-2 1-4-3-3-8 0-3 0-3-2-1v11c-2 0-4-5-3-7 0-2 0-2-3 0l-6 4c-3 1-3 1-2 5 1 5 1 6-1 4-1-2-1-2-1 1v4l-3-3c-2-3-3-3-5-2h-5c-3-1-9 3-8 4 1 2 6 2 6 1l-1-1-1-1 5-1h5c2-2 2 1 0 3-1 1-1 1 2 1 5-1 5 1 2 5-2 2-14 3-19 2-3-1-3-1 1 2l4 5c0 3-10-3-10-7l-2-4c0-2-1-3-2-3s-2-4 0-7l1-5 1-4-3 2-3 3 2 24c1 1 0 2-4 2h-5v-9h-6l-37 3H0v183h348l-3-4c-4-4-4-4-5-13l1-15 1-8c0-2 0-3 1-2l2-1c0-1-4-2-5-1l-1 2c0 2 0 2-3 2l-4-1v12l-1 17-1 6c-3 3-4 3-7-2-2-4-2-5-2-13 0-9 0-24-2-30l-2-4c-2-1-2-1-2 3 0 5-1 10-3 10l-1-2-2-3c-4-2-4-3-3-10a1874 1874 0 009-52c0-9 2-20 5-28 4-8 5-15 4-20l-1-3c0 2-2 1-2-1h1v-11l1-9c0-5 2-11 3-8h4c5-2 7-2 10 0 4 3 10 2 11-2 1-2 0-2-2-2-4 0-5-2-1-2l3-2 2-3 2-2-2-2c-3-1-4 0-2 1 2 2 2 2-1 3h-4l1-1 3-1-1-1h-3c-1-1-2-1-3 1-2 2-5 3-5 0-1-2-1-3 3-3 3-1 4-1 4-3l-1-2h-3c-4 0-5-4-1-7 9-7 22 7 17 18-2 4-1 5 9 8 10 4 13 7 16 13 3 5 5 13 3 14s-1 3 1 3l2 4 1 6c0 2 0 2-2 2s-3 0-2 2l-2 1c-5-3-14-2-14 1h4l8-1 1 6 1 21 1 19c1 5 0 6-3 6-2 0-3 0-4-2l-2-2c-1 0-1-1 1-6v-13a844 844 0 01-5-26v5c1 4 2 6 1 8s0 4 1 6l1 4v14c-2 6-1 53 1 60 0 2 0 2-2 2l-2 2c0 2-2 4-2 2l-5-1c-6 0-9 3-11 11l-2 6v21l-1 3h51v-34l-1-150V0h-60l-1 17M110 44c-5 0-11 7-13 13-2 5-2 10 1 8 1-1 1-1 2 1s1 2 3 0c3-2 4-8 3-10s1-4 3-3c1 1 4 0 7-1l7-1c2 0 4 5 5 10l1 8c1 3 1 3 2-3v-8l-1-3c0-5-5-10-9-9l-2-2h-9m79 12l-1 2 2-2c2-2 3-2 4-1s1 2-1 2c-1 0-3 1-3 3l-2 2c-1 1 1 7 3 7l1 2 1 2 2 1c1 2 1 2 3 0l2-3 2-4c2-3 1-7-1-4-3 4-12 1-10-3h10c0-2-1-2-4-2h-2l2-1 3-2c3 0-1-2-4-2-4 0-5 1-7 3m116 17c-4 3-10 12-8 12l1 3c0 4 4 8 8 8 3 0 3 0 2-1l-5-5c-3-3-3-3-1-3l4-1v1c-3 2-2 3 0 3 1 0 2 0 1-1 0-1 1-2 4-1h5c1-2 1-3-1-3-4 0-4-4 0-4 2-1 2-1 2-4s-4-7-7-7l-5 3m-56 10l-3 5h3l4 2c0 1-3 4-5 3l-2 1c0 2 2 3 3 2h5l3-1h2c4 2 5 1 5-4-1-4-1-6-4-9-4-4-6-4-11 1m47 14l-4 2c-2 0-1 5 7 22 2 6 3 6 6-1 3-6 2-16-2-15-2 0-3-1-1-3 1-1-2-7-4-7l-2 2m-49 13l-2 2-5 2-1 2c-2 1-4 0-2-2 2-3-9 0-12 3-2 3-5 16-3 17l1 4c0 2 0 2-1 1l-2-2c-1 0-2 5-1 6v1c-2 1-4 16-4 31l-1 14 4 1h4c1-1 2 3 2 13 0 5 0 8-1 7-1-2-1 3-1 12a954 954 0 010 44c1-6 1-6 1 4s1 12 4 12c1 0 3 1 3 3 3 3 7 3 9 0l1-2 2 2c1 3 8 3 9 0 2-3 1-7-1-8-1-1-1-1 3-1l9-2 4-3v-15a2243 2243 0 012-82l-2-2h1c2 3 3-1 8-19 1-6 1-8-3-9l-1-4v-2l1 3c1 2 1 1 1-1l1-10c2-5 2-5 0-6-2 0-2 0-1-1s0-2-3-5c-5-6-8-6-8-3s-3 8-3 5l-1-2-2-1h-1c-2 2-3 0-3-4 1-2 1-3-1-4-3-1-2-1-4 1M69 129v1l-1 1 2 2c3 0 3 1 5 7l3 7 7-4-6-13-2 2c-1 1-1 1-1-1s0-2-2-1c-1 2-1 2-3 0l-2-1m41 27c-6 0-4 3 5 8 7 3 9 5 4 3l-6-1c-3 1-3 4 1 5 2 0 2 0-1 1l-4 3c0 2 9 3 16 0l5-1h1l-1-2-2-5-1-6v4l-3-2c-8-6-11-7-14-7m45 32v2c1 0 1 1-1 1-2 1-2 2-2 4v4c-2 2-2 11-1 11l1-4 1-5c1-3 3 1 3 6 0 4 0 4 2 3l1-9v-11c0-3-1-4-4-2m91 37c-3 15-5 30-5 47-1 9 0 7 2-3l1-4 1-2 1-3 2-21 2-25c1-10-1-5-4 11" fill="#d3d3d3" fill-rule="evenodd"/></svg>