<svg xmlns="http://www.w3.org/2000/svg" width="400" height="266"><path d="M276 18c-8 2-10 3-10 5 1 1 3 3 4 2l1 2c0 3 2 5 5 5l6 2c2 2 3 2 3 1 0-2 2-3 3-1h2c1-1 4 0 4 2l-1 1-2 1-3 4-2 2h3c4 0 9-4 7-5l-1-2 2 1h3c4 0 6 3 5 10-1 9 2 16 3 10 5-19-2-38-16-39-9-2-11-2-16-1m-164 8l-4 3-2 1c-5 0-11 7-10 13l1 3v-3l2-4c2-2 2-2 2 0v3l2-3 4-3 1-2c-1 0-1-1 0 0l1-1c-1-1 6-7 8-7h2c-1-2-3-2-7 0m9 4l-2 1 1 1 8 3 7 3 2 2c1 1 1 1-2 1h-1c4 3 16 3 15 0l-8-3h-4l-1-2c3 0 0-2-4-2-6-1-9-3-8-4h-3m14 19l-1 3h2l2 1v1c-2 1-2 1 1 1 2 0 3 0 3 2v1l4 2c3 2 7 2 9-1h-8c-1-1-1-1 1-1 3 0 5-3 2-4l-2-1-7-3-1-1-1-2c-2-1-2 0-4 2m-48 9c-1 2-1 3-2 2-2-3-3 1-2 6 1 9 9 15 15 10 3-1 2-4 0-2l-1-2-2-1h-1l1-2 1-5v-5c1 0 0-3-2-3l-1 2c0 2 0 2-2 0l-1-3-1 2v3l-1-3c-1-2-1-2-1 1m228 16l-2 8c-2 7-1 8 2 10 4 1 10 7 10 9l1 2c1 3-3 2-6-1l-3-4-3-2-9-4-9-5-9-8c-6-6-9-8-8-4 0 1 0 2-3 1h-3l2 2 2 3 1 2 1 1-1 1-2-2c0-1-4-4-5-3l-2-1-2 1c-1 1-1 1-3-1l-2-1h-2c-2-1-5 0-6 2l-1 1-1 1 2 3 1 2 1 2 1 3 4 9 2-1 3-1 1-1 1-2-1-2c-1 0-2-1-2-3l1-2 1-1 2-1 1-1v-2l5 6 1 3 2 1 2-1h2l1-1 1 14 1 13a319 319 0 01-46 50l4-6 4-8 2-4c3-2 1-6-2-6-2 0-2 0 0-2 1-2 3-4 5-4l3-2h-3c-2 0-3 1-5 3l-3 2h-4c-3 0-3 0-1-1v-1l-3-1h-1l1-2c3-2 4-4 2-3l-2-1c-2-2 1-4 5-4 3 0 3 0 2-1l-6-1c-4 0-5 0-6-2 0-1 3-5 5-5 1 0 2-2 1-3-1-2-2-1-1 1h-2c-3 0-6 2-6 5s2 6 5 6c2 0 2 0 1 1-2 0-2 0-1 2v1l1 19-5 8c-14 18-17 24-20 37l-2 9-4 3-3 2 2 3c5 6 2 8-7 4-5-3-12-4-9-2s2 4-5 7c-5 3-6 3-6 6s4 8 6 6l5-1c3 0 4 0 3 2v2l12-6 2-1c1 1-1 21-2 28l-2 7h201v-45h-11v-6l2-18c2-16 1-26-10-58l-5-17-6-14-6-15c-2-6-5-9-11-10l-17-4c-12-2-16-4-19-7l-2-2v4m-162 1c-1 2 1 4 3 4l1 2c0 2-1 1-4-2l-3-1-1 3 2 1h2l3 4c4 4 4 4 5 2 1-1 1-1 2 2 0 4 3 4 4 0 0-1 0-2-2-3l-2-2-5-7c-4-4-5-5-5-3m-73 2l-4 4c-2 4-13 14-17 15-6 3-20 13-23 17-6 6-7 12-7 34-1 18-1 20 2 25 2 6 3 9 4 25 2 10 2 13 0 19l-1 11c0 5-2 19-5 31l-2 8h138l-1-4-3-14-4-17v-7l11-11 12-14 3-17c0-3-4-7-6-7l-1-1c0-3-1-5-2-3v-1c0-2-1-3-5-7l-6-7c0-3-6-11-8-11l-1-3-5 7c-6 10-6 11-2 15 3 2 3 3 2 4-2 2-2 1-7-5-6-8-10-12-14-13h-3l2-3c2-2 2-3-1-9-2-8-3-12-1-8 2 2 2 2 2-4 2-10 9-22 14-22 3 0 7 4 8 9s4 9 4 6l3-5c4-5 4-7 0-7-3 0-3-1-3-4 0-4 0-4-2-4l-4-2c-3-2-5-1-5 2s0 3-3 3c-5 0-9 2-9 3l-1 3-2 3a612 612 0 00-2 3l-1-1-1-2h-3l-2 1c-1 0-2 0-1 1h2c2 0 2 0 2 2s-2 2-7-1h-3l-4 3-3 2-7-10-11-14c-7-9-8-11-5-15s2-4-1-3m153 22l-4 3c0 2 0 2 2 2h1c-1 2 3 6 6 6s6-2 5-3l1-1 2-2h2c1-2-1-3-5-5-3-2-4-2-10 0m55 26l1 2 1 2c0 1 0 2 1 1l1 1v6c2 2 2 5 1 11 0 8 0 9 2 9l10 1 2-2c3-1 4-1 8 1 5 2 5 2 2-3-2-4-29-30-29-29m-58 41c-10 14-13 19-15 29l-1 9 4-2h-1l-1-1 2-1v-1c-1-1-1-1 1-1s3-5 2-6v-1c2 1 3 0 1-2v-1l1 1 2-2c1-3 3-6 5-7 3-3 4-7 2-7v-1c2-1 2-1 1-2v-1l1-2 2-4 1-2v-2c3-5 0-2-7 7m125 4a149 149 0 005 33c4 21 4 22 6 14v-10l-1-15c0-9 0-11-2-12-2-2-5-8-5-14-2-10-3-8-3 4m-269-9l2 3c2 1 2 1-2 1-5 0-7 2-4 4v2l-1 1c0 2 4 4 5 3l2 1c0 2 1 2 2 1l4-1c4 0 7-4 4-6l-1-2c0-2-8-8-10-8l-1 1m280 67l-3 11h5c3 0 4 1 4 4v7c-1 4 2 11 5 11 5 0 6-19 2-25-2-3-2-4 2-2 2 3 3 2 3 0 0-5-15-10-18-6" fill="#d3d3d3" fill-rule="evenodd"/></svg>