<svg xmlns="http://www.w3.org/2000/svg" width="199" height="300"><path d="M0 150v150h200V0H0v150m171-6c-22 5-18 35 4 35 23 0 25-32 3-35h-7M44 161v18h8c17 0 25-6 25-18 0-11-7-16-22-17H44v17m38-13v31h25v-8H91v-6h16v-8h-9c-7 0-8 0-8-2l1-2 8-1h8v-8H82v4m30 13l1 18h8v-11l1-11 4 11c3 8 5 11 6 11s3-3 6-11l5-11v22h9v-35h-13l-3 8-3 9-1 1-1-1-3-9-3-8h-13v17m60-9c-6 2-8 8-6 13 4 10 18 7 18-3 0-8-6-13-12-10M53 162v9h4c9 0 14-9 8-16-2-3-3-3-7-3h-5v10m-30 32l-4 1-1 2-2 4c-3 5-3 15 1 20 5 9 16 11 24 5 6-4 6-6 1-9-5-2-5-2-6 0-2 3-7 3-9 0-3-3-2-11 0-13s4-3 4-1h1c0-2 2-1 4 1l2 2 3-2 4-2c3 0-1-6-7-9-3-2-11-1-15 1m26 17v19h6c5 0 5-1 5-3 0-7 1-8 2-9l3 4 4 6 13 1 12 1 1-4c1-3 2-4 6-4s4 0 5 4l1 4h6c7 0 7 0 4-6a111 111 0 01-8-25l-2-3c-2-4-2-4-6-4h-5l-7 18-7 18-4-6-3-5 2-4c3-5 3-11 0-14-1-2-2-4-1-5h-2l-2-1-12-1H49v19m77-17c-7 4-11 18-7 24 1 2 1 2-1 2v1l5 3 3 3-1-2c-3-3-3-4 0-4 2-1 2-1-1-1-7 0-7-14 0-21 5-7 18-7 23-1 1 2 1 2-1 4-3 2-4 2-6 1-2-3-7-2-10 1-6 6-2 17 6 17l4-1c1-2 4-2 5-1l1 1c2-1 2 2 0 5l-1 2c2 0 6-6 5-7l-5-3-3-2-2 3c-4 3-6 3-9-1-2-3-3-9-1-12 2-2 8-3 10 0 2 2 2 2 4 0l5-3 2-1-2-2c-5-7-15-9-23-5m21-1c3 0 6 4 6 7l1 2c3 1 8 15 8 21v7h11v-6c0-6 4-16 6-16l1-1c-1-1 4-11 6-14 1-1 0-1-6-1-7 0-8 0-7 2l-1 1-1 1c1 1-2 8-3 8-1 1-4-6-4-7 1-3-3-5-11-5-5 0-7 0-6 1m-46 1c-2 0-2 0-1 2l1 6 4 13 1 4 1 4 1 1c0 4 0 4 4 4s5-1 3-4l-2-5-1-3-1-1c1-1-2-10-3-10l-1-2c0-5-3-10-6-9m51 0l6 12c5 10 6 12 6 17s0 5 3 5c4 1 5 0 5-6 0-4 1-7 4-13l3-8 2-2c3-4 3-5-2-5l-5 1v2c-1 1-2 3-1 4l-1 1-3 8v1c-1 0-3-3-4-8l-4-8-9-1" fill="#d3d3d3" fill-rule="evenodd"/></svg>