<svg xmlns="http://www.w3.org/2000/svg" width="400" height="273"><path d="M0 12c0 9 1 11 2 12l1-1 1-1h2l-4 3c-2-1-2 4-2 45 0 44 0 45 2 45l2 2-2 2c-2 0-2 1-2 43v42h5c4 0 5 0 5 2s0 2-5 2H0v65h401V0H0v12m151 18l1 5 1-1c0-2 2-2 4 0l2 1v-4l1 1c2 3 9 4 9 2h1c2 2 8 1 8 0 0-7-6-9-9-4l-1 2v-2c-1-3-4-4-7-2h-2l-4-1c-4 0-4 0-4 3m176 22c-7 4-8 6-2 6h2l-3 2c-4 4-5 15-1 14l4-1h3l5-1 6-2c5 0 7-1 6-4l1-1 1 1h1l-1-2-1-3h1l1-1h1c1 1 1 1 1-1l-2-4h-2c1 2-1 3-10 2-6 0-6-1-4-2l2-3v-2c1-1 0-1-2-1-1 0-5 1-7 3M56 59c-5 2-6 3-7 10-1 3 1 5 2 2h1l3 3 2 1h-3l-5-1c-2 0-2 0-1 2v1c-4-2-1 11 4 16l3 5c1 2 3 3 3 1h2v1l-1 2c0 2-1 2-5-2-5-4-7-3-3 2l2 4c0 2 11 2 15 1 4-2 4-7 1-6h-2l3-2c4 0 8-6 8-13v-5c-1 1-1 1-1-1l-1-3c-1-1-1-1 1-1 2 1 2 1 2-1s1-2 6-2c2 0 2 0 2-2 0-3 0-3-4-3-3 0-4-1-7-4s-9-7-12-7l-8 2m287 13l-3 1c-4-1-6 1-4 4v1l-2-1c0-3-2-2-2 0l-1 3-1-2c1-3 0-4-1-3l-4 1-2 1c-1 2-2 2-4-1l-1-2v2l2 6 4 6c0 2 1 3 2 2l1 1v1l3 2c2 3 2 4 5 3 5 0 6-1 8-6 1-5 3-7 2-3l1 2c2-2 3-6 2-13 0-6-2-8-3-3-1 2-1 2-1 0l-1-3v1m-95 8c-8 5-11 15-8 22 1 2 2 3 1 4l1 5c1 2 2 5 1 6v1c2-2 6 4 5 7 0 3-1 4-6 6-7 3-8 6-6 13l1 7v3h6c8 0 11-1 11-2 0-4 2-5 8-4 9 2 15 6 16 9l3 6c6 10 7 13 6 19s-1 11 2 17l2 4 1-3 5-11c-1 0 0-3 2-5 3-6 3-5-2-25-3-12-4-15-9-22-4-6-13-11-19-11-4 0-4-1-4-3l-1-3v-3c1-2 2-4 3-3l4-10 2-5v3c0 2 0 2 1 1 2-4 2-9-1-13-3-2-3-3-4-2h-1l-8-8c-4-3-8-2-12 0m-112 5c-6 3-7 5-6 22 1 7 5 12 10 12 2 0 2 0 1 1h-5c-4-2-5-2-5 3 0 4 0 4 2 3h6c3 1 5 1 7-1 4-1 5 0 5 4s-1 4-6 3h-7l-3 2h-2l12 42 2 4 2-7 3-13c1-7 0-32-1-38-1-4-1-4-4-3-4 2-5 1-1-1 3-2 8-10 10-15 0-4-2-4-3-1 0 2-1 1-1-3V87h-4c-3-2-10-3-12-2m214 3c1 2 0 4-1 3v1l-1 1c-1-1-3 2-2 4h-1c-1-1-1-1 0 0l-1 1h-1v1h-1l-1 2v-1h-8c-4-2-4-3-4 1 0 3 0 3 5 3l8-1c4-2 6-2 7 2 1 5-1 6-6 4s-5-2-8 1l-6 2c-2-1-2-1-3 11-1 17 2 45 4 45l5-14 14-34c10-26 9-24 6-29-3-4-5-5-5-3M164 98c0 1 1 2 3 2 3 0 7 4 7 7l1 4c2 1 7 11 6 11l-3 2-4 2c-2 1-2 1-1 2v1c-3 0-2 2 1 3 2 1 3 1 2 4v3l2-3 3-2c2 0 0 5-2 8-3 5-3 6 4 4 6-2 9-6 7-10v-6l1 3 2 4 2 4c0 2 4 9 7 12 2 2 3 3 4 2 3-2 2-3-1-4l-4-3h3c4 4 13-1 13-7 0-3 2-3 3 0 2 3 3 1 2-3-2-4-2-5-3-3-1 1-1 1-1-1 0-3 0-3-2-2-1 1-2 1-2-1-1-1 0-1 2-1 4 0 2-9-3-12-4-3-9-3-10 0l-2 3-4 5c-2 3-1 4 5 4s11 1 10 3c0 1-1 1-3-1h-6l-3-1c-6-1-8-1-8-4l-1-2-1-2c0-5-2-12-4-13s-2-1-2 2c1 5 0 5-2 0-3-10-7-14-14-15-3-1-4 0-4 1m27 3h-4c-2 0-2 0-1 2l6 12v2c1 0 2 0 5-3l6-4c4 0 7-5 5-8-1-1-2 0-4 1l-2 2v-2c0-2 0-2-3 1l-3 4v-3c0-2 0-3-1-2 0 2-2 1-3-1 0-2-1-2-1-1m-142 5c0 4 13 40 16 43l2-5c2-5 3-8 3-18l1-11-4-1c-3-1-5 0-8 1-6 3-6 3-7-4 0-5-3-9-3-5m249 108c-4 1-4 9-1 16 3 5 7 8 8 5 0-1-2-3-3-2v-2h-1c-1 1-2-1-1-3l-1-1c-1-1 0-5 1-5l2 4 3 3c1 0 1-13-1-14-1-1-4-2-6-1m-200 6l1 1v11l1 3c0 3 5 8 7 8s2-2 1-3v-18c-1-3-2-3-6-3l-4 1m72 0c-2 1-1 15 1 15 1 1 1 1-1 2-2 2 0 3 3 1 4-2 5-16 2-18h-5m198 1l-1 5-1 6c-2 5 1 4 4-1 2-5 2-2 0 5s-1 8 2 3l3-2-1 2c-2 2-1 2 4 0 4-2 6-5 5-7l1-2c3-3 1-6-6-8a542 542 0 01-10-1" fill="#d3d3d3" fill-rule="evenodd"/></svg>