<svg xmlns="http://www.w3.org/2000/svg" width="400" height="267"><path d="M271 6c0 10 0 11-5 11l-8 4c-3 3-4 5-1 3h1l-1 2v1l-1 2v1l2 2c0 3 11 4 42 3 28 0 31-1 27-5l-1-4c1-1 0-1-2-1s-2 0-1 1v3c-2 2-4 3-10 3l-11 1-14 1-8 1 2-2 4-2 2-4c0-2 0-3-2-3l-2-2-1-2-1-1c0-2-1-2-4-2l-1-2-1-2c-2 0-2-1-2-6l-1-7c-2 0-2 1-2 6M0 33l1 7 2 7c1 5 1 5-1 4H0v72l1 72 64-29c2-2 3-1 3 12a125 125 0 004 24c0 3 1 4 3 5 3 2 6 0 6-2l-1-8-2-12c-1-6 1-25 2-27l1 7 3 31c1 1 2 2 8 2 9 0 10 1 5 3l-5 4c-2 3-2 10-1 12 1 1 1 2-1 4-3 2-3 2-4 11l1 13 1 10c0 5 0 6-3 7-6 3-5 5 1 5h5v-4c0-8 2-9 2-2v6h4c3 0 4 0 5-4 2-3 2-3 0-5v-1l15 8 5 2c3 0 3 0 3-5 0-10 2-22 3-20l3 3c1 0 2 1 1 3s-3 3-3 0l-2 14v5h13l14-1-1-1-1-1 1-1h3l4-1c1 1 1 1-1 2-7 3-3 3 40 3a227 227 0 0045-1l8 1c8 0 9 0 12-3s6-14 5-18l1-2 1-1v-3l1-2c-1-1 0-4 2-11 0-2 0-2-1-1-2 2-3 1-2-1 1-3 1-3-1-3-2-1-2-1 1-1 2 0 2 0 1-1-2-1-2-1 0-1l2-1c-1-1 1-4 3-4v-1c-2-1-2-1 0-1 2-1 2-1 2-4-1-4-1-4 6 0l5 1 3-1 4-2 1-2-1-4c0-5 0-5 6-1l3 4c-2 3 1 7 4 8l3 2c0 2-17 21-18 20l-5 6-1 1c-2-1 2-8 6-11 6-4 15-15 13-16-1-1-2 0-4 1-2 2-3 3-5 3-1-1-2-1-3 1 0 4-6 8-8 6-2-1-2 0-3 4v8l-1 3v3c0 2 0 2-1 1l-1 1v2l-1 1h-1l3 2c6 1 7 3 4 5l-3 2-6 6-6 5h15l2-6c2-6 2-5 0 3v3h6c6 0 6 0 6-2s0-2 1-1v2l1 1c2 0 2-1 2-4s0-3 3-3l5 2c3 2 4 1 2-2v-1c2 0 2 0 1-1s-2-2-3-1l-2-3-3-5v-9c1-3 1-4 5-4 5-1 5-1 6 10l-1 10v1c3 0 3-5 2-15v-13c-1 1-2-8-2-13 1-4 1-3 1 2 0 7 2 12 2 7v-4l6-1h11c5-1 8 0 4 2v2c-2 0 0 2 3 2 2 0 2 0 1 1l-1 1c2 0 2 1 2 3l-2 9c0 6-2 8-4 6h-7c-3 0-3 5 0 6h6v1l-1 2c1 1 0 2-3 4-4 2-5 2-5 1l-4-1c-6 0-9 3-8 6 1 2 2 2 41 2h40v-15l-8-7a1361 1361 0 00-13-13l9 2 6 1 1 5 3 5 1 1c1 1 1-9 1-21v-23l-4-3c-3-2-5-3-6-2l-5 1c-2-1-2-1-1 1v3c-1 1-1 1 1 2 1 1 0 1-6 1-17-2-17-2-18-6l-2-4c-3-1 2-3 7-2 4 0 4 0 3-1-3-2-3-2 1-4 3-2 3-1 3 2-1 4-1 4 3 5l8 1c2 0 4 0 3-1l-1-1 8 2c4 2 6 1 6-1a5192 5192 0 00-1-155 794 794 0 01-13 5c2 1 2 1-2 1l-29 1c-103 5-96 5-97-5l-1-5-1 5c1 5 0 8-2 7l-5 3c-3 3-3 3-1 5h14c2-1 2-1 2 2v4h6c5 0 6 0 5 1s2 1 10 1c9 0 11 0 10 1v2l-1 1-1-1h-2l-11 2h-11v12l-1 1c-1-1-1 0-1 1l-1 4-1 8c-1 6-1 7 1 6v1c-2 1-2 2-1 2l-2 2-2 4c0 5-2 7-3 4l-1-5c0-5-6-7-7-3l1 1c1-1 3 1 2 3l-2 1-1 2c0 2-1 1-3-2-2-2-2-5-3-15 0-13-1-16-3-10l-1 3v-3l-1 8c0 11 0 11 2 10 2 0 2 0 2 3l-2 4-3 4c0 2-1 3-2 3l1-3c2-3 1-8-1-9l-2-3-2-1c-2 0-2 0 0 1v1l-3 1-1-2v-2l-1 3-1 3-2 4-1 1v1l-1 1-1 2 2-1 2-3c0-2 3-4 5-4l1 2 2 3c1 1 1 2-2 4s-6 2-4 0h-3c-3 0-2 2 0 1v1c-2 2-2 2-1 4 2 3 2 11 0 9l-3 1c0 1-2 2-3 1l-1 1c1 2 0 2-3 4l-6 5 4-2c3-2 18-3 22-1 3 2 3 8 0 7l-7 1c-10 2-12 3-14 2-2-2-14-2-16-1-1 1-1 2 2 3l3 1h-4c-4 0-4 4-1 5 2 1 2 1-1 1l-4 2-1 1-2 2-3 2c-2 0-2 3-1 8v6c-2 2-1 3 1 3 1 0 2 0 1 2l1 1 2 1h-2c-2 0-2 0 0 2 1 1 1 1-1 1-1-1-2 0-3 1-2 7-2 7-2 3l-1-5v-3l-1 2c0 4-1 4-4 0-5-5-3-11 4-12 1-1 1-1-1-1l-3-3-2-3v4c2 2 2 2 0 4-2 3-5 3-6 1s-2-3-5-3l-3-1c0-3-10-7-15-7l-4 1v-5l1-4c2 0 1-5 0-6l-2-5c-4-16-27-14-30 3 0 4 0 5 2 8l3 4c0 2 3 5 4 4l4 2 2 3-3 1-7 6a1380 1380 0 01-13 12c1 2-4 1-7-2-3-4-3-7-2-37 0-5 2-9 2-4 0 2 0 2 2 1 2 0 2-1 2-3 0-1 1-3 3-3l1 2c0 1 0 2 1 1l1-2c-1-2 3-4 4-2s3 1 3-1c-1-1-1-2 1-2 1-1 2-2 2-5 0-6-2-8-5-8h-3c-1-34-2-44-2-27v8h-4c-3 0-3 0-3 2 1 1 0 2-2 3-3 2-4 0-4-5 0-4-4-9-4-5h-1c-1-4-4-6-8-6-7-1-8-5-3-7 2-1 2-1 0-1l-2-2c-2-4-4-1-4 4l2 4v4l-2 4h-4c-3 0-3 0-3-2 0-1 0-2-1-1 0 2-2 1-2-1 1-2 0-7-1-5l-2 1c-2 0-2-5 0-7s1-5-1-4l-4 1c-3 0-3 0-3-4 0-3 0-4-1-3l-2-1 2-1 1-1v-1c3 0 5-3 5-6l2-4c3 0 4-1 2-1-3 0-9-7-7-8 1-1 1-1 3 1s2 2 2-1l-2-7c-1-7-4-9-20-13A592 592 0 011 26l-1 7m55 12l3 4v5l1 1c0-1 0-2 1-1l1-2v-2c1-1 39 8 40 9l1 17c1 14 2 17 3 15l1-5c0-5 0-6-1-2-1 2-1 2-1-1s0-4 1-3l1-12-1-11-22-7-25-8c-5-2-5-1-3 3m324 6l-3 7c-1 4-1 4-3 2-1-2-9-3-9-1l-1 1-3 2-4 1c-4 0-8 2-8 3l13 1h12v9c0 7 0 9 1 7 1-3 1-3 1 2 0 3 0 5 1 4 1-2 2-1 2 3 0 2 0 3-2 3l-1 6c0 6 0 6 3 6l6 3c5 3 7 2 7-2s1-6 5-6c3 0 4 2 4 10v7l-2-2c-3-3-4-2-4 1 0 4 0 4 2 2 3-1 4-1 4 5 0 4 0 4-3 4l-3 1h6v6c-1 6-4 9-7 7l-2-1h-3l1 2 1 2c0 3 2 5 4 5l1-2c-1-2 2-4 5-4l-1 9v1l1 20 1-53a1248 1248 0 00-2-56c0-1-1-2-3-2-2 1-3 0-3-1l-1-1-1-2c0-4-2-10-4-10h-1c0-2-4-1-7 1M111 63c-2 0-2 1-2 9 1 10 1 11 7 11h3l-1-9c0-11-1-13-7-11m208 8a177 177 0 000 34l1-3 2-9 1-10 1-4-1-5c0-2 0-3-1-2l-2-2c-1-1-1-1-1 1m-127 3h-6v7a219 219 0 010 49c1 7 1 7 4 7h2l2 3h-4l-9 1c-2 1-1 1 4 1l6 1 1 2c2 2 0 5-3 5l-2 1c0 2 7 1 9-1l3-2 1-1 1-1 2-1c0-2 0-2-1-1v-1l1-6 1-5c2 0 1-2 0-2h-2l1-2 3-6 4-7 1-2c-2 0-3-5-1-6h1c0 2 5 5 6 4 1-2-1-7-3-7s-2-1-2-28v-3h-7l-13 1m-4 6a698 698 0 001 47c-2 2-1 7 1 7h2c1 3 3 2 4-2l1-6c0-1-1-2-3-2l-3-1v-14c0-17-1-30-2-32s-1-1-1 3m142 2v2c1 1 1 1-1 2l-2 1 2 1c3 1 4 3 1 3v1c1 2 3 1 4-1 0-2 0-2 2-1 1 2 1 2-1 7l-3 6 2-1c0-2 2-3 3-3l4-2h1l3 1 2-1-3-1-2-1 2-1c2 0 1-3-2-4l-6-4-6-4m-67 27v2c-3 2 0 5 5 4 5 0 5 1 5 3l-1 3-1-1h-6l-3 2c-1 1-2 2-1 3v2l5 3c2 1 3 3 2 3l-2-1c-2-3-4-2-4 0-1 3-3 3-3 0 0-2 0-2-1-1l-3 2v-1l-3-1c-6 1-8 3-7 6l-1 2h-2c-2 1-1 3 1 2 3 0 3 0 2 4 0 2 0 3 1 2l4-3c4 0 10-3 12-5 1-1 1-1 1 1l2 2 4 1v-1l-2-3c1-1-1-2-2-3l-2-1h2c3-1 9 1 9 3l1 1 1 2h-1c-1 0-4 2-3 3h1c3-1 10-1 9 1-1 1 1 3 3 3l2-1 2-2c2-1 3-2 3-5 2-7 2-7 5-7 2 1 2 0 1-2 0-2 0-2 1-1 1 2 1 2 1 0l2-3 2-2c1-1 0-2-1-2l-2-2v-3l-1-1c2-4-2-1-4 3-3 6-3 6-6 3-1-2-4-3-5-3s-2 0-1 1c1 0 0 2-2 2v-2l1-4c2-5 0-9-4-6-2 1-2 3-2 4 1 2 1 2-2-1l-4-3-2-2h-6m49 30l-3 6-1 3v2l-1 3-4 6c-2 3-3 5-5 5l-2 2 1 1c2 0 2 0 0 4 0 2-2 5-4 6-4 1-4 5-1 4 2-1 3 0 4 1h4l-3 3c-3 2-3 2-2 3l3 2v-1h1c2 0 2 0 1-1v-1l5 1c3 3 5 3 3 1v-2l3-5a150 150 0 019-21c1-3 3-4 4 0 2 4 11 4 11 0 0-2-6-2-8 0-1 1-1 1-1-1l-1-4c0-2 1-2 4-2s4 0 3-2l-1-2c-7-1-10-2-10-4l-1-1c-2 1-5-1-5-5v-3l-3 2m-75 28l-2 8-1 4h-1l2 3 1 2c0 2 0 2-1 1s-1-1-2 1l-2 1v9c0 2 6 0 10-3 1-2 2-2 3-1s1 1 1-1c-1-1-1-3 1-4l1-12v-9l-4 1-5-1-1 1m82 35l2 17 1-1 4-1 6-2v-2h-2l-2-1c-2-1-2-4 1-6l2-2c-1-1-11-3-12-2m-108 7c-6 4-10 6-9 7l9 6 9 6 6-4 6-4-10-15-11 4m44-2l-5 7c-3 6-5 8-5 5 0-2 0-2-5-2h-6v4c1 2-7 8-11 9l-1 2 3-1c3-1 3-1 3 1l1 1v1l3 4c2 3 3 4 2 6 0 3 5 17 7 17 1-1 1 0 1 1s0 2 1 1l1-1 1-3 2-4h1c1 1 1 1 2-1h1l1 1v-6c-2 0-1-2 1-3a186 186 0 017-1c-2 0-4-2-4-3l2-1 2-2 1-2v-3c-2-2-1-3 1-3v-2l1-1c-1-2 0-2 1-2 2 0 2 0 1-1v-1c2 0 2-3 1-3l1-1c2-1 2-1 0-1s-2 0-1-2l3-2v-5l-3-2h-3c-3-3-7-3-8-1" fill="#d3d3d3" fill-rule="evenodd"/></svg>