<svg xmlns="http://www.w3.org/2000/svg" width="400" height="259"><path d="M329 17l-2 1 2 1h-4c-2 0-3 0-2 2h-1l-1-1-3 4c-3 3-3 3-1 3 2-1 2 0 2 2l-2 3c-2 0-1 4 1 5 3 3 5 3 10 2 6-2 15 2 15 5 0 1 0 2 1 1l1 2c-3 6-3 11-1 13s2 2-6 4c-4 0-4 0-2 2 1 1 1 1-1 1l-2 1h-8l7 3 9-4 6-3v2c1 1 3 0 8-5l7-5c2 1 2-1 3-15 1-6 0-8-7-15-3-3-4-4-6-3h-8l-4 1-1 1-1-1-3-1h-2l2-2c4-2-1-5-6-4M33 35c-9 4-9 5 0 3l3-1-3 1c-2 1-2 2-1 2h-1c-3 0-12 7-10 8v2c-1 0 0 5 2 8h-2l1 7c2 7 2 7 4 4 2-2 2-2-1-5-2-2-2-5 1-4 2 2 4 7 3 7s-1 1 1 1c4 3 5 5 2 5h-3v2l3 1h6c1 3 4 3 4 1s2-4 6-4c3-1 13-9 12-11l2-1c3 0 3-1 1-3s-2-2-1-3c1-2-1-4-3-3l-1-1h-2c-2 0-2 0-1-1 1-2 1-2-1-3l-3-1 2-2c2-2 2-2-4-2-4 0-6 0-6-2l-3-1c0 1-1 1 0 0h-4v-2l2-2c2 0 3-1 3-2l-8 2m327 33c-2 5-13 19-13 18s-1-1-2 1v1c3-1 2 0 0 3l-7 11-5 8v-4c-1-4 0-4 3-6l3-2-2-3c-2-1-3-2-5-1h-5c-2-1-2-1-1 3 1 2 1 2-8 20l-2 4 1-5 2-15c2-8 2-10 0-11l-2-6-2-6-2-3-2-1c-1 1-5 3-6 2l-6 4c-3 3-3 3-3 1v-2c-1 1-9 22-9 25l-4 16-7 22c-1 4-1 5 1 6 1 1 1 1-1 1l-4 2c-1 1-1 1 3 1 5 0 5 0 5 3s4 6 13 11c6 3 4 11-3 10-2 0-2 0-1 1 2 2 1 4-1 3h-5l-2-3-1 3v30l6-17c0-3 6-11 7-10 2 2 1 19-1 38-2 16-2 19 1 28l1 6v4h49c55 0 53 0 52-7a489 489 0 01-3-52c-2-15-4-43-2-44 2-3 8-20 8-24l1-11 1 20 1 27v-68l-6-6c-5-5-6-6-7-5-2 1-14-7-14-9l-1-1h-2c-2-1-2-1-1-2h2l2 1c1 0 1-1-1-2l-4-2-1-1v-1l-3-3c-3-5-3-5-5-1M78 74l-1 1c-1-1-1 0-1 1l-1 5c-1 1-2 4-1 5 0 4-5 6-12 7h-5l3 2 2 2c-1 2 3 1 5-2l2-2v10h-1l-7-2h-8c1 1 2 2 5 2l1 4 2 10c2 9 1 8-8-6a263 263 0 00-22-30l-4-6-5 8h-1v1l-1 1c-1-1-1-1 0 0l-1 1c-1-1-1-1 0 0l-1 1c-1-1-1-1 0 0l-2 2v2h-2l-2 1v3l-1 4v1l-1 1H9c1 1 1 1-3 1-2 1-5 6-5 9 0 2 1 3 2 3v1c-3 0-3 60-1 64 3 3 8 15 9 19l-1 7-2 4-2 9-1 8-1-16-2-22c-2-5-2-3-2 33 0 37 0 38 2 38s2-1 2-3c0-4 2-6 2-3l3 3 3 2 45 1h43v-11c2 1 0-12-5-42v-7l1-1-9-4-1 2-2 4c-1 1-1 1-1-7v-12c-1-4-1-4 1-4 3 0 5-3 5-7l2-11 2-7 5 1 8 1c9 2 13 2 13 0s1-2 6-2h7v-9c0-7 0-9-1-8l-2-1c-3-2-16-3-20-2h-2l2-1 2-1-2-1-6-1-4-1v-1l-3-1c-4 1-4 0-4-7-1-14-7-40-11-43-2-2-5-3-3-1m114 22a3749 3749 0 00-31 36c3 2-1 4-6 4l-4 1-4 3c-5 2-6 3-3 4 1 1 1 1-1 3-4 2-6 1-6-1-1-2-1-2-1 0 0 4 2 5 11 6l11 2c23 9 65 9 80 0l5-2c1 0 2-1 1-2h3v-2h-2l1-2c1-2 2-2 4 2 3 4 4 4 8 4 5 0 6 1-15-20a453 453 0 01-31-32c-12-11-14-11-20-4m-83 85l2 1c2 0 2 0 1 1l-5 5-3 5c-2 3-3 4-1 4 2 1 4 0 4-2h2c3 0 4-3 1-5l-2-2 4 1c4 0 6-2 2-5v-1c1 1 2 0 2-1l-2-2c-4-1-5-1-5 1" fill="#d3d3d3" fill-rule="evenodd"/></svg>