<svg xmlns="http://www.w3.org/2000/svg" width="400" height="266"><path d="M0 9v9l4 2 5 4h4l5-3 6-2c0-2 2-3 4-3 4-2 5-3 6-8 0-5-1-6-5-5l-2-1c0-2-2-2-13-2H0v9m127-8l3 1 1 1 2 1c1 0 5 4 4 5l8 1 7-1-1-2-3-1c-3-1-4-3-1-4h2l1-1-12-1-11 1m117 0l1 1v4c-3 0-4 3-2 5s2 2 2 0l7-1c6 0 7 1 7 2 0 3-2 4-6 4l-4 1c-1 1 0 1 2 1l3 1h3l1 1-1 1-2 1c0 1-1 2-2 1v1c1 1 2 2 5 2l6-1 4-2c2-2 2-2 6 0 7 3 15 1 15-4l-1-3v-3l1-1h-2c-2 3-7 3-7 1 1-1 1-1-1-1h-2l2-1 4-1h-5c-6 0-6-3 0-3 2 0 2 0 1-1s-1-1 2-1c5 1 6-1 2-1l-3-2 1-1h2c1-1-7-1-20-1s-21 0-19 1m124 0c0 1 1 2 2 1l4 1c2 1 2 1 0 1l-2 2h-1c0-1-1-1-3 1-5 2-4 2-3 3l1 3c-1 1 0 2 2 2l4 3c0 1 1 2 6 3l7 2c2 2 2 2 3 0l2-1 5-3 5-2V0h-16l-16 1m-234 9l-2 1-3 1-4 1c-3 0-3 0-1 2 1 1 1 1-4 1-12 0-12 0-12 3 0 4 0 4 8 6l7 2h6l-1 1-2 1h2l1 1 2 1c2 1 2 0 2-1l1-1-1-1c-3-2-3-4 0-2 2 0 3-2 1-4l-1-1 3-1 3 2 1 1 1-1v-1l1 1c1 2 5 1 5 0l2-1h4v-1c-2 0-2 0 0-2l3-1c1 1 2-1 1-4l-4-2c-2 0-3 1 0 3v3l-2-1-6-1c-5 1-6 0-7-1l-2-1v-1l-1-2h-1m141 25c0 3 3 7 5 7l2 2c11 9 13 5 3-5-7-6-10-8-10-4M85 64v5l2 1h2l4-1 3-3h2l1-2 1-3H85v3m62-2c-1 2 0 4 2 3h1l3 1 3 1h1l5-1 6-1c1-2 2-2 3-1h2l1-1c2 0 2 0 1-1h-28M90 74l-5 1 9 9 2 2c1 2 1 2-11 1-12 0-13 0-13 2l-3 2-2 1 2 1h4c2-2 2-2 4-1 3 2 4 4 2 3l-2 1v1l6 3c6 2 12 3 6 0-3-2-3-2-1-3v-1l-2 1c-1 2-4 1-5-2v-2h1l1-1h4l3-1h-3l-2-1 4-1c10 1 21 0 20-1h-4c-4 1-10-4-7-6v-2l1-2c0-2-2-5-4-5l-5 1m85 13l-17 1-13 1 2 1-2 1h-5l-4 1c2 1 27 0 29-1 1-2 8-3 6-1h-1l-1 1 5 1c4 0 5 0 4-2h1l2-1-2-1-3-1h-1m53 0l-2 1c-2 1-1 1 2 1s3 0 2 1h-3l-1 1c0 2 0 2 2 1s20 0 22 1h1l5-1h12c4 0 5 0 4-1l-9-1-7-1-2-1c-2 0-2 0 0 1 1 1 1 1-2 1l-3-1-3-1c-2 0-2 0 0 1l1 1h-11l-4-1-1-1-2-1h-1m99 9l-1 1h-1l-1 1-5 1c-5 2-7 3-5 0v-1l-3 1 1 1-1 3c-1 1 2 1 24 1 19 0 26 0 25 1l-6 1h-6c1 1-3 1-9 1h-11l-7 1c-5 0-6 0-4-1s-1-1-8-1l-11 1-1 1-1-1c1-1-19-2-22 0h-5l-1 3v4h-6c-6 0-6-1-7-3-1-5-5-5-37-4h-55l-7-1c-6 1-6 1-6 4s-3 4-9 3c-3 0-4-1-4-3-1-4-3-4-50-4-50 0-54 0-55 4 0 3-3 4-10 3-3 0-3 0-3-3s-2-4-12-5H0v7c0 9 0 9 4 6s8-3 12 2c5 5 7 5 11 1 4-5 6-5 6-2 1 3 6 4 9 2h1c0 2 5 3 9 1l3-1v46H41l-13 1h-1l-2-1c-2 0-3-3-3-7 0-5-3-3-4 2l-1 5H0v10c0 11 1 12 8 10 2 0 3-1 1-1s-2-3 1-7l3-2v3c0 2 0 3 2 3v2c3 1-1 3-8 4l-7 1v6c1 5 3 10 3 6 0-2 3-4 4-2 0 2 4 1 4-1l1 1c1 2 3 3 4 1 0-2 2-2 6-2 6 0 9-1 7-2h-4c-6 1-6-7-1-10 4-3 5-2 3 2-1 1 1 4 3 5l4 1c3 1 6 1 6-1h-1l-1-1 1-1 3-1v1c-1 1 0 4 1 3v-1l1-2h1l1 2 1-1 3-1c2 0 2 0 1-1v-1h2l1-1h1v1c0 1 1 1 4-1l6-1h2l-3-1h-2l2-1h6c1-2 4-3 4-1l2-1 4-1c2 1 3 0 3-1l2-1 2-1v1l1 3-3 2a59363 59363 0 00-29 8h-4l2 3c3 1 3 2 2 4l1 5 3 6c0 4 0 4 3 3s3-1 3 1c-1 3 2 3 5 0l1-5c-1-4 1-4 2 0s3 3 3-1l1-3v3c1 3 3 4 3 2 0-1 5-2 7-1v4l-12 6 2 1h2c0 2-4 10-5 9v1l-3 1-3-1-2-1c-3 0-4-2-2-3 1-1-2-1-6-1-7 0-7 0-7 2l-1 4-5 16 6 1c8 0 11-2 9-5v-2l2 2c1 5 5 7 5 2l1-3 1-3c1-5 5 0 4 7 0 4 0 4 8 4l5-1c-1-1 1-1 6-1s8 0 9-2h3c1 3 4 3 3 0l1-2 2-1-1-1v-2c2-4 2-4 4 0v5c-1 3-1 3 1 3v1l-1 2c0 2 5 3 7 2 3-3 19-3 23 0 4 2 6 5 6 8s0 3 4 3 4 0 4-4l2-6c2-1 2-2 1-4s-1-2 3-2 4 0 4-3v-3h7c7 0 8 0 9 2v3l1-3 1-2v2c0 2 0 2 1 1s1-1 1 1l2 2 1-4c0-5 2-8 4-5l1 5c0 4 1 5 3 3 2-3 7-2 7 0l1 1 1-3c0-2 1-3 4-3 5-1 5-1 1 3l-5 5c-2 2-2 5 0 6s8-1 8-3l1-1c1 0 1 5-1 10 0 2 0 2 5 2s6 0 5-1c0-2 2-3 12-3 8-1 9-2 6-3-5-2-12-1-18 2s-7 2-5-2c3-5 18-7 27-3 6 2 6 2 7 0 1-1 0-2-1-4l-2-3h6c7 0 8-1 9-5l-1-3-2-1c-1-1 0-1 2-1 3 0 3 0 2 4 0 4 0 4 1 3v-9c-1-7-1-9 1-11 2-3 8-4 14-3 5 1 5 2 4-4 0-4-1-5-2-6l-2-2h-1c-2 1-4-1-4-4 1-2 0-4-1-5l-1-3v-1l-3-2c-2-1-5-1-6 1h1c2-2 3-1 3 1v1c3-1 2 1 0 2-4 2-4 3-2 6s2 3-1 4c-1 1-2 1-2-1l-2-2-6-5-9-8-8-7c-5-6-11-11-12-9l-13 1-12 1h-1l-16-1c-13 0-14 0-14-2-1-2-7-3-7-1h-5l-2 1v1h-5l-3-1 4-2c2 0 3-1 1-1s-4-2-2-2c2-2 1-3-2-3h-2c1-1 0-1-1-1l-4 2c-1 1-2 2-4 0-2-1-5-1-5 1h-2c-3 0-3 0-3 2s-2 4-3 2c0-2-4-1-4 1 0 1-2 1-3-1l-3-1c-3 1-6-2-4-3s1-4 0-4l-2 1-2-1c-2-3-2-2-2 3l-1 5h2l4-1c2 1-1 4-4 4h-2l-18 5 1-2 2-3 1-1v2c0 2 0 2 1 1l5-2c4-1 8-3 6-4v-3c0-2 0-3-3-3-3-1-5 1-4 2 0 2-6 2-8 1h-3c-1 2-2 0-1-8l1-14c1 0 2-1 2-3l-1-3-1 2c0 2 0 2-1 0-1-4-1-5 2-4l1-5-1-5-1 1h-1c-1-1-1 0-1 3v31H70l1-20c0-23 0-24 3-24 1 0 4-1 5-3l5-2c2 0 3-1 3-2l4-1c3 0 4 0 2 1-1 0-2 1-2 26l1 25c2 0 3-4 3-23l-1-16 4 1c3 0 3 0 3-3s0-3 1-2 1 1 1-1c0-3 0-3 1-2h1c0-4 9-6 14-2l2 5c0 4 1 5 9 5h7v-6c0-5 0-6 2-6l10 5c1 1 5 0 9-3 5-3 7-3 13 0 5 3 6 3 9 2l3-2c0-1 5-3 8-3l7 3c2 2 8 2 11 0 6-4 11-3 16 2 5 4 5 4 11 0 5-5 11-3 15 3 3 5 5 5 9-1 6-8 11-8 11 1v5h15v-3c0-10 16-13 16-3v4l1-4 1-2 1-1c1-2 1-1 1 3 0 5 0 6 2 6 1 0 2-1 1-3 0-2 1-3 3-5s2-3 0-3l-2-1-3-1 6-1 8 1h2l6 3 5 3c3 0 3 2 3 25l1 21h-6c-9 0-10 0-10-6l-1-4v5l-1 6h-4c-3 0-3 0-1 1 3 1 2 3-1 2-3 0-3 0-3 4 0 5 3 10 5 8h1l1 1h3c2 2 2-1 1-4l-1-2c1-1 7-2 8-1h2l1 1-4 1c-2 0-3 0-3 3-1 4 0 5 3 5 3-1 5-5 3-7l1-1 1-2-1-2h-1c-1-3 1-3 2-1h5l2 1 2-1h1l2 1c3-1 5 0 3 1-1 1-1 1 1 1l1 3 1 3 1-1c0-2 2-1 2 1 1 2 1 2-2 2-3-1-3 0-4 2 0 2 0 1-3-3-1-3-3-5-4-5-1 1-1 0-1-1 0-2 0-2-4-1-2 1-2 1-1 5l1 5 1 2h3l2 1 3 1h3l1 1h1c0-2 3-1 5 1 2 3 5 2 7-3 0-2 1-3 3-4 3-1 4-4 1-5v-2h2l2 1 1-1c0-2 3-1 3 1 1 1 6 2 6 0l1-1c1 1-1 5-3 5-3 0-4 3-1 3 6 2 7 4 2 12-1 2-1 2 1 1 2 0 7 2 6 3l1 1 1-1 3-1c1 0 2 0 1 1-3 0-2 2 1 2l3-1 2-1c2 0 3-6 1-8v-1c2 0 2-1 2-3s0-3-1-1c0 2-3 4-3 2s-3 1-5 5c-1 2-1 3-2 2l-3-1c-2 1-2 1 0-4 2-4 4-5 4-2h2c4-2 5-4 5-6-1-4 0-8 1-8l1 4 1-7c0-6 0-10-1-9l-24 1h-23v-47c0-2 3-1 5 1h5c3-2 3-2 3 0l4 1c3 0 4 0 4-2 0-5 1-5 6-3l4 4c0 2 6 1 9-2 4-3 6-4 7-2 1 1 1-2 1-6 0-5 0-8-1-7h-3l2-1c1-1 2-2 1-5 0-4 0-4-4-4s-6 2-3 4c2 2 0 6-3 6s-3 1-3 4v5h-7c-6 0-6-1-7-3 0-3-1-4-6-4-6-2-6-4-2-8l3-3h-4l-5 1-3 1c-2 0-2 0-1 3l2 2h-39l6-4 5-3h-2M61 130c-2 0-2 1-2 11v10h3c4 0 4-1 4-12 0-7 0-9-2-9l-1-1-2 1m283 0c-2 0-2 1-2 10l1 11h3c3 0 3-1 3-3v-10c0-8-1-9-5-8m-97 34l-1 3-1-1c1-2 0-2-1-2-2 0-2 0-1 3v6c0 3 1 4 4 5 4 2 2 4-5 3-5 0-5 2 1 2 5 1 6 1 5-1l1-1h3l8 3 6 4 4 1c2 1 3 1 2 3 0 2 0 2 2 2l2 1c-1 1 0 1 1 1l1-1v-1l1 1 2 1v1c-1 1-1 1 1 2l2 1 2 1h3l-3-2-2-2h3c4 0 4 1 3 4-1 2-1 2 2 2l4-1-3 2-1 2 2 1c-1 1 2 2 3 0h7v5l2 2c0 1 0 2 5 2 4 1 4 1 1 1-2 0-3 0-1 1l3 1h3l6 2h3c1-3 10 3 10 8l1 2c1 1 3-2 4-9v-6l-3 1c-2 1-3 1-4-1l-2-2 2 1 2-1v-1l1-3 2-4 1-3c0-2 2-4 5-5 3 0 2-1-7-4l-11-4-3-1-6-1-4-2-10-2c-8-3-11-3-7-1 3 2 3 3-1 3a209 209 0 00-5-2l4-4 1-1-2-1-1-2c1-2-3-9-6-10l-2-2h-3c-1 1-1 0-1-1 0-3-3-3-4 0l-3 2-1 2 2 2 1 2-3 9-1-1c1-1-4-5-6-4l-1-1-3-1c-2 0-3 0-5-2l-3-1-1-1-1-1-2-4c-2-5-3-5-3 0m49 6v3l1 2v3c1 2 2 3 4 3h5l2 2c1 1 1 1 1-1l-1-4v-2l1-2h-1c-1 1-2 0-3-2l-3-2-4-1-2 1m-155 9v4l1 1-1 1-4 1h-4v1c1 1 1 1-1 1h-3c0 2-6 4-7 4-1-1-6 1-6 2 0 2 3 4 3 3l2-1c1 1 1 2-1 2-1 1-1 1 1 1v1c-2 1-5 0-4-1h-7l-5 2c1 1 0 1-2 1-5 0-6 1-5 3v4l-1 2c-3 2-2 5 3 6 5 0 6 2 6 5 0 4 3 8 7 7 4 0 4 0 5 5l3 4 8-4h9c1 1 2 1 2-2l1-5 1-2-2 2c-2 2-3 3-6 3-4 0-4 0-6-4s-2-4-7-2l-2-1 2-2c3-1 1-2-6-4-3-1-3-1-1-2l7-4a1054 1054 0 0139-29l-4-1h-3c-1-2-1-2-1 0h-2l-2-1c0-2-6-3-7-1m48 5c-3 0-6 6-3 7 1 1 1 1-2 2-4 0-4 2 0 2 2 0 2 0 0 1l-3 1-2 1c-1 1-1 1 3 1s4 1-2 1l-5 1 1 1 4 2 5 1h-5c-5 0-5 0-5 2l1 3h-1l-2 4h12l-5 1-6 1 2 1 4 1 2 1 1 1 2 1v1c-2 0-2 1-1 1l-1 1v4l1 2h1v4l1 4c1 1 1 1-1 1l-3 1c0 1 3 2 4 1l2 2c0 2 1 1 1-3v-8c-2-1 1-7 4-9l8-1c9 1 10 1 11 7 0 5 0 5 3 4l2 1 1 1c1-2 3-2 3 0l1-8v-11c-1 0 3-4 5-4l3-1c3-2 1-3-3-2h-7l2-1c3 0 8 0 6-1v-3c1-3 1-3-1-2-2 0-2 0-1-1l4-2 2-1-4-1-3 1-3 1c-3 0 2-4 5-4s3 0 1-1h-6v-2c-3 0 0-3 2-3s2 0 1-1l-1-1h4l1-1c-1-1-3-2-12-2h-11l3 4 3 5-1 2-1 2h5l-1 1-2 2-1 3c-1 1 1 5 2 5l1 1 1 2 1 3v1c-1-2-2-2-2-1h-5l-5 1h-8l-6-1c-2 0-4 0-3-1l-1-1c-3 0-2-3 1-6 1-2 2-4 1-5l1-5 2-3c-1-1 1-5 3-7s2-2 0-2h-5M42 197a4394 4394 0 01-30 10c3 0 3 4-1 5-3 1-3 1-3 3v3l-2 3-2 4H3l-1-2v1l-1 1-1 21v20h20l-1-5c0-4 0-5 2-7 3-3 12-4 18-3s7 1 6-1-3-2-8-2c-8 0-8 0-8-7 0-5-1-6-3-6l-5-1c-1-1-1-1 1-1h1l2-1c3 0 3 0 2-4l-2-7c-2-6-1-10 4-10 3 0 4 2 5 8 1 12 2 14 6 14s4 0 4-3v-2l1 2 2 3 4-4c0-2 2-4 8-7s6-4 3-4l-3-1-3-4-3-3-3-1-3-5c0-1 3-4 5-4l2-1-3-1c-2 0-2 0-1-1 2-2 1-2-8 0m308 3l1 4-1 4c0 1-1 2-4 2l-4 1c0 2 0 2 2 1 6-3 7 2 4 12-1 7-1 9 1 4 3-5 5-17 4-21-1-3 0-4 2-2 2 3 0 11-6 31l1 4 1 2 2 1c3-1 4-3 1-3l1-1h6c2 2 3 3 0 3l-3 1c-1 1-2 2-5 1-4 0-4 0-3 1l3 2v2c2 3 0 5-2 4h-2l2 2 2 2 2 3 1 4c0 1 1 2 3 2l2-2c0-7 18-12 29-7l7 2h3v-16c0-17-1-18-6-18-2 0-4-2-4-3h3c1-1 2-2 3-1 2 0 2 0 0-2l-6-4c-2 0-2-1-2-3a1352 1352 0 01-38-12m-208 20l2 2 1 3 2 1c1-1 2 2 0 4l-1 3c0 2 0 2 3 2 4 0 4 0 4-4l1-5c1-2-1-3-4-2-2 1-2 1-2-1l2-2c3 0 3-2 0-2-6-2-9-1-8 1m149 15c-2 13-1 14 7 14 6 0 10-2 8-4l-1-6v-1c0-2 0-2 2-2v1c-1 1-1 1 1 2 4 0 3 2 0 3l-1 1h1l1 2c-1 2 1 4 3 4l2-4 2-4c2 0 4 4 4 7l9 1 8-1c0-4-4-15-4-12 0 1-1 1-1-3-1-5-1-5-1-2l-2 2-4-1c-3 0-4 0-5 3 0 2-1 3-2 3l-4-1-3-2-7 1c-1 3-2 1-2-3 0-5-1-6-6-6h-4l-1 8m72-2c0 1 0 2-1 1 0-2-7-1-9 1-1 1 1 1 7 1 2 0 3 0 2 1l1 2 2 1h3l6-2c6 0 4-4-2-5l-6-1c-3-1-3-1-3 1" fill="#d3d3d3" fill-rule="evenodd"/></svg>