<svg xmlns="http://www.w3.org/2000/svg" width="400" height="286"><path d="M0 74v73a272 272 0 0061-47 273 273 0 01-55 47v2l2-1c2-2 4-1 5 3 0 2 1 3 4 2l3-3-2-1h-2c-1-1 0-1 3-1 2 0 5-2 5-4h3l-1 1-1 2 1 1 1 1-1 1c-2-1-4 1-3 2h8c3 2 4 0 2-3v-6l2 2c3 3 10 3 9 0l1-1 1 2v2l1 1 1 2 1-1v-2l1 1c0 2 2 1 3-1 0-2 9-10 10-10l1-2c-1-1 0-2 1-2s2 0 2-2l1-1h2l3-1h1l3-1 2 1v1c1 0 3-5 2-6l1-1c2 1 2 0 0-2v-2l1-1 1-2c1-1 1-1 1 1v2l1-2c1-2 1-2 2 1l1 4 2-4 3-3c1 0 2 0 1-1l1-2c1-1 2 0 2 2l1 3 1-4c2-3 2-3 0-3h-1c1-3 4-2 5 1 1 2 2 1 1-1l2-1c2 1 3 1 4-1h2l2-1c-2-5-2-5 0-5s3 0 2-2l1-2 1 4c-1 2 0 2 1 2l2-1-1-1v-3c0-2 3 1 3 3s1 1 2-2l2-4 1 6 2 7v2l-1 2 1 1 3 2c1 1 1 1 1-2v-4c-4-1 0-9 4-9 2 0 4 4 3 5-1 0-1 3 1 4h1c0-2 1-2 2-2h1c0-2 2-1 2 1 1 1 1 1 1-1l2-3c2 0 3-2 3-2 1-2 2-2 4-1h5c0-1 0-2 1-1l1 1v1h1c0-1 0-2 1-1l1-1v-2l1 3c0 2 0 2 1 0l1-2h3c1-1 3 1 5 4h1l1-2h3c2-1 4 1 2 3l1 1 1-2v-2l2 2 2 5 1 2 1-2c0-3 0-3 4-3s6-2 5-5c0-1 4-3 5-2s1 1-1 1c-1 0-2 1-2 5 1 5 3 9 3 4 0-4 2-4 5 0 3 3 6 3 4 0-2-2-2-2-1-4l2-4v-1l-1-1c-1 1-3 0-4-1v-1l2-1-1-1h-3l4-1c3 0 3 0 2 2-2 2-2 2 0 2l2-1v-1c1-1 2 1 1 4l2 11 1-6c0-5 0-5 2-4l5 1h3l-4 4c-5 4-5 5 2 5l6-1-3-1c-2 0-2 0-1-1v-1l2-3c2-2 4-5 4-8 2-3 2-3 3-1l1 2c2 0 1 2-1 2s-3 1-3 6v6h6l6-1-2-1-3-1h-4c0-2 1-2 4-2l4-1-5-1-3-1 4-1c3 0 4-1 5-2 0-1 6-4 9-4l3 2c2 2 3 3 12 3h10l2 1 3-1 5 1c3 3 3 3 6 1 3-1 4-1 4 1l1 2 4 1h3c0-2 2-1 2 1 0 3 0 4 2 4h1l1 2c0 2-1 2-2 2-3-1-2 0 2 3l2 2c-1 0 0 5 2 5l1-2c0-2 1-1 1 1s0 2-2 2-2 1-2 3 0 3 3 3c6 0 9 5 5 7-1 1-1 1 1 3l3 2-1-2c-2-2-1-3 1-1l2 1a39 39 0 011-4l2-1 1-1v-2l2-2 1 1v5c0 4 0 4 1 2l1-3 2 2v3c-1 1-1 2 1 5s2 4 1 4c-2 0-2 0-1 3 1 2 3 2 3-1-1-1 0-2 2-1v-2l1-3 1 3 1 1 1 2 3 1c4-1 6 0 5 2l1 1h1l-1 1 1 3 2 3v-3l1-2v-1c-1-1-1-1 1-1l2 1c-1 2 0 3 1 2h1l-1 2c-1 1-1 2 1 3 2 3 2 3 3 2 1-3 3-1 3 2-1 1-1 2 1 1l2 1v1l1-1 2-2h2c1-1 1-1 2 1l-1 3-2 2h-10c-1 1-2 0-3-1h-1l2 3c1 1 1 2-9 2l-10 1v32l-4-3c-4-4-10-5-14-2-3 2-12 1-12-2 0-6-9-12-15-9-4 2-7 5-7 9 0 1-1 2-6 2l-8 1c-3-1-3-1-3 2l-1 4v1l-1 1-3 4c-2 4-4 4-3 1 4-11 6-30 3-32l-1-2c1-4-3-12-7-16-6-4-11-2-14 5-3 5-3 17-1 18v1c0 2 2 4 5 3 3 0 4-3 3-6s-1-3 2-3c2 0 2 0 0-1-6-1-7-2-6-8l1-6c0-2 4-1 5 1l3 1c1 0 3 8 2 9-2 2-1 8 0 8l2-1h1c0 1 1 2 3 2s2 0 1 4l-1 6-3 9c-1 6-3 9-6 8l-2 2h-1c0-1-1-2-4-1-4 1-6 4-4 4s5 10 3 11v2c0 3-2 3-3 1-3-4-3-1 0 3s3 6 2 7c0 2-1 2-4-3l-7-7c-3-2-3-3-1-3s2-3 0-3v1l-2 1-3-1v-6l1-6c0-3 0-3 2-3 1 1 2 1 1-1 0-2 1-3 3 0 3 3 5 1 5-5v-6l-9 1c-14 0-22 2-24 4l-2 1c-1 0-2 3-2 7l-1 3c-1 1-2-9-1-10v-1h-5c-3 1-3 1-4-3-1-6-7-9-7-3 0 2 0 2-2 1l-7-1c-10 0-10 0-10-8s0-8-3-9l-3-2v3l-2 7-2 3 3 7 3 7c-1 0-13-3-16-5l-2-4-1-2h-2l-4 3c-4 4-9 5-9 1l-1-1-18 1c-19 0-20 0-21 6 0 4 1 7 4 8 3 2 3 5 0 7l-2 3-1 2c-1 2 1 5 3 4l2 1c1 1 0 1-1 1l-4 2-1 1-1-1c1-2-2-4-4-3l-1 3c0 3 0 3-2 2h-2c-1 1-12 2-17 1h-6c-2 2-3-1-2-8 1-9 3-12 7-14l3-2 4-1c3 0 4 0 5-2l1-2c2-1 3-28 2-29l-7-1-7-1h8l8-1-48-1H0v33a290 290 0 002 35c-2 1-2 5-2 17v16h151a1606 1606 0 00153-1 327 327 0 0072-1c1 2 3 2 13 2h12v-49c0-57 0-56-5-56l-3-1h3c2 0 3 0 3-3l-1-3v-1h1l1-2 1-87V0H0v74m198-32c13 7 58 17 79 17 17 0 10-2-7-2-21-1-40-5-62-13-9-3-13-4-10-2m121 39a233 233 0 0060 22l21 2-4-1c-14 0-48-10-69-21-7-3-8-3-8-2M48 223l2 4 1 11c-1 9 0 10 5 10 5 1 5 0 5-9-1-9-4-14-8-14l-2-1-1-2-2 1m39 44l-1 1c-1-1-3 0-5 1l-5 3c-2 0-1 1 2 4l2 5c0 3 1 4 4 3 2 0 2-1 2-2-1-1 0-2 1-3l3-2 2-4v-2l-3-3c0-3-2-4-2-1" fill="#d3d3d3" fill-rule="evenodd"/></svg>