<svg xmlns="http://www.w3.org/2000/svg" width="200" height="300"><path d="M96 31h-2l-2 1a85 85 0 002 25v7l1-1 2-1c2 1 6-5 4-5v-2c1-2 0-17-2-23 0-2-3-3-3-1m10 3l1 20v4l1 2-1 1h-1l1 3 1-1 3-1 2 1v1l2-2V51c1-6-2-15-5-15l-2-2h-2m-28 4c-1 1 1 16 1 17l1-2 3-3 2 7c0 2 2 4 2 2v-4l-1-8c-2-10-2-10-4-9h-4M64 51c-1 2 1 15 2 21 2 5 3 6 4 2l3-2 1-2-1-3v-1c2-4-1-15-4-14l-2-1h-3m78 14l-2 3c-3 0-6 5-6 11l-2 5-2 3c-1 2-1 3 1 4 3 2 1 6-5 9l-5 4-1 1-2 2-1 2-3 1-3 2-1 1c1 2-5 7-7 7v2c0 2 0 2-2 2l-2 1-7 1c-5 0-6-1-9-4-8-8-11-15-13-26l-1-4c-4 2 3 30 10 39l2 4 1 1 1 15v37c0 19 0 22-2 33l-4 34a657 657 0 01-2 43v2h49l1-4c1-6 2-23 1-25l-2-25c-1-20-1-25-4-31l-5-35c0-6 0-7 2-7 4-1 4-9 0-9-3 0-3 0-3-13l-2-15c0-2 1-2 4-4 4-1 8-7 12-15l4-7c2-1 6-9 6-11l2-8 3-14 2-9c0-3-2-5-3-3" fill="#d3d3d3" fill-rule="evenodd"/></svg>