<svg xmlns="http://www.w3.org/2000/svg" width="400" height="267"><path d="M0 134v133h19v-3c0-8-3-33-5-39-2-8-2-9-1-16 2-5 7-10 12-13 2-1 2-2 2-4l-3-26a548 548 0 00-8-74A5080 5080 0 002 0H0v134M30 4a1981 1981 0 011 149l-1 19-1 19c-1 3-1 3 1 3 3-2 12-3 17-3h7l-9 1c-13 3-19 9-17 17v4l-1 5-1 7c-1 1-1 1 1 1l1 2v9l1 5 1 3v4l1 1v2l1 4v11h30a142 142 0 0032-1l34 1h34l12-11c10-9 12-12 10-12-1-1-1-1 2-2l3-3h3l5-2c3-2 6-2 21-3 19-1 23-2 9-2-9 0-11-1-6-3l2-2c0-2 9-7 11-7 3 0 3 0 2-1-3-1-4-1 22-2 14 0 23-1 24-2h-6l-6-1 3-1 4-1c1-2-1-2-14-2-12 0-15 0-14-1 2-3 1-10-2-8l-5-3c-8-8-14-12-10-6 2 2 2 5 1 4l-2 1-2 1v-2c2 0 2-1 1-1l-1-1c1-1-1-6-2-6-2 0-2 0 0-2h4l3-4a183 183 0 0023-26h2c1-1 0-2-1-3-3-1-5 0-3 2 1 2-1 1-4-2l-4-5c0-1-6-1-7 1 0 2-1 2-3 1h-4l-7 3c-4 1-5 2-5 3 0 3 5 4 9 3 3-1 8-1 8 1l-2 4c-2 1-4 5-5 9-2 8-4 10-6 7-1-2-3-3-5-3l-6-3c-4-3-4-4 1-2 4 3 4 2-1-5-3-5-5-6-11-10-8-4-15-10-15-13l-1-1v-1l2-1c2 1 7-12 5-14-3-2-4-6-3-6l1-1v-1l2 1 1 1-1-3-3-5c0-2-2 0-3 4l-2 4v-1c1-2 2-6 1-9s0-6 2-3h1l1-2c0-3-2-2-5 0l-3 1-3-1c-3 1-3 1-3-2 1-3 0-3-2-1l-2 1v2c-1 3 0 3 3 4l4 2c0 1-3 3-5 3l-3 2c-3 3-2 5 0 3 3-4 10 1 10 6s-20 1-23-5l-3-2-1-2v-14c-2-5-3-5-6 1-3 5 0 16 3 15s2 1 0 2c-2 2-2 4 2 8l2 5 2 4 1 2 1 3v2l-1 1v1l-1-2v-1h-1v-2l-2-1c-2-1-2-1-2 1l-1 2-1-3-3-3c-3-2-4-1-2 1l1 1h-2l-2-3c0-2-3-4-9-8-8-5-11-7-11-12V93c2-10 2-22 0-46l-3-36V0H98l1 12 2 23 1 31 4 70 7-1 6-2 1-5c2-7 4-8 3 0l2 2 1 2 1 2v7c-1 1-1 1-1-1v-2l-1 2c0 2-2 3-4 4-4 1-6 3-6 7l-1 2-3 2-4 2c-2 0-6 6-5 9 0 2-2 5-3 4l-2 15c-1 5-4 14-8 19-2 3-3 5-1 5v2l-1 3-4 3 1-6c2-9 1-44-2-62A1165 1165 0 0171 2c0-2-2-2-21-2H30v4m129 46c-2 1-1 2 1 2l4 1 4 3c2 1 2 1 1 3-1 1-2 1-5-1l-5-2-3-1-4-1c-3-1-3-1-5 3-1 3-1 5 2 5h3l4-2c3-1 3-1 2 1-2 2-2 3 0 3 5-1 5 0 3 3l-1 11v9l-2 4c0 2 1 2 4-1 2-2 4-3 7-3h4l-6 2-5 4c-1 1 7 4 9 3l1 1-2 4c-1 2 2 0 5-4 5-5 3-12-4-12l-5-1c-2-1-2-1-1-3 2 0 2-1 1-1l1-4 3-3 3 1v1c-1 1-1 1 1 1l3-1c-2-2 8-2 11 1 2 1 2 1 3-2s-1-9-7-14c-5-5-21-12-25-10m121 6c-3 1-1 5 3 8 4 2 5 5 2 4-2-1-2-1-1 3 0 4-2 7-4 6-3-2-11 8-9 12l-3 1h-6c-3 0-3 0-1 2l3 1 4 2 3 2-5-1-5 1 2 1 3 1c2 2 3 2 6 0 4-2 8-2 8 1l2 1 1 2c0 2 2 1 2-2l2-4c2 0 2 0 2 10v11c2 1 4-19 2-21-1-1 0-2 1-3 1-2 1-3-1-4-1-2 0-6 4-9 7-6 8-17 1-13-2 1-3 0-1-2v-3l-3-3c0-4 0-4-2-4h-10m-80 23l-5 3h-2c0-2-4-1-6 1-5 4-6 11-2 18 2 3 3 3 2 1 0-1 3-1 4 1l1-4-1-5v-6c1-1 1-1-1-2-2 0-2-1-1-1h3c1 3 3 2 8 0 2-2 5-3 8-3 5 0 5 0 3-1-2-2-7-3-11-2m124 9l-3 4c-4 4-6 4-16 6-4 0-5 0-4 2l2 19c-1 10-4 13-7 7-3-5-4-5-3-1 0 2 0 2-1 1-2 0-2 0-1 1l-4 10c-1 2 4-1 7-4l3-2 1 2c0 2 1 2 3 2 4-1 7 0 7 1l-1 1-2 1c0 2 3 1 9-5l12-11 6-5 14-1c15-1 21-2 21-4l9-3c10 0 10-1 11-7 1-7 2-7-16-7l-11-1c0-2-2-1-3 2s-2 3-4-2-6-6-18-7l-11 1m71 9c-1 1 1 7 2 11 1 2 1 2-4 2s-6 0-6 2-2 4-3 2h-5c-3 0-4 0-3 1l1 2v22l1 20h5c7 0 7 1 7 12-1 9-1 9 1 8 1-1 2-3 1-5 0-3 0-3 2-3 7 1 6 4 6-37 0-33 0-38-2-38-2-1-3-1-3 1m-135 5c0 1 0 2-1 1l-2 2 1 2c2 0-1 3-3 3-1 0-2 1-1 3l-1 2v1c2 2 1 3-1 3l-2-1 2 2c1 1 2 2 1 3l-1 5c0 2 0 2 1-1 2-5 5-7 6-5 5 4 6-3 2-8l-3-3 3 1 4-1-5-9m94 18c-6 0-6 0-6 3v3l10-1c12 0 11 0 11-3-1-3 0-3-15-2m-246 18c-13 5-14 6-16 25v20l1-3 1-5 4-8c4-13 8-19 13-25l5-5-8 1m235 2l-12 1c-11 0-17 1-10 3l5 2 9 1c6 1 13 3 13 5s-4 2-4 0c-1-1-14-1-15 1-2 2 2 2 19 2 22 0 25-1 25-4s-1-5-3-5l-1 1-3 2c-4 1-4 1-6-1l-5-2c-12-2-14-4-6-5 4-1 20 1 22 2 1 1 2 0 2-1 0-2-27-4-30-2m-25 28c0 2 1 2 9 2a169 169 0 0028-2l-19-1c-18-1-18-1-18 1m-1 14l-4 2-3 2-1 1h5c1-1 1-1 2 1 1 3 4 3 4 0 1-2 5-3 24-4 9 0 12-1 13-2h-40m70 3l-2 4h-3l-1 2-4 1c-5 0-6 1-5 3 0 2 6 3 8 1l10-1c10 0 10 0 10-2 0-3-1-3-4-3l-3-1h4c3 0 3 0 2-1v-2c2-1 0-3-5-3l-5-1c-1-1-1 0-2 3m5 18l-9 2c-9 0-8 2 1 2h7v5l1 6-1 3c-1 1-1 1-3-1-2-3-9-4-8-2s-4 4-8 3c-1 0-2-1-2-3v-3l-18 1h-21c-11 1-15 4-7 5 8 2 10 4 5 5-3 1-3 1-2 5l1 20 1 16h30c27 0 29 0 29-2l1-21c0-21 0-22 2-20l5 1 4 1v-24h-3l-5 1m-92 21c-1 1 0 1 4 1 7 0 10 2 8 4-2 3-11 2-12-2-2-3-3-2-4 2l-3 4c-2 2-2 2 0 2 3 0 6-2 4-3v-2h1l3 2c4 0 4 0 3 2 0 2 0 2 3 2l3-3 3-1 2-1 2-2 1 3c0 4 2 5 2 2 1-4 0-8-4-9-5-3-15-3-16-1" fill="#d3d3d3" fill-rule="evenodd"/></svg>