<svg xmlns="http://www.w3.org/2000/svg" width="400" height="267"><path d="M0 134v133h16c14 0 15 0 15-2s-3-6-3-4l-1 1-2 2-1 2c-4-2-3-22 2-28 4-6 6-7 14-7l8-1c1-2 1-2 8-3l9-2 12-2h8l-6-1-9-1c-3 1-3 1-3-1l1-4c1-3 3-4 15-4h12l5-6 4-3 1 3c2 0 3-3 1-5-1 0 1-3 7-9l2-3c2 0 2 4 0 7-4 8-5 12-3 14h3l1 1c-1 2-1 2 4 2 6-1 7 0 1 1-5 1-5 2-1 5l1 2-3-1c-1-2-2-1-2 2l8 1c5-1 7 0 7 1 2 3 1 3-5 3h-8l1 1a744 744 0 0023-1c0-2-1-2-3-2-3 0-4-1-4-2-1-2-1-2 4-3l5-1-1-1-8-4c-1-1 0-2 4-2 10-2 16-1 16 1l1-1 1-3 3-1c3 0 3 0 1-1l-22-1-20-1 3-5c3-3 4-4 7-4l4 1-2 1-3 1c0 1 3 2 4 1l9-1c6-1 8-2 8-3 0-2-5-7-7-7s-4-3-2-4l1 1h7c1 1 3 1 3-2l-8-1h-9v-3c0-4 5-5 14-5 7 0 10-1 5-3-3 0-4-2-1-2l1-3v-3l2-1c-1-1 4-2 13-2 7 0 8 0 8-3 0-1 0-2-1-1l-1-1h-5c-5 0-5 0-4-2v-2l-3-4-2-3-2 2c-1 2-2 2-4 0s-2-2 0-5l2-5 2-2 2-2c1-3 4-4 4-1v3c1 1 1 0 2-3l1-4 1 2v1l3 1 1-2v-3l1 2c0 2 0 2 2 1 2 0 2 0 2 2v5c1 3 2 3 6 3l4 1h3v1c-3 2-2 2 2 2 6 0 7 0 8-2l6-1c4 1 5 1 4 4l1 2v4l-3 4-1-1c2-5 2-5 0-3-1 2-2 2-3 1h-2c-1 1-1 0-3-2-2-3-3-4-4-3l2 3 1 2c-6-2-9-2-9-1-1 1 0 1 4 2l3 2 2 3 4 5 3 3-2 3c-2 2-3 2-11 2l-8 1-1 2c-1 1 0 1 1 1l2-1c0-3 13-3 15 0l2 3h1l6-1c4 0 5 0 6-2l6-1c7 0 7-1 0-2l-6-1h-2c-3 0-4-8-2-10v-2c-1-2-1-4 1-6 1-1 1-1 1 1h1v-11l6-1h9v-3l1-5c1 0 2 2 2 6 0 5 0 5 2 4l3-4c3-5 4-4 4 3l-1 7h5c15-1 18 0 20 7 0 2 1 3 3 3s4 2 2 3l-1 3c0 5-2 7-6 7l-5-1c0-1-1-1-2 1h-2v-2l-1-1-2 2-8 1h-7l1 1c28 0 39 2 39 7l-19 1c-16 0-19 0-18 1s4 2 13 1h13l-6 3c-4 2-6 3-7 5l-4 3-1 2-3 12c-1 4-2 2-2-3 0-7-1-6-2 2 0 5 0 6 2 6s2 1 2 4 1 7 4 12l4 9 3 3c3 3 4 5 3 7l-14 3c-1 0-2-2-2-5-2-6-4-8-6-5l-3 2h-5l-2-1h-6l-1 2 1 1h1l5 1h3v7c-1 8-1 9-3 7h-62c-3 0-3 0-3-3l-1-3v3c0 3 0 3-2 3s-2 0-2-2c1-2 0-3-1-3l-1 1c1 3 0 4-2 4-3-1-4 0-2 4l1 3h81l81-1-1-5-2-4-1-2v-1l-2 3c0 2 0 2-2 1l-1-1c-1 2-6 3-8 2l-1-6c-1-3-1-5-4-7l-2-2 4-4 4-6 6-2 3-1c-4 0-5-2-4-4l1-3 4-2c2-1 2-1-1-1s-4-2-1-2l7-1c2 0 3 0 2 1v3l1 1c2 1 2 3 2 11v10l-9-1c-10 0-10 0-1 2l6 1c-1 1 4 4 8 4 5 1 13 7 12 10v5l1 2h66V0h-71v11c0 10 0 12 3 12l1-5c1-5 3-8 5-5v7l-1 1 6 1c5 0 7 0 7 2 1 1 2 0 3-7 4-14 4-14 4-4l1 10h1c0-1 7-7 10-7l2-1c1-1 2-1 3 1 2 2 2 2 3 1 2-3 15-4 18-1 3 2 4 13 4 49 0 24 0 29-1 28-3-2-5-1-7 3l-3 3v1c2 0 1 2-1 2l-1-1-1-2c-2 0-2 0 1-3 3-2 3-3 2-3-2 0-2 0-1-1s2-8 1-10v-4c0-2 6-3 7-1 1 1 1 0 1-2-2-15-21-13-23 1v4l3 14c1 2 0 3-1 3l-1-2c1-2-1-3-3 0-2 2-3 1-3-1l-1-4c-1 0-1-2 1-4 2-6-1-9-5-4v8c-1 1-1 1-2-1 0-3-4-3-6-1-1 3-2 7 0 7l1 5c-1 6-4 11-7 10l-1 1-2 3c-1 2-4 3-3 1l-4-1c-2 1-4 1-5-1l-7-1c-4 0-4-1-4-2 0-2-3-4-4-3 0 1 1 6 2 5 2-1 1 5 0 6l-2 3-4 3-3 1c2-2 2-2 0-2-2-1-3-4-1-4 1 0 1-1-1-1v-10c-1-1 2-3 4-2 2 0 2 0 1-1s-7-2-9-1h-1l4-2 4-1c2-2 5-2 4 0-1 1 4 2 5 2l1-14a2832 2832 0 012-62l1-2h-34v-8l1-9a2285 2285 0 00-138 1v9l1 7h-25V0H30l1 6 1 12v5H21l-1-11 1-10h4c2-2 2-2-11-2H0v134M305 4c-6 10 0 20 10 19 9-2 12-11 7-20-2-3-3-3-9-3s-6 0-8 4m2 0c-8 9 1 21 11 16 6-3 6-14 1-17-6-2-8-2-12 1M159 14v29a194 194 0 010 36c1 1 1 1 1-2l1-4c1-1 5 3 5 5l2 3 1 2 1 3 1 3c-1 1 0 2 1 3 2 1 3 3 1 2l-2 2h-1c0-2-3-3-4-2l-1 4c0 4 0 4 2 3h5l3 1h-3c-3 0-4 1-2 2s2 7 1 7l-1 1-1 3-1-5c1-5 0-7-1-3-1 1-1 1-1-1s0-2-1 0c-1 1-1 1-1-1 0-4-2-1-2 3l1 4 1 2c0 6 6 5 9-1l3-6v-8l4-3 1-2-1 2-1 5v5l3 7v3l1 3 1 6c0 3 4 6 6 6l4 1h1l-2-2c-5-1-5-2-6-9l-1-6h5l5-1h-5c-4 0-5 0-5-2l42-1h42v-3l2-5c2-2 8-1 11 1 2 1 3 2 4 1l3-83v-8l-65-1-66 1m-27 18l1 6h7l8 1h-45v48c0 47-1 58-3 52 0-2 0-2-2 0h-1l1-3v-3l-1-3-5 3c-5 2-7 5-4 7v1l-2 3c0 1-4 2-4 0-1-2-3-1-3 1v1l-1-1-1-2v-1l-2-6-2-4H61v4l3 6c2 1 2 2 2 4-1 2-1 2 2 2 2 0 2 0 0 1l-2 3-5 1c-4 0-5 0-5 2s6 7 7 5l3 1c2 2 3 2 12-4l4-4-1-1c-1-1-1-1 1-1l3 1h1l4-1c5 1 9 0 10-3 0-5 1-6 3-2 0 3 1 5 2 5 2 2 3 0 1-2v-5l1-4c1-2 1-2 2 1l1 4 5-5 5-7 2-3 2-6c0-10 11-16 18-9l3 2v-3c0-5 2-4 2 2l1 8h-1l-2-4h-6l-1 5v4l3-1 5-1 2-1-1 3v1l1 1v1l-2-1h-7c-2 0-2 0-2 4l1 3 1 1c0 6 2 8 3 6v-3l1-2c0-2 4-7 5-6l1-1h1c1 1 1 0 1-5l2-9v-6l-1-5-1-3c-1 1-4-2-4-5-1-2 3-12 4-10 1 1 1 0 3-2l2-2 2-1v-2c-2 0-2-4-2-28V28l-12-1h-12v5M58 47c-2 2-2 3-2 14a475 475 0 003 45c3 1 5 1 6-2 0-5 0-4 1 2V49l-5-5-3 3m273-2c-4 0-4 0-5 29l-1 23c0 2 0 2 2 1 4-3 6-2 6 0 0 5 1 6 3 4 1-2 2-2 4-1s3 0 7-3l4-3c1 0 2-7 1-11l1-7v-5c-2-2-2-2-2 4s0 6-2 5h-6c-9 3-9 3-9 1l1-17c0-15 0-15-2-16l-1-1 1-1v-1l2 2c1 1 1 0 1-1l-1-3-4 1M31 63c0 2 0 3-1 2-1 0-2 0-1 2l-1 2h-1l-1 1h-2c-1-1-1 3-1 14l2 16c3 1 7 6 7 9 0 2 0 2-1 0s-5-3-5-1 2 3 5 3c3 1 4 3 1 3-2 0-2 0-1 1 2 2 1 7 0 8-3 1-2 2 1 2 2 0 2 1 2 4l1 4a556 556 0 01-4-70m341 43l2 1c1 1 1 1-1 1-3 0-5 2-3 2 1 0 2 1 2 4-1 3 1 4 4 2s7 0 17 8l7 6v-4c0-5-1-6-5-6-5-2-10-4-8-5l-3-2c-6-1-8-4-2-3h4l-4-1-7-3h-3m-98 2v10l-1-4v-4l-2 2-2 2h-36a660 660 0 0039 1c-1 3 0 5 2 5l3 2 3 1v-5l-1-4c0-4 0-5-2-6h-3m25 11l1 2c2 2 1 5-1 5l-2-2c0-3-2-4-4-3l-3 1h-2l1 1c1 1 2 1 1 2l1 2h3c3 3 9 7 10 6l1 1c-4 9-6 12-7 12v-4c-1-3-4-4-5-1l-3 10v-6c1-5 1-6-1-5s-2 1-4-1l-3-1 1 2c3 2 2 3-3 3-3 0-4 0-2 1h5c5 0 5 0 2 6-2 4-3 5-6 3v-3h-3l-1-2v-1l-4-2c-3-2-6-2-2 1v2c-2 0 0 2 4 3 2 1 3 2 2 3l1 2 2-1 5 2c5 3 8 3 6 1v-3l4-6 2-4-1 4-1 6v8l-2 10-2 6 2 1 2 3 1 3 2 3v-7l3 3c1 2 4 3 6 4l4 2 8 1-2-2c-1-1-1-1 1-1 3 0 5 2 3 2-1 1 0 1 3 2 4 1 10 6 10 9l2 2c3 0 7 4 6 5l-8 1c-6 0-10 3-5 3l2 1-2 1-2 1c-1 1 0 1 2 1s2 0 1 2c-2 1-2 1 0 1 3 0 5 2 3 2-1 1 0 1 3 1h5l3-1c1 1 2 0 3-1l3-3v10c-1 11 0 17 2 18l1 2c0 5 1 5 8 3l11-1c4 1 8 0 13-1 7-1 8-2 11 0l5 1 1-29v-29h-4c-4 0-5 1-4 2 1 2-2 3-6 4l-8 5c-7 5-10 6-7 3v-2l-1 1-4 1c-2 0-3-2 0-7l1-7-1-3c-2 1-2 0-2-1 0-2-1-3-2-2h-3l-3 4c-1 3-1 3-1 1l-1-2c-2 1-2 2-4 13l-1 6-5-3c-8-5-9-7-7-9 2-1 2-1-1-1s-9-4-9-7l1 1c2 2 4-3 3-9v-6l5-2c6-3 5-4-1-2l-4 2v-4c-3-16-6-25-12-30l-6-7c-2-3-4-4-5-4l-2-3c-1-4-3-6-5-6l-2 1m58 0c-1 0-2 1-1 2 0 3-1 4-4 6l-3 1h3c3 0 3 0 2 2-1 1-1 1 1 2l1 1 1 1 1 2 1 1 1 3 1 2v4l2-2 1-3h-2v-3c0-2 0-3-3-5l-2-2h2c5 0 6 1 6 4l3 6 1 3v4c1 5 2 5 2 1 0-6 0-7 7-6l6-1-6-1-6-1h3l7-1c3-1 3-1-2-1-9 0-11-2-2-2 8 0 6-2-3-2l-5-1h7c6 0 7 0 6-1l-6-1-8-1c-4-1-1-2 4-1l8 1c5 0 0-2-7-3-6 0-8 0-7 1h-2l-3-1c-2 0-2 0-2-2 3-7 2-8-3-6M56 162l-1 2-2 2c-1 1-2 2-2 5 1 5 2 7 3 6l1 1v1l1 1c-2 1-2 5-1 6l1 5 1 3v2l1 2 1-1c0-6 1-7 2-7s2-3 2-8 0-8 2-12l2-5c0-2-9-5-11-3m143 28l-3 8c-2 2-2 12 0 12l1-1c0-2 3 3 4 5 0 3-1 6-3 6l-6 3c-4 3-5 4-5 8 1 5 3 8 9 8 3 0 3 0 5 3l1 2 2-4 2-4 1-8c2-6 1-8-2-8s-3-2-2-7c1-4 1-4 7-6l6-2v-4c0-4-3-6-6-5h-3c-2 0-2-1-2-6v-5l-1 6c0 4 0 4-2 3v-6c0-6 0-5-3 2m169 19l-4 2c-2 0-5 4-4 6l2 4c0 3 1 3 3 3s2 0 1 2v3l2-4 3-4 4-8h-5c-1 2-3-1-1-3l1-2-2 1m24 43l-9 3c-3 3-2 4 3 4l6-1c6 0 8-1 8-3 0-4 0-4-8-3" fill="#d3d3d3" fill-rule="evenodd"/></svg>