<svg xmlns="http://www.w3.org/2000/svg" width="400" height="266"><path d="M187 34c-7 2-10 5-10 9l-2 6-1 3h5l14-2 10-3c2 0 3-1 3-7s-1-6-2-6l-4 2c-1 2-6 0-7-3v-2l-6 3m-44 16c-19 3-34 21-30 37v12c0 4 0 4 2 2 1-1 1-1 1 2l2 5c2 2 3 1 1-2-1-1 1-3 3-3l3-4v-8l1-1 1-3 2-6c1-5 4-9 9-9 10-2 12-2 13-1h6l8 1 6 1c3 1 6 6 6 10l2 5 2 10v7l2-7 3-11c2-7-2-17-7-20l-3-4-1-1-2-3c-2-6-18-10-30-9m-3 37l4 3c5 2 4 3-2 5l-6 1-2-2h-2v2c1 2 17 3 17 2l2-1c2 0 1-4-2-6l-1-2c0-1-1-2-3-2h-5M20 97c-9 2-10 3-10 6 0 2 1 3 9 3 10 1 16 0 17-4 0-3 0-3-2-3l-4-2H20m104 10l-1 3-1 2-3 3-1 2c1 0 2 1 2 4l3 8 2 4-2 1-4 3-9 4-11 5-15 7a104 104 0 00-19 10c-2 1-4 11-4 16 1 3 1 5-1 8-5 9-6 12-5 15 0 1 0 4-2 6l-9 18c-3 4-5 12-5 14v1c-1-2-2-3-1-5 0-4-1-7-2-5l-5 4-6 6c7 2 9 4 5 8-1 1-3 2-4 1l-3 1-7 1c-3 0-6 0-5 1 3 1 1 2-4 2-6 0-7 0-7 6v5h129l1-3c0-2 0-2 2-1 1 2 1 2 2 0 1-1 1-1 2 1 1 5 3 4 3-1v-5l1 2c0 2 0 2 2 2 2-1 3 0 6 2 3 4 4 4 4-2l-1-4 1 4c1 5 1 5 5 5 2 0 3 0 3-2h1c1 2 6 3 6 1l-2-4c-1-3-2-5-1-7 2-4 0-5-5-3s-10 0-9-5l-1-3v-1l1-3 3-3c2-1 3-3 0-4-2-1-3-4-2-6 2-1 1-2-2-3l-2-2-2-3v7c-2 3-2 3 1 6l2 6c0 3-1 4-6 3-6 0-10-3-10-7 1-4-6-6-8-2-2 2-6 1-6-3l-2-4c-2-2-3-2-5 0-3 2-4 7-1 9l-1 2c-1 1-2 0-2-2l-1-3v2l-2 3-1 3-4 5-3 6c0 3-4 7-5 7v-5c2-2 1-3-3-3-5 1-5 0-2-4l2-2h-3l2-1 4-1h-4c-3-1-4-3-2-3l1-1c-1-2 0-2 5-1 3 0 4 1 4 2 0 4 0 4 2 3l3-4 3-4h1c1-2 0-3-2-3l-1-1h-2c-1 0-7-5-7-8l3-1c2 1 3 0 3-1l1-2c3-1 3-1 2 1l2 7 2 5v-4l1-5 1-3v-2l-1-2c-4-1-6-1-7 1s-5-1-5-6c0-3 1-3 6-6 6-3 9-4 9-2l4 1c4 0 5-1 4-5 0-3 2-6 4-6 4 0 4-1 3-6l-2-4c0-1 6 1 7 3l2 1a422 422 0 00-5-45h1c0 4 20 20 26 20 2 0 18-15 19-18 2-4 3-4 3 4l2 9 5 28c0 3 1 4 2 4 2 0 2 0 2 3l-3 5c-1 1-1 1 1 2 1 1 1 1 4-1 3-3 5-2 3 4l-2 5-1 2 2-1 3-1c2 0 1 2-1 3s-2 1-1 2l2 2 2 3h-1c-3 0-3 0-3 2s-5 3-6 1c0-1-1-2-2-1v1l-1 2-2-1-10-1 4 1c2 1 4 2 2 2v2c4 6 4 14-1 18-2 2-2 2-1 4l3 2c2 0 4 2 4 6 0 6 2 9 5 9l3 2-3 1a923 923 0 00106 2h109v-11l-7-1-6 1-7 1-7-1-2-2-2 1h-6l1-2 1-2 14-1h9v-36h-47c-44 1-57 1-54-1v-5h-2l-1 3c1 3 0 4-7 3l-3 1-2 2c-2 0-2-1-1-4 0-4 0-5-2-6l-4-1c-5-3-5-2-5 10l-1 11c-2 0-2 2-2 8l1 8 1-4c0-8 0-9 3-6l2 3 1-3 2-3v3c1 2 1 3-1 4h3c2-1 2-2 2-5 0-6 2-8 2-2 0 5 0 5 2 8 1 2 1 2-1 3-3 0-1 2 2 2l3 1 1 2v2c-2 2-2 2 0 3 1 1 1 1-1 1s-2 0-1 2c3 2 1 4-2 2l-5-1-8-4 2-1c5 1 6 0 6-5 0-4-1-5-2-4h-5v-2c-2 1-2 0-2-1l-1-2-1 3v4l-1 3c0 2-1 3-3 3l-3 1h3c4 1 4 3-1 2-6 0-12-4-7-4 2 0 2 0 1-1v-1l2-1h1l1-1c0-1 0-2 1-1l1-8c0-6 0-9-1-8l-1-1 1-1 1-6-1-5h-4c-3 0-3 0-3 2l1 3 1 2h-2c-1-2-1-2-1 0l-1 2v9l1 8c1 2 0 3-1 1l-3-1c-3 0-7-4-5-5l1-5-1-3v-2l-1-7v-7l11 1h11v-6l-11-1h-12v-3c0-3 4-4 16-4 10 1 11 0 8-2-4-3-6-8-6-14l-1-6v-2h1c1 1 2 2 3 1h2v-7c-2-1-6 1-6 4l-2 1-1-1-2-3c-3-1-3-2-3-6 0-5-4-15-7-15l-5-1-20-5-20-4c-8-1-16-5-16-7 2-4 3-11 2-14 0-2 0-3-1-2l-2 1-3 1h-2c-1-2-8-10-9-9l1 3c3 3 0 4-11 3-5 0-7-2-4-5v-1l-7 8c-3 3-3 3-6 1l-5-1h-2v-1c3 0 3-4-1-6-3-3-3-3-3-1m19 9l-1 4c1-1 3 0 3 1 2 2 20 1 20-1l2-1v-4h-3l-2 2-2 1-3 1-3-1-3-1-4-2c-3-3-3-3-4 1m-3 13c-1 2 3 8 7 9 7 4 16 2 19-3 2-2 2-2 0-2v-1l1-4c-1-1-1-1-4 2-4 5-10 5-15 0-4-3-7-4-8-1m8 36c-4 5-4 10-1 9l1 2 1 2 2-3 1-1c2 0 2 0 1 2s0 5 2 7v6h1v-3h1v-6c-2-6 0-8 4-8 3 0 2-3-4-8-4-5-5-5-9 1m-79 41l-1 3c0 3-1 3-7 4-7 1-8 2-6 3s2 2 1 6c-1 3 0 15 1 17l8-4 3-1 2-2h1l1-1 1-2v-4c-1-1-1-1-1 1s-1 3-3 1 2-7 5-6c2 0 2 0 1-2l-2-4c0-2 1-1 3 2l2 4v3c-2 3 0 7 3 7 2 0 3 0 2-4 0-3 0-3 1-2l3-1 1-2c-2 0-1-2 1-2 3-1 3-1 1-3l-4-3-4-2-4-1-3-3c-2-3-4-4-6-2m83 2l-9 1c-9 0-10 0-9 4l-1 3c-2 2-1 8 1 10 2 0 5-2 5-4 0-5 8-9 12-5 2 1 2 1 4-1l4-3c2 0 1-4 0-5h-7m54 1l-2 1h2c4 0 6 1 5 3h-4c-2-2-4-1-6 1l-5 4-1 2v4l1 6h3l1-1 2-1h1l-1-1-2-3c-2-2-2-2 0-2l3 3c0 2 0 2 2 1 1-2 1-2 2 0l1 2 1-2 1-4h3c0-1 3 0 3 2 0 1 0 2 2 1v1l-1 2c0 2 3 1 3 0 1-2 7-3 9-2s2 1 2-2c-1-3-4-4-5-2l-3 2c-2 0-1-4 1-5l3-2-3-1-2-2-2-2-2-1c2-2-7-3-12-2m3 29c-1 3 1 7 3 7 2 1 4 0 4-2l1-1c2 0 2 2 1 3-1 2 0 3 5 3 4 0 5-2 4-7v-3h-4l-3 2c0 1-6-1-7-3-2-2-4-1-4 1m-160 6l-7 1-2 1c0 1 5 1 10-1 1 0 2 0 2 2l-1 2-2 1c-3 0-3 2-1 2 3 1 11-1 13-2l2-1v1h4c2-1 2-1 0-2l-2-3c0-1-10-2-16-1m247 5c-5 0-6 0-5 2 1 1 0 1-3 1l-1 1 2 1 2 1 18 1c8 0 10 0 9-1l1-2 1 2c0 2 7 1 7-1 1-2 0-2-1-3-2 0-2-1 1-1 2-1 1-1-5-1a1426 1426 0 01-26 0" fill="#d3d3d3" fill-rule="evenodd"/></svg>