<svg xmlns="http://www.w3.org/2000/svg" width="400" height="256"><path d="M399 66c-1 1-2 2-4 1-3-1-5 0-4 2l-1 1c-1 0-2 0-1 1 1 2-1 3-3 2h-2c-1-2-2-2-2-1l1 2 1 2v2l-1 3-2 1v-1c1-1 0-2-2-2l-3 2-1 1-1 2c0 2 2 3 5 1h4l1 1h-2l-3 1c-2 0-2 3 1 5 2 1 1 2-1 1l-1-1-1-1h-1l-1-3-2-4c-1-3-1-3-4-2-2 0-2 0-2-2 2-4-1-2-3 3l-3 2-1-1-1-1c0-2-2-1-2 1l1 1 1 1 1 1-1 3c-1 2-2 2-2 1h-1l-2 1c-1 0-1-1 1-2 2-2 3-3 2-4l-4 2-3 3c-1-1-3 0-4 1l-3 1-1 1c1 1 1 1 0 0l-2 1c-2 2-4 1-4-2v-2l1 2 1 1 2-2c2-1 3-2 3-4-1-3-3-6-4-4h-3v2l1 2c-3 0-5 0-5 2-1 1-1 1-1-1l-1-4c-2-1-2-1-2 2l-4 4v-2l-1-2c-1 0-2 3-1 4l-1 5-1-3c0-4-1-6-2-4-2 2-4 1-3-1l-1-2-1 3c0 2-2 3-5 4-5 0-6 2-5 5 2 4 1 6-1 6l-2-1-2-2v1c0 1-2 2-5 2-2 0-2-1 2-3 5-2 6-4 3-5l-2 1c-2 2-4 2-3-1l-1-1c-2 0-4 2-3 3l-2 1c-2 1-3 0-3-1l-1-1h-1v-3l-1 1-1 2h-5l-1-3-1 2v3c-2-1-2-5 0-6l-2-1-2-1c0-2-2-3-2-1-1 0 0 2 2 3s1 4-1 2l-2 2c0 3-2 4-2 2l-1-2v7l-1-2h-3l-1-2c1-2 1-2-2-1l-4 1h-2c-2-1-10 5-9 7l-3 2h-2l2-4c-1-2-1-2-2 1l-5 5c-3 2-2 4 3 5l6 1c3 0 5-1 2-2l-1-2 2 1c1 1 1 1 1-1 0-1 0-2 2-1 2 0 3 0 4-2l2-1-1 3-2 3h6c2 0 2 1 1 2h-2l-2 1h-2l-2-1-5 5h-2l1 3 1-1 2-1c2-1 2-1 2 2-1 2 0 3 2 1v-1c-1-1 0-4 2-4 1 0 1 5-1 7l-3 2v3c8 1 21 1 21-1l-1-1-2-2c-1-1-1-1-1 1s0 2-2-1c-1-3-1-5 1-5l1 1c-1 1 3 4 4 3l1 1v2l1-1 1-1 1 2c-1 3 6 4 9 1h2c-1 1 4 2 5 1s0-1-1-1h-3l2-2c2-2 3-2 3 1l3 2h13l1-4c0-6 3-9 8-9l5 2h2c1-2 1-1 1 5 1 3 2 4 3 0 0-2 1-3 2-2v3l-1 5c1 2 0 2-2 2-3 0-4 0-4 2 0 3 2 5 5 5 1-1 2 0 2 1 1 4 1 4-1 4l-1-1h-2l-4-1c-1-2-1-2-3-1h-22l1 1c1 1 1 1-1 1h-2l2 2c2 2 4 2 13 2 7 0 10 0 9-1h5l38 1c36 0 40 0 41 2l1-22v-24l-3-2c-3-2-4-4-1-4 1 1 2 0 3-1 1-2 0-11-1-12v-1c2 0 1-8 0-9-2 0-2-3 0-5l1-5-1-1m-69 27c-4 1-5 3-4 6 2 3 2 3 0 5s-2 4 1 4c1-1 2 0 2 1 1 1 1 1 2-1 0-2 0-2 2 0s2 1 1-3l-2-3-2 2-3 2 2-3 3-4 1-1 1 2h3c0 2 2 3 2 1 0-1-2-4-4-4l-3-2c0-2-1-2-2-2M8 98l1 2 1 2c-1 3-7 4-7 1 0-2 0-2-1-1H1l-1 2 1 2v16c0 15 0 16 2 18v2l-2 6c0 6 0 6 2 6l3-1h8l9-1 3-2v2c-1 1 0 1 3 1l4-1v-3l1 1 2 3v-1l1-1h2l2-1v2c-3 1 0 3 4 3 12 1 15 0 15-4l2-2c2 0 2 0 1 1s0 1 3 1l5 1c0 1 1 2 5 2 6 0 7-1 7-3v-2l-4 1c-3 2-4 2-6 0l-2-2h10v-2c-1-1-1-1 1-1l1 2 1 1h2l-1 2c-3 1 0 3 4 2 8 0 8 0 6-1s-2-2-1-4 1-2 1 0c0 1 0 2 1 1l2 1h2l2 2c2 2 17 1 17-1 0-1-1-2-3-1-3 0-3 0-2-2l-1-3c-3 0-2-2 0-2l2 1c-1 2 2 3 4 1 2-1 5-1 5 1h2l2-1c2 1 2-2-1-3-2-2-2-2-1-4 2-2 2-3 0-2l-2 3c0 3-1 3-4 0l-3-2-1-2-2 1-2 2-4-3c-3-4-4-7-2-5l1-1 1-1 1-1c0-2 3-3 5-1l-1 1-1 2 1 1 1 1 2 3 4 2c1 2 1 2 2-1l2-4v-1c-2-2-2-2-3 0v2h-5l2-3 2-2-2-2-1-2h2l1-1 1 2h8l2-1h1v3l3-2-1 2-1 3v1h4l-2 2c-1 1-1 1 1 2h3v3c-1 1-1 1-3-1-1-1-2-2-2 0l-1 1-1-1v-3c-1-1-1-1-1 1 0 1 0 3-2 4l-1 2 2 1c2 2 4 8 2 8l-1 1c0 2 3 0 3-3l2-1 1-1v-1l2 3c0 2-1 2-2 1l-2 1c0 1 16 2 33 1l9 1 6 1c3 1 4 1 3-1l5-1 6-1 1-1 1 1c-1 1 4 1 14 1 11 0 14 0 13 1l-10 1c-11 0-12 2 0 3a750 750 0 0024-2l-6-1c-2-1-2-1 0-2h51v-1c1-1 1 0 1 1l1 1v-3c0-2 0-2 1-1 1 2 2 2 3 1v-3h-1a245 245 0 00-45 0h-41l1 2c3 0 2 2 0 2s-2-1-2-3c1-2 0-2-3-2-8 0-9 0-9-2 0-3-1-5-2-4s-1 1-1-1l2-3 2-3 1-2 1 3c0 2 0 2 2 2h1l1 1v-2l1-2h2c-1-2 2-4 4-3 3 0 3 3 1 5-1 2-1 2 5 2 5 0 6 0 6-2 0-5 11-14 14-12l1-1-3-2c-3 0-4-1-2-4l1-2h-4l2 1-2 2-5 2c0-1-2 0-3 2-1 3-4 4-3 2l1-2 1-1v-5h-1l-1 2-1 2-1 1-4 1c-3 0-4-1-1-3 1-2 2-5 0-3h-3c-3 0-4 2-3 5l-1 2-1 2-1 1-1-1c0-1-1-2-3-2l-2-1 2-1c2-1 2-1 1-2s-1-1 1-2c3-2 3-3 0-2l-2-1-1-1-1 4c0 3-2 5-3 3v-5l-1 2-1 1-2 1c-2 2-4 3-4 1l1-2 1-1c0-2-3-1-4 1h-2l-2 1c-1 1-1 1-1-1 1-2 1-2-1-2h-2l-3-1-3-1c-1-1-1-1-1 1l-2 5v-1l-1-2h-1l-1 1v-1c2-3 0-4-3-3l-3 2-2 1v1l1 1c0 2-3 0-3-2l-2 2c-1 4-4 6-4 3l1-1v-2l-1-1 2-1-6 1c-2 0-1 2 0 1 2 0 3 1 2 4l-1 1c-1-1-2-2-3-1l-1 2v1c-2 0-2-2 0-3l1-2h-1c-2 2-4 1-5-2 0-2-1-2-1 1 0 2 0 2-1 1v-4l-1-2-2 6c0 1-1 2-4 2l-5 2c-1 2-2 1-2-2v-4l-1 2-1 1h-1v2c-1 1-6 0-6-2l-1-3c-1-1-1-1-1 1v3l-1-2c0-3-3-5-4-3l-1 3v1l-1-1c0-2-2-3-3-1h-2l1-2v-2h-1l-1 1c-2 0-2 0 0 4v8c-3 1-5-3-2-5v-1l-2-1-2-2v-2l-5 2c-3 3-9 3-9 1h-2l-2-2h-1c-2 3-4 3-4 1s-1-2-2-2c-2 0-4-3-2-4v-1l-3 1c-1 2-2 2-5 1s-3-1-3 1l-1 2v1l-1 1-1-1v-2l1-1c0-2 3-4 3-3 1 1 1 0 1-1s0-2-1-1l-2-1h-2c-1 2-4 3-4 1h-1v2l-4 2 1-3 1-2c0-2 0-2-2 0h-2l-1-1-2 2h-1v-2c0-1 0-2-2-1l-2-1-1-1v3l-3-1-1-1c2-1-2-3-4-2h-1c0-1-5-4-6-3m377 55l-2 2h-1c-1-1-2-2-6-1-6 0-8 1-5 2v1l-2 2c0 2 0 2-3 1h-5l-8-3c0-2-3 0-4 2l-1 2h-7c0-2-5-1-6 1-2 1-2 1-3-1s-2-2-6-1l-15-1-9-1h-10l-3-1h-5l-2-1 2 1v4c-2 1-2 1 0 1l1 2h-2l-2 1c0 1 1 2 2 1v4l-1 2-4 2c-2 0-2 0-1 2v1l-1-1h-1c0 2-3 3-3 1l-1-3 2-1c3 1 6-2 5-4 0-2-1-2-3 0s-4 2-4-1h2c2 0 2 0 2-2v-2c1-1 1-1-1-2l-1-1c3 0 2-2 0-2l-2-1-4-1h-5l-4 1-9 1-4 1h2c1 0 2 0 1 3v3l-4-2c-4-2-10-3-8-1 2 3-3 3-5 1s-4-3-4-1h-2l-1-2-3-1-4 2c0 2 3 4 5 3v2c-1 1-1 2 1 2h3l-1-1v-2c1-3 9 1 9 4l-1 1-1-2-2-1-1 1-2 2c-2 0-3 1-3 2l-2 1h-10l1-1 1-1c0-2-1-2-3-3-3-1-3-3 0-2l2-1v-1c2 1 3-2 2-3v-2l1-1c0-2-5-1-6 0 0 3-3 3-5 2h-5v-1l2-1-3-1-2-1c-1-2-6-3-6-1 0 1-1 2-3 2l-5 2c-2 0-2 0-1-1 1-2 1-2-1-2-3 1-5 4-3 5v2l1 1v2l2 1c5-1 6 0 5 2-2 1-3 2-2 0h-2l-5-1c-3-1-5 0-2 2 2 1 2 1-1 1l-5-1-2-2-7-2-4-1 1 1c2 0 0 5-3 7l-5 3-3 1-1 2-1 1-1-1c1-3 0-2-2 0s-2 2-1 3c1 0 2 1 1 2l-2-1c-1-1-1-1-3 1h-5c-1-1 0-2 2-2l3-2-1-1h-2l-2-1 2-1 2-1h2c2 0 2 0 0 1v2l3-1c3-3 1-4-6-5-6 0-9-2-7-4 1 0 1-1-1-1-1-1-3 0-5 3-2 2-4 3-5 2h-2l-3 2-1 2 2 1h2c1 1 0 1-3 1l-4 1v-1l-1-1-2 2 1 1v1h-3l-2 1c-2 2-3 1-2-1v-3c-1 1-2 0-2-1l1-1h2l4-2c4-1 6-3 2-3l-3-1h-1l-1-1c0-1 6-2 8-1l3-2c1-1 1-1-1-1h-1l-1-1h-3v-1l1-2-1-1c-4-1-8 0-12 2h-2c0-2-3-2-5-1-1 2-8 2-9 0 0-1-3-1-5 1v1l-7 2c-4 0-6 3-3 3 1 1 1 1-1 1l-4 1h2c4 0 6 1 3 2h-2c-3 1-5 1-5-1l-1-3h1l2-1v-1l2-1h-1l-1-1 3-2c2 0 2 0 0-2-1-1-2-1-4 2l-7 2-5 1c-2 2-2-1 0-2 1-1 2-2 3-1h6l1-1-1-1c-9-1-11-1-12 1h-2c-1-1-2 0-4 1l-5 2c-2 0-1-2 1-3 2 0 3-4 0-4l-1 1v1l-2-1c-1-2-4-1-3 2l-2 4c-1 0-1 1 3 1l4 1-4 1-4 3-1 3h2c3-2 5-1 2 0-3 3-6 2-6 0 1-1 0-2-1-3s-1-1 1-1l2-1-8-2-2 1 1 1 1 1c-1 1 0 2 2 3 2 0 3 0 2 1l-5-1-6-1c-2 0-1-2 2-4s4-3 1-3c-2 0-5 3-5 6 0 2 0 2-2 2-2-1-2 0-2 4 0 3 0 4 2 3l1 1v1H2l-1 1v1l-1 14v13h3l1-1 2-1c3-1 5 0 3 2l-5 2-4 1 4 1 4 1h1l3-1h2c-1 2-1 2 1 2l3 2-2 1h-2l-2 1v-1c2-2 1-3-1-3s-2 0 0 1c1 1 1 1-2 1l-4-1-2-1c-3 1-4 2-1 2 2 0 2 0 1 1-3 1-4 4-1 4 1 0 2 1 2 3s0 2-1 1l-2-1v8h1l-1 1-1 10v9h88a1481 1481 0 0091-1l34 1c32 0 34 0 34-2h1c0 2 4 2 76 2h77v-36l-1-36h-5c-7 1-8 0-1-3l6-3v-7l-1-12v-1l1-1-2-1-4-2c-2-2-6-3-4-1h-5m-84 9l-3 4-2 1-2 2c0 1-1 2-2 1l-3 1 1 1 1 3c0 4 3 7 4 5v-2c-2 0-3-4-2-5l2-1 2-1 4-3c4-2 9-7 7-8-1-2-4-1-7 2" fill="#d3d3d3" fill-rule="evenodd"/></svg>