<svg xmlns="http://www.w3.org/2000/svg" width="400" height="235"><path d="M353 1c-1 1 1 2 6 1 6 0 6 1 0 4-4 1-6 2-6 4-1 3-4 5-5 3-2-3-4-2-5 1s-1 3 1 3c2-1 4 1 2 2v3l-1 1h-2c-2 1-2 1-1 3v2l-2-2h-2c-2 2-4 2-17 2l-19 1c-4 2-9 5-7 5 1 0 2 5 0 7v3c1 2 7 4 8 2 1-1 1-1-1-1h-2v-1l1-1v-1h1l2 1 1 6c-1 5 0 10 2 10v1c-2 1-2 1 0 2 2 0 3 1 3 3 0 5 0 5 1 3l1-4c0-3 3-5 7-5l3-1c0-3-10 0-11 3-1 2-1 2-1 0l2-4v-3c2 0 3-2 1-2-2-2-1-3 2-3s4 2 2 3l-2 1 2 1 1-1h2l2 1 3 1c3 2 4 7 1 6-1 0-2 1-1 4l-1 7v2l-2-2c-2-3-6-2-8 1 0 1-1 2-2 1-2-3-1 1 2 4s4 7 1 7l-2-3-1-1-1 3v5c3 8 2 16 0 21-3 4-3 5-3 22l-2 19c-1 2-7 3-12 2h-4v-7c0-8-6-16-6-8-1 3-3 4-3 1a319 319 0 00-6-16c-1 1-2 12-1 15s-2 4-6 2c-3-1-3-2-2-3v-5c0-2-5-10-6-9l-2-3c-2-6 0-10 7-15 3-2 4-3 3-5-1-5-4-5-7 0-3 6-10 12-8 7l1-3c1-4-3 0-5 5l-4 5v-5h-2c-1 2-3-1-2-3l1-7c1-4 2-6 6-7 2-1 2-1 2 2s0 3 2 3l2 2c1 1 2 0 5-3 5-5 5-5 2-5v-1c2 0 2 0 1-1v-4c1-1 1-1 1 1l2 3c2-1 4 1 6 6 2 4 2 4 2-2l1-2v-3l-1-3 2 2c1 2 1 2 3 1l4-4 3-2-3-1c-3 0-3 0-2-1h5l-2-2-1-1v-2c0-2-1-2-3 2l-1 4-2 3v-3c-1 1-2 0-2-1-1-1-1-1-4 1l-4 1-1 1-1 1c-2-2 1-5 3-4 2 0 3 0 3-2l-1-3 1-4v1l1 1h1v1l1-1h4c3 1 4 0 4-2 0-1 0-2 1-1l1-3 1-5h-2c-2 2-5 3-5 1-1-3-3-2-3 0h-3l-1-1c-2-1-3 0-4 2-1 1-2 2-4 1-3 0-5-3-3-4l1-5 1-3 1-2 1-2 1-3c1-2 1-3-5-3l-7-1h-14l2 3c3 3 5 8 4 12 0 3 0 4 2 6s2 2 0 3l-2 8-2 7v-6c1-4 1-5-1-7-1-3-1-3 1-5v-1c-3 0-5 1-5 3l-1 1-1-3-2-3c-3-3-3-4 1-4l2-1-2-1c-3 1-7-6-4-7 2-1 1-3-1-3s-5 2-5 4l3 7 1 2v2l1 2c0 1-2 2-5 2l-4 1h4c4 0 6 2 2 2v1c1 2 6 1 7-1 1-1 1-1 1 1l2 3 2 6 2 7 1 3-2-3-2-2 1 7c0 8 0 8-2 8l-2-1-1 2c0 3-1 5-2 5v-2c1-1 0-2-1-3v-4c-1-4-1-5 1-3l4 2c3 1 2-2-3-11l-3-6-2 4c-1 4-1 4 1 7 1 2 1 4-1 2-2-3-3-2-3 1v10c-1 6-1 7 1 7l1-1 1 1v3c-2 1-3 1-3-1 1-1 1-1-2-1-3 1-3 1-3-3l-2-8-3-7-1-1-3 4v12c-1 2-4-1-3-4l-1-1c-1 1-1 0-1-2 0-1 0-2-1-1 0 2-3 0-3-2 0-4-2-6-6-7s-4-1-4-4c1-4-1-5-2-1 0 2-1 5-3 6-2 2-2 2 0 2 2 1 3 6 1 6s-2 3-1 5c2 1 1 7-1 12-2 4 1 7 5 8l7 2 7 2c5 0 7 1 7 4l4 2 3 2c1 1 1 0 1-2l-1-3c-2-2-1-10 1-13l2-3 3 2 4 1c1-2 3 4 3 7 0 6-5 10-10 8l-1 1 6 1c3-1 4 0 4 1h2l6 1c5 1 7 5 4 7l-1 2 2-1 1-1v6l-1-1-1-2-1 1h-4l1 1 2 3c0 2 0 2-2 1l-1-3-2-1-2-2c0-1 0-2 1-1l1-2v-3l1-1c0-2-1-2-3 0-3 2-19 2-19-1l-2-2c-1-1-1-1-1 1v5c0 3 1 4 2 2 3-2 4 0 2 3h-3l3 3c3 1 3 1 3 4l1 3 1 1-1 1h-1c-2 3-7-2-8-7 0-5-2-9-3-9l-1 1 1 1 1 1-2 2-1-3-1-2c-1-1-1 1-1 5l-2 1c-2 1-2 10 0 13v3l-2 3-3 8c-4 7-4 8-1 7 2-1 5 0 8 4 3 3 3 3 3 1l1-2h4c2 2 3 1 2-1-2-2-2-3-1-4s0-3-1-3l-3-1v-2h4l2 3 5 4c1 1 2 2 3 1l2 1c-2 5 5 0 12-9 1-1 2-1 2 1s0 2 2 1h1l-1 1-1 2-2 4v2c3-1 4 1 5 7 0 6 1 7 3 7s6 4 7 8 1 5-4 5c-4 0-4 0-5-5l-1-7-1-1c-1 0-2 5-1 7l-1 1-1-4c-1-2-2-3-4-3-2-1-3-2-2-3l-1-1-1 3-1 4-1 3c1 2-3 1-5-2l-3-3h-2l-2-2-1-2-1 2c-1 2-2 2-2 1h-1c0 3-2 2-2 0 0-4-1-7-2-7v2l-3 1-4-1-5-1h-3c-1-1-2-2-1-3 1-3-2-2-5 2l-2 5 2 1 3 2c3 0 4 0 4 7l1 5h-13c-13 0-14 0-14-2l-1-3c0-2 4-6 8-9l2-2-2-4c-2-4-5-7-4-4v4c2 2 2 2 1 3l-2 3-1 2-1-2-1-1-1-1c1-2 0-2-1-2l-2 1-4 1c-2 0-3 0-2-1h-1c-2 0-1-5 1-9v-4c-1-1-1-1 1-3 3-1 4-1 2 1s-1 3 1 2c3-2 6-1 7 2l2 3 1-3c2-3 0-5-2-4l-4-4-2-2c0 2-1 2-4 2-6 0-6-2-1-3 5 0 5 0 4-3l-2-2-1-6c0-4 0-6-1-5 0 3-2 2-2-1l1-4c1-1 1-1-1-1-1 0-2-1-2-3v-4l-5-9-5-2-4-1-1 1-1-2h1l1-2c-1-1 0-2 1-3 3-2 3-2 7 3 5 6 6 6 6 2 0-3 4-7 9-9l6-3c1-2 2-2 2-1h1c2-2 1-11 0-11l-2-4c0-1 0-2 1-1h6l-1-1-2-1-1-2c-5-2 2-11 7-10 2 1 2 1-1-2s-3-3-5-2c-2 3-3 2-4-2 0-3 0-3-1-1-2 1-2 1-4-3l-3-3c0 2-2 1-2-1l-2-3c-4-3-4-4 2-6 3-2 4-2 3-3-2-1-3-3 0-3l1 2h3c2-3-1-4-6-4-3 0-4 1-4 5-1 3-1 3-1 0s-3-5-8-5c-3 0-5 2-3 4l1-1c0-2 3-1 3 1 1 2 1 2 2 1 1-2 1-2 1 0l1 3v2l-4-1c0-2-1-2-1-1l3 5c4 4 4 10 0 14l-2 3 1 1c-1 1 0 2 1 3 1 2 1 2-2 2-5 0-6-1-6-5l-2-7-3-6h1c1 1 1 0 3-3l3-5c2-2 1-3-1-2l-1-1v-1c-1 0-2-1-2-3 0-1 0-2-1-1l-1 3-1 4-2 3-2 4-1-2v-3c-1-1 0-2 1-3l2-2h-7c-1-1 0-1 1-1l-1-2-3-1c-1 2-2-2-2-7 0-4 0-4 4-6s5-4 3-7h-1l-2-1c-2-3-3-1-1 3l1 3c-1 1-1 0-2-1 0-2-1-3-2-3v3l-1-2c-1-2-1-2-2-1-3 4-6 2-6-3l-1-5-1 1-1 1-1 2v1l2 2c1 3 1 3-6 3l-4-1 5-7c3-2-1-3-7-3-11 0-11 0-11 6v6l1-5v-5l2 2c3 4 3 9 0 9s-3 0-2 3 3 4 3 2v8c0 2-2 1-2 0 0-2 0-2-3 0-2 1-3 2-2 4v4c0 4 1 1 2-3l2-1 4-1 3-2h1c-2 2-2 2 0 2l3 1 3 1v1l-1 4c1 3 3 3 3 0s3-7 6-7l1-1-4-1-3-1h8c5 0 6 1 4 1h-4l4 2c4 2 6 4 6 9 0 4-2 14-4 15-2 0-1 2 2 3l1 2v5c-1 4 2 9 5 9 5 0 12 10 8 13v3l-2 6c-1 2-2 5-1 7 0 3 0 4-2 4l-2 2h-3l-3-4c-2-2-3-3-3-6l-1-4c-2 0-3-4-2-6 2-4-1-15-7-29l-3-9c0-4-1-5-3-4v5c3 2-5 12-9 10-1 0-3 0-3 2-2 1-2 1-5-1l-4-2h-1l1-1 1-1c0-1 1-2 2-1v-1c-3-4-5 1-5 12 0 19-1 33-3 33l-1-2c2-8 2-10-1-22a376 376 0 00-4-21c1 2 2 3 3 2l1 1 2-1 2-2-3-1c-3 0-10-7-10-10l-1-2v1l-1 2-1-1c-1-2-1-2-3-1l-2 2-1 2 3-1c1-2 1-1 3 3v6l-4 2c-4 1-5 1-6-5s-3-11-6-15l-1-2-4 2-3 2-1-3c0-2-1-3-2-3l-2 1v1l-1 1-3-1v-1c3-2 2-3-2-2-1 0-3 0-4-2h-2c-1 6-3 9-6 8-3 0-3 0-2 2 3 3 3 5 0 4l-4 1H7c-1 1-1 1-2-1v-4h1l2-1v2l-1 1h6v-2l-2-1-2-1 2-1v-1H8c-1 0-2 0-1-1 0-2-1-3-4-3-2-1-2-1-2 14-1 5 0 6 1 6 2 0 4 2 3 3l-2-1-2-1 1 2v1c-2 1-1 5 0 5l3 1-1 1c-2-1-4 1-2 2v10c-2 0-2 1-1 5v19l1 2v1c-2 1-2 4-2 32a468 468 0 001 42c-1 7-1 7 8 5l7-3h5l4 2c4 1 6 0 6-3 0-4 1-6 4-7a409 409 0 012 12v4l-2-2c-3-2-4-3-4 0l3 3c4 1 4 1 4 8l1 7c1 1 10 2 32 2h32l2-4 5-6 2-4 2-4 2-3v3l-1 5v2l1-2c1-2 4-3 5-2l2 4v4h-3c-4 0-4 1-3 5v2h25c24 0 25 0 24-2-2-3-1-5 1-1l2 3h51l-2-6-2-6c2-1 11 1 11 3h1c0-2 8-6 8-4l-2 7-2 5a397 397 0 0025 0h10l4-1h5l-1-5-1-4c-2 0-2 0 0-4 1-4 2-4 2-1 0 2 1 2 1 1v-3c-2-2-1-4 1-4l2 2 4 7 3 4v-8c0-8 0-8-2-8-3 0-3 0-2-3l1-8c0-5 1-6 2-6 1 1 1-1-1-3-1-3-1-5 1-4s1-2-1-6c-3-4-3-4-5-2l-3 2v3c-1 0-1 4 1 13v4l-2-4-4-3c-2 0-2 0 1-2l2-1h-12c-5-3-14-21-12-23s5 0 8 7c4 9 5 10 9 9 3-1 6-5 8-9 3-5 6-7 9-5 4 1 6 0 4-2s-2-7 0-8l4 2 6 2c4 0 8 4 8 7 0 4-3 7-7 7s-4 0-5 5l-1 29v24h4c3 0 4 0 3-2 0-2 0-2 1-1l4 2c2 0 2 0 1-1l-1-2-1-2c-4-1-2-2 5-2 7 1 10 2 9 3l1 1 2 2c0 2 1 2 6 2l7-1h1v-9a962 962 0 001-25l10-1 9-1-2-14 1-3c1-1 2-3 1-4 0-3 2-4 4-2l1 13 1 9 1-8 1-7 1-1c-1-1 0-4 2-4h2c1-1 1-1 1 1l1 3v13c-1 5-1 6 4 4l12-2 10-1c2-1 3-1 3 1V0h-24l-23 1m32 2l-3 1c-6 0-7 1-6 2v3c-1 2-1 2 1 3 1 1 1 1-1 1s-2 1-1 8l4-5c0-2 0-2 1-1 0 2 0 2 2 0l2-2v2c0 2 0 2 1 1l1-2 1-1 1-2c0-1 0-2-1-1V8c0-3-1-7-2-5M10 28l-2 2c0 2 0 2 2 1h2l2 1 1 1c-1 1 1 2 3 2 3 2 3 4 0 4s-3-1-2-2h-4c-1 2 0 4 1 3l2 1c0 1 1 2 3 1l4 2 2 2c2 0 0-5-2-7-1-1-1-1 1-2h2l2 1 1-1h1l1-1 1-1 1 1 1 1c2 0 1-3-1-4-3-2-3-2 2-3h1c-2 2-2 2-1 3 2 1 2 2 1 3v4h4c0-1 1-2 3-1 2 0 2 0 1-2 0-2 0-2 2-2h2l1-1c4 0 0-3-5-4-6-2-26-3-33-2m57 7c0 6 2 10 5 11 3 0 5 2 3 3h-1l-1-2v2l-2 2c-1 0-2 0-1 1l-1 2-2 1c0 2 3 1 5-1s2-2 4 0h1l2 1h2l-1-2c-2-2-1-3 1-3l2-1h3l-1-1v-1l1-8-1-8H67v4m292 12l-2 1 1 1v2l-3-2c0-2 0-2-1-1v4h-1c0-2-4-2-6 1 0 2-1 3-2 3l-1 1-1 3-2 3c0 1 0 2-2 1l-1 1v1l-2 1v-1l-1-1-1 1h-1l-1-2-1-1-2 2-1 3-1 4-3 7c-2 4-5 18-5 25l-1 9c-2 8-2 18-1 18h3l3 2h3c4 1 4 2 4-34 0-19 0-20 3-18 4 3 7 4 8 2 1-3 1-3-1-2l-1-1 3-1c2-1 2 0 1 1 0 2 0 2 2 1 3-3 4-8 1-8v-1l1-1 1-2v-2l-1-1 1-1c0 1 2 0 3-2 4-3 7-3 3 1-5 4-4 16 1 17 2 1 1 6-2 9l-3 5-1 4-1 5v4h20v3c0 3-7 17-10 22-1 2-3 3-5 3s-2-1-4-7v-3l-1 2c-1 4 0 8 1 8l1 1c-1 1 0 2 1 4l1 4 1 1 1 2c-2 2 2 1 3-1 2-1 2-2 1-2-1-1 1-4 6-11l11-19 1-5 1-14c0-7 0-8-3-10l-4-2c-1 0-4 11-2 12 2 2 1 3-2 3-4 0-5-2-5-6v-4l-1-4-1-3 1-2c4-4 5-9 2-14-2-5-2-5 0-6 2 0 2-1 1-3l-1-4-1-1-1-3-1-2M255 67c-5 2-7 4-7 10 0 8 4 12 9 10 5-3 6-10 2-15-2-3-2-3 0-4 2-2 1-2-4-1M139 98c2 6 6 11 10 12l13-2v-3c-2 1-5-1-9-5l-2-1-4-1c-5-3-9-3-8 0m118 30l-4 5c-3 0-5 4-3 5h1c0-1 5-1 6 1 2 2 3 1 3-2v-2l2 2c1 2 1 2 1-2 0-5-1-8-3-7l-1-2c0-2-1-2-2 2m-221 8c-3 1-3 2-3 5l2 6c2 2 1 3-1 3-3-1-3-1-1 20a895 895 0 013 17c1 5 2 6 3 7 2 0 3 2 3 3l1-6v-12l-1-10a564 564 0 01-2-21l1 4v-4l1-3v-2l-1-3c1-5 0-6-5-4m126 4c0 3 0 4-1 3l-2 1 2 1 1 2v1l1 1v2l1 6c1 7 3 10 7 10l3-1c-1-1 0-1 2-1h4l-3-1h-9l2-1h2l-2-2h-3c-2 1-1-3 1-7l2-5c0-2-2 1-4 4-1 3-1 3-1-2s0-8-2-11l-2-4 1 4m-93 3c-2 2-2 3 0 5l2 4h2c5-1 8-3 8-4h3c0-1-4-4-7-4l-3-1c-2-2-2-2-5 0m154 6c1 2 1 2-1 2v2l-1 3c0 2 0 2 5 1h4c2 1 5-1 4-3h2l2 1-2-2-2-2-2-3h-3l1 3 2 3 1 2c-1 1-5-3-5-5l-3-3c-3-2-5-1-2 1M95 166c-2 1-6 6-6 8 0 4 5 7 9 7 3-1 3-1 4 3l1 18v15l-4 3c-5 4-6 6-4 8h2l2-2 3-3 3-3c2 0 2-3 1-5-1-1-1-1 1-1l4-2 1-2 1-1c-1-2 0-1 3 1l2 1c2-1 15-26 15-26l-4 2-6 5v2l-2 3c-5 2-7 3-5 1l1-2-2 1-2 1c0-2-2-1-2 1-1 2-2-19-1-23 0-2-7-10-9-10h-6m20 1c-3 2-3 2 1 9 2 6 5 9 6 8l2 1 4-1c2-2 3-3 2-4h2c-1-1-1-1 0 0l1-1v-1l3-1 3-2 3-1c2-3 5-2 6 0h1c0-4-5-8-9-8l-4 1-3 1-4 1c0 2-6 1-9-1-3-3-2-3-5-1m65 4l-8 2c-2 0-3 1-1 4 1 1 2 2 1 3l1 1 3 2c3 2 9-1 12-6 3-4 3-4-4-4h-5l3-2 6-1 3-1c0-2-5-1-11 2m-34 27l-5 2c-4 0-4 0-4 8v5h16v-8c-1-8-1-9-3-9l-4 2m163 3h-3v9c0 10 1 11 6 6 3-3 3-4 2-5l-1-5c1-4 0-6-4-5m56 16c0 8-1 10-5 10-2 0-2-1-2-3 0-3-1-4-2-1l-3 1c-2 0-2 0-1-1l1-2c-1 0-4 2-4 4l3 1c3 1 4 1 3 3 0 3 2 4 7 3l5-1c3 2 4 0 2-2-2-1-2-2-1-2v-2l-1-6c1-3 0-5-1-7-1-1-1-1-1 5m-123-3v3l2 4c1 3 1 3 6 3h5v-8h-4c-4 0-5 0-5-2 0-3-3-3-4 0m-75 3l1 3c1 0 2 1 2 3v3h23v-4c0-3 0-4-2-4l-2-3c0-2-7-1-7 1-1 2-2 2-6 2s-5 0-4-2c0-2 0-2-2-2-3 0-3 0-3 3m-16 0l-5 1c-4 0-10 2-7 2l1 4v3h8c9 0 9 1 6-8-1-4-3-5-3-2" fill="#d3d3d3" fill-rule="evenodd"/></svg>