<svg xmlns="http://www.w3.org/2000/svg" width="400" height="265"><path d="M0 133v132h401V0H131l-1 8a303 303 0 000 37c0-5-1-4-1 8v15h-19c-18 0-19 0-20-2v-4l-1-6c-2-4-2-23 0-48V0H79v35l-1 20c-1 3-2 5-1 7 0 2 0 2-4 1l-6-1-5-1-10-3c-13-4-11-5 2-2l5 2v-5c0-2 0-4-1-3h-5l1-2v-1h2c6 1 3-1-4-3-8-3-7-4 1-2l6 2 1-8 1-7v4l1 2 1-18 1-17H0v133M98 12c0 10 0 11 2 13v1c-2 0-2 0-1 1v2l-2 1c0 2 2 1 4-1h2v5l-2 1 14-1h3c1 0 2-1 2-5 1-5 0-7-2-4l-2 2c-2-1-2-5-1-5l1 1 1-1v-5l3-1 1-3-1-3V9c2-2 1-4-1-4V4l2-2c1-2 0-2-3-2l-3 1h-1l-8-1h-8v12m80 15l1 2 1 1c2 0 0 10-1 12-2 2-2 1 3 15 4 10 4 10 3 12-2 1-2 1-1 6 3 6 3 7 5 6v-3l-1-2 3-2h2v2l1-3c-1-1 0-1 1-2 2-1 3-2 2-3v-1c2 0 1-2-1-2v-1c2 0 3-4 1-5l-2-2c0-2-1-1-5 2l-3 4v-4c1-2 1-4-1-5v-2l3-2 2-1h1c2-2 6 0 6 2 1 3 8 3 11 0l3-1-2 3-1 2-2 1 1 3c2 2 3 2 4 1 1-3 2-2 2 1v3l2-2 4-3-2 3c-4 3-3 7 3 7 2 0 4-3 3-5 0-1 7-2 9-1l3 3 1 2c2 0-2-6-4-7l-4-1c-1 0-2 0-1-1l7-1a4855 4855 0 01-22-2l1-4 1 2c0 1 9 2 12 0h4l6-1 4-2h-4l-5-1c-1-2 2-3 11-3 8-1-16-2-32-2h-17l3-1c3 0 3 0 2-2v-1c2 1 3 0 1-3 0-2-1-2-2-1l-3 1c-1-1 2-3 4-3 2 1 3-1 2-4 0-2-1-3-2-3h-1c0-2-3-2-7 1l-3 3v2c-1 2-1 2-3 1l-1-2c0-2-4-7-6-7v1m173 17c-5 0-5 1-6 4l2 5v2c-1 2 0 7 1 7l1 3c0 2 1 3 3 4l4 1h-4c-3 0-3 0-2 3l1 4 2 9c2 7 4 12 5 10l1 3 1 4c1-1 1 0 1 2 0 3 0 3 1 2v-3h1l4-1c1-2 1-2-1-2s-2 0 0-1v-2c-2 0-2 0-1-2l3-8 1-7 1-3c0-3 0-3 1 1l1 5v-5c0-3 0-4 2-4l3-1 6-3c4-1 4-1-3-1-12 0-14-2-5-2l6-2-2-1-2-2c0-1 1-2 3-2 4 0 4-2 1-2-2-1-2-1 1-1 5 0 6-2 1-2l-7-1c-2-1-2-1 2-1l4-2 2-1 4-2c1-1 1-1-1-1h-2c-1-1 1-2 6-2l3-1c0-2-35-2-43-1M30 60c0 2 12 7 19 7 3 0 3 0 2 1s-5 0-11-1c-10-2-14-3-9 0 2 1 2 1 0 1h-2l2 1a439 439 0 002 68c2 5 4 7 5 5l2-1c2-1 3-5 3-16 0-12 1-17 2-15 1 1 1-1 1-5-2-13-1-22 0-22v-1c0-2 0-2 2-2l2 2h2c0 4 2 8 3 6 1-1 1-1 1 1l-2 9-2 9c-3 4-3 20 0 20 1 0 2 1 2 3 1 3 4 5 5 3 2-3 2-8 1-9l-1-2c2-1 3 2 3 6-1 3 0 6 1 8l1 3v-4l1-10c1-19 1-22 3-20l1 12 1 11 1 2c2 3 4 3 6 0 1-3 6-6 6-3v8c0 8 1 10 3 6l1-1c0 2 0 2 4-1l3-3v3c0 5 5 11 7 8l1-3c-1-2 0-1 3 1 2 3 3 3 4 0l2-4v-3c-2-1-3-5-1-5l1-2v-4c0-2 1-1 1 5l2 9 2 4c0 4 8 9 16 8 5 0 8-1 4-2-3 0-1-2 2-1l4-1h2l3-2c3-3 2-4 0-4-2 1-2 0-2-8 0-7 0-8-2-10-2-1-2-2 0-3l1-3c-1-1-4-1-5 1h-1l1-3c1-1-1-8-2-8l-1-1c0-1-2-3-5-4l-4-2h4c4 0 7-2 7-5l-3-6c-2 0-3-3-1-3v-3c-2-2-8-3-10 0-2 2-2 16 0 16 1-1 1 0 1 4l-1 5-1 2-1 1v2h-2v-1h-3v2h-2v2h-2c0-1-1-2-3-2h-3c0-1 1-2 3-2l4-1h3c1-1 1-2-1-3l-1-1c0-2 0-2-2-1-4 2-4 2-1-3l3-11c3-11 8-16 15-14 5 2 6 3 11 12l3 10c-1 4 1 6 3 4l1-4c-1-2 0-4 1-2h1c0-4 2 1 2 5s1 6 3 10l3 5 2-5 2-13c0-8 0-8-2-8-3 0-6-7-6-18v-4h-28l-36-1c-9 0-11 1-5 3l5 1-5 1-4 1 3 1c2 1 2 1 0 1h-6c0-1 1-4 2-3l1-1v-1l-3-2c-3-2-22-8-23-7h-3c-5-3-22-7-22-5m184 11v3c3 0 3 3 3 11 0 4 0 6 1 4l1-3 1-3c1-3 3-5 3-2h1l4-2c1-1 0-1-3-1-7 0-6-1 1-2 7 0 12-2 8-2l-4-1c-3-1-1-2 2-1l6-1c2-1-1-1-12-1-9 0-14 0-12 1m173 8c1 8 2 10 4 11s2 1 3-3c0-4 1-4 3-4 3 0 3 0 3-5v-5h-13v6m-99 0l-2 3-5 6c-3 3-4 4-3 5s0 5-2 7c-3 1 3 4 8 3 6-1 7 0 1 1l-3 3-1 2-2 1c0 1 3 2 4 1 2 0 1 2 0 3l-1 2-1 4v6l2 4 3-4 4-6 4-2 4-2 3-2h5c1 0 2 0 1-1s-2-9-1-10l3 5c2 7 4 4 1-4l-1-10c1-4 0-7-1-6l-1-1-1-1-1 1-1 1h-1l-2-1-2-1-2 2-2-1h-3l-1-2-1-1 1-2c2 0 5-3 3-3l-2-1-4 1m101 12a227 227 0 001 5l-2-2-1-2c-1 0-2 16-1 20s0 14-2 15c-1 2-2 30 0 33a1073 1073 0 012-21l1-13 2 5v4c-2-1-1 0 1 5l3 5v-8c0-7 0-8 2-8v-1c-2-2-2-3-2-10 0-8 1-11 2-8l1 1-1-4c-2-2-2-3-2-8s0-6-2-8h-2m-237 33v15l2 3c2 2 3 2 6 0 4-2 3-6-1-7-3 0-3-1-1-10l-1-2-3-2c-1-1-1-1-2 3m115 13v2h-2l-3 2c-5 1-7 4-5 4s2 1 2 5l1 11 2 2c1 2 3 1 3-3 0-2 0-3 1-1 0 4 2 5 2 2 0-2 0-3 1-2 2 0 1-8-1-15v-4c1-1 0-4-1-3m41 8l-12 2-6 2c-2 1-8 13-10 20-2 5-1 7 1 3 1-1 1-1 1 1 0 4 2 4 2-1 0-3 0-3 1-2l1 4v2l1-3 1-1 3-5c1-10 8-19 9-14h4l9-1c10 2 15 0 15-3 0-6-7-8-20-4m-123 23l-2 10v50h7v-6c3-33 3-47-1-51-2-1-2-1-1-2v-1h-3m23 2v27l1 10 9-5c0-1 1-2 3-2l3-2v-12l-1-12v-3l-3-1-3-1c0-2-8-1-9 1m-64 6l-5 5-4 3-3-1v-2l-2-1c-3 1-4 3-5 4l-1 3-3 10-2 10c-1 1-2 15-1 17h10v-2l-1-12c0-9 0-11 3-15l4-7 2-3v2c1 7-1 16-3 18l-2 3v8c-2 7-1 8 4 8 3 0 3 0 2-3v-4c-1-1 1-8 6-19l6-10c1 1 7 2 8 0l-4-1c-4 0-4 0-3-2l1-3 2-2c2 0 3-1 1-2h-3c-2-2-4-3-7-2" fill="#d3d3d3" fill-rule="evenodd"/></svg>