<svg xmlns="http://www.w3.org/2000/svg" width="375" height="300"><path d="M0 43v44l35 14a296912 296912 0 0192 38l-18-12-19-12 22 11 21 11-10-9L11 42a2284 2284 0 01123 83l-13-14-14-13 18 14 17 14A4013 4013 0 0039 4a2805 2805 0 01108 113l-11-18-12-17 26 33A32004 32004 0 0196 12L90 0H0v43M93 1l11 18a2211 2211 0 0159 96c2-4 3-2 3 3l-1 4c-2-1-3 0-3 3l2 4c1 0 2 4 0 4s-2 4 3 16l1 4 1 1v4c-2 4-1 5 4 7l7 5c0 2 2 4 4 4l3 3 1 2c2 0 7 9 7 13-1 4 0 5 12 7 17 3 16 3 15-2l1-5 3-3 1-3c2 0 4-3 3-5l-2-5-19-34c-17-29-19-33-17-34l1-5 5-16 4-12-3-1c-2-1-2-2-2-5 2-7 9-66 9-67 0-2-1-2-16-2h-16l1 4 8 64c-1 1-8-3-8-4l-5-63-17-1-17 1 13 35 12 37-2 4-3 3-6-23-12-40-5-17h-20L93 1m117 1a5696 5696 0 01-8 102l4-13 8-32a423 423 0 01-8 47l9-23 29-82-17-1c-16 0-17 0-17 2m35 8l-29 98 15-30a451 451 0 00-12 35A1433 1433 0 00287 1l1-2h-40l-3 10m29 21a38120 38120 0 01-43 81l13-15 12-16-13 20-13 20A4131 4131 0 00339 7l-97 114c-7 7-2 4 13-9l16-13-15 15-15 15a8749 8749 0 00118-78 47065 47065 0 00-109 84l18-10 19-9-19 13-19 12a2410 2410 0 00126-51l-14 8a14892 14892 0 00-105 51l22-7 22-6-23 9-24 9a3641 3641 0 00123-24 907 907 0 00-3-91c2-1 2-2 2-20V0h-15c-14 0-15 0-16 2l-2 2 1-2c1-2-2-2-25-2h-27l-17 31M1 110l1 21 27 5 93 17-19-7-19-8 21 6c23 7 26 7 18 3A5776 5776 0 0114 95L1 89v21m-1 42v19h3a11984 11984 0 00113-3h8l-8-1a1318 1318 0 00-17-5l27 2a1423 1423 0 00-112-27l-14-4v19m336-8a28724 28724 0 01-76 19 711 711 0 0025 0c-31 4-34 5-23 5l97 3h16v-18c0-17 0-18-2-18l-37 9M0 181v7h99l11-3c13-3 11-4-11-1-27 2-27 1-1-3 28-3 30-4 22-4a29160 29160 0 01-115-3H0v7m313-5l-50 1 20 4c29 3 27 4-4 1l-23-1 14 4 14 3h91v-14h-8l-54 2M34 232l-2 11c2 2 3 1 4-1l3-3 1 3c1 2 3 3 4 1l-1-8c-2-12-2-12-4-12-3 0-3 1-5 9m18-8c-2 1-1 19 1 20 5 2 12-4 9-9v-4c1-3 1-4-1-6s-8-3-9-1m126 0v11c0 7 1 9 2 9 2 0 2-1 2-4 0-5 2-5 3-1 1 5 1 5 3 5s2 0 1-4l-1-5v-3c2-3 1-7-2-8h-8m77 0c-5 3-6 13-2 18 3 2 8 3 9 0h1l5 2h5v-7c-1-7-2-9-8-8-3 0-3 3 1 3l2 1-1 1c-2 0-5 3-5 6h-1l-1-1h-2c-4-2-3-10 2-12l2-2c-1-2-4-2-7-1m20 9c0 10 1 11 3 11 1 0 2-1 2-11v-10h-5v10m15-9l-1 3-1 2-1 2 1 1 1 6c0 4 1 6 2 6 2 0 2-1 2-6s0-6 2-6l1 4c0 4 3 8 6 8 4 0 7-9 4-13-2-3-7-3-9 0h-1l-1-2-2-1 2-2 1-2h-6m-136 2l-2 2c-1 3 1 14 2 15 3 2 5 1 5-1l-1-2c-2 0-1-8 1-8l1-2-1-1-2-2c0-2 0-2-3-1m-66 3c-7 3-5 16 3 15 3-1 4-4 1-4l-3-1 3-1c3 0 3 0 3-3 0-5-3-7-7-6m12 0h-3v10c0 9 0 10 2 10s2-1 2-3 0-3 2-2c4 1 7-8 4-13-1-2-3-3-7-2m62 1c-5 6 1 18 7 13 4-4 3-12-2-14-2-1-3 0-5 1m31 0c-4 5-1 15 5 14 3-1 4-4 1-4l-3-1c-1-1 0-1 2-1 4 0 4 0 4-3 0-6-5-8-9-5m14-1h-4v7c0 7 1 8 3 8 1 0 2-1 2-5 0-7 1-8 2-1 0 5 1 6 3 6 1 0 2-1 2-5 0-9-1-11-8-10m13 0c-7 3-3 17 5 15 3-1 2-3-1-4-4 0-4-2 0-2s4-1 3-4c-1-4-4-6-7-5m97 0h-8v7c0 6 1 8 2 8 2 0 2-1 2-4l2-7c1-1 2-1 2 5 0 5 1 6 3 6 1 0 2-1 2-5 0-7 1-8 2-1 0 5 1 6 3 6s3-5 2-11c-1-4-3-5-12-4m-246 5c0 8 2 10 7 10h5v-6c0-7-1-9-3-9s-2 1-2 5l-1 6-1-5c0-6 0-6-2-6-3 0-3 0-3 5m54 3c0 6 0 7 2 7s2-1 2-6c1-7 2-7 3 1 0 4 0 5 2 5 1 0 2-2 2-5 0-9 0-10-6-10h-5v8m103-4c2 10 6 14 8 7l1-3v3c2 7 4 5 7-4l2-7h-3c-2 0-2 0-2 3l-1 3-1-4c0-3-4-3-5 1s-1 5-1 1 0-4-3-4c-2 0-2 0-2 4m109-3c0 1 1 2 5 2 1 1 1 1-1 2-7 3-5 10 2 10h5l-1-6-1-8h-9M74 259v7l1-1 2-2 1-1 1 1c1 3 4 4 6 2h4l1-2 1 2 1 1 1-4c0-3-2-5-5-3H74" fill="#d3d3d3" fill-rule="evenodd"/></svg>