<svg xmlns="http://www.w3.org/2000/svg" width="400" height="266"><path d="M0 133v133h39v-9l1-8h3c3 0 3-1 5-14 0-5 1-7 2-7a2622 2622 0 0050-3c2 0 3-6 2-7s-1-1 1-1l5-9 4-8a22234 22234 0 0070-6l1-3 1-11 1-9 4 1 6-1c2-1 19 5 19 8 1 1 1 0 1-1 0-2-2-3-9-6a235 235 0 01-17-6c-2 0-3-3-1-5l2-4c0-3 1-4 8-6 17-5 21-7 21-8s-1-2-8-3c-3 0-5-1-7-3l-2-3h3c3 0 3 0 3-3s-2-9-4-11c-3-3-4-21-1-23v-8c0-5 0-6 2-8l3-4c2-3 12-11 15-11l1-1h2c2 0 2 0 1-1s-1-1 1-1l5-1c2 0 2 0 1 1s-2 2-3 1c-2 0-2 0-1 1v1l-2 2-6 2-7 2-2 2h2l4-1 3-1h4c4-2 4 0-2 7-6 5-5 7 1 2l4-3-9 9-8 7h3l3 1v1c1 1 0 1-1 1-3 0-3 0-1 2l3 2c2 0 2 0 0 1h-8l-3 1-3 2v1l2-1c1-3 2 0 1 9v9l4 4 3 5 1 1 1 3 1 3h5c1-2 2-2 2 2s4 18 5 16 3 0 5 4l2 3-3-10c-5-3-13-32-10-34v-3c-1-3-1-3-3-2-2 2-5 2-6-1v-5l1 1 2 2c2 1 2 0 2-1-1-1 2-5 3-5 2 0 4-3 4-7l2-4c3-1 5-8 4-11-2-6 14-8 24-4 6 3 9 6 9 11 0 4 0 4-2 4-3 0-6 3-6 6 0 1 0 2 2 1v-1l1-2 1 1v3c0 2 2 4 3 2h2c1 3-1 12-4 20l-3 8 5 4c6 5 11 7 24 9 10 2 13 3 15 7 0 2 2 4 3 5l1 4 1 9 1 14 1 7h11c10 0 11 0 11-2 0-6 2-14 5-15 2-1 4 1 3 4h-2c-2-1-3 1-3 8v5h64v30h-8l-6 1 1 2 1 4 2 3 2 5c1 5 1 5 5 5 3 0 3 0 3 4 0 3 0 3-2 3s-3 1-3 2 1 2 3 2 2 0 2 3c0 2 0 3-2 3l-2 1c-1 2 1 4 2 4h2c1 1 1-55 1-131V0H0v133M195 3l-4 2-3 1-3 1-3 1-2 1c0 2-1 5-3 5l-5 4c-1 2-3 3-3 2l-1 1-10 6c-11 5-14 8-14 10v1l-1 1 4 4c2-1 8 5 7 6v4c-1 5-1 5-2 4h-1c1 1 0 2-2 4-5 4-4 4 8 4a1661 1661 0 00119-12l2-1-3-2c-4-3-6-7-6-13l-2-8-2-5-2-2h-7c-5 0-10-1-12-5l-2-3c-1 0-2-1-2-3 0-1 0-2-1-1 0 2 0 2-4 0l-3-1-1-1-3-2-3-1h-2c-1-2-2-2-3-2h-25m46 63l-1 2-1 2c1 1 2 2 6 1h5l6 1c5 0 14 4 12 5l3 3 2 2v-2c0-3-9-12-14-14-6-3-18-3-18 0m0 68v1l-1 2v6c-1 4 6 3 11-2 5-4 6-5 3-5-4 0-12-1-11-2l-1-1-1 1m-26 53c-2 5-3 10-3 16 0 5-1 7-2 7l-4-2c1 1 0 2-1 2v6l2 5h14l13-1c2-1-5-8-9-9-7-1-7-1-7-9 0-7-2-17-3-15" fill="#d3d3d3" fill-rule="evenodd"/></svg>