<svg xmlns="http://www.w3.org/2000/svg" width="400" height="267"><path d="M0 65a941 941 0 003 83c3 2 3 3 3 6 0 6 1 7 8 8 8 0 9-1 9-7 0-3 0-4 1-3l1 4c0 3 2 5 3 3 2-2 4-8 4-12s0-4-3-3c-3 0-4-3-2-7l2-3c0-1-7-3-12-3-7 0-9-1-8-6 2-5 2-5 9-6 7 0 9 1 6 3-3 3-3 4 1 5h9c1-2-1-5-4-6s-2-3 3-4c5-2 13 0 16 3 2 2 13 4 16 3 5-3 1-14-5-14l-4-2c-2-3-2-3-2-16V66a1019 1019 0 01-4-64c-1-2-2-2-26-2H0v65m125-52l-4 45c-1 7 1 8 21 9l19 1c3 1 3 1 3-2s5-9 9-10c3 0 5 2 5 6l1 4 1-2c0-4 3-11 5-12h5l4 1c1-2 4 0 5 2l2 3 2 3c1 3 1 3 1 1l1-3 3 3c2 3 5 7 8 7 3 2 7 7 8 11 1 6 6 8 6 2 0-3 0-3 2-2 1 3 2 2 2-8 1-8 0-11-3-11s0-9 5-12l1-2c-3 1-2-1 1-4l2-6c0-3-5-8-10-11l-3-3-2-1-8-3c-2-2-6-2-14-2l-11-1 1-9V0h-68v13M258 2c-2 3 3 6 6 3h8c2-1 3 0 3 1l3 1c4 0 5 3 5 10-1 6 1 7 3 2 1-2 2-3 3-2s-2 7-4 8c-5 1 0 3 7 3 3 0 4 1 4 2l-2 1c-6 0-4 5 3 8 2 0 3 2 3 4 1 2 10 12 12 12v-3l-1-2 3 2 3 4 2 2 1-2 1-3 1-4c0-2 2-3 3 0l1 4 3 18v3l-2-7-1-4-3-2-1-1c-1 1 1 9 2 11l6 12c5 10 5 11 6 19v9l-9 10c-29 32-47 57-71 105-7 13-9 15-10 13-2-1-1-1 3-7 4-5 7-13 9-25 0-5 2-13 4-18 3-12 4-20 1-24l-3-9c1-1 0-4-1-6l-2-7-4-8-5-6-3-7-4-12c-1-6-2-7-3-4l-6 6-3 6-5 10-9 18-11 21-8 14 3 7 4 10a1532 1532 0 011 5c3 0 28 26 28 29l-7 8-9 12c-5 9-5 9-14 6l-8-1-1 1-1-2c0-3-8-10-11-11-2 0-2 1-1 4 1 8-5 15-14 16-11 2 5 2 70 2a475 475 0 0080-4c4-1 4-4 0-9-3-5-8-20-8-25s2-8 14-21c8-9 9-11 10-15 2-7 6-10 13-6l5 1c2-1 1-6-2-7l-3-3 3-8 3-4c2-3 3-4 5-4l5-3 6-4c3 0 3-2 0-2-8 0-10-10-4-19l3-7c4-9 10-16 12-13v7c-2 5-2 6-1 15 1 11 1 15-1 15s-1 3 2 4l5 5 2 3 4-3c2-2 4-3 7-3h4V56h-8l-14-1c-5 0-5 0-6 3l-1 5c2 5 2 10 1 17v10c2 2 2 3 1 5s-4 3-9 1l-3-1V85l2-18c2-11 2-23-1-26-3-2-17-6-31-7l-14-2c-2 0-6-5-7-11-2-8-3-10-12-12l-11-6c-3-3-4-3-16-3-11 0-12 0-13 2m-88 118c-5 5-9 12-8 13l5-1c6-2 9-1 10 3 1 3 1 3 5 0l3-3-1-4-5-9-3-4-6 5m13 20c-5 4-6 4-6 0l1-2-2 3c-2 1-3 3-3 5 0 3-4 10-5 9l-2-2-2-8-2-4-3 3c-5 6-9 7-25 7-20-1-19-2-17 13 1 8 2 9 6 7 2-2 12-2 20-1 1 0 3 6 3 10 1 4-1 8-6 13-4 4-10 6-10 3l-3-1c-3-1-5-4-5-8s0-5-2-5-2-1-2-3c0-4-3-6-4-2-1 6-2 6-11 5-3-1-4-1-3 1l2 3 1 5 1 6 3 7c1 4 1 4 4 3h4v-10c-1-8-1-8-5-8s-4-1 0-3c5-3 7-2 8 1l2 4 4 5c1 2 2 3 4 3l4 2-2 1c-6-1-5-1-6 9 0 9 1 21 5 40l1 11c0 5 1 5 13 5h11l3-4 3-7c1-2 9-6 12-6 5 0 3-5-2-5h-3l3-2c2 0 3-2 3-3 0-2 4-7 6-7v-1l-4-1c-3 0-5-4-4-7 1-2 1-2-2-4-8-4-13-11-13-17 0-2-1-3-3-5-4-3-4-8-1-10v-3c-3-3-2-9 2-9 1 0 1-1-1-3-5-5-2-11 4-11a99 99 0 0135 18c2 0 3-24 2-28-2-3-2-4 1-8 3-6 2-6-3-7-4 0-5 1-9 3m177 87c-3 0-10 7-8 8l4 1c7 1 8 6 3 11l-11 9-4 4 4 1c3 0 3 1 3 3v3h16v-3l1-3 2-5c1-4 3-6 9-12l7-7-6-2-10-5c-4-3-7-4-10-3m35 28l-7 8-2 4h15v-7l-1-8c-1-2-1-2-5 3M1 260v7h12l11-1h1c1 2 3 0 2-2l1-2 1 3c0 1 0 2 1 1v-2c0-3 1-2 3 0l1 3v-3c0-1 0-2 1-1l1 2a422 422 0 0030 0h-4c-3 0-4-1-4-2l-2-2-4-1-2 2c0 2-1 1-6-1l-6-3-5-1c-2-1-5 1-4 3v1l-2-2c0-2-3-3-11-3l-11-2H1v6" fill="#d3d3d3" fill-rule="evenodd"/></svg>