<svg xmlns="http://www.w3.org/2000/svg" width="400" height="266"><path d="M105 0c0 2 6 10 8 12 4 1 5 4 4 7l3 5c2 3 2 4 2 9-1 5 0 6 1 8 2 2 3 7 4 22l-1 17v6c2 2 2 4 1 8l1 8c2 1 2 2 2 4-2 6-2 6 0 7 4 3 5-1 5-13a3379 3379 0 01-4-98c0-2 0-2-13-2h-13m285 1l1 3c1 2 1 3-1 5s-3 5-3 7l-1 5v5c-2 0-1 3 1 5s2 2 1 5c-1 2-1 3 1 4l2 3c0 1 2 1 4-1l3-1c2 1 2 0 2-7l-1-8-2 2c-1 2-5-1-5-4 0-2 4-6 6-6s2-1 2-9V0h-5l-5 1M48 119l-2 1-2 1h-3c-3 0-4 3-1 4v4c-1 3 0 8 2 8l3 2c3 3 5 3 5-1 0-2 0-2 3-1 3 0 3-3 0-7v-9c-2-3-3-4-5-2M0 195v71h109l-1-8a8879 8879 0 01-3-88l-3 1c-3 3-13 2-15-1-2-5-7-3-8 2 0 4-3 7-4 6h-3c-3 2-8 0-10-2 0-2-2-3-4-4s-2-1-1-2c2-1 2-1 4 1h1l2-3v-5c-1-2 0-3 2-4 6-4 6-9 1-16-5-4-6-4-7 1 0 3-1 3-3 3l-2 1-2 1c-2 0-3 1-3 2l-3-2-5-4-4-3c-1-2-2-2-4-1h-2l-4-1-4-1-5-2-4-3-8-6-7-5v72m224-57c-1 3-5 4-6 3h-1c0 4-5 7-11 7l-7 1-4-2-3-1-3-1c-2-2-6-3-7-2 0 1 3 5 4 4l3 1 1 2 6 4 6 3c-1-2-1-2 5-2l4-1-3 3-2 3c2 0 7-5 6-6l1-1c1 1 5-3 5-6l3-3 4-4c0-3 0-4-1-2m-46 13l-5 5-33 14c-9 4-10 5-11 15l-4 17c-3 7-3 11-4 22-1 14-3 23-6 31l-2 8v3h87v-7c1-10 2-11 5-11 4 0 5-1 4-4l1-4c4-1 2-2-5-2l-8-1h-2l-4 1c-3 0-5 2-2 2l6 1c7 0 5 2-2 3a49 49 0 00-16 5v-4c0-7 7-12 15-12 5 0 10-5 13-12 1-4 2-5 4-6l3-1a1115 1115 0 00-31-64l-1-3-2 4m42-2v4c-2 2-2 3-1 4v19a688 688 0 00-2 51l-1 5c0 6 1 8 4 8 2 0 2 0 2 3-2 5-1 10 0 12l2 6 1 5 4-1a320 320 0 0023-1c7 0 9 0 6-1-5-1-4-1 5-1 5-1 6-1 5-2h-4l-2-2c-2-1 10-1 33-1 33 0 42-1 38-2l-9-1-5-1-45-1h-45v-11l-1-6-2-5v-12l-4-8-1-2 31-1c27 0 30 0 30-2l-2-4a589 589 0 00-13-37 253 253 0 01-47-15M67 185l-2 2c-2-2-5-1-5 1l1 3c2 1 1 1-2 2l-2-2c0-2-2-5-3-4l1 3c1 1 1 1-1 2-3 0-4 9-1 13 0 1 2 0 2-2s4-6 5-4 5 1 6-2c0-2 1-3 3-3 3 0 4 0 4-4 0-9-3-11-6-5" fill="#d3d3d3" fill-rule="evenodd"/></svg>