<svg xmlns="http://www.w3.org/2000/svg" width="400" height="266"><path d="M302 58l-3 2c-2 2-3 2-6 1l-4 1h-1c-2 0-6 3-6 5l-3 4-3 3c0 2-4 5-7 7l-5 4-2 4c-3 2-2 9 1 12 1 1 1 1 1-1-1-3 1-3 3 0 3 4 4 4 4 1l1-2c4 1 7 0 10-3 4-4 6-4 7 0 0 2 0 2 1 1h1l1 1 5 4 7 5 5 7c1 7 4 8 8 4 3-4 5-4 5 1-1 4-1 4 3 1s6-7 2-7c-2 0-3-2-2-2 1-1 0-3-2-3l1-2c2-2 6-2 8 1 2 2 1 10-2 14-2 3-2 3 0 5l3 4c5 1 5 11 0 21a615 615 0 00-9 23l-7-4-6-4 3-3 13-13c2-1 2-4 3-6 0-5 0-5 2-5 1 1 1 1 1-1l-1-2h-1c-2 0-5-6-5-9h-2c-3 0-4 2-2 4 1 1 0 4-2 4l-3 1-4 1-1 2c-1 2-10 6-10 4l-2 2-2 4-1-5c-1-3-1-4-1-1 0 4-2 9-4 9l-2 3-5 1c-4 0-4 0-4-2s0-3 3-2c3 0 4 0 5-2 0-2 1-4 3-5 5-3 3-4-7-4h-9l2 2 2 3h-2l-11 4c-10 5-11 7-14 17l-4 16c-3 3-3 11-1 11l1 2c-1 3 1 6 3 6 5 0 5 1 5 7-1 6 2 20 5 29v4c-1 1-1 1-1-1l-1-2v-1l-2-9-3-12c0-5-2-7-4-6s-3 5-1 6l1 7c0 7 2 16 3 14 2-2 3 1 3 7 0 4 0 6 2 6l1 3v6c1 2 1 2 1-3l1-6 1-3c0-4 7-14 8-12v5c-1 3-1 3 2 4a578 578 0 0113 2c2 0 3 1 3 5l2 4 1-4c-1-4-1-5 1-5l1-4-1-4 2 3 1 7v3l2 5c1 4 1 4-1 6s-2 3 0 3l2-1h1l13 1h12l4-4 5-5 8 1 13 2a170 170 0 0041 0c3 0 4 1 4 3a1179 1179 0 000-68v15l-4-7-5-7 1-7 2-12 2-8c0-4-7-13-14-18l-9-8c-6-5-20-10-27-10-4 0-9-4-7-7 1-3 2-20 1-30-2-17-13-34-21-33l-2-1-8-3-4-1h-3M126 96c1 1 0 1-3 1-4 0-7 1-7 3h3l3 1 4 1 2 2c0 1 1 1 2-1 2-5 5-4 6 1l1 5c2 1 3 0 2-2v-1h2c1-1 10 0 11 2h-11c0 2 8 3 13 2h5c1 1 2 1 3-1h3c4 1 6-2 6-6-1-5-4-9-5-6l-2 1v3c1 3-1 4-6 1l-7-3 1 1 2 2h-4l-5-2c-3-1-3-1 0-1 2 0 2 0 1-1h-9c-1 1-5 0-7-2l-3-1c-2 0-2 0-1 1m34 23a284 284 0 01-8 9c1 1-2 3-9 7l-1-5v-3c-2 1-2 1-2-1l-1-1-1 1h-15c-1 1 2 3 9 5h-3c-7 0-6 4 1 5l3 2 3 1c3-1 4 0 1 1h-13l-6-1c-2-3-3-1-2 3 1 5 1 5-3 6-3 0-3 1-3 3l-3 6-2 4-1 1c-1-1-3 2-3 4l-1 2h-1l-1 1c-4-1-8 3-5 4v2l-1 2h2l2-1c2 1 7 1 7-1l-2-1c-1 1-1 0-1-2v-3l2 2 2 3v-4c1 2 3-2 3-6s4-8 6-6c2 1 0 7-2 10l-2 2 2 3c3 4 3 4 0 7-2 3-3 5-1 12l1 4 3-7 3-6c2 0 6 7 5 8l-8 13-8 11-4-7-4-7-4 10c-4 14-9 27-10 27l4-15 7-19c1-6 1-6 4-5h3l-3-2-3-4-1-1h-1c-1-3-4-8-8-12-3-3-3-5-3-9-1-5-2-8-6-13-3-4-4-9-1-9a41 41 0 0115 14c2 0-2-6-10-13-8-8-9-11-5-11l2-2c0-2-1-2-4-2-4 0-12 2-14 4-2 1-4 8-4 13l-2 5c-1 0-3 2-3 4-2 4-10 10-12 9-1 0-3 1-4 4-4 5-10 7-14 7-4-1-5-3-5-10l-1-7-7 7-7 7v38l3 1c6 2 16 4 19 3l23-4c2 0 2 0 2 2l-2 10v12l2 7c0 5 3 6 6 2 5-4 15-4 17 1l3 2 1 1v1h1l3-1c2-1 3-2 7-11l4-10-2 10-2 11 11 1c10 0 10 0 10-2l1-4 1-8 1-6 4-1c4 0 4 0 2 1-3 1-1 1 6 1 11 0 12-1 2-2-6-1-6-1 2-1l10 1 2 12v11h3l11-2h9l-2-3c-3-3-3-4-2-7v-10l1-6 4-2 6-3h3c2 3 7 3 8 2 0-3 2-2 2 0 0 1 6 5 7 4a658 658 0 008-21c-2-1-1-5 1-9l1-3c-1-1 4-12 6-14 2-3 2-15 0-18s-12-9-17-10c-4-2-10-6-15-11l-10-7c-5-1-5-1-2-6 1-3 1-4 3-3l-1-3-1-5c1-2 1-2-1 0m-58 14c-3 0-2 3 2 9l4 5 2-4 2-7c1-2-5-5-10-3m-54 10h-5v9l-1-2-1-2-1 2c0 2 0 2-1 1v-6l-3 4-2 11c-1 6-10 4-12-2-1-2-1-2-1 1 0 4 2 7 7 7 7 2 13-2 13-8l4-4 8-11h-5m96 6l-8 3c-2 0-2 1 0 4 2 4 1 9-1 12-2 1-2 1-2-1s-5-2-7 0c0 1-1 2-2 1-2 0-3 2-1 4 1 1 3 13 2 16 0 3 0 3 1 2l4-8 3-6 6-11 6-12c8-9 8-10-1-4m122 12l-6 8-4 6-2 8-3 7c0 2 3 1 4-2l5-7 4-5h4c1-1 3 0 7 2l6 2 2 1c-1 1 4 2 6 1 1-1 2 0 4 4 3 6 3 7-1 9s-4 4-1 10l4 5c3 0 24-22 23-24h-1c0 1-6-3-9-8-6-8-10-11-27-17-11-4-12-4-15 0m-33 57l-4 8c-2 7-8 8-17 5-7-2-7-2-5 0 7 8 6 22-1 25l10 1h13v-7l2-15c6-17 6-24 2-17m-65 12c-3 0-2 2 0 5h3c0-1 3-2 3 0l-2 4-3 4 3 1c4 2 8 8 7 11l-5 2c-4 1-4 1-2 2 3 1 19 0 22-2 2-1-2-3-4-1h-6c-4 0-4-3 0-3 2 0 2 0 1-2-2-2-3-6-3-12 0-2-1-3-3-4l-3-2c-1-1-7-4-8-3m-55 7c-3 0-4 9-1 12l2 2c0 2 3 2 14 3 8 1 9 0 8-9v-8l-10-1-13 1M3 249c-2 1-2 2-2 9v8h3c3 0 3 0 3-8 1-10 1-11-4-9" fill="#d3d3d3" fill-rule="evenodd"/></svg>