<svg xmlns="http://www.w3.org/2000/svg" width="400" height="266"><path d="M59 3l1 10 2 14 2 11 1 13 1 13 1 8v6c2-2 6-21 6-27a74 74 0 016-38c1-1 1 0 1 2 0 4 0 5 3 3h6c2-1 3-4 1-5h-1l-2 1c-1 1-2 0-2-1s3-4 5-4l2-7c0-1-2-2-10-2h-8v6c0 5-4 23-5 23s-3-9-4-19V0h-3c-3 0-3 0-3 3m140 0a216 216 0 00-3 16l2 5 1 4 1 5 1 7v34l5-1c2 0 3-1 1-1h-2l1-36V0h-3c-3 0-4 0-4 3m169 1c1 4 1 4-1 6l-2 5-5 6-8 13-5 9-1 2-4 6-10 21-2 3-3 5-1 6c-1 5-1 5-3 3-2-3-3-3-3 0v3l-1 7-2 9c-1 2 1 4 5 4 2 0 2 0 2 11-1 10-2 24-5 37-1 6 0 21 1 23v3h-1v2l-1 3c0 3-2 6-4 6l1 1 2 2 2 2 1 12c0 7 1 9 2 10s1 1-1 1l-3 1-3 1c-2 0-1 1 3 1 5 0 6 0 6 2l1 1 1 3c-1 2 0 3 1 4l2 2 3 1c6 0 5 2 0 3-13 1-140-1-142-3s7-3 26-2h22l4-3c10-5 18-23 17-34l-1-5h17c18 0 12-2-8-2h-9v-4c1-6 0-12-2-12l-1-3v-2l1 2 1 3v-3c1-2 0-5-1-9-1-3-2-5-2-3l-1 2v6l-1 5c-2 0-1 8 1 9 2 0 2 1 2 2-1 1 0 2 1 2l1 2-1 2v3c3 13-4 31-14 38-7 3-18 3-18 0 0-4 0-4-7-4-4 0-5 0-5 3 0 2 0 3-4 2-3 0-4-1-4-2 0-3 3-6 7-6l13-3 10-4 1-7c0-5 1-6 1-4l1 2 1-2 1-9c1-10 2-11 5-11l2-2 1-3c2-1 2-7 1-10v-20l1-12v-6l-4-4c-3-3-7-6-13-8l-9-4-3-1h-12c-3-2-11-2-12-1s-1-1-2-3l-2-3c-2 2-19 8-24 8l-11 4-7 1c0-2 1-3 4-3 2 0 2 0 1-3 0-2 0-3 2-3l-1-2c-4-1-4-3 0-3l2 2c0 2 0 2 2 1 2-2 1-4-2-8l-2-2-1 2c0 2-1 4-3 4-3 1-3 2-1 3 2 4 1 6-3 8s-4 2-2 3c4 0 4 2 2 8l-2 6-2 3-4 4c-2 1-2 1-4-1-3-3-3-3-4-1-2 1-2 1-1 2 3 2 2 4-3 10-6 6-7 10-3 17 3 7 15 10 21 7 4-3 4-2 5 4 2 15 0 30-5 41l-5 21-2 11-3 9h66v-5c0-7 0-7 13-6 20 0 24 1 24 3-1 2 0 4 1 2 1-1 1 0 1 2l1 4 1-8v-8l3-1a893 893 0 0176 2c1 1 1 2-3 2l-5-1h-1c0 2 1 2 6 2 4 0 5 0 4 1-2 1 0 2 7 3 8 0 8 2 0 2-5 0-10 2-5 2v1c-2 1-2 1 1 1l3 1h3c2 2 5 1 5-1l1-3 1 3c-1 1 0 2 1 2l1-1c-1-1 0-2 1-2 1-1 2 0 2 1 1 1 1 1 1-1s0-2 3-2c5 2 6-2 2-10-2-4-2-4 0-3l4 6 5 7v1l1 1 12-8c0-1 6-3 10-3 8 0 18 8 17 12l1 1V0h-34l2 4M1 84v60h2l7 5c7 7 9 8 14 8 4-1 7-4 5-8-2-6-1-19 2-34 4-20 4-21 9-29 4-6 4-7 5-13 0-10-2-14-14-22L11 34 1 24v60m61 20c0 2-3 7-5 7l-1-3a1981 1981 0 00-5 111l-6-3-15-9-16-12-9-6-2-1c-2 0-2 4-2 39v39h39c34 0 39 0 38-1l3-3c3-1 3-1 1-1-3 0-5-1-5-3l1-1c2 0 1-2-1-2-4-1-4-3 0-4l26-3 1-1c0-2 0-2 2-2l2-2c0-5 2-6 5-2l3 3v-6c1-6 1-8 3-7v5c0 3 0 4 2 4l-1 2c-4 2-3 6 2 6 2 0 3 0 3-2s0-2-1 0c-2 2-3 1-2-1l2-2 3-2c1-1 2-2 3-1 3 0 7-3 10-9 2-6 1-10-2-8l-2-1h-5c-1 2-11 2-12 1-2-1-2-1-3 1-2 2-2 2-3 1s-7-2-28-1l-4 2c-2 2-6 2-13-1-8-3-9-5-10-21 0-17 0-20 6-21 4-1 6-3 1-2l-2-1v-5c3-3 2-4 0-4-2 1-2 0-3-3a586 586 0 012-64m155 22l-3 3 3 3c2 3 3 5 0 3-4-4-5 2-2 11l5 17c3 14 4 13 4-3 0-11-2-20-4-22v-15l-3 3m-35 16l-10 5c-4 0-6 3-7 10l1 6c2 0 4-2 4-5l1-2 3-1 2-1 3-1 3-2 4-2c3-2 5-1 7 3 2 3 5 4 6 3l1-5v-4l3 2c5 4 6 1 1-3-3-3-12-8-15-8l-7 5m73 113h-1c-1-1-1 0-1 5s0 6 1 4l1-3v2c2 6 3 3 3-4v-3h9l19 1c8-1 7-2-3-2l-27-1c-2-1-2-1-1 1m-52 3l1 2 1 3c0 2 1 3 2 3l1-2c0-3 0-3 6-2 17 1 22 1 22-2 0-2 0-2-5-2a398 398 0 01-28 0m57 3c0 2 1 2 14 2l15 1 1 1h1l2 1 1-1c-1-1 2-1 6-1 8 0 9-1 1-2l-4-1h6c8 0-14-2-32-2-11 0-11 0-11 2" fill="#d3d3d3" fill-rule="evenodd"/></svg>