<svg xmlns="http://www.w3.org/2000/svg" width="400" height="267"><path d="M230 5l1 8v4h16l22-1h6V8c0-10-2-11-2-1v7h-40V7c0-6 0-7-2-7l-1 5m7-4l1 2v1c-2 1 0 4 3 4h15c8 1 11 0 12-3l-1-3-2-1-2 1-1 2-1-1h-1l-1-1 1-1c1-1 0-1-2-1-3 0-4 0-4 2l-1 2c-6 1-6 1-6-2V0c-3 0-5 1-5 4l-2 2V3c-1 0-1-1 1-2 1-1 1-1-1-1l-3 1m145 1c-1 2-6 3-6 1a246 246 0 01-46 5c-3-3-3 1-3 44l2 46c3 2 3 6 0 6h-6l-5 2c-2 0-1-5 1-9v-4h-1l-1 2-2-2c0-3-3 1-5 9l-4 19a72 72 0 01-3 21l-1 2-4-18c0-7-2-11-5-15l-2-2-3-5-6-8c-2-4-2-5 0-5 3-2 2-3 0-3s-3 0-2 2-1 1-2-2c-3-6-2-10 3-13l6-3 3-2 2 3 5 5 3 2 3 2 2 1c1 1 3 1 3-2l-2-1v-1h3l-2-2-1-1c3 0 2 0-1-6-3-5-3-6-3-2-1 3-9 4-10 1-1-4-12 0-16 5l-2 1c-1-1 6-10 10-12l7-2h3V47l-1-20v-7h-41l-40 1-1 5c0 7 0 6-2 5l-2-1c-1 0 0 3 1 2l2 2 2 4 1 2v4l1 4-2-2c0-2-3-3-5-1h-1l-2 2c-1 2-1 2-4 1l-3-1 2 2c3 1 4 2 2 4h-2c0-2-5-6-6-6l-2-2 1-2 2 1c-2 2 3 2 5 0s2-3-1-1h-2l1-1 1-1c0-3 2-4 4-2h1l-1-2-1-2v-3l-1-2c1-3 0-3-2 0-2 4-3 6 0 4v2c-1 3-8 7-14 7-2 0-4 0-3-1l1-2c0-3 1-3 3-1 1 2 2 2 2 1 1-1 0-3-1-4v-3h2c-1 1 2 2 3 1l-1-1c-2-1-2-2-1-3v-2l-1-2-2-1-3 1v1c1 2 1 4-1 4l-1-2-1 1c-1 3-1 3 2 3 2 0 2 1 0 2h-3c-2 0-2 1-1 2 0 3-1 6-3 6-1 1 0 1 3 1l4 1-2 1h-3l-4 3c-3 1-3 1-2 3 2 1 1 3-1 1l-2 3-1 2c-1 0 0-6 2-7v-3l1-2c1 1 1 0 1-1l2-2 1-1 1-2c2 0 2-1 1-2v-4c2-1 1-2-3-1s-6 2-9 5l-3 2-2 2c-1 2-1 3-3 2v-3l1-2-4 4-2 5v2l-1 2h-3l-1-2h-2s2-3 4-3l4-4 2-4 1-2h-1l-4 1c-5 0-5 0-4 2h2c0-1 3-2 3 0l-3 2-1 1c-1 1-1 1-4-2l-3-2c-1 2 1 5 2 4l1 1-1 1-2 1h-1l-1-2-1-2c0-2 0-2-1 0-1 1-1 1-1-1-1-4-3-4-3-1l-2 10v3l1 3c1 2 3 3 3 1h3c0-1 1-2 3-2 3-2 3-3 0-4l-2-1 2-1c1-2 2-2 2-1h1c1-1 1-1 1 1-2 6-2 8 0 7l1 2c-1 2-1 3 1 3l1-1c0-2 2-1 2 2 1 4 0 6-1 4-1-1-1-1-1 1v3c-1 1-1 0-1-1h-1c-1 3-2 4-3 3h-2c-1 3 2 4 4 2l2-2v2l1 2 1-4c0-1 0-2 1-1l1-1h2l1-1c0-1 0-2 1-1l1-1c0-3 4-3 4-1s0 2 1 0c1-3 1-3 1-1s0 2 1 1l1 3c1 5 2 6 4 3l2-2h1l1-2 1-1 2 3c1 2 1 2 1-1s3-8 4-6l2 3c2 1 2 1 2-4l-1-5 3 3c3 3 4 5 2 5l-3 9 1 2 1-4c0-4 1-7 3-5v4l1 4c1 1 1 1 1-1l1-2v-6l1 1h1l1-3c-1-3-1-3 1-2 2 2 3 0 1-2v-2c2-1 5 1 5 4l1 1 1 2 1 1 1 3c0 2 0 3 1 2l3-5 2-3v4c0 3 0 5-2 6l-2 2h1l1 1 1 1c2 1 5 11 3 17l-1 8c0 3 0 4-2 4s-2 0-2-2c1-2 0-2-2-2l-2-1 3-1c3 1 3 1 5-5 0-2-5-1-7 2-2 2-3 1-2-1 0-2 0-2-2 1l-5 3-2 2h3c3-1 3-1 3 2 0 4-1 6-4 6-1 1-2 2-1 4 0 3 0 3-2 3-4-1-4 0 0 3l2 3 2-2 2-2-1 3c-2 2-2 3 1 1v2l-1 16c0 12-1 14-2 14l-3-2c0-3 0-3-2-2v4l1 1c0 3 10 2 18-2l10-3c4 0 6 4 6 7-1 2-1 2 5 1l9-1c3-1 4-4 1-4s-2-2 1-3l3-4c0-2 3-4 6-3h3c3-2 12 0 12 2 0 3 3 5 6 4l1 2-2 5c0 4-1 4-3 3h-11l-3 1a264 264 0 0121 2h8v-2c-1-2 0-5 1-7 2-4 2-4 6-3h5c0-2 3-1 5 1s2 2 5 1l5-1 7-3 5-3c2 0 8-10 12-18 2-4 2-4 2-1 0 2 1 1 4-6l4-9c0-2-3 1-5 6l-2 4v-5c1-7 4-10 10-13 4-2 4-3 4-5s0-3 1-2l3-2c2-2 5-2 6 1l2 3v4l-1 7 4-5 10-7 5-4v-3l1 3a1552 1552 0 009 12c-2-3-9-1-15 4-5 5-7 8-3 7 8-2 8-2 7 0l-1 3c-2 2-4 10-3 12 0 3 0 3-3 3-2 0-3 0-2 1 2 0 2 0-1 5-3 6-5 8-8 8l-1 2h-2c-1-1-2 0-2 2 0 3 1 4 3 2l1-1h2c2-3 4-2 5 2l1 3v1l-1 2c2 2 0 4-2 3h-4c-2 0-2 0-1 1 0 2 2 2 2 1l6 1 18 1h12v4c-1 5 0 5-15 5-6 0-9 0-12-2-5-2-6-2-6 3 0 3-2 4-3 0 0-3-2-3-5-2l-8 2h-5c-1 1-4 0-6-1-5-2-5-3-2-2 5 1 5-1 1-3l-6-2-1 1c-2-2-10-2-10-1 0 3 3 4 8 4 3 0 4 0 3 1 0 2-7 2-8 1h-3c-2 0-1 4 1 4a954 954 0 0074 5h3v-2a17387 17387 0 010-179l-7-1c-6 0-7-1-7-2l-1 4-1 7V6c0-6-1-8-2-4M17 20l-7 1H2L1 56v34l6 7a265 265 0 0116 18c2 0 1 2-2 4l-4 3-2-3-12-13c-2-1-2 2-2 80v81h94l1-7c4-15 4-15 9-17l6-2 8-3 12-4 12-3c11-2 15-4 11-7-1 0-1-1 3-3l6-2 4-1 8-2 8-4 2-3h-7c-6 0-6 0-5-2l6-1c4 0 10-6 6-6h-2l-4-1c-4 0-2-2 5-3l10-3c4-2 4-2 2-4l-3-2c-1-1-1-1 1-2 4-1 4-2 2-4-2-1-8-1-10 1h-1c-3-1-14 4-17 7l-4 2-2 1-3 4-4 2c-1 1-18-4-19-5l2-7 2-6-1 1-2 1c-1 0-4 2-7 6s-5 6-8 6c-3 1-3 1-3-3 0-3 0-4 2-5 2 0 3-2 0-5-1-2-1-2 2-6 4-3 5-3 10-3s6-1 4-4-3-4-7-4l-4-1c0-2 3-3 8-3s6 0 8-3 3-3 6-2l6 3 5 2 3 1h21l-2-2-3-2c-1-1-1-1-2 1-2 1-6 0-8-2-1-1-1 0-1 1 0 2-2 3-4 0-3-2-2-4 1-6 2-2 3-2 6-2 3 1 5 1 7-1 3-1 3-2 2-6-2-4 1-2 3 2 2 3 4 5 6 5v-5c0-3 0-4 1-3 2 1 3-2 1-4-2-1-3-4-1-3 2 0 2 0 1-3v-2l1-1-1-1-1-3h2c1 2 2 2 2 1 1-2-2-5-2-4l-2 1c-2 0-4-16-3-19 0-2 0-3-2-5-3-3-5-3-3 0 2 2 2 2-1 4-3 3-5 4-9 4l-4 1-5 2c-5 1-7 5-8 16l-2 1-2 1-4 8-1 2-1 1-3 4v4l-3-2-4-2c-1 0-7-6-9-10l-7-14-4-6 2-1c2-1 2-1-2-1h-4v-3c1-5 4-9 6-9 2-1 2-1 1-3-2-1-2-3-2-7l-1-3c-1-1-2-2-1-3 0-3 0-3-4-4h-4l-1 1h-3l-1 1c-1 1-2 1-3-1-2-1-2-1-2 2l-1 5-1 5-1 3-1-4v-5c-2-2-2-3-2-7l-1-2-1-1-2-2c-5 0-5 0-4-1l3-1 2-1c0-1-2-2-6-2-2 0-2 0-1-2 2-3 1-6-1-9-1-1-2-2-3-1l-1 4h-6c-7 0-10-2-8-4v-4l-1-9-2-9-2-3-3-3c-1 0-6 8-6 10 1 3-1 3-2 1-2-2-2-2-2 0s-2 5-3 4l-1 1-1 1c-2 0-5-4-3-5v-7c-1-6-1-7-5-9l-5-4-4-1-3 1m73 4l-1 1c0-1-2 0-3 2-3 2-3 2-1 2v1l-1 2-2 1-1 3c0 3 0 4-2 4l-2 2c0 5 0 6 1 4 1-1 1-1 2 1h1l1-1v3l-1 2-1 3c1 4 1 4 4-1l6-7c4-3 4-3 5-1 2 3 3 2 2-3 0-4-1-6-4-6-2 0-2-1-2-2v-4l-1-1c0 2-5 8-6 7l2-2v-2c-1 0-1-1 1-1 2-1 2-2 2-4l1-1 1-1-1-2v1m40 4l-3 2-2 1-6 2h-2l3 2 5 7 5-5 1-1c1-1 0-1-1-1l-2-1h2a6008 6008 0 004 1c0 2 4 4 6 3l-1-1c-2 0-3-3-1-3 1-1 0-1-1-1-5 0-8-2-6-4l1-3-2 2m207 37v14l-1 7c2-1 2 0 3 5 0 7 2 10 4 8h2c1 1 2 1 4-1v-3c-1-1 5-13 6-12 2 0 5-3 4-4l-3 2v-1c0-3 0-3-3-3s-4 0-5-2l-3-4c-2 0-3-2-3-2 0-3-4-5-5-4M144 85l-5 3-12 1c-9-1-11 0-11 1h6v8c1 0 3-3 3-5l1-2a585 585 0 0014-1c0-4 16-6 23-4 6 2 7 2 4 0-5-2-18-2-23-1m154 9l-1 1h-1l-4 3c-5 2-6 4-2 3 3-1 3-1 2 1-2 2 0 2 2 1 3-2 4-2 4-1l-3 4-2 2h4l5-2 6-11c0-2-3-3-5-1-1 2-2 2-4 0h-1m-260 7c-5 2-3 6 3 8 5 2 7 4 5 7l1 3 2 6 2 6 6 27c1 3 3 6 5 5l-1-12c-2-15-1-31 1-35l2-4-3-3c-4-3-6-4-8-2l-6-3c-5-4-5-4-9-3m313 8l-6 14-6 19c-2 13-2 12 3 12 3 0 4-1 4-4 0-10 0-10 1-7h3c2-2 2-3-1-2-3 0-3-1 1-5 4-5 9-14 9-17l-4 4c-5 6-5 6-3 0v-5l1-1c1 0 2-6 1-9l-2-3-1 4m10 10c-2 5-5 25-4 26 2 1 6-10 6-14l1-12c2-9 0-9-3 0m-26 20l-2 4c-1 1-2 2-1 3s1 1-1 1c-4 0-6 1-5 2l-2 1c-2 0-2 0 0 1 1 2 1 2-1 2-6 2-6 2 0 1l11 1c2 0 2 0 2-8v-9l-1 1m-43 23v3l1 2h-2c-3 0-4 1-2 2l15 1h13v-3c0-2 0-3-1-2h-18l1-1v-1h-2l-3-1h-2" fill="#d3d3d3" fill-rule="evenodd"/></svg>