<svg xmlns="http://www.w3.org/2000/svg" width="388" height="300"><path d="M61 86c-2 2-2 1 9 70 9 61 11 71 13 69l20 1c15 1 27 1 101-1 95-1 109-2 82-3-17-1-17-1-17-4L245 94c-1-4-4-4-48-6a167643 167643 0 01-136-2m4 11l10 61 8 57h18l15-1c-5 0-3-2 3-2l6 1h-2l-2 1 17 1a5210 5210 0 0191-3c-7 0-6-2 0-2 4 0 5 0 5 2h30l-9-46a12874 12874 0 01-13-59l-2-2 2-1v-4l-1-3-49-1a16279 16279 0 01-116-3H65v4m63 12l1 2 3 1h2l-2-1c-2 0-2 0 0-1h2l-2-1c-2-1-2-1 0-1l3 3c2 2 4 3 4 0l1 1h18l1-2c1-1 1 0 1 1 0 3 12 3 12 0l1-2v2c0 2 0 2 4 1 2-1 2-1 4 1s5 1 5-2c0-2-1-3-8-3h-10c-3-1-3-1-3 1 0 4-3 4-3 1-1-3-3-4-3-2h-8c-2-2-9-1-9 1l-1-1h-4c-2-2-9-1-9 1m-35 17c0 2 2 2 95 4 37 0 37 0 37-2s-9-2-87-4c-45 0-45 0-45 2m25 34l-2 1a545 545 0 018 18l3 2 2-2c2-5 3-4 3 3-1 7-1 8 6 12l3 4-6-1c-1-2-2 0-2 8 0 9 0 9 6 8l5-1h-5c-5 0-5-2 0-2 3 0 4 1 5 2 0 1 6 2 6 0h-2l-2-1c0-2 6-1 6 1h1l2-2h2l-31-50h-8m53 7c-3 1-7 7-7 10 0 5 4 13 9 18l4 6c0 1 4 3 11 5 6 2 9 4 6 4l-2 1 6 1h7l-5-1-3-1 2-1h3l3 2 7 1 7-1-2-1h-2c-1-1 0-1 1-1 2 0 2 0 0-2l-10-3c-9-1-11-2-9-5 1-3 0-12-2-14h-3c-2 1-2 1-2-1-1-1-1-1-2 1l-1 1v-3c1-3 2-3 4-1 3 2 3 1 1-3-2-3-2-3-12-1-3 0-3 0-3-2s3-4 5-4c4 1 5-1 2-4-2-2-9-3-13-1m166 61c-1 1-12 2-113 4-76 2-70 3-70-1 0-1 0-2-1-1l-1 2c0 2 0 2-5 2-28-3-64-5-62-2l31 2c36 4 44 4 139 1a14216 14216 0 0189-4c2 0 3-2 0-2l-2-1c0-2-3-2-5 0" fill="#d3d3d3" fill-rule="evenodd"/></svg>